<svg version="1.1" xmlns="http://www.w3.org/2000/svg" viewBox="0 0 872.2538186081683 712.612244897959" width="2616.761455824505" height="2137.836734693877">
  <!-- svg-source:excalidraw -->
  
  <defs>
    <style>
      @font-face {
        font-family: "Virgil";
        src: url("https://excalidraw.com/Virgil.woff2");
      }
      @font-face {
        font-family: "Cascadia";
        src: url("https://excalidraw.com/Cascadia.woff2");
      }
    </style>
  </defs>
  <g stroke-linecap="round" transform="translate(289.76198322623986 42.612244897959044) rotate(0 110 60)"><path d="M0 0 C0 0, 0 0, 0 0 M0 0 C0 0, 0 0, 0 0 M-0.6 6.36 C0.89 4.27, 2.14 2.77, 4.63 0.4 M-0.64 6.2 C1.21 4.34, 3.13 3.13, 4.75 -0.01 M1.21 11.46 C2.35 8.95, 6.47 6, 11.62 0.64 M0.08 12.26 C3.96 8.07, 6.61 4.52, 10.58 0.45 M-0.14 19.88 C5.32 15.63, 8.64 8.69, 15.43 0.72 M0.37 18.21 C6.49 11.56, 11.76 4.24, 15.39 -0.04 M1.6 24.35 C6.82 14.02, 15.34 7.26, 22.13 -1.18 M0.89 24 C6.41 18.27, 10.88 11.33, 20.43 0.86 M-0.43 30.46 C8.25 21.67, 17.89 9.72, 25.14 1.68 M-0.15 30.53 C8.68 21.92, 15.86 10.53, 26.54 1.2 M-0.44 36.12 C5.59 27.54, 16.93 20.27, 33.6 -0.18 M0.14 37.3 C10.12 24.69, 21.33 11.62, 31.17 0.01 M-0.8 43.73 C9.36 30.29, 19.72 21.06, 38.32 1.86 M-0.65 43.13 C7.98 33.77, 13.95 25.38, 36.14 0.9 M0.92 50.51 C12.85 34.63, 26.22 20.3, 41.94 -1.49 M0.85 47.98 C14.06 31.76, 28.53 16.79, 42.92 0.52 M1.51 53.28 C17 35.56, 32.08 21.91, 48.67 0.68 M0.42 54.06 C14.46 39.63, 26.83 25.09, 48.42 0.07 M1.82 62.56 C11.09 47.47, 22.8 36.61, 54.4 -0.49 M0.03 61.38 C15.18 43.56, 30.43 25.98, 52.26 -0.31 M0.24 67.36 C15.04 48.47, 29.15 34.79, 56.47 0.47 M0.45 66.93 C19.22 45.11, 38.93 22.67, 58.56 0.02 M1.7 73.47 C13.32 57.71, 27.03 39.96, 63.81 -0.64 M0.31 72.4 C20.83 50.45, 39.78 26.88, 63.23 0.6 M0.64 79.85 C21.06 55.81, 42.16 31.25, 70.63 0.45 M0.2 78.9 C17.99 60.7, 34.94 40.97, 69.71 -0.62 M0.55 85.35 C28.01 56.48, 52.34 24, 74.61 0.48 M0.26 85.2 C16.43 67.47, 31.72 48.73, 74.32 -0.85 M1.63 92.84 C26.42 63.72, 47.49 34.12, 78.61 -1.23 M0.96 92.16 C21.42 67.11, 43.57 42.1, 79.96 1.06 M0.34 95.97 C25.13 69.74, 49.64 45.65, 84.83 1.22 M-1.25 97.01 C25.43 68.37, 50.64 40.89, 85.47 -0.98 M0.36 103.52 C33.7 65.9, 68.94 22.69, 88.5 -1.54 M0.11 103.97 C29.45 69.19, 60.06 33.83, 89.35 -0.74 M1.57 109.72 C18.53 86.63, 39.94 65.21, 96.08 -2.18 M0.59 110.09 C27.62 76.42, 54.89 44.9, 95.08 -1.3 M1.57 115.03 C27.4 85.85, 49.83 57.76, 98.95 1.48 M-0.52 116.37 C38.56 73.72, 74.98 29.79, 100.88 0.49 M2.04 119.45 C42.35 74.72, 83.67 28.11, 107.58 -1.56 M0.2 120.52 C28.34 89.04, 56.08 55.14, 107 0.45 M5.51 119.59 C41.25 79.85, 75.11 43, 113.23 -1.32 M6.26 120.4 C44.95 75.71, 83.21 32.73, 111.51 0.55 M9.31 120.31 C35.76 93, 60.26 62.92, 117.49 1.89 M11.16 121.09 C44.28 83.17, 79.74 42.42, 116.88 0.12 M16.8 119.66 C39.88 95.7, 61.53 68.13, 121.2 -0.18 M16.88 120.22 C48.22 86.22, 77.73 50.63, 121.12 -0.45 M22.52 120.26 C61.04 73.87, 103.59 28.12, 127.5 0.62 M20.98 120.78 C51.19 86.05, 81.49 52.26, 127.79 1.06 M26.37 121.35 C52.36 92.71, 79.1 62.78, 133.3 -0.42 M27.94 121.54 C49.58 97.22, 70.74 71.23, 131.6 0.87 M31.26 120.84 C54.37 95.97, 75.81 70.25, 136.98 -0.73 M32.94 120.56 C55.25 97.06, 77.58 70.96, 137.27 -0.3 M37.34 119.41 C66.88 84.57, 98.27 52.14, 142.58 -0.47 M39.09 121.6 C74.73 78.82, 109.57 37.19, 143.74 0.21 M43.67 122.51 C83.17 73.21, 126.33 27.46, 147.5 1.6 M43.29 121.67 C74.27 84.34, 105.22 50.19, 148.99 -0.49 M50.42 120.49 C87.93 77.98, 124.86 33.94, 154.67 -1.86 M49.43 121.42 C71.21 95.37, 93.28 68.87, 154.31 0.57 M52.54 122.62 C81.79 86.31, 112.72 55.24, 160.25 1.31 M54.24 120.68 C88.95 82.31, 123.12 41.15, 159.07 0.75 M57.94 121.16 C86.31 93.67, 110.47 63.61, 165.8 0.82 M58.52 120.84 C92.17 83.38, 124.89 45.01, 165.02 -0.78 M65.21 121.43 C97.74 83.34, 128.5 49.17, 170 -0.01 M64.94 120.42 C94.71 86.02, 125.81 50.5, 169.07 -0.52 M69.78 121.87 C93.48 93.05, 116.34 64.49, 176.8 -2.16 M69.35 121.47 C93.19 93.85, 116.73 66.47, 175.55 0.76 M73.62 120.11 C102.81 92.61, 127.71 63.16, 179.12 1.12 M74.5 121.06 C109.55 80.47, 144.04 41.59, 181.02 0.56 M79.44 121.01 C123.23 75.96, 161.61 26.04, 187.07 -1.59 M81.38 119.73 C110.9 86.68, 141.52 53.36, 186.52 0.06 M84.33 122.74 C119.04 84.34, 150.37 46.21, 191.59 0.12 M84.98 121.02 C122.67 77.89, 160.85 34.18, 190.39 0.63 M90.01 120.84 C128.24 81.19, 160.26 44.64, 196.65 0.63 M91.54 119.85 C127.49 81.36, 160.45 40.71, 196.5 -0.71 M96.47 122.3 C124.11 89.02, 153.46 57.56, 202.96 -1.7 M96.39 120.06 C131.24 79.9, 165.9 40.31, 201.1 -0.83 M100.18 121.56 C141.24 73.19, 182.88 25.26, 208.12 1.52 M101.18 120.83 C141.66 74.78, 179.54 29.73, 207.03 -1.05 M107.77 122.67 C144.36 80.96, 178.34 41.44, 210.37 0.86 M107.7 120.2 C136.36 85.76, 165.87 50.51, 212.55 -0.6 M113.57 120 C140.44 88.69, 168.68 57.06, 216.7 -1 M112.47 120.23 C146.85 81.98, 180.68 44.59, 217.59 -1.22 M116.55 120.64 C143.82 88.84, 168.98 58.77, 221.27 0.44 M117.83 120.78 C151.94 82.49, 186.45 44.48, 221.25 0.88 M123.35 120.66 C140.8 97.46, 163.23 75.55, 221.6 5.44 M121.99 120.17 C144.3 97.35, 167.75 72.06, 222.06 6.42 M127.74 119.92 C150.66 95.11, 171.87 71.04, 222.11 13.12 M128.65 121.43 C155.72 90.39, 180.68 60.18, 220.62 14.52 M134.34 122.19 C166.39 83.4, 198.99 46.3, 219.84 19.54 M133.81 120.78 C154.66 98.02, 174.44 73.64, 221.43 20.21 M138.83 121.12 C155.35 99.2, 174.39 81.53, 220.03 25.27 M138 121.08 C155.77 102.18, 171.77 81.56, 221.58 26.39 M143.6 120.4 C169.79 93.09, 194.04 60.79, 219.68 30.18 M143.1 120.29 C167.28 93.84, 192.19 66.16, 220.35 32.03 M149.94 119.74 C176.28 90.12, 201.74 58.61, 222.54 37.74 M148.64 120.95 C169.42 99.81, 188.22 77.13, 221.33 36.91 M153.77 123 C174.62 98.15, 195.82 75.45, 220.01 45.39 M154.51 120.68 C168.87 103.4, 185.44 86.4, 221.42 43.33 M161.77 120.2 C173.68 102.73, 189.71 83.06, 220.76 49.27 M159.31 121.57 C178.23 99.05, 195.7 78.86, 221.5 49.33 M167.1 119.62 C187.61 96.66, 205 74.48, 220.34 54.36 M165.11 120.74 C187.23 95.64, 209.45 69.79, 222.22 56.14 M169.6 121.83 C184.3 105.36, 194.13 92.13, 222.76 63.26 M171.71 119.75 C181.2 107.06, 193.17 94.12, 220.56 63.42 M175.44 119.79 C185.51 108.94, 197.61 93.33, 221.43 66.47 M175.44 121.08 C187.98 104.72, 202.25 90.76, 220.96 68.98 M181.33 120.87 C193.49 109.6, 202.53 96.42, 222.15 74.77 M181.46 119.6 C191.87 110.79, 199.8 98.52, 221.35 75.51 M186.21 118.94 C195.61 111.61, 205.24 97.91, 222.63 81.96 M186.49 121.07 C197.68 106.65, 211.29 94.59, 222.79 80.73 M191.43 120.43 C199.35 111.14, 208.18 100.98, 220.18 85.01 M191.15 119.55 C198.65 114.14, 205.34 105.34, 222.24 85.96 M196.45 120.41 C203.5 114.73, 211.85 105.52, 223.24 94.77 M196.71 119.91 C204.09 112.81, 211.68 105, 222.18 92.27 M202.98 120.58 C205.6 113.55, 211.31 109.38, 222.35 100.36 M203.35 121.29 C207.99 113.4, 215.72 106.78, 220.68 99.21 M206.76 121.44 C210.76 116.96, 216.94 109.03, 223.11 103.46 M206.98 121.58 C211.6 116.14, 214.11 113.75, 220.48 104.54 M213.52 120.33 C215.04 118.98, 217.62 116.35, 223.06 110.95 M213.44 120.71 C216.34 116.7, 220.22 112.58, 221.66 111.18 M218.54 120.42 C218.79 119.54, 220.46 119.16, 221.34 117.24 M218.12 120.59 C219.02 120.07, 219.63 119.51, 221.42 117.31" stroke="#4c6ef5" stroke-width="0.5" fill="none"></path><path d="M0.85 1.63 C87.41 1.56, 175.84 0.53, 220.92 -0.01 M-0.43 0.05 C60.05 -0.56, 121.85 -0.07, 219.98 0.68 M220.9 0.62 C222.69 37.24, 222.55 76.29, 219.31 120.16 M220.63 0.93 C220.77 29.27, 221.59 55.65, 219.86 119.72 M219.06 118.44 C148.43 118.93, 80.22 118.71, 0.88 120.29 M220.61 120.77 C136.77 118.59, 54.76 118.25, -0.14 120.47 M-0.55 119.58 C-0.98 92.18, 1.36 65.46, -1.77 0.93 M-0.18 119.78 C0.18 86.97, 0.08 56.72, -0.09 -0.18" stroke="#000000" stroke-width="1" fill="none"></path></g><g stroke-linecap="round" transform="translate(289.3670518643221 402.61224489795904) rotate(0 110 60)"><path d="M0 0 C0 0, 0 0, 0 0 M0 0 C0 0, 0 0, 0 0 M-0.3 6.08 C1.34 3.55, 3.57 1.5, 5.03 0.29 M-0.46 6.33 C0.97 5.03, 3.05 2.71, 4.62 0.13 M-0.45 11.59 C2.16 10.58, 4.33 7.95, 11.3 -0.12 M0.35 12.69 C2.14 9.46, 4.59 6.4, 11.11 -0.48 M1.31 20.19 C7.43 12.82, 10.85 4.58, 16.01 2.08 M-0.35 19.05 C5.61 11.7, 10.91 5.26, 15.25 1.16 M0.53 22.62 C6.01 15.41, 15.06 9.72, 20.15 -1.13 M0.19 25.03 C6.6 17.05, 11.82 8.88, 22.19 0.45 M-0.01 29.47 C9.54 21.02, 15.96 11.6, 27.64 0.54 M0.06 30.76 C7.14 22.57, 11.45 16.4, 27.16 -0.27 M-1.01 34.92 C9.54 26.83, 21.4 15.4, 31.81 0.51 M0.16 36.74 C10.62 24.78, 20.58 11.2, 32 -0.5 M1.35 41.78 C6.56 33.93, 16 26.53, 38.48 -1.66 M0.75 43.28 C14.53 25.3, 29.32 8.6, 37.52 0.36 M1.47 48.74 C14.3 33.12, 28.7 17.06, 41.17 0.58 M-1.06 48.76 C11.84 34, 25.94 19.9, 43.18 0.01 M-1.01 56.01 C8.9 43.82, 22.88 31.18, 47.97 -0.2 M-0.23 55.47 C13.69 39.46, 27.45 25.12, 47.35 -0.68 M1.61 60.29 C10.24 47.86, 23.09 36.74, 52.84 -0.55 M0.44 61.57 C18.92 39.8, 37.7 15.92, 53.01 -0.65 M-0.25 68.44 C19.75 42.4, 44.98 14.99, 58.42 0.85 M-0.67 66.92 C13.44 51.09, 27.01 36.04, 57.97 -0.64 M0.62 72.64 C22.58 47.04, 42.46 22.57, 63.35 0.11 M-0.46 73.34 C17.51 52.78, 33.83 33.73, 64.59 -0.13 M0.34 79.66 C23.71 52.82, 46.55 28.01, 69.06 -0.96 M-0.62 79.9 C14.51 63.8, 28.04 48.13, 68 0.67 M0.59 86.44 C21.82 61.5, 39.41 38.96, 75.13 -1.87 M0.43 85.7 C29.62 52.3, 57.75 19.97, 73.81 -0.14 M1.41 93.13 C23.98 62.18, 45.96 36.54, 78.04 -0.53 M0.74 90.9 C17.68 70.79, 34.72 50.72, 80.34 -0.1 M-2.12 98.69 C17.44 78.06, 39.04 54.97, 86.54 -0.32 M-1.08 97.49 C19.65 75.07, 41.44 52.93, 84.34 0.58 M0.19 102.14 C27.48 73.97, 49.04 44.53, 88.4 0.86 M0.64 102.6 C30.15 69.09, 59.12 35.44, 89.2 -0.86 M-0.27 109.72 C35.72 68.75, 73.36 25.71, 93.8 -0.48 M0.1 110.74 C36.26 65.95, 74.64 21.67, 94.68 -0.78 M-0.21 116.57 C24.27 84.89, 49.8 57.05, 102.08 1.52 M1.13 115.63 C25.97 87.43, 49.45 60.68, 101.1 0.95 M-1.04 120.96 C27.59 90.51, 54.32 62.08, 105.09 -1 M0.03 121.45 C40.22 76.28, 78.06 32.05, 107.1 -0.06 M5.14 122.12 C44.46 76.63, 86.65 32.57, 109.95 1.35 M5.95 120.82 C36.26 85.24, 68.34 50.25, 111.82 -0.66 M10.49 120.87 C39.92 88.88, 66.72 57.13, 117.79 0.84 M11.26 120.48 C46.53 82.91, 78.93 43.38, 116.02 -0.4 M15.87 121.37 C59.57 72.89, 99.6 26.42, 121.76 -0.15 M16.43 121.19 C49.3 83.98, 80.43 48, 121.48 0.76 M21.1 119.39 C42.34 96.7, 64.19 70.95, 127.19 0.06 M21.62 121.06 C58.98 79.06, 97.34 36.37, 127.62 -0.25 M28.22 119.26 C52.5 94.01, 75.43 67.52, 132.18 -1.9 M28.42 120.54 C57.73 86.8, 85.26 53.94, 133.47 -0.87 M32.35 120.75 C72.92 75.17, 112.52 31.71, 136.5 -1.45 M32.06 120.53 C57.52 93.5, 80.25 66.96, 136.93 0.17 M36.95 120.05 C74.78 78.01, 115.04 32.81, 142.8 0.79 M39.14 121.32 C71.41 80.41, 104.97 42.88, 143.48 0.82 M44.68 120.74 C80.26 79.07, 119.55 32.98, 149.5 0.04 M43.84 120.7 C62.97 96.23, 85.42 71.65, 147.4 0.81 M48.7 122.61 C80.86 84.95, 111.38 47.41, 152.08 -1.8 M49.63 120.94 C86.72 77.24, 123.23 35.58, 154.5 -0.37 M55.46 120.76 C90.21 79.9, 130.27 36.02, 159.87 0.86 M53.51 120.83 C82.24 88.79, 108.03 58.8, 159.31 -0.4 M60.03 122.39 C90.52 88.78, 118.35 55.23, 165.41 0.19 M59.71 120.74 C98.89 77.18, 137.07 34.28, 163.82 -0.15 M64.93 121.82 C87.31 92.74, 113.7 65.4, 169.21 -0.08 M63.92 120.62 C90.64 90.48, 116.36 58.67, 168.7 -0.59 M71.41 121.41 C106.44 78.36, 141.85 36.67, 173.1 -1.76 M71.01 121.04 C107.04 79.54, 143.42 36.66, 176.02 -0.8 M74.28 122.5 C97.95 97.53, 119.56 69.65, 181.01 0.74 M75.22 121.24 C108.97 81.95, 144.46 42.73, 180.44 1.07 M81.21 122.33 C117.31 81.42, 148.43 44.6, 184.33 -0.61 M79.94 120.11 C102.66 95.43, 125.11 70.37, 185.98 -0.15 M87.57 120.99 C109.62 93.8, 132.08 68.6, 190.68 1.42 M85.85 120.3 C124.66 77.48, 162.79 34.34, 191.19 0.36 M91.71 122.37 C112.65 96.48, 136.58 72, 197.22 0.3 M90.71 121.17 C114.65 93.35, 136.35 68.22, 195.88 -0.56 M97.79 121.07 C135.5 77.87, 175.01 34.15, 199.51 0.66 M95.55 120.87 C122.76 88.99, 150.66 56.52, 200.38 1.01 M103.09 119.35 C138.97 78.2, 175.36 37.13, 208.78 1.22 M102.36 121.37 C139.27 77.38, 177.21 34.86, 206.2 0.05 M108.82 122.09 C130.45 94.24, 154.19 66.23, 212.74 -0.24 M106.35 120.47 C138.84 81.74, 170.66 45.42, 211.28 -0.3 M110.79 122.44 C148.69 79.35, 186.15 34.15, 216.92 -0.01 M111.02 121.6 C133.33 95.99, 156.53 69.56, 216.7 -0.78 M117.46 121.03 C151.3 79.85, 186.8 40.42, 220.16 2.09 M117.6 120.08 C140.37 95.29, 163.26 70.31, 220.61 0.59 M122.11 119.16 C152.89 85.83, 184.83 50.49, 219.91 5.58 M121.61 120.43 C148.11 94.91, 172.05 66.54, 220.9 6.49 M127.41 122.45 C161.68 82.92, 196.64 42.65, 220.94 13.22 M128.91 121.12 C148.47 95.95, 168.87 72.59, 222.34 14.32 M134.3 121.85 C165.97 83.54, 199.38 44.03, 222.11 18 M132.9 121.64 C163.47 86.47, 192.36 53.7, 222.78 18.27 M139.27 120.5 C163.6 91.71, 192.28 57.43, 221.18 23.63 M139.23 120.48 C159.16 97.84, 177.41 75.89, 222.29 25.87 M143.18 122.72 C175.41 86.62, 202.73 48.98, 219.43 32.11 M143.07 120.22 C160.72 102.52, 177.2 81.52, 221.28 32.7 M148.56 120.92 C171.66 94.24, 192.81 70.61, 221.74 37 M149.77 121.49 C173.95 95.12, 196.49 67.92, 220.91 37.74 M156.44 120.56 C175.33 98.36, 196.36 73.84, 222.73 42.6 M154.12 120.1 C173.28 99.7, 192.67 77.52, 220.68 43.62 M159.68 119.05 C184.45 91.15, 206.96 63.84, 221.36 49.6 M161.05 120.94 C181.02 95.82, 203.4 71.01, 221.42 50.39 M163.73 122.75 C181.89 99.02, 200.81 79.71, 219.8 58.04 M164.85 121.16 C186.21 97.17, 206.82 74.07, 221.57 55.58 M171.98 121.83 C186.73 100.06, 204.74 83.64, 222.03 61.02 M169.89 120.07 C189.21 98.45, 208.26 76.02, 222.19 61.96 M174.56 119.28 C189.27 105.72, 199.2 91.98, 220 67.83 M175.85 120.25 C189.2 104.64, 205.02 86.48, 222.51 67.84 M181.68 121.78 C193.79 107.4, 204.01 96.02, 221.63 73.21 M180.41 121.57 C193.17 107.74, 202.42 95.73, 222.37 74.32 M184.38 120.71 C202.31 104.5, 213.86 89.73, 223.58 80.97 M186.51 120.18 C196.2 109.96, 208.19 98.35, 222.35 80.1 M191.91 119.03 C199.31 111.49, 205.88 103.59, 219.97 84.97 M191.03 120.58 C200.96 111.98, 207.51 103.36, 220.92 86.52 M196.51 120.23 C205.97 113.55, 211.9 106.98, 223.07 92.79 M196.02 120.67 C202.07 115.44, 207.46 110.2, 220.57 92.29 M202.72 119.28 C208.32 111.85, 216.78 103.72, 223.41 98.93 M203.43 119.72 C207.01 116.03, 211.89 108.81, 222.26 98.82 M208.21 119.58 C212.9 116.67, 214.16 113.17, 219.85 103.98 M208.35 121.44 C211.18 115.61, 217.07 110.01, 220.94 104.51 M213.14 120.07 C216.38 118.02, 218.35 116.75, 222.09 111.74 M213.52 120.18 C215.06 118.7, 216.51 116.15, 222.32 110.53 M217.85 120.4 C218.72 120.35, 220.08 119.02, 221.72 116.56 M218.02 120.91 C219.04 119.98, 220.02 118.93, 221.79 116.94" stroke="#fab005" stroke-width="0.5" fill="none"></path><path d="M1.63 -0.21 C48.69 -0.35, 96.69 -0.01, 219.99 -0.42 M0.05 -0.67 C59.78 1.35, 120.91 0.92, 220.68 0.19 M220.62 1.83 C217.45 46.32, 217.82 88.57, 220.16 118.72 M220.93 0 C220.32 44.59, 218.39 87.41, 219.72 120.21 M218.44 119.07 C138.35 120.48, 57.19 119.84, 0.29 121.3 M220.77 119.21 C153.62 120.98, 87.3 121.21, 0.47 119.43 M-0.42 119.6 C1.51 80.13, 2.94 34.63, 0.93 -0.66 M-0.22 119.96 C-1.58 86.07, 0.2 52.34, -0.18 0.87" stroke="#000000" stroke-width="1" fill="none"></path></g><g stroke-linecap="round"><g transform="translate(70.50357918478551 103.26107464070355) rotate(0 109.1450292799808 -0.428442492552108)"><path d="M1.13 -0.15 C37.67 -0.14, 181.99 0.45, 218.02 0.61 M0.27 -1.27 C36.73 -1.69, 180.38 -1.32, 216.95 -1.3" stroke="#000000" stroke-width="2" fill="none"></path></g><g transform="translate(70.50357918478551 103.26107464070355) rotate(0 109.1450292799808 -0.428442492552108)"><path d="M188.5 8.53 C195.03 5.04, 201.08 4.54, 216.47 -1.79 M187.97 7.94 C197.29 5.58, 204.82 3.87, 217.18 -0.58" stroke="#000000" stroke-width="2" fill="none"></path></g><g transform="translate(70.50357918478551 103.26107464070355) rotate(0 109.1450292799808 -0.428442492552108)"><path d="M188.53 -11.99 C195.16 -11.37, 201.2 -7.74, 216.47 -1.79 M188 -12.59 C197.21 -9.11, 204.74 -4.97, 217.18 -0.58" stroke="#000000" stroke-width="2" fill="none"></path></g></g><g stroke-linecap="round" transform="translate(289.3670518643221 222.61224489795904) rotate(0 110 60)"><path d="M0 0 C0 0, 0 0, 0 0 M0 0 C0 0, 0 0, 0 0 M-0.65 5.81 C0.94 4.5, 2.49 3.24, 4.91 -0.28 M-0.6 6.73 C1.06 4.94, 1.54 3.71, 4.62 0.24 M-0.05 13.16 C3.83 8.63, 8.56 3.12, 9.54 0.74 M-0.23 12.25 C2.84 8.36, 6.74 4.42, 11.25 -0.08 M1.48 19.66 C3.54 12.68, 9.57 9.2, 16.73 0.22 M0 18.22 C5.25 11.78, 10.56 6.5, 15.74 0.61 M-0.48 23.1 C9.68 16.25, 14.52 5.47, 21.16 0.6 M0.49 24.3 C7.15 14.3, 16.42 6.91, 21.21 0.54 M1.98 29.88 C7.95 21.1, 16.01 14.05, 25.02 1.08 M0.99 29.74 C6.49 22.1, 15.84 12.66, 26.39 0.2 M-0.59 38.41 C10.68 28.14, 18.52 16.28, 32.6 -1.36 M-0.41 37.32 C9.53 23.64, 21.54 11.41, 30.97 0.23 M-0.95 42.55 C9.88 33.41, 20.07 19.35, 38.8 1.2 M0.18 41.75 C8.28 32.17, 16.76 23.67, 37.04 0.46 M0.9 48.87 C16.42 31.11, 28.15 15.14, 42.43 -1.5 M-1.1 48.92 C17.8 29.89, 34.88 10.15, 41.75 -0.06 M-1.6 56.24 C19.3 35.7, 35.29 14.44, 47.08 -0.92 M0.21 54.68 C15.98 37.92, 30.16 18.98, 46.55 -0.02 M-0.77 60.84 C21.49 38.51, 40.72 13, 54.37 1.19 M0.15 61.88 C15.55 41.27, 31.72 23.21, 53.91 0.13 M-2.02 67.83 C20.17 43.59, 37.91 24.12, 56.8 1.77 M0.35 67.16 C22.18 43.2, 43.04 17.12, 58.55 -0.7 M0.21 72.52 C22.24 45.5, 47.61 18.13, 63.06 -0.66 M0.56 72.19 C20.69 49.06, 41.69 26.51, 64.12 -0.3 M0.6 79.57 C23.53 54.38, 46.58 24.61, 66.81 -1.04 M0.13 80.02 C23.02 53.69, 45.24 26.96, 68.48 -0.07 M1.56 84.69 C22.21 57.95, 47.41 29.34, 76.03 -0.84 M1.11 84.79 C22.98 59.02, 43.76 33.78, 74.34 -1.01 M0.04 89.56 C28.39 55.19, 58.51 20.53, 77.84 0.9 M0.42 91.81 C30.52 56.39, 62.96 19.56, 78.56 -0.68 M-1.77 99.51 C30.42 64.93, 58.37 32.77, 83.75 -1.54 M-1.04 97.31 C18.55 78.93, 34 59.72, 84.81 -1.19 M1.61 102.73 C26.18 70.42, 54.37 40.59, 90.55 0.44 M1.04 102.76 C26.82 72.98, 52.05 42.09, 90.83 -0.13 M-0.92 111.44 C37.21 68.01, 71.73 25.08, 97.56 0.64 M-1.01 110.1 C34.83 67.65, 69.61 26.95, 95.1 -0.59 M-0.44 113.6 C37.59 71.17, 75.21 32.24, 99.5 -0.96 M1.11 114.56 C21.37 90.27, 43.83 65.59, 100.11 -0.07 M1.53 121.06 C42.25 77.82, 78.27 31.16, 107.73 0.7 M1.61 120.94 C27.67 90.86, 55.63 59.74, 107.05 -0.5 M4.91 121.5 C35.71 90.64, 60.22 58.67, 111.15 0.74 M5.93 120.57 C38.53 85.45, 69 49.07, 111.03 0.83 M12.1 120.96 C31.61 98.31, 55.33 73.39, 116.78 -0.02 M12.17 122.02 C40.51 87.9, 71.11 52, 117.15 0 M18.4 119.65 C49.07 84.37, 78.85 49.63, 121.88 -1.83 M16.91 119.91 C48.12 84.08, 78.65 50.28, 121.01 -0.19 M20.22 122.23 C55.22 82.82, 91.86 42.16, 128.08 1.16 M21.83 121.35 C44.36 97.36, 65.9 71.24, 126.16 0.02 M28.39 120.66 C52.34 93.3, 77.08 61.8, 131.97 -1.43 M28.46 119.9 C61.83 79.31, 98.09 38.84, 133.25 -0.89 M33.02 119.22 C58.46 92.35, 80.88 62.84, 135.96 -1.24 M33.36 120.61 C68.85 80.64, 103.34 40.06, 138.17 0.38 M36.74 121.41 C66.55 89.42, 92.42 59.94, 143.59 1.75 M38.87 120.05 C78.43 73.62, 118.94 27.06, 143.79 0.89 M43.57 122.89 C78.09 81.4, 111.63 42.73, 146.31 2.16 M42.33 121.38 C74.72 84.81, 106.63 47.16, 148.2 -0.41 M48.2 122.41 C86.78 74.65, 126.82 26.31, 154.84 -1.86 M48.76 120.32 C85.14 77.39, 124.05 33.24, 154.41 0.27 M52.83 122.77 C78.79 94.11, 103.39 64.83, 157.93 -1.68 M54.13 120.24 C89.18 80.19, 126.4 38.05, 158.59 -0.36 M60.45 121.74 C82.04 94.04, 107 66.05, 165.72 -1.26 M60.02 120.13 C81.19 96.3, 101.54 71.01, 163.75 0.33 M63.68 121 C100.98 80.32, 134.8 38.72, 168.51 1.8 M64.91 121.69 C101.15 78.87, 137.54 36.35, 169.98 0.95 M70.06 121.09 C97.19 87.56, 126.93 49.98, 176.12 1.17 M70.84 121.33 C92.7 93.4, 117.13 65.17, 174.18 -0.9 M74.88 122.32 C98.58 91.77, 124.15 65.88, 180.66 0.75 M74.65 121.21 C100.64 92.4, 125.98 63.2, 180.28 -0.59 M82.51 119.73 C104.16 92.52, 128.51 62.33, 183.86 -0.38 M80.71 121.26 C120.62 77.66, 158.68 32.79, 184.93 0.56 M87.14 120.04 C109.27 93.86, 133.05 66.37, 191.89 -1.08 M86.11 120.22 C109.99 93.9, 133.52 67.13, 189.74 -0.65 M90.18 120.54 C116.79 91.73, 140.89 63.88, 194.66 -1.13 M91.41 119.67 C124.55 81.56, 158.45 42.69, 196.98 -0.34 M97.03 122.08 C129.46 85.39, 157.98 47.32, 200.62 1.65 M95.85 121.08 C128.78 83.9, 160.22 48.29, 201.85 0.55 M102.38 119.97 C122.97 96.89, 147.16 71.93, 208.12 0.33 M102.04 119.79 C124.93 93.13, 146.78 66.94, 206.14 -0.74 M107.05 120.95 C142.48 77.54, 177.99 37.78, 212.18 1.87 M107.22 120.12 C146.15 76.85, 185.19 30.94, 212.46 -0.74 M110.64 122.85 C151.9 73.42, 192.33 28.43, 215.79 -0.03 M111.31 122.07 C150.47 78.15, 186.27 35.11, 217.98 -0.77 M115.61 119.77 C141.67 91.16, 167.88 62.21, 219.48 -0.39 M117.39 120.63 C151.85 83.08, 183.75 43.72, 221.34 0.68 M121.38 121.31 C156.56 83.56, 188.07 43.51, 220.54 5.9 M123.22 122.11 C147.81 94.96, 170.38 66.59, 222.35 6.9 M127.01 122.22 C153.68 91.2, 179.46 60.65, 219.78 14.05 M128.29 119.83 C159.37 83.02, 192.09 47.93, 222.06 14.01 M133.97 121.35 C165.91 82.57, 196.04 47.04, 222.32 18.29 M134.08 120.25 C166.12 83.77, 198.01 46.67, 222.04 20 M137.47 122.6 C163.75 90.94, 187.63 62.09, 220.32 26.35 M139.69 119.92 C155.38 100.71, 174.48 80.66, 222.49 26.28 M145.31 121.82 C164.47 93.28, 186.78 69.38, 219.67 33.11 M144.16 121.55 C161.72 100.78, 179.41 82.34, 221.33 31.45 M149.12 119.79 C171.84 94.71, 196.48 66.43, 222.05 35.8 M150.12 121.03 C164.84 101.97, 179.43 84.61, 221.65 37.56 M155.23 121.15 C173.18 99.47, 190.43 79.05, 221.05 43.21 M154.04 121.48 C175.05 98.39, 194.54 74.64, 222.3 43.41 M159.97 119.28 C182.18 93, 206.97 66.82, 222.82 51.32 M159.93 120.24 C173.47 104.66, 186.07 90.12, 221.84 49.34 M164.47 119.36 C189.19 93.39, 208.91 70.59, 222.87 56.3 M165.57 120.98 C182.56 102.16, 199.13 81.51, 221.87 56.24 M169.97 119.15 C183.02 107.71, 195.64 90.66, 222.74 62.15 M170.25 120.62 C190.89 97.22, 212.08 74.45, 221 62.34 M176.66 120.07 C187.45 106.08, 200.54 90.95, 222.09 69.91 M174.93 121.46 C188.32 106.35, 201.29 92.51, 221.42 68.49 M182.95 120.05 C194 107.4, 205.34 91.64, 220.79 72.87 M182.02 120.16 C193.23 106, 207.36 91.7, 222.34 74.46 M188.34 120.5 C196.7 109.91, 209.25 97.97, 221.58 78.19 M185.56 121.77 C198.31 109.5, 208.95 95.72, 221.11 80.69 M192.67 119.24 C200.43 110.21, 206.46 100.76, 220.88 85.92 M192.97 120.8 C198.27 113.97, 204.35 105.95, 221.4 86.33 M198.96 121.46 C204.63 115.35, 212.08 105.61, 219.46 94.62 M197.23 121.21 C204.38 114.31, 209.69 105.18, 222.26 93.04 M200.76 120.59 C207.66 114.37, 216.44 107.07, 220.5 100.57 M202.63 121.45 C209.78 111.57, 217.13 104.67, 221.66 99.26 M208.89 121.35 C209.52 118.6, 213.09 111.8, 221.73 107 M206.98 120.53 C211.65 116.13, 213.52 112.83, 220.94 105.47 M214.27 120.52 C216.81 118.63, 219.01 115.33, 220.66 111.34 M213.31 120.8 C215.69 117.17, 219.31 114, 221.23 110.89 M218.04 121.16 C219.91 119.32, 220.8 117.68, 221.24 116.8 M218.24 120.86 C219.26 119.79, 220.13 118.89, 221.42 117.07" stroke="#fab005" stroke-width="0.5" fill="none"></path><path d="M-0.34 0.58 C75.41 1.16, 153.54 -0.18, 219.58 -0.27 M-0.85 0.41 C54.73 1.46, 110.86 1.68, 220.62 -0.81 M218.56 1.69 C219.31 40.69, 220.53 81.48, 221.3 118.95 M220.95 0.82 C220.13 43.43, 220.83 87.35, 220.68 119.81 M219.29 121.52 C165.04 119.86, 112.22 120.28, 0 119.07 M219.61 119.63 C137.69 118.12, 57.3 117.7, 0.42 119.16 M0.34 121.94 C2.02 85.54, 1.18 53.95, -0.37 0.97 M-1 119.86 C1.05 86.01, 0.08 53.07, 0.74 0.45" stroke="#000000" stroke-width="1" fill="none"></path></g><g stroke-linecap="round" transform="translate(289.3670518643221 582.612244897959) rotate(0 110 60)"><path d="M0 0 C0 0, 0 0, 0 0 M0 0 C0 0, 0 0, 0 0 M-0.85 6.25 C0.95 4.69, 2.79 2.78, 4.34 -0.4 M0.07 6.61 C0.83 4.56, 2.15 3.05, 4.87 0.63 M1.25 11.84 C3.93 9.54, 5.62 4.6, 11.4 -0.14 M0.34 11.7 C3.42 8.62, 6.46 4.8, 10.58 -0.04 M1.09 17.52 C5.38 11.97, 13.18 5.95, 15.51 1.32 M-0.35 18.27 C3.9 13.02, 9.33 8.49, 15.9 0.99 M-0.72 25.83 C7.89 15.49, 12.54 8.92, 21.93 1.18 M0.49 23.34 C5.33 17.91, 12.81 9.88, 21.87 -0.28 M-0.59 31.12 C6.9 22.58, 16.11 10.94, 27.03 -0.01 M-0.74 29.51 C8.23 21.91, 15.4 11.91, 26.16 0.2 M1.28 38.31 C10.25 27.16, 17.59 18.25, 30.64 0.69 M0.19 35.9 C10.06 24.4, 21.38 10.72, 32.22 -0.57 M0.17 43.22 C14.98 29.08, 24.87 14.16, 37.82 -1.33 M-0.64 42.8 C12.34 27.89, 26.44 12.16, 37.08 0.78 M-0.17 50.84 C15.53 28.72, 33.02 11.36, 41.16 1.81 M-0.12 49.44 C9.13 39.89, 17.66 28.36, 42.6 0.48 M1.95 56.14 C12.18 42.64, 21.74 28.93, 46.36 0.53 M0.39 55.1 C12.49 40.86, 22.48 26.48, 47.26 1.13 M-0.11 62.17 C21.66 37.61, 40.23 15.91, 54.51 -0.13 M0.93 60.7 C16.95 39.81, 35.56 19.77, 53.46 0.07 M0.22 68.84 C15.24 48, 35.08 26.24, 59.72 1.58 M-0.45 67.92 C15.52 49.52, 29.32 32.79, 57.25 0.96 M-0.34 71.23 C20.9 48.85, 41.78 24.86, 63.33 0.13 M-0.66 72.95 C14.6 55.99, 30.49 37.97, 63.69 0.17 M0.06 79.94 C23.88 53.86, 43.14 26.02, 67.57 0.79 M0.51 79.27 C17.67 58.62, 34.49 39.26, 68.55 0.29 M-0.07 83.84 C23.28 58.37, 44.84 32.36, 73.81 -0.28 M0.02 85.76 C23.01 56.91, 46.59 30.55, 73.64 0.57 M-1.86 90.21 C27.82 56.29, 57.32 22.3, 80.18 2.01 M0.38 91.27 C30.64 58.04, 59.43 22.24, 78.6 0.41 M1.43 99.49 C16.74 79.72, 34.51 56.67, 83.78 -2.27 M-0.77 98.75 C19.02 76.54, 37.94 55.73, 84.13 -0.17 M-0.61 101.6 C26.46 69.96, 55.92 40.87, 90.38 0.01 M-0.58 104.05 C31.76 65.76, 62.86 31.29, 89.81 0.93 M1.45 110.3 C28.39 76.18, 55.8 47.73, 96.62 1.1 M0.11 109.57 C29.11 74.34, 60.01 39.37, 95.39 0.34 M-1.64 115.94 C25.6 85.52, 56.41 51.14, 99.65 -1.56 M-0.68 115.54 C38.97 70.73, 78.24 25.35, 100.54 0.73 M0.57 122.81 C24.72 93.46, 45.42 70.06, 107.35 -1.29 M0.45 120.68 C25.89 92.38, 50.34 63.73, 106.15 -0.75 M7.05 122.18 C32.75 91.06, 57.45 63.15, 112.01 -0.11 M6.12 121.69 C34.08 89.96, 60.8 57.41, 112.1 -0.98 M11.13 119.93 C39.86 90.95, 66.3 58.66, 115.88 0.09 M12.19 120.27 C43.74 84.25, 73.4 49.67, 115.9 0.3 M15.87 121.5 C41.68 90.1, 68.09 60.51, 120.11 -0.16 M16.12 120.53 C41.67 90.36, 69.32 59.89, 121.75 0.27 M23.07 119.3 C50.67 91.1, 76.89 60.81, 127.72 -1.58 M22.2 121.71 C51.05 89.5, 77.77 55.61, 126.58 -0.27 M27.54 120.72 C64.08 79.79, 96.36 39.45, 131.17 0.67 M26.78 120.67 C67.14 74.32, 107.59 27.72, 131.71 -0.71 M30.73 122.21 C62.55 84.87, 91.7 49.41, 135.99 1.05 M32.11 121.35 C59.14 89.48, 85.47 60.57, 137.6 -0.13 M38.95 121.33 C62.86 92.43, 89.22 64.6, 145.02 1.68 M37.59 121.24 C79.28 72.75, 120.93 25.54, 144.16 0.15 M45.06 122.82 C82 76.96, 121.72 28.58, 150.05 0.46 M43.55 120.84 C82.68 77.14, 120.67 33.91, 147.48 1.06 M50.62 118.68 C79.25 83.85, 107.47 51.24, 152.07 1.07 M48.53 120.15 C88.79 75.59, 127.88 29.68, 154.2 -0.77 M55.61 122.2 C95.46 76.52, 134.68 28.51, 156.88 1.07 M53.08 120.12 C82.49 88.74, 109.79 55.58, 158.2 -0.53 M60.61 120.06 C94.19 81.44, 127.62 42.12, 163.34 -2.06 M59 121.12 C93.93 80.22, 127.42 40.97, 164.93 0.22 M64.5 122.34 C98.49 82.05, 131.63 42.25, 171.02 1.17 M65.19 120.43 C90.41 89.95, 115.89 61.42, 170.18 0.04 M70.62 118.64 C109.69 74.46, 144.77 33.34, 176.43 -1.7 M70.87 120.67 C111.03 73.53, 150.97 24.5, 174.36 -0.92 M76.48 120.12 C100.45 90.63, 129.22 58.93, 180.64 -1 M75.38 121.31 C108.58 83.89, 141.45 45.86, 179.3 -0.48 M79.93 119.53 C115.04 79.09, 147.31 39.48, 185.54 1.08 M81.46 121.1 C105.22 94.18, 127.64 66.48, 186.49 -0.92 M84.86 121.33 C127.79 72.7, 169.4 26.49, 189.48 -1.34 M85.05 121.59 C119.03 83.13, 152.45 43.83, 189.9 -0.54 M91.4 121.71 C123.88 83.66, 157.46 42.74, 195.46 0.1 M90.53 119.53 C115.45 91.55, 139.7 64.2, 196.24 -0.2 M97.57 122.68 C136.93 73.75, 174.92 29.91, 202.87 0.18 M96.57 120.4 C119.23 93.85, 143.47 68.73, 201.77 -0.8 M101.5 120.1 C141.1 79.2, 178.72 35.67, 207.59 -1.91 M101.33 120.85 C136.32 78.98, 171.94 38.25, 206.52 0.1 M107.11 121.77 C145.82 74.19, 188.27 26.26, 213.75 1.51 M106.28 120.17 C132.95 91.19, 156.93 63.67, 211.14 0.87 M113.63 120.25 C135.78 91.9, 162.47 61.47, 217.89 0.68 M112.85 121.52 C133.15 96.03, 154.39 72.35, 217.15 -0.86 M116.59 119.12 C147.82 85.8, 178.72 50.19, 219.33 1.98 M117.45 121.63 C149.45 84.68, 179.52 49.74, 220.4 1.92 M122.76 121.36 C150.98 88.57, 176.76 57.77, 220.38 5.97 M123.56 121.53 C143.83 96.73, 162.75 75.15, 221.37 6.93 M129.7 120.13 C152.14 93.14, 175.16 64.26, 221.87 14.41 M127.32 120.79 C161.32 82.22, 197.1 42.52, 221.82 14.14 M133.47 122.83 C162.24 85.04, 194.31 49.2, 220.86 20.39 M132.37 121.94 C156 94.1, 179.09 66.12, 222.56 19.21 M140.75 121.14 C163.93 90.5, 189.91 59.19, 222.26 23.88 M138.07 119.97 C166.93 88.82, 194.93 57.04, 222.19 25.49 M144.6 119.16 C162.13 94.98, 184.41 71.52, 222.36 30.52 M144.33 120.82 C160.83 101.15, 179.55 81.49, 220.7 32.24 M148.61 119.38 C168.52 99.9, 185.24 79.21, 219.8 35.95 M149.84 120.79 C172.08 92.33, 196.1 65.92, 221.56 37.31 M154.59 122.81 C179.92 91.47, 206.48 59.16, 220.55 44.11 M154.92 121.07 C172.86 100.33, 190.04 81.67, 220.75 44.88 M158.77 118.98 C176.79 100.55, 194.85 82.3, 223.41 48.08 M159.73 121.16 C183.81 92.57, 208.98 65.16, 221.43 50.7 M163.46 122.1 C176.38 104.46, 192.54 92.55, 221.73 56.09 M165.09 121.38 C181.13 103.02, 195.37 85.56, 221.67 55.52 M169.29 120.99 C190.13 100.58, 205.41 80.3, 220.92 64.4 M170.77 120.29 C181.15 109.37, 192.12 95.77, 221.11 62.35 M174.84 119.28 C187.02 106.35, 198.02 95.71, 223.44 67.53 M176.24 121.23 C189.68 105.77, 204.36 88.26, 222.02 68.11 M180.86 121.36 C194.44 106.01, 204.95 90.69, 219.74 74.68 M180.97 119.69 C188.99 111.95, 196.94 102.59, 221.33 74.46 M185.94 120.52 C194.34 114.21, 201.39 104.05, 219.81 80.42 M187.21 121.89 C198.79 108.98, 208.83 94.96, 222.3 79.89 M190.72 120.95 C199.61 108.87, 208.06 99.78, 220.88 84.85 M192.27 120.15 C198.63 112.82, 203.8 106.48, 221.29 86.3 M197.56 121.86 C205.74 114.77, 210.28 103.47, 222.92 92.38 M197.31 121.44 C202.85 114.52, 206.15 110.6, 221.34 93.15 M202.73 119.5 C209.24 115.78, 214.65 106.22, 223.62 100.02 M203.59 120.78 C209.03 112.81, 217.43 103.92, 222.31 98.18 M208.11 119.27 C213.97 114.01, 215.76 110.68, 223.4 103.72 M207.29 121.76 C211.72 114.6, 217.26 108.72, 221.86 105.21 M213.33 121.28 C217.03 117.85, 219.32 113.58, 222.48 110.99 M213.6 120.15 C216.05 117.68, 218.94 113.28, 222.04 111.02 M218.6 121.28 C218.81 120.2, 219.23 118.9, 221.29 116.76 M218.29 121 C218.79 120.32, 219.46 119.19, 221.56 117.28" stroke="#fab005" stroke-width="0.5" fill="none"></path><path d="M0.58 -1.36 C87.66 0.36, 173.05 -0.05, 219.73 -0.86 M0.41 -0.36 C67.27 2.56, 134.79 2.5, 219.19 0.39 M221.69 -1.06 C220.41 39.86, 219.82 80.71, 218.95 121.26 M220.82 -0.98 C219.86 46.83, 220.21 94.9, 219.81 119.46 M221.52 119.08 C174.68 119.51, 128.9 119.22, -0.93 121.23 M219.63 119.28 C134.27 119.61, 48.27 119.57, -0.84 119.76 M1.94 121.77 C-1.52 87.44, -0.42 52.66, 0.97 -0.35 M-0.14 120.79 C-0.04 86.48, 0.92 54.07, 0.45 -0.89" stroke="#000000" stroke-width="1" fill="none"></path></g><g transform="translate(89.76198322623975 62.612244897959044) rotate(0 80.50000000000006 18)"><text x="0" y="25" font-family="Virgil, Segoe UI Emoji" font-size="28px" fill="#000000" text-anchor="start" style="white-space: pre;" direction="ltr">Place order</text></g><g transform="translate(360.26198322623986 79.61224489795904) rotate(0 39.5 23)"><text x="39.5" y="32" font-family="Virgil, Segoe UI Emoji" font-size="36px" fill="#000000" text-anchor="middle" style="white-space: pre;" direction="ltr">Shop</text></g><g transform="translate(306.8670518643221 259.61224489795904) rotate(0 92.5 23)"><text x="92.5" y="32" font-family="Virgil, Segoe UI Emoji" font-size="36px" fill="#000000" text-anchor="middle" style="white-space: pre;" direction="ltr">Warehouse</text></g><g transform="translate(326.3670518643221 439.61224489795904) rotate(0 73 23)"><text x="73" y="32" font-family="Virgil, Segoe UI Emoji" font-size="36px" fill="#000000" text-anchor="middle" style="white-space: pre;" direction="ltr">Payment</text></g><g transform="translate(296.3670518643221 619.612244897959) rotate(0 103 23)"><text x="103" y="32" font-family="Virgil, Segoe UI Emoji" font-size="36px" fill="#000000" text-anchor="middle" style="white-space: pre;" direction="ltr">Notification</text></g><g stroke-linecap="round" transform="translate(20.218360475437635 22.612244897959044) rotate(0 27.81460987140798 25.60069298867586)"><path d="M20 1.25 C25.32 -0.22, 33.84 0.18, 39.5 2.52 C45.16 4.87, 51.33 10.47, 53.97 15.33 C56.6 20.18, 56.98 26.35, 55.3 31.64 C53.62 36.93, 48.8 43.96, 43.9 47.08 C39 50.2, 31.78 51.05, 25.92 50.35 C20.06 49.66, 13.09 46.72, 8.72 42.92 C4.36 39.12, 0.41 32.83, -0.27 27.56 C-0.95 22.28, 0.64 15.72, 4.61 11.28 C8.58 6.83, 19.62 2.66, 23.54 0.86 C27.46 -0.93, 27.82 0.06, 28.13 0.51 M15.09 4.01 C19.91 1.21, 27.78 -1.09, 33.33 -0.25 C38.88 0.59, 44.78 4.37, 48.39 9.05 C52 13.73, 55.12 22.08, 55 27.82 C54.88 33.56, 51.52 39.46, 47.67 43.5 C43.83 47.54, 37.69 51.58, 31.92 52.07 C26.16 52.57, 17.98 49.37, 13.06 46.5 C8.14 43.62, 4.49 40.03, 2.42 34.83 C0.35 29.64, -1.29 20.84, 0.67 15.33 C2.62 9.81, 11.78 3.59, 14.14 1.74 C16.49 -0.11, 14.62 3.54, 14.78 4.25" stroke="#000000" stroke-width="2" fill="none"></path></g><g stroke-linecap="round"><g transform="translate(44.86820917193688 73.52985412632097) rotate(0 -1.877432954967503 30.795502254447797)"><path d="M-0.18 -0.6 C-0.58 9.64, -2.04 50.6, -2.66 61.14 M-1.74 1.71 C-2.26 12.09, -3.59 52.37, -3.57 62.19" stroke="#000000" stroke-width="2" fill="none"></path></g></g><g stroke-linecap="round"><g transform="translate(42.38204955792969 137.19262026743763) rotate(0 12.63219320433086 18.325902728462893)"><path d="M-0.6 0.07 C3.39 6.21, 19.35 30.46, 23.64 36.67 M1.29 -0.94 C5.68 5.32, 21.96 31.03, 25.86 37.59" stroke="#000000" stroke-width="2" fill="none"></path></g></g><g stroke-linecap="round"><g transform="translate(41.126638749406425 135.89812194765727) rotate(0 -12.188472889385025 16.819459005475892)"><path d="M0.07 -0.93 C-3.97 4.93, -20.47 28.75, -24.45 34.57 M-1.35 1.19 C-5.03 6.75, -18.45 27.06, -22.36 32.75" stroke="#000000" stroke-width="2" fill="none"></path></g></g><g stroke-linecap="round"><g transform="translate(10.93400141932068 108.80235922946213) rotate(0 16.057468059003156 -10.249963467244811)"><path d="M-0.93 -1.18 C4.67 -4.75, 27.48 -18.2, 33.05 -21.31 M0.78 0.81 C6.33 -2.6, 27.25 -16.28, 32.4 -20.04" stroke="#000000" stroke-width="2" fill="none"></path></g></g><g stroke-linecap="round"><g transform="translate(45.25411422588547 88.59854297430638) rotate(0 9.475177989311874 13.595932104568874)"><path d="M-1.18 0.56 C2.16 5.03, 16.34 21.59, 20.13 25.86 M0.4 -0.19 C3.53 4.56, 15.44 22.75, 18.92 27.38" stroke="#000000" stroke-width="2" fill="none"></path></g></g><g stroke-linecap="round" transform="translate(14.76198322623975 10) rotate(0 32 33.306122448979636)"><path d="M28.21 -0.02 C34.27 -1.02, 43.75 1.13, 49.26 4.66 C54.77 8.19, 58.82 15.06, 61.27 21.15 C63.71 27.25, 65.45 34.87, 63.93 41.23 C62.4 47.6, 57.09 55.18, 52.11 59.32 C47.13 63.46, 40.27 65.53, 34.03 66.06 C27.79 66.58, 19.83 65.86, 14.65 62.48 C9.47 59.11, 5.39 51.83, 2.94 45.81 C0.49 39.78, -1.37 32.67, -0.04 26.33 C1.29 19.98, 5.1 12.17, 10.9 7.74 C16.7 3.31, 30.06 0.86, 34.77 -0.27 C39.47 -1.4, 39.32 0.2, 39.13 0.96 M38.67 0.17 C44.59 0.8, 51.87 5.88, 55.95 10.7 C60.03 15.53, 62.58 22.61, 63.13 29.1 C63.68 35.58, 62.31 43.84, 59.24 49.61 C56.18 55.39, 50.49 61.26, 44.76 63.76 C39.02 66.26, 31.2 66.13, 24.83 64.59 C18.46 63.06, 10.7 59.47, 6.54 54.56 C2.38 49.65, 0.02 41.37, -0.12 35.13 C-0.26 28.89, 2.61 22.76, 5.71 17.13 C8.8 11.49, 13.04 4.29, 18.45 1.34 C23.86 -1.62, 34.84 -0.77, 38.17 -0.58 C41.49 -0.39, 38.48 1.77, 38.42 2.47" stroke="none" stroke-width="0" fill="#fab005"></path><path d="M32.27 -0.93 C38.16 -1.45, 45.73 2.6, 50.89 6.4 C56.05 10.19, 61.12 15.81, 63.21 21.85 C65.29 27.89, 65.48 36.25, 63.41 42.62 C61.35 48.99, 56.1 55.94, 50.83 60.05 C45.56 64.16, 38.11 67.07, 31.81 67.26 C25.51 67.44, 17.9 65.03, 13.03 61.16 C8.17 57.29, 4.41 50.19, 2.63 44.04 C0.86 37.89, 0.85 30.53, 2.38 24.28 C3.92 18.02, 6.51 10.5, 11.85 6.5 C17.19 2.51, 30.01 1.24, 34.44 0.33 C38.86 -0.58, 38.5 0.66, 38.41 1.03 M22.76 1.94 C28.54 -0.16, 37.57 1.23, 43.57 3.27 C49.57 5.32, 55.17 8.73, 58.75 14.22 C62.32 19.71, 65.55 29.67, 65.03 36.22 C64.5 42.76, 59.81 48.8, 55.61 53.46 C51.4 58.13, 45.67 62.21, 39.8 64.18 C33.94 66.15, 26.36 67.25, 20.43 65.27 C14.51 63.29, 7.91 57.97, 4.27 52.31 C0.63 46.65, -1.83 38.01, -1.43 31.32 C-1.02 24.63, 2.51 16.96, 6.72 12.18 C10.92 7.4, 20.76 4.58, 23.81 2.63 C26.87 0.68, 24.85 0.29, 25.06 0.5" stroke="#000000" stroke-width="1" fill="none"></path></g><g stroke-linecap="round" transform="translate(43.92513611763013 33.03447915631432) rotate(0 4.0074139686943795 0.7633169464179446)"><path d="M0.38 0 L7.63 0 L8.01 1.14 L0.38 1.53 L0.38 0" stroke="none" stroke-width="0" fill="#000000"></path><path d="M0.38 0 M0.38 0 C3.22 0, 6.06 0, 7.63 0 M0.38 0 C3.03 0, 5.67 0, 7.63 0 M7.63 0 C7.89 0, 8.01 0.13, 8.01 0.38 M7.63 0 C7.89 0, 8.01 0.13, 8.01 0.38 M8.01 0.38 C8.01 0.57, 8.01 0.76, 8.01 1.14 M8.01 0.38 C8.01 0.61, 8.01 0.84, 8.01 1.14 M8.01 1.14 C8.01 1.4, 7.89 1.53, 7.63 1.53 M8.01 1.14 C8.01 1.4, 7.89 1.53, 7.63 1.53 M7.63 1.53 C5.6 1.53, 3.57 1.53, 0.38 1.53 M7.63 1.53 C5.59 1.53, 3.55 1.53, 0.38 1.53 M0.38 1.53 C0.13 1.53, 0 1.4, 0 1.14 M0.38 1.53 C0.13 1.53, 0 1.4, 0 1.14 M0 1.14 C0 0.97, 0 0.8, 0 0.38 M0 1.14 C0 0.88, 0 0.61, 0 0.38 M0 0.38 C0 0.13, 0.13 0, 0.38 0 M0 0.38 C0 0.13, 0.13 0, 0.38 0" stroke="#000000" stroke-width="4" fill="none"></path></g><g stroke-linecap="round"><g transform="translate(24.271558930303968 29.740439248278108) rotate(0 7.894480477992204 8.073522477709275)" fill-rule="evenodd"><path d="M0 0 L14.94 -0.21 L18.83 0.62 L20.52 2.55 L20.96 5.28 L19.68 10.58 L16.28 14.32 L11.23 16.41 L4.84 15.76 L-1.01 13.21 L-4.17 8.49 L-5.16 3.71 L-2.84 1.26 L0 0" stroke="none" stroke-width="0" fill="#000000" fill-rule="evenodd"></path><path d="M0 0 C3.14 0.1, 15.55 -1.15, 18.83 0.62 C22.11 2.38, 20.95 7.95, 19.68 10.58 C18.41 13.22, 14.68 15.97, 11.23 16.41 C7.78 16.84, 1.72 15.32, -1.01 13.21 C-3.75 11.09, -5.33 5.91, -5.16 3.71 C-4.99 1.51, -0.86 0.62, 0 0 M0 0 C3.14 0.1, 15.55 -1.15, 18.83 0.62 C22.11 2.38, 20.95 7.95, 19.68 10.58 C18.41 13.22, 14.68 15.97, 11.23 16.41 C7.78 16.84, 1.72 15.32, -1.01 13.21 C-3.75 11.09, -5.33 5.91, -5.16 3.71 C-4.99 1.51, -0.86 0.62, 0 0" stroke="#000000" stroke-width="1" fill="none"></path></g></g><g stroke-linecap="round"><g transform="translate(54.38441246649461 29.702273400957893) rotate(0 7.894480477992204 8.073522477709275)" fill-rule="evenodd"><path d="M0 0 L14.94 -0.21 L18.83 0.62 L20.52 2.55 L20.96 5.28 L19.68 10.58 L16.28 14.32 L11.23 16.41 L4.84 15.76 L-1.01 13.21 L-4.17 8.49 L-5.16 3.71 L-2.84 1.26 L0 0" stroke="none" stroke-width="0" fill="#000000" fill-rule="evenodd"></path><path d="M0 0 C3.14 0.1, 15.55 -1.15, 18.83 0.62 C22.11 2.38, 20.95 7.95, 19.68 10.58 C18.41 13.22, 14.68 15.97, 11.23 16.41 C7.78 16.84, 1.72 15.32, -1.01 13.21 C-3.75 11.09, -5.33 5.91, -5.16 3.71 C-4.99 1.51, -0.86 0.62, 0 0 M0 0 C3.14 0.1, 15.55 -1.15, 18.83 0.62 C22.11 2.38, 20.95 7.95, 19.68 10.58 C18.41 13.22, 14.68 15.97, 11.23 16.41 C7.78 16.84, 1.72 15.32, -1.01 13.21 C-3.75 11.09, -5.33 5.91, -5.16 3.71 C-4.99 1.51, -0.86 0.62, 0 0" stroke="#000000" stroke-width="1" fill="none"></path></g></g><g stroke-linecap="round"><g transform="translate(64.33545185277183 63.11889417882276) rotate(176.8197862031195 -17.385485461717792 -3.6070837283575656)" fill-rule="evenodd"><path d="M0 0 L-13.34 -6.1 L-17.18 -7.08 L-24.79 -5.1 L-34.75 -0.22 L-22.5 -6.15 L-17.43 -7.21 L-12.68 -6.24 L0 0" stroke="none" stroke-width="0" fill="#0000" fill-rule="evenodd"></path><path d="M0 0 C-2.22 -1.02, -9.83 -5.01, -13.34 -6.1 C-16.85 -7.18, -17.49 -7.49, -21.06 -6.51 C-24.63 -5.53, -35.35 -0.11, -34.75 -0.22 C-34.14 -0.34, -23.23 -7.25, -17.43 -7.21 C-11.64 -7.18, -2.91 -1.2, 0 0 M0 0 C-2.22 -1.02, -9.83 -5.01, -13.34 -6.1 C-16.85 -7.18, -17.49 -7.49, -21.06 -6.51 C-24.63 -5.53, -35.35 -0.11, -34.75 -0.22 C-34.14 -0.34, -23.23 -7.25, -17.43 -7.21 C-11.64 -7.18, -2.91 -1.2, 0 0" stroke="#000000" stroke-width="1" fill="none"></path></g></g><g stroke-linecap="round"><g transform="translate(706.393955503825 -21.113156837974657) rotate(269.83845249062614 27.969287626982577 123.21515848449371)" fill-rule="evenodd"><path d="M1.21 -1.12 L58.43 -0.34 L56.38 224.36 L29.1 249.29 L2.11 220.64 L-0.19 0.4" stroke="none" stroke-width="0" fill="#eeeeee" fill-rule="evenodd"></path><path d="M-1.86 0.9 C22.14 1.34, 41.62 1.11, 55.81 -0.91 M-0.53 0.63 C18.44 -0.44, 35.97 0.31, 55.9 -0.35 M56.55 -1.16 C55.6 59.64, 56.31 122.84, 55.47 223.8 M56.41 0.39 C58.93 69.71, 57.62 140.85, 55.67 222.78 M54.44 222.38 C45.53 231.42, 36.02 242.52, 29.12 245.91 M56.88 222.75 C46.02 231.41, 35.18 239.89, 28.14 247.59 M28.24 245.9 C21.45 238.99, 11.37 231.41, 2.14 222.34 M27.25 247.24 C21.51 240.99, 14.45 234.3, 0.46 222.46 M0.5 220.83 C0.7 144.61, -0.36 67.76, -0.32 -0.78 M0.2 220.73 C0.35 153.7, -0.23 86.86, 0.46 -0.5 M0 0 C0 0, 0 0, 0 0 M0 0 C0 0, 0 0, 0 0" stroke="#000000" stroke-width="1" fill="none"></path></g></g><g stroke-linecap="round" transform="translate(619.3665823056645 91.18308832924686) rotate(0 23.13619555658954 15.377950340008738)"><path d="M-0.21 1.55 L45.82 -0.85 L46.17 29.95 L-0.98 29.28" stroke="none" stroke-width="0" fill="#868e96"></path><path d="M0.9 0.62 C16.74 -1.01, 31.52 -0.63, 45.58 0.16 M0.63 0.93 C10.91 1.2, 22.65 -0.73, 46.14 -0.28 M45.18 -1.8 C45.41 9.06, 48.23 18.69, 47.28 31.09 M46.98 0.89 C45.36 11.08, 45.85 22.22, 46.11 31.29 M45.72 30.34 C35.01 30.64, 26.49 32.08, -1.77 31.69 M46.1 30.53 C33.88 29.99, 21.42 31.77, -0.09 30.57 M-1.78 32.53 C-1.77 18, -1.98 8.2, 0.78 -1.04 M-0.43 31.25 C-0.5 24.16, -0.72 17.15, 0.9 0.44" stroke="#000000" stroke-width="1" fill="none"></path></g><g stroke-linecap="round"><g transform="translate(643.7265590967086 106.25668242165557) rotate(0 -0.3381607194435219 -6.990601241088825)" fill-rule="evenodd"><path d="M1.55 -0.46 L21.1 -14.63 L-23.9 -15.33 L-1.48 -0.38" stroke="none" stroke-width="0" fill="#ced4da" fill-rule="evenodd"></path><path d="M0.62 1.83 C6.86 -3.81, 15.4 -11.6, 22.1 -15.81 M0.93 0 C9.04 -4.62, 15.11 -10.87, 21.67 -14.32 M20.15 -15.6 C4.56 -12.96, -12.27 -13.63, -22.76 -12.86 M22.84 -15.44 C7.99 -14.58, -5.91 -14.27, -22.56 -15 M-23.51 -14.75 C-14.85 -7.35, -5.37 -6.05, 0.93 -0.66 M-23.32 -14.39 C-17.52 -10.42, -9.23 -6.32, -0.18 0.87 M0 0 C0 0, 0 0, 0 0 M0 0 C0 0, 0 0, 0 0" stroke="#000000" stroke-width="1" fill="none"></path></g></g><g stroke-linecap="round"><g transform="translate(717.4006817375302 108.89664619295036) rotate(0 29.345081788446578 -0.6091912458708748)"><path d="M1.83 -1.44 C13.72 -1.47, 23.37 -0.47, 56.86 0.22" stroke="#000000" stroke-width="1.5" fill="none" stroke-dasharray="1.5 7"></path></g></g><g stroke-linecap="round" transform="translate(674.6786596772599 91.44943862156379) rotate(0 23.13619555658954 15.377950340008738)"><path d="M-0.85 -0.1 L45.47 -0.98 L44.79 30.38 L-0.9 30.87" stroke="none" stroke-width="0" fill="#868e96"></path><path d="M-1.44 1.69 C14.89 -1.11, 32.07 -1.7, 47.57 -1.05 M0.95 0.82 C15.82 -0.13, 33.33 0.21, 46.95 -0.19 M45.46 1.75 C44.93 8.56, 46.33 16.6, 46.27 29.68 M45.83 -0.42 C45.71 11.24, 47.08 22.16, 46.76 29.78 M46.61 32.69 C35.44 28.9, 21.99 30, -0.37 31.73 M45.28 30.61 C33.99 30.64, 19.95 31.61, 0.74 31.2 M-0.86 29 C0.97 25.05, -1.32 16.07, 1 -0.2 M-0.01 30.19 C-0.59 23.76, 0.29 14.87, 0.78 -0.23" stroke="#000000" stroke-width="1" fill="none"></path></g><g stroke-linecap="round"><g transform="translate(699.0756646768214 105.4468931838428) rotate(0 -0.2368197480220715 -7.798154943122881)" fill-rule="evenodd"><path d="M-0.1 -0.81 L20.97 -16.01 L-23.47 -15.26 L0.11 -0.17" stroke="none" stroke-width="0" fill="#ced4da" fill-rule="evenodd"></path><path d="M1.69 -1.06 C6.44 -4.49, 13.11 -8.16, 20.9 -13.27 M0.82 -0.98 C8.48 -6.19, 17.45 -10.94, 21.76 -15.07 M23.7 -15.6 C13.5 -14.34, 4.53 -14.64, -24.17 -12.93 M21.53 -15.36 C4.26 -14.12, -13.75 -14.11, -24.07 -14.63 M-21.16 -12.58 C-18.44 -9.45, -10.89 -6.75, 0.97 -0.35 M-23.24 -13.56 C-16.78 -10.32, -9.4 -5.4, 0.45 -0.89 M0 0 C0 0, 0 0, 0 0 M0 0 C0 0, 0 0, 0 0" stroke="#000000" stroke-width="1" fill="none"></path></g></g><g stroke-linecap="round" transform="translate(773.9385352814843 90.38403745228652) rotate(0 23.13619555658954 15.377950340008738)"><path d="M-0.81 -0.98 L44.79 -0.38 L45.37 30.87 L-0.17 30.55" stroke="none" stroke-width="0" fill="#868e96"></path><path d="M-1.06 -0.69 C18.27 -1.67, 37.52 -1.44, 47.53 1.85 M-0.98 -0.14 C13.58 -0.17, 28.4 -0.57, 45.73 -0.9 M45.21 1.01 C46.48 9.08, 46.15 14.1, 47.69 32.54 M45.44 -0.17 C46.67 5.78, 46.62 11.88, 46 30.55 M48.05 28.99 C34.25 30.54, 19.99 32.18, -0.35 30.31 M47.06 30.66 C32.39 31.56, 19.62 31.14, -0.89 31.64 M1.24 31.53 C-0.91 22.18, 1.13 16.83, -0.87 0.99 M-0.43 31.65 C0.44 22.5, 0.78 14.23, -0.43 -0.05" stroke="#000000" stroke-width="1" fill="none"></path></g><g stroke-linecap="round"><g transform="translate(799.2697524406553 103.71879758259274) rotate(0 -0.5304476657886426 -8.007220655355582)" fill-rule="evenodd"><path d="M-0.98 -1.48 L21.57 -15.43 L-22.98 -14.52 L-0.2 -1.61" stroke="none" stroke-width="0" fill="#ced4da" fill-rule="evenodd"></path><path d="M-0.69 0.16 C3.61 -1.9, 8.84 -5.25, 23.8 -14.54 M-0.14 -0.28 C8.77 -4.85, 17.05 -11.82, 21.05 -15.06 M22.96 -14.19 C11.77 -14.72, -2.47 -13.26, -21.32 -16.17 M21.78 -13.99 C9.79 -14.38, -2.03 -15.09, -23.31 -14.55 M-24.86 -13.42 C-16.3 -10.38, -7.35 -5.81, -0.44 -0.08 M-23.19 -14.54 C-17.62 -10.91, -13.41 -9.67, 0.89 -0.77 M0 0 C0 0, 0 0, 0 0 M0 0 C0 0, 0 0, 0 0" stroke="#000000" stroke-width="1" fill="none"></path></g></g><g stroke-linecap="round"><g transform="translate(509.3670518643221 102.61224489795904) rotate(0 49.85732759395614 0.32415818082517944)"><path d="M0.16 -1.28 C39.74 -0.71, 78.15 2.2, 99.99 1.91 M-0.28 0.21 C38.83 -0.05, 75.77 -0.76, 99.47 -0.41" stroke="#000000" stroke-width="2" fill="none"></path></g><g transform="translate(509.3670518643221 102.61224489795904) rotate(0 49.85732759395614 0.32415818082517944)"><path d="M71.4 8.49 C83.44 4.9, 94.26 3.89, 99.46 1.5 M70.97 9.98 C82.79 5.73, 92.34 1.14, 98.93 -0.82" stroke="#000000" stroke-width="2" fill="none"></path></g><g transform="translate(509.3670518643221 102.61224489795904) rotate(0 49.85732759395614 0.32415818082517944)"><path d="M71.46 -12.03 C83.37 -7.73, 94.17 -0.85, 99.46 1.5 M71.03 -10.54 C82.63 -6.96, 92.15 -3.72, 98.93 -0.82" stroke="#000000" stroke-width="2" fill="none"></path></g></g><g stroke-linecap="round"><g transform="translate(705.4362209030742 159.7024956766527) rotate(269.83845249062614 28.659298108893836 124.23121916646642)" fill-rule="evenodd"><path d="M-0.92 -0.19 L57.27 1.53 L57.5 222.82 L28.35 247.23 L2.12 221.82 L-0.44 -0.33" stroke="none" stroke-width="0" fill="#eeeeee" fill-rule="evenodd"></path><path d="M-1.28 1.3 C12.99 1.16, 29.93 -0.16, 58.79 1.41 M0.21 0.68 C11.32 -0.43, 22.12 -0.47, 56.47 0.66 M58.16 -0.22 C56.8 56.04, 59.14 108.29, 55.62 222.2 M56.31 0.2 C55.61 47.87, 56.16 96.27, 56.53 223.76 M55.73 222.56 C45.86 232.33, 33.15 242.22, 25.36 247.39 M57.26 223.67 C45.81 231.36, 35.25 240.86, 26.92 246.8 M25.63 248.68 C17.46 237.21, 9.08 227.92, 0.87 220.43 M27.24 248.46 C20.1 240.67, 13.48 233.98, 0.4 220.82 M0.75 221.39 C0.12 157.6, 0.4 96.64, -1.47 1.42 M0.4 220.76 C1.43 143.74, 1.06 64.53, -0.1 0.6 M0 0 C0 0, 0 0, 0 0 M0 0 C0 0, 0 0, 0 0" stroke="#000000" stroke-width="1" fill="none"></path></g></g><g stroke-linecap="round" transform="translate(618.4088477049136 271.99874084387375) rotate(0 23.13619555658954 15.377950340008738)"><path d="M-0.9 0.11 L46.1 -0.2 L44.66 28.84 L-0.99 30.41" stroke="none" stroke-width="0" fill="#868e96"></path><path d="M1.3 -1.05 C13.55 2.15, 24.56 2.21, 47.9 -1.95 M0.68 -0.19 C12.71 -1, 25.98 -0.51, 47.15 -0.53 M46.27 -1.07 C47.74 12.56, 44.5 20.67, 45.43 29.09 M46.76 -0.97 C46.16 8.5, 46.24 17.59, 47.24 31.64 M45.9 31.73 C36.12 30.16, 26.6 28.61, -0.29 32.33 M47.02 31.2 C31.93 32.04, 18.6 30.73, -0.88 31.38 M1 30.55 C-0.71 21.33, -0.54 9.89, -1.13 -0.87 M0.78 30.53 C-0.56 18.72, -0.54 6.3, -0.74 -0.19" stroke="#000000" stroke-width="1" fill="none"></path></g><g stroke-linecap="round"><g transform="translate(642.7688244959581 287.07233493628337) rotate(0 -1.674848572072051 -7.026928405988883)" fill-rule="evenodd"><path d="M0.11 -0.17 L21.75 -16.14 L-25.01 -15.34 L-0.34 -1.7" stroke="none" stroke-width="0" fill="#ced4da" fill-rule="evenodd"></path><path d="M-1.05 1.26 C8.7 -4.62, 15.51 -7.46, 20 -14.8 M-0.19 -0.54 C5.05 -4.64, 11.52 -7.19, 21.41 -14.02 M20.87 -13.11 C9.45 -16.29, -7.49 -15.26, -24.76 -14.69 M20.97 -14.8 C5.8 -14.45, -9.76 -13.22, -22.21 -15.23 M-22.12 -14.7 C-15.58 -9.41, -9.12 -4.65, 1.58 -0.19 M-22.65 -15.24 C-15.58 -11.25, -10.39 -7.32, 0.62 0.39 M0 0 C0 0, 0 0, 0 0 M0 0 C0 0, 0 0, 0 0" stroke="#000000" stroke-width="1" fill="none"></path></g></g><g stroke-linecap="round"><g transform="translate(716.4429471367794 289.71229870757725) rotate(0 29.566596151288422 0.08882912412695987)"><path d="M1.26 1.85 C13.7 1.96, 29.06 -2.16, 57.87 -1.63" stroke="#000000" stroke-width="1.5" fill="none" stroke-dasharray="1.5 7"></path></g></g><g stroke-linecap="round" transform="translate(673.720925076509 272.2650911361916) rotate(0 23.13619555658954 15.377950340008738)"><path d="M-0.2 -1.61 L44.36 -0.99 L45.93 29.06 L1.64 31.83" stroke="none" stroke-width="0" fill="#868e96"></path><path d="M1.85 -0.01 C18.79 1.34, 31.8 -0.56, 45.72 0.42 M-0.9 -0.53 C16.62 1.13, 33.52 0.76, 46.44 0.75 M48.05 -1.82 C45.21 8.38, 44.44 18.12, 47.35 29.45 M46.06 -0.2 C46.14 11.68, 46.86 20.55, 46.74 30.43 M45.83 30.68 C31.25 30.38, 21.79 30.49, -0.37 32.5 M47.16 29.99 C28.52 29.47, 12.25 30.73, -0.52 29.9 M0.99 30.06 C0.01 18.86, -0.84 11.01, 0.88 -0.21 M-0.05 30.35 C-0.42 18.4, -0.12 7.08, 0.06 -0.08" stroke="#000000" stroke-width="1" fill="none"></path></g><g stroke-linecap="round"><g transform="translate(698.1179300760705 286.2625456984706) rotate(0 -0.8537262042057137 -7.21606742185736)" fill-rule="evenodd"><path d="M-1.61 -1.91 L20.96 -14.87 L-24.79 -12.71 L1.08 -1.16" stroke="none" stroke-width="0" fill="#ced4da" fill-rule="evenodd"></path><path d="M-0.01 1.91 C6.97 -5.75, 10.5 -7.95, 22.37 -13.17 M-0.53 -0.41 C7.12 -4.42, 12.92 -7.8, 22.7 -14.53 M20.13 -15.42 C10.01 -15.75, -0.57 -12.96, -24.4 -13.38 M21.75 -14.36 C13.79 -13.7, 2.82 -14.09, -23.43 -14.54 M-23.18 -16.34 C-15.36 -7.72, -7.2 -4.66, 1.74 1.49 M-23.86 -14.78 C-16.14 -8.99, -6.91 -5.18, -0.86 0.5 M0 0 C0 0, 0 0, 0 0 M0 0 C0 0, 0 0, 0 0" stroke="#000000" stroke-width="1" fill="none"></path></g></g><g stroke-linecap="round" transform="translate(772.9808006807334 271.19968996691387) rotate(0 23.13619555658954 15.377950340008738)"><path d="M-1.91 -0.99 L45.93 -1.7 L47.91 31.83 L-1.16 28.9" stroke="none" stroke-width="0" fill="#868e96"></path><path d="M1.91 1.63 C14.85 -0.27, 33.05 0.42, 47.63 -0.38 M-0.41 0.87 C10.83 0.75, 22.9 0.99, 46.27 -0.54 M45.38 -0.85 C44.88 11.07, 47.62 21.5, 47.24 28.81 M46.44 0.97 C47.09 7.5, 46.67 16.43, 46.09 31.24 M44.28 30.47 C34.78 30.55, 19.76 32.48, 1.49 31.65 M45.84 29.88 C37.14 30.79, 26.24 29.54, 0.5 30.66 M-0.02 29.63 C-1.02 24.66, 0.73 14.76, 1.55 -0.46 M-0.49 30.02 C-0.17 22.38, 0.07 14.83, -0.1 -0.8" stroke="#000000" stroke-width="1" fill="none"></path></g><g stroke-linecap="round"><g transform="translate(798.3120178399049 284.53445009721963) rotate(0 -1.0642525066625694 -8.098846288829463)" fill-rule="evenodd"><path d="M-0.99 -0.34 L20.25 -12.89 L-22.02 -15.52 L-1.85 -1.13" stroke="none" stroke-width="0" fill="#ced4da" fill-rule="evenodd"></path><path d="M1.63 -1.95 C8.35 -6.47, 17.66 -10.26, 21.57 -15.62 M0.87 -0.53 C5.19 -2.79, 10.04 -6.01, 21.41 -13.82 M21.1 -16.2 C4.09 -13.59, -14.41 -13.62, -25.04 -14.9 M22.92 -13.64 C8.5 -13.94, -3.52 -14.54, -22.61 -14.53 M-23.39 -12.77 C-16.87 -10.5, -8.53 -4.66, 0.89 -1.78 M-23.97 -13.73 C-13.84 -9.2, -6.12 -2.6, -0.1 -0.43 M0 0 C0 0, 0 0, 0 0 M0 0 C0 0, 0 0, 0 0" stroke="#000000" stroke-width="1" fill="none"></path></g></g><g stroke-linecap="round"><g transform="translate(705.6370180639865 339.00123422254774) rotate(269.83845249062614 28.0068715065604 123.72584628103186)" fill-rule="evenodd"><path d="M1.23 0.26 L56.44 -0.55 L55.93 222.19 L29.01 247.93 L1.47 222.89 L0.27 -1.46" stroke="none" stroke-width="0" fill="#eeeeee" fill-rule="evenodd"></path><path d="M-1.95 -0.27 C16.48 -0.11, 35.43 -0.97, 55.79 -2.02 M-0.53 0.5 C14.2 0.2, 28.06 -1.14, 57.59 0.67 M55.44 -0.51 C56.84 45.29, 56.65 91.38, 55.92 222.57 M57.64 -0.98 C57.47 61.97, 56.77 125.15, 56.24 222.73 M57.97 222.74 C47.18 231.95, 40.44 238.43, 25.57 249.45 M57.01 223.32 C49.28 227.34, 43.82 233.62, 26.92 248.18 M26.48 249.47 C21.23 240.4, 14.88 233.23, 0.04 221.46 M27.16 247.23 C20.66 240.62, 13.63 233.11, -0.06 221.06 M1.82 220.55 C0.67 157.94, 0.41 95.74, 1.16 -0.63 M0.78 222.1 C1.23 161.29, 0.03 101.52, -0.06 0.24 M0 0 C0 0, 0 0, 0 0 M0 0 C0 0, 0 0, 0 0" stroke="#000000" stroke-width="1" fill="none"></path></g></g><g stroke-linecap="round" transform="translate(618.6096448658259 451.2974793897688) rotate(0 23.13619555658954 15.377950340008738)"><path d="M-1.7 1.64 L47.35 -1.16 L44.42 29.62 L-1.85 30.15" stroke="none" stroke-width="0" fill="#868e96"></path><path d="M-0.27 -0.55 C18.72 1.81, 36.22 -0.64, 44.47 -1.07 M0.5 0.17 C12.74 0.25, 23.44 0.96, 47.16 -0.91 M45.94 1.08 C44.84 8.82, 44.19 15.16, 45.85 30.36 M45.39 0.47 C46.24 9.56, 47.06 19.32, 46.05 30.72 M46.09 30.39 C38.73 32.61, 28.61 29.34, 1.77 29.22 M46.66 30.23 C33.51 31.55, 22.37 30.61, 0.5 30.41 M1.79 31.64 C-0.04 23.11, -0.28 11.51, -0.1 -0.81 M-0.45 30.81 C0.14 22.93, -0.58 14.35, -0.5 -0.17" stroke="#000000" stroke-width="1" fill="none"></path></g><g stroke-linecap="round"><g transform="translate(642.9696216568705 466.3710734821784) rotate(0 -0.29661253159906664 -7.625397140266159)" fill-rule="evenodd"><path d="M1.64 1.08 L20.78 -16.38 L-24.23 -16.2 L-0.61 1.34" stroke="none" stroke-width="0" fill="#ced4da" fill-rule="evenodd"></path><path d="M-0.55 0.42 C9.87 -5.89, 15.8 -12.86, 20.88 -15.35 M0.17 0.75 C8.58 -6.28, 17.79 -10.48, 21.04 -14.98 M23.02 -15.84 C11.31 -16.51, -1.82 -14.93, -23.5 -14.01 M22.41 -14.86 C3.89 -14.37, -13.97 -15.01, -23.14 -15.35 M-23.47 -12.61 C-14.9 -9.34, -11.58 -4.36, -1.54 -0.86 M-23.62 -15.21 C-17.6 -11.5, -13.64 -7.85, -0.35 -0.01 M0 0 C0 0, 0 0, 0 0 M0 0 C0 0, 0 0, 0 0" stroke="#000000" stroke-width="1" fill="none"></path></g></g><g stroke-linecap="round"><g transform="translate(716.6437442976917 469.0110372534723) rotate(0 28.87356937020627 0.3316370815928167)"><path d="M0.42 1.36 C11.39 -1.14, 21.73 -1.34, 57.32 0.67" stroke="#000000" stroke-width="1.5" fill="none" stroke-dasharray="1.5 7"></path></g></g><g stroke-linecap="round" transform="translate(673.9217222374214 451.56382968208663) rotate(0 23.13619555658954 15.377950340008738)"><path d="M-1.16 -1.85 L45.14 -1.85 L45.66 32.1 L-0.73 30.19" stroke="none" stroke-width="0" fill="#868e96"></path><path d="M1.36 -0.38 C12.17 -1.9, 25.44 -0.91, 48.02 -1.07 M0 -0.54 C16.93 0.54, 31.53 -0.79, 45.85 -0.83 M47.24 -1.95 C45.89 8.29, 46.04 17.76, 48.21 32.53 M46.09 0.49 C46.24 6.29, 46.38 12.03, 46.13 31.54 M47.76 31.65 C31.04 32.93, 17.83 30.3, -1.75 32 M46.77 30.66 C30.15 30.86, 14.56 30.35, -0.56 30.32 M1.55 30.3 C-0.99 18.67, -0.94 5.82, -1.48 -0.38 M-0.1 29.95 C-0.97 22.42, -0.19 14.23, 0.82 0.54" stroke="#000000" stroke-width="1" fill="none"></path></g><g stroke-linecap="round"><g transform="translate(698.3187272369828 465.56128424436565) rotate(0 -0.38076703921001354 -7.618991822145972)" fill-rule="evenodd"><path d="M-1.85 -1.13 L20.1 -15.14 L-21.75 -15.08 L-0.56 -0.23" stroke="none" stroke-width="0" fill="#ced4da" fill-rule="evenodd"></path><path d="M-0.38 -1.09 C4.15 -5.17, 11.11 -6.31, 20.88 -13.52 M-0.54 0.71 C7.74 -5.51, 13.36 -9.63, 21.11 -14.7 M20 -15.08 C5.59 -14.65, -9.59 -12.25, -21.32 -16.12 M22.43 -14.7 C6.11 -14.59, -10.27 -14.63, -22.31 -14.44 M-22.2 -16.13 C-14.7 -12.02, -10.82 -8.2, 1.24 0.78 M-23.2 -14.79 C-17 -11.26, -11.78 -7.92, -0.43 0.9 M0 0 C0 0, 0 0, 0 0 M0 0 C0 0, 0 0, 0 0" stroke="#000000" stroke-width="1" fill="none"></path></g></g><g stroke-linecap="round" transform="translate(773.1815978416457 450.4984285128089) rotate(0 23.13619555658954 15.377950340008738)"><path d="M-1.13 -1.85 L45.66 1.34 L45.54 30.19 L-0.23 32.15" stroke="none" stroke-width="0" fill="#868e96"></path><path d="M-1.09 -1.8 C13.79 -0.73, 31.47 -0.98, 47.28 0.34 M0.71 0.89 C16.43 -0.2, 34.26 -0.59, 46.11 0.54 M45.72 -0.42 C46.02 7.55, 48.36 16.21, 44.51 31.69 M46.1 -0.22 C46.18 7.22, 46.07 17.21, 46.18 30.57 M44.49 32.53 C26.83 30.11, 8.7 32.21, 0.78 29.71 M45.84 31.25 C36.01 30.7, 25.89 30.28, 0.9 31.2 M-0.85 30.65 C-1.04 20.88, -1.72 12.58, -0.9 0.11 M-0.96 30.26 C-0.14 20.94, 0.85 13.36, -0.58 -0.93" stroke="#000000" stroke-width="1" fill="none"></path></g><g stroke-linecap="round"><g transform="translate(798.5128150008172 463.8331886431147) rotate(0 -0.39720728173892894 -7.944104930993262)" fill-rule="evenodd"><path d="M-1.85 -0.61 L23.29 -15.26 L-23.66 -14.58 L1.39 -0.25" stroke="none" stroke-width="0" fill="#ced4da" fill-rule="evenodd"></path><path d="M-1.8 -1.07 C7.29 -3.48, 15.11 -9.56, 22.29 -13.03 M0.89 -0.91 C6.21 -4.94, 12.41 -9.04, 22.49 -15.18 M21.53 -14.93 C6.59 -12.66, -7.66 -16.29, -22.16 -15.01 M21.73 -14.57 C8.27 -14.7, -2.63 -14.6, -23.28 -13.48 M-21.32 -15.89 C-15.24 -10.53, -4.5 -2.62, -1.04 -1.72 M-22.6 -14.7 C-15.03 -9.79, -7.37 -3.3, 0.44 -0.11 M0 0 C0 0, 0 0, 0 0 M0 0 C0 0, 0 0, 0 0" stroke="#000000" stroke-width="1" fill="none"></path></g></g><g stroke-linecap="round"><g transform="translate(706.2010286369468 518.7745350735836) rotate(269.83845249062614 28.65198967645381 123.74976257446701)" fill-rule="evenodd"><path d="M0.58 1.33 L57.14 -1.68 L55.64 221.94 L29.1 248.55 L-0.21 220.5 L-0.1 0.67" stroke="none" stroke-width="0" fill="#eeeeee" fill-rule="evenodd"></path><path d="M-1.07 -0.82 C17.74 -0.62, 32.98 0.73, 58.37 -0.22 M-0.91 -0.45 C13.58 -1.39, 27.84 -0.08, 56.22 0.26 M56.53 0.07 C57.92 46.51, 54.63 90.98, 55.82 222.61 M56.84 -1.08 C56.25 78.27, 56.12 155.24, 57.14 223.57 M54.85 222.07 C44.4 232.96, 36.93 239.2, 25.63 248.68 M56.04 222.92 C47.3 229.81, 40.34 237.87, 27.24 248.46 M26.54 246.7 C18.65 240.05, 11.89 233.3, 0.72 221.36 M27.18 246.83 C22.61 242.35, 15.4 235.16, 0.33 220.63 M0.41 221.36 C0.57 161.63, 0.2 102.86, -0.09 -1.18 M1.59 221.17 C0.93 144.05, 0.34 67.79, -0.48 0.67 M0 0 C0 0, 0 0, 0 0 M0 0 C0 0, 0 0, 0 0" stroke="#000000" stroke-width="1" fill="none"></path></g></g><g stroke-linecap="round" transform="translate(619.1736554387862 631.0707802408047) rotate(0 23.13619555658954 15.377950340008738)"><path d="M1.34 -0.73 L45.71 -0.23 L47.67 30.51 L1.24 31.6" stroke="none" stroke-width="0" fill="#868e96"></path><path d="M-0.82 1.75 C10.3 1.26, 23.07 1.74, 46.27 -1.07 M-0.45 -0.42 C16.33 0.25, 34.86 -0.23, 46.76 -0.97 M46.61 1.94 C47.98 6.62, 47.14 16.1, 45.9 31.73 M45.28 -0.14 C46.99 8.6, 46.02 18.25, 47.02 31.2 M45.42 29 C37.76 31.18, 25.71 28.68, 1 30.55 M46.26 30.19 C33.97 31.49, 22.97 30.49, 0.78 30.53 M-0.98 29.28 C-0.36 21.93, 0.13 14.75, -0.2 -1.61 M-0.85 31.58 C0.69 23.89, -0.77 17.62, -0.93 -0.3" stroke="#000000" stroke-width="1" fill="none"></path></g><g stroke-linecap="round"><g transform="translate(643.5336322298308 646.1443743332143) rotate(0 -0.48310977611731687 -7.621346525989566)" fill-rule="evenodd"><path d="M-0.73 -0.56 L21.72 -13.14 L-23.34 -13.11 L0.84 -0.1" stroke="none" stroke-width="0" fill="#ced4da" fill-rule="evenodd"></path><path d="M1.75 -1.07 C5.7 -2.62, 10.79 -6.01, 20.87 -13.11 M-0.42 -0.83 C8.5 -5.02, 16.55 -10.72, 20.97 -14.8 M23.88 -12.76 C7.61 -13.47, -3.85 -14.72, -22.12 -14.7 M21.8 -13.74 C9.34 -15.11, -2.21 -14.14, -22.65 -15.24 M-24.85 -13.11 C-13.45 -9.72, -6.97 -2.1, -0.2 -0.87 M-23.66 -14.78 C-14.17 -8.89, -7.1 -3.54, -0.23 -0.43 M0 0 C0 0, 0 0, 0 0 M0 0 C0 0, 0 0, 0 0" stroke="#000000" stroke-width="1" fill="none"></path></g></g><g stroke-linecap="round"><g transform="translate(717.207754870652 648.7843381045082) rotate(0 29.24588072388974 0.23777188364306312)"><path d="M-1.07 1.01 C14.68 0.72, 28.68 -2.11, 59.56 0.7" stroke="#000000" stroke-width="1.5" fill="none" stroke-dasharray="1.5 7"></path></g></g><g stroke-linecap="round" transform="translate(674.4857328103817 631.3371305331225) rotate(0 23.13619555658954 15.377950340008738)"><path d="M-0.23 1.39 L46.02 1.24 L47.11 30.65 L-1.37 31.72" stroke="none" stroke-width="0" fill="#868e96"></path><path d="M1.01 0.34 C13.49 0.25, 22.91 1.66, 48.05 -1.82 M-0.17 0.54 C11.16 0.87, 22.66 0.11, 46.06 -0.2 M44.51 0.93 C45.91 9.38, 47.54 19.14, 45.83 30.68 M46.18 -0.18 C47.1 6.91, 46.67 11.44, 47.16 29.99 M47.05 29.71 C32.65 32.05, 22.27 30.17, 0.99 30.06 M47.17 31.2 C32.32 31.33, 18.36 30.13, -0.05 30.35 M-0.9 30.87 C0.06 22.83, -1.38 13.39, -0.99 -0.34 M-0.58 29.83 C-0.82 23.22, -0.56 18.2, -0.37 -0.28" stroke="#000000" stroke-width="1" fill="none"></path></g><g stroke-linecap="round"><g transform="translate(698.8827378099431 645.3345850954015) rotate(0 -0.6294232459742943 -7.423538077298645)" fill-rule="evenodd"><path d="M1.39 -0.25 L23.19 -13.69 L-23.2 -15.72 L0.96 -0.13" stroke="none" stroke-width="0" fill="#ced4da" fill-rule="evenodd"></path><path d="M0.34 1.49 C8.58 -6.81, 18.5 -9.59, 20.13 -15.42 M0.54 -0.65 C6.26 -4.68, 11.16 -7.66, 21.75 -14.36 M22.88 -15.19 C3.71 -13.88, -14.15 -15.23, -23.18 -16.34 M21.76 -13.66 C9.83 -14.07, -4.66 -13.58, -23.86 -14.78 M-24.14 -16.07 C-17.1 -11.6, -14.07 -7.35, -0.7 -0.02 M-22.65 -14.46 C-16.76 -11.29, -12.33 -7.62, -0.4 -0.49 M0 0 C0 0, 0 0, 0 0 M0 0 C0 0, 0 0, 0 0" stroke="#000000" stroke-width="1" fill="none"></path></g></g><g stroke-linecap="round" transform="translate(773.7456084146061 630.2717293638448) rotate(0 23.13619555658954 15.377950340008738)"><path d="M-0.25 1.24 L47.11 -0.1 L44.9 31.72 L-0.13 31.31" stroke="none" stroke-width="0" fill="#868e96"></path><path d="M1.49 0 C10.34 1.34, 24.61 -1.9, 45.38 -0.85 M-0.65 0.48 C9.05 -0.52, 19.83 -0.45, 46.44 0.97 M45.61 -0.37 C46.97 11.6, 45.56 23.83, 44.28 30.47 M47.14 0.74 C46.69 10.76, 47.13 22.54, 45.84 29.88 M44.56 31.76 C29.31 29.65, 13.75 29.81, -0.02 29.63 M46.17 31.53 C34.17 30.54, 22.47 30.56, -0.49 30.02 M-0.17 30.55 C-1.47 20.19, -0.85 13.11, -1.7 1.64 M-0.57 29.83 C-0.13 20.55, -0.19 8.71, -0.11 0.7" stroke="#000000" stroke-width="1" fill="none"></path></g><g stroke-linecap="round"><g transform="translate(799.0768255737776 643.6064894941505) rotate(0 -0.5284942604605476 -8.098846288829463)" fill-rule="evenodd"><path d="M1.24 0.84 L21.85 -15.9 L-22.13 -14.49 L0.55 1.63" stroke="none" stroke-width="0" fill="#ced4da" fill-rule="evenodd"></path><path d="M0 -1.07 C9.08 -3.48, 13.54 -11.24, 21.1 -16.2 M0.48 -0.97 C5.86 -4.18, 12.16 -7.92, 22.92 -13.64 M21.58 -13.56 C12.06 -15.08, 2.79 -16.59, -23.39 -12.77 M22.69 -14.08 C7.96 -13.2, -5.01 -14.46, -23.97 -13.73 M-22.09 -14.55 C-16.21 -8.29, -8.21 -4.44, -1.13 -0.87 M-22.32 -14.58 C-14.46 -8.79, -5.44 -3.63, -0.74 -0.19 M0 0 C0 0, 0 0, 0 0 M0 0 C0 0, 0 0, 0 0" stroke="#000000" stroke-width="1" fill="none"></path></g></g><g stroke-linecap="round"><g transform="translate(861.3670518643221 102.61224489795904) rotate(0 -316.36150892684236 90.75841265777126)"><path d="M-1.07 1.42 C2.38 23.53, -0.3 49.86, -1.67 79.67 M-0.97 -0.28 C-0.73 28.1, -0.35 57.58, 0.89 79.12 M0.39 79.86 C-219.23 79.5, -438.91 79.42, -631.37 79.93 M0.18 79.64 C-177.57 81.57, -356.02 81.53, -631.75 80.16 M-632.2 79.13 C-631.86 104.08, -632.88 128.44, -632.87 181.79 M-632.23 79.57 C-632.16 114.02, -632.59 148.1, -632.19 179.55 M-633.61 178.09 C-614.66 179.72, -597.03 181.7, -570.92 178.84 M-632.3 180.67 C-619.92 180.27, -607.23 181.25, -572.12 180.62" stroke="#000000" stroke-width="2" fill="none"></path></g><g transform="translate(861.3670518643221 102.61224489795904) rotate(0 -316.36150892684236 90.75841265777126)"><path d="M-601.3 192.53 C-589.62 185.97, -583.39 183.62, -573.79 180.29 M-601.2 190.84 C-590.43 187.06, -580.1 184.52, -571.24 179.74" stroke="#000000" stroke-width="2" fill="none"></path></g><g transform="translate(861.3670518643221 102.61224489795904) rotate(0 -316.36150892684236 90.75841265777126)"><path d="M-601.47 172.01 C-589.58 171.95, -583.3 176.1, -573.79 180.29 M-601.37 170.32 C-590.67 173.8, -580.29 178.52, -571.24 179.74" stroke="#000000" stroke-width="2" fill="none"></path></g></g><g stroke-linecap="round"><g transform="translate(859.1923404934814 282.534854632308) rotate(0 -316.2478010710329 90.33740327646956)"><path d="M1.42 1.78 C-1.82 29.08, -0.85 58.29, -0.33 81.08 M-0.28 -0.21 C0.19 18.94, 1.35 38.43, -0.88 80.47 M-0.14 79.82 C-168.76 80.43, -337.57 81.86, -632.07 79.85 M-0.36 80.35 C-244.88 80.96, -489.5 81.38, -631.84 79.79 M-632.87 80.99 C-632.2 101.4, -632.63 121.97, -630.21 180.88 M-632.43 79.95 C-631.63 108.45, -631.96 137.69, -632.45 180.06 M-633.91 179.01 C-614.22 178.82, -594.11 181.62, -570.99 178.23 M-631.33 179.63 C-617.15 180.09, -601.04 180.1, -569.2 180.5" stroke="#000000" stroke-width="2" fill="none"></path></g><g transform="translate(859.1923404934814 282.534854632308) rotate(0 -316.2478010710329 90.33740327646956)"><path d="M-596.09 192.23 C-588.72 185.98, -577.14 181.47, -569.54 181.57 M-597.78 190.24 C-591.11 188.56, -583.3 186.94, -570.09 180.96" stroke="#000000" stroke-width="2" fill="none"></path></g><g transform="translate(859.1923404934814 282.534854632308) rotate(0 -316.2478010710329 90.33740327646956)"><path d="M-595.86 171.71 C-588.58 173.15, -577.08 176.33, -569.54 181.57 M-597.55 169.72 C-590.84 172.85, -583.08 176.05, -570.09 180.96" stroke="#000000" stroke-width="2" fill="none"></path></g></g><g stroke-linecap="round"><g transform="translate(859.3294293409645 462.67489867235463) rotate(0 -315.6054998282343 89.44629407222578)"><path d="M1.78 -1.82 C-1.32 23.15, -2.1 47.66, 1.08 78.69 M-0.21 -0.2 C-0.61 28.84, 0.11 54.85, 0.47 79.67 M-0.18 79.97 C-178.73 79.44, -355.23 79.48, -632.15 80.7 M0.35 79.69 C-236.75 77.4, -472.91 77.9, -632.21 79.66 M-631.01 79.3 C-632.12 113.89, -632.97 151.82, -631.12 179.79 M-632.05 79.6 C-632.72 117.02, -632.42 155.07, -631.94 179.92 M-632.99 179.66 C-615.71 182.22, -594.95 179.39, -571.81 178.81 M-632.37 179.72 C-619.24 180.27, -606.38 180.18, -569.54 179.89" stroke="#000000" stroke-width="2" fill="none"></path></g><g transform="translate(859.3294293409645 462.67489867235463) rotate(0 -315.6054998282343 89.44629407222578)"><path d="M-595.88 188.53 C-590.06 186.17, -582.4 183.54, -568.47 178.58 M-597.87 190.15 C-587.59 187.75, -577.08 182.25, -569.08 179.56" stroke="#000000" stroke-width="2" fill="none"></path></g><g transform="translate(859.3294293409645 462.67489867235463) rotate(0 -315.6054998282343 89.44629407222578)"><path d="M-596.03 168.01 C-590.28 171.8, -582.57 175.33, -568.47 178.58 M-598.01 169.63 C-587.89 174.38, -577.33 176.03, -569.08 179.56" stroke="#000000" stroke-width="2" fill="none"></path></g></g><g stroke-linecap="round"><g transform="translate(509.3670518643221 282.61224489795904) rotate(0 48.92501628259197 -0.22658952782830966)"><path d="M-1.82 -0.89 C23.78 -2.56, 48.92 0.19, 98.69 0.97 M-0.2 0.17 C21.22 1.1, 39.63 0.68, 99.67 -0.18" stroke="#000000" stroke-width="2" fill="none"></path></g><g transform="translate(509.3670518643221 282.61224489795904) rotate(0 48.92501628259197 -0.22658952782830966)"><path d="M69.81 9.59 C77.61 5.94, 85.03 6.05, 98.36 0.78 M71.43 10.65 C78.31 9.26, 82.14 6.68, 99.34 -0.37" stroke="#000000" stroke-width="2" fill="none"></path></g><g transform="translate(509.3670518643221 282.61224489795904) rotate(0 48.92501628259197 -0.22658952782830966)"><path d="M69.52 -10.93 C77.54 -9.53, 85.03 -4.36, 98.36 0.78 M71.13 -9.87 C78.02 -7.1, 81.9 -5.52, 99.34 -0.37" stroke="#000000" stroke-width="2" fill="none"></path></g></g><g stroke-linecap="round"><g transform="translate(509.8214652066117 464.03966559767287) rotate(0 50.03684619627893 -0.4903737618587911)"><path d="M-0.89 -0.85 C35.42 0.58, 75.24 -0.4, 100.97 -1.95 M0.17 0.97 C28.13 -0.68, 54.96 -0.13, 99.82 0.49" stroke="#000000" stroke-width="2" fill="none"></path></g><g transform="translate(509.8214652066117 464.03966559767287) rotate(0 50.03684619627893 -0.4903737618587911)"><path d="M70.6 9.53 C80.24 6.63, 93.49 1.99, 100.78 -1.46 M71.66 11.34 C80.12 6.85, 87.41 4.71, 99.63 0.97" stroke="#000000" stroke-width="2" fill="none"></path></g><g transform="translate(509.8214652066117 464.03966559767287) rotate(0 50.03684619627893 -0.4903737618587911)"><path d="M70.87 -10.99 C80.59 -6.28, 93.74 -3.31, 100.78 -1.46 M71.93 -9.18 C80.27 -8.08, 87.49 -4.63, 99.63 0.97" stroke="#000000" stroke-width="2" fill="none"></path></g></g><g stroke-linecap="round"><g transform="translate(509.3670518643221 642.612244897959) rotate(0 49.82061855355278 -0.39082696149125695)"><path d="M-0.85 -1.67 C38.57 1.52, 76.5 1.41, 98.05 -0.55 M0.97 0.89 C27.02 0.3, 55.48 -0.35, 100.49 -0.18" stroke="#000000" stroke-width="2" fill="none"></path></g><g transform="translate(509.3670518643221 642.612244897959) rotate(0 49.82061855355278 -0.39082696149125695)"><path d="M71.46 8.45 C83.03 7.31, 93.02 3.2, 98.54 -0.73 M73.28 11 C79.31 7.66, 87.73 4.14, 100.97 -0.35" stroke="#000000" stroke-width="2" fill="none"></path></g><g transform="translate(509.3670518643221 642.612244897959) rotate(0 49.82061855355278 -0.39082696149125695)"><path d="M71.44 -12.07 C82.83 -5.22, 92.83 -1.35, 98.54 -0.73 M73.25 -9.52 C79.25 -7.13, 87.67 -4.93, 100.97 -0.35" stroke="#000000" stroke-width="2" fill="none"></path></g></g><g stroke-linecap="round"><g transform="translate(17.94415370169179 380.9373460931856) rotate(0 51.036469036620815 55.64426343844207)" fill-rule="evenodd"><path d="M1.47 -0.62 L0.44 110.23 L1.11 112.29 L13.26 119.04 L24.89 120.8 L54.52 119.51 L83.98 117.73 L95.34 118.42 L102.98 113.38 L103.1 -0.43 L102.06 0.35 L99.11 -1.5 L87.45 -6.55 L48.24 -9.98 L23.29 -7.92 L12.34 -5.78 L6.08 -5.98 L1.65 -0.71" stroke="none" stroke-width="0" fill="#ced4da" fill-rule="evenodd"></path><path d="M0.33 -1.07 C0.19 15.69, -0.77 81.38, -0.82 99.92 C-0.88 118.46, -0.96 107.53, 0.01 110.16 C0.98 112.79, 0.91 114.07, 5 115.72 C9.09 117.37, 16.44 119.29, 24.54 120.04 C32.64 120.79, 43.71 120.5, 53.62 120.2 C63.53 119.9, 76.27 119.27, 84.01 118.25 C91.74 117.22, 97.27 115.52, 100.04 114.06 C102.81 112.6, 100.24 111.61, 100.61 109.47 C100.97 107.32, 102 118.21, 102.21 101.19 C102.41 84.16, 102.14 24.36, 101.83 7.31 C101.52 -9.73, 101.66 1.15, 100.35 -1.07 C99.05 -3.29, 97.42 -4.7, 93.99 -6.02 C90.56 -7.34, 87.06 -8.43, 79.77 -8.98 C72.47 -9.54, 59.39 -9.42, 50.21 -9.36 C41.03 -9.29, 32.48 -9.32, 24.69 -8.61 C16.9 -7.9, 7.45 -6.47, 3.46 -5.1 C-0.53 -3.74, 1.4 -1.17, 0.77 -0.4 C0.14 0.37, -0.34 -0.44, -0.3 -0.5 M-0.95 0.98 C-0.74 17.42, 1.25 79.6, 1.28 97.94 C1.31 116.28, -1.4 107.9, -0.76 111.03 C-0.13 114.16, 1.04 115.16, 5.11 116.73 C9.17 118.29, 15.35 119.51, 23.6 120.42 C31.85 121.34, 44.44 122.29, 54.62 122.22 C64.8 122.15, 77.26 121.46, 84.7 120.02 C92.14 118.57, 96.38 115.01, 99.25 113.57 C102.13 112.12, 101.34 113.49, 101.97 111.36 C102.6 109.23, 103 118.07, 103.02 100.8 C103.05 83.54, 102.28 24.86, 102.13 7.75 C101.97 -9.36, 103.48 0.04, 102.09 -1.85 C100.71 -3.73, 97.15 -2.27, 93.81 -3.57 C90.48 -4.86, 89.25 -8.67, 82.11 -9.62 C74.96 -10.58, 60.28 -9.12, 50.93 -9.31 C41.57 -9.5, 33.56 -11.52, 25.97 -10.77 C18.38 -10.02, 9.73 -6.55, 5.39 -4.79 C1.05 -3.04, 0.51 -0.93, -0.08 -0.22 C-0.68 0.5, 2.07 -0.66, 1.82 -0.5" stroke="#000000" stroke-width="1" fill="none"></path></g></g><g stroke-linecap="round"><g transform="translate(18.638466697129388 456.64128297294155) rotate(0 50.45248074230244 4.979826516574576)"><path d="M-1.07 -1.16 C-0.47 -0.46, 0.54 2.98, 2.96 4.51 C5.38 6.05, 9.03 6.87, 13.47 8.05 C17.91 9.24, 22.84 11.3, 29.59 11.63 C36.34 11.96, 45.4 10.4, 53.98 10.04 C62.57 9.68, 73.83 10.38, 81.12 9.46 C88.41 8.53, 94.26 6.36, 97.74 4.49 C101.21 2.63, 101.34 -0.89, 101.98 -1.71 M0.57 0.85 C1.09 1.72, -0.41 4.65, 2.15 6.05 C4.71 7.44, 11.32 8.64, 15.92 9.23 C20.52 9.83, 23.64 9.47, 29.74 9.6 C35.84 9.73, 43.81 10.2, 52.51 10.02 C61.21 9.83, 74.38 9.57, 81.93 8.47 C89.49 7.36, 94.69 4.64, 97.84 3.39 C100.98 2.14, 99.91 1.84, 100.8 0.98" stroke="#000000" stroke-width="1" fill="none"></path></g></g><g stroke-linecap="round"><g transform="translate(17.27104601771407 418.2580226506543) rotate(0 50.96347419119877 4.865622423340483)"><path d="M-1.16 0.27 C-0.77 1.06, 0.15 2.37, 2.68 3.68 C5.22 4.99, 9.37 6.98, 14.05 8.13 C18.73 9.29, 24.26 10.34, 30.79 10.6 C37.31 10.86, 44.62 10.06, 53.21 9.68 C61.81 9.3, 74.69 9.31, 82.36 8.33 C90.03 7.34, 96.11 5.34, 99.23 3.75 C102.35 2.15, 100.55 -0.56, 101.08 -1.25 M0.43 -0.64 C0.64 0.38, -0.39 3.11, 1.73 4.77 C3.85 6.44, 8.17 8.2, 13.15 9.35 C18.12 10.51, 24.59 11.68, 31.56 11.7 C38.54 11.72, 46.28 9.69, 54.99 9.47 C63.7 9.26, 76.3 11.61, 83.82 10.4 C91.35 9.2, 96.9 4.31, 100.11 2.25 C103.32 0.19, 102.98 -1.31, 103.09 -1.97" stroke="#000000" stroke-width="1" fill="none"></path></g></g><g stroke-linecap="round" transform="translate(15.869048586174472 371.48564051606263) rotate(0 50.75365191479983 10.264544264366805)"><path d="M54.32 0.62 C63.84 0.67, 75.66 1.93, 83.43 3 C91.2 4.07, 98.47 5.22, 100.97 7.02 C103.47 8.83, 102.24 12, 98.45 13.85 C94.66 15.69, 86.79 16.83, 78.21 18.07 C69.63 19.31, 57.05 21.24, 46.97 21.27 C36.89 21.3, 25.35 19.82, 17.73 18.26 C10.12 16.71, 3.43 13.91, 1.28 11.95 C-0.87 10, 1.12 8.31, 4.82 6.54 C8.53 4.77, 15.08 2.51, 23.53 1.33 C31.98 0.15, 49.72 -0.22, 55.55 -0.54 C61.37 -0.85, 58.37 -0.79, 58.5 -0.55 M71.13 2 C80.32 3.07, 89.71 5, 94.89 6.51 C100.08 8.02, 103.37 9.1, 102.26 11.07 C101.14 13.04, 94.79 16.68, 88.21 18.31 C81.63 19.94, 72.63 20.82, 62.76 20.85 C52.9 20.88, 38.54 19.37, 29.02 18.48 C19.49 17.6, 10.6 16.93, 5.61 15.53 C0.61 14.13, -1.97 12.29, -0.96 10.08 C0.05 7.87, 5.08 3.83, 11.66 2.27 C18.25 0.71, 28.54 1, 38.55 0.7 C48.57 0.4, 66.64 0.41, 71.76 0.47 C76.89 0.53, 69.56 0.83, 69.28 1.06" stroke="none" stroke-width="0" fill="#fff"></path><path d="M34.12 0.62 C42.68 -0.3, 54.53 -0.97, 63.97 -0.56 C73.41 -0.15, 84.44 1.36, 90.75 3.06 C97.07 4.76, 101.66 7.59, 101.85 9.64 C102.04 11.69, 97.5 13.65, 91.91 15.38 C86.32 17.11, 77.49 19.36, 68.31 20.01 C59.14 20.66, 46.57 19.93, 36.85 19.27 C27.14 18.6, 16.28 17.58, 10.03 16.04 C3.79 14.51, -0.2 12.08, -0.6 10.04 C-1 8.01, 0.78 5.31, 7.63 3.83 C14.48 2.36, 33.9 1.73, 40.48 1.2 C47.07 0.67, 47.17 0.75, 47.12 0.64 M67.26 1.88 C76.3 2.64, 86.14 4.04, 91.77 5.58 C97.4 7.12, 101.22 9.33, 101.02 11.11 C100.82 12.89, 96.76 14.71, 90.56 16.27 C84.35 17.83, 73.16 19.69, 63.77 20.47 C54.39 21.25, 43.32 21.67, 34.25 20.94 C25.19 20.22, 15.31 17.95, 9.38 16.13 C3.45 14.31, -1.36 11.8, -1.35 10.01 C-1.34 8.22, 2.94 6.83, 9.44 5.4 C15.94 3.96, 27.78 2.07, 37.63 1.41 C47.47 0.75, 63.4 1.45, 68.52 1.44 C73.63 1.43, 68.64 1.3, 68.34 1.35" stroke="#000000" stroke-width="1" fill="none"></path></g><g stroke-linecap="round" transform="translate(64.22834857114412 403.9222001243902) rotate(0 7.438434203773852 8.072978182789711)"><path d="M8.05 -0.59 C9.47 -0.51, 11.59 0.51, 12.82 1.75 C14.05 2.98, 15.19 4.89, 15.41 6.83 C15.64 8.77, 15.3 11.74, 14.18 13.38 C13.06 15.01, 10.38 16.12, 8.7 16.64 C7.02 17.15, 5.6 17.25, 4.12 16.46 C2.64 15.68, 0.36 13.64, -0.17 11.93 C-0.69 10.21, 0.41 7.92, 0.98 6.17 C1.54 4.43, 1.93 2.3, 3.21 1.48 C4.5 0.65, 7.41 1.43, 8.7 1.22 C9.99 1.02, 10.91 0.47, 10.96 0.27 M5.77 0.02 C7.31 -0.55, 10.35 -1.3, 11.55 -0.57 C12.74 0.17, 12.22 2.65, 12.93 4.45 C13.65 6.25, 15.77 8.38, 15.84 10.22 C15.92 12.06, 14.88 14.59, 13.39 15.49 C11.9 16.39, 8.52 15.69, 6.89 15.63 C5.26 15.56, 4.67 16.42, 3.62 15.1 C2.58 13.77, 1.22 9.79, 0.62 7.66 C0.01 5.53, -0.79 3.74, -0.01 2.33 C0.77 0.91, 4.28 -0.34, 5.3 -0.83 C6.31 -1.32, 6.26 -0.72, 6.09 -0.61" stroke="none" stroke-width="0" fill="#868e96"></path><path d="M6.61 -0.61 C7.97 -1.02, 9.43 0.3, 10.61 1.44 C11.8 2.57, 13.15 4.7, 13.71 6.19 C14.28 7.67, 14.6 8.79, 14.01 10.32 C13.41 11.86, 11.5 14.46, 10.13 15.39 C8.76 16.32, 7.38 16.44, 5.79 15.89 C4.19 15.33, 1.63 13.55, 0.57 12.05 C-0.48 10.56, -0.69 8.67, -0.54 6.91 C-0.4 5.16, 0.3 2.56, 1.45 1.52 C2.61 0.47, 5.21 0.79, 6.4 0.63 C7.58 0.47, 8.37 0.65, 8.56 0.55 M4.52 -0.13 C5.95 -0.87, 9.52 -1.05, 11.26 -0.43 C13.01 0.19, 14.31 1.98, 14.98 3.58 C15.66 5.17, 15.81 7.55, 15.3 9.13 C14.79 10.71, 13.2 11.78, 11.94 13.05 C10.69 14.32, 9.17 16.47, 7.79 16.77 C6.41 17.06, 4.94 16.26, 3.67 14.82 C2.41 13.37, 0.63 10.09, 0.2 8.1 C-0.24 6.11, 0.03 3.95, 1.05 2.87 C2.07 1.78, 5.5 1.86, 6.31 1.59 C7.13 1.33, 6 1.2, 5.94 1.28" stroke="#000000" stroke-width="1" fill="none"></path></g><g stroke-linecap="round" transform="translate(64.69368280513743 438.66454263489186) rotate(0 7.438434203773852 8.072978182789711)"><path d="M9.92 1 C11.42 1.66, 12.96 3.58, 13.69 5.19 C14.42 6.8, 14.49 9.21, 14.31 10.64 C14.13 12.07, 13.71 12.94, 12.6 13.8 C11.49 14.65, 9.24 15.92, 7.67 15.76 C6.1 15.61, 4.43 13.9, 3.2 12.87 C1.97 11.85, 0.6 11.14, 0.28 9.61 C-0.03 8.08, 0.45 5.36, 1.3 3.69 C2.14 2.02, 3.47 -0.06, 5.35 -0.41 C7.24 -0.75, 11.52 1.19, 12.6 1.64 C13.67 2.08, 12.19 2.29, 11.8 2.26 M8.44 1.37 C9.96 1.29, 10.89 0.49, 11.98 1.81 C13.06 3.13, 14.7 7.12, 14.95 9.28 C15.2 11.43, 14.36 13.66, 13.48 14.75 C12.6 15.85, 11.39 15.59, 9.67 15.84 C7.95 16.09, 4.52 17.02, 3.17 16.27 C1.81 15.52, 2.21 13.37, 1.52 11.34 C0.83 9.31, -1.11 5.77, -0.97 4.07 C-0.82 2.37, 0.96 1.64, 2.39 1.12 C3.81 0.6, 6.71 1.29, 7.58 0.95 C8.46 0.61, 7.67 -0.96, 7.63 -0.89" stroke="none" stroke-width="0" fill="#868e96"></path><path d="M6.21 -0.93 C7.59 -1.3, 10.38 -0.48, 11.85 0.64 C13.32 1.77, 14.8 4.1, 15.02 5.82 C15.24 7.54, 13.89 9.34, 13.16 10.95 C12.42 12.57, 11.89 14.86, 10.6 15.53 C9.3 16.2, 7.09 15.55, 5.41 14.98 C3.73 14.4, 1.5 13.46, 0.5 12.08 C-0.5 10.69, -0.73 8.43, -0.6 6.68 C-0.48 4.94, -0.2 2.55, 1.25 1.59 C2.71 0.64, 6.92 1.13, 8.14 0.96 C9.36 0.8, 8.78 0.74, 8.55 0.6 M9.33 1.75 C10.7 2.45, 12.11 3.73, 12.94 5.1 C13.77 6.47, 14.48 8.5, 14.31 9.97 C14.13 11.45, 13.24 12.87, 11.9 13.96 C10.56 15.05, 7.7 16.28, 6.26 16.5 C4.83 16.72, 4.24 16.45, 3.31 15.3 C2.38 14.15, 1.3 11.46, 0.68 9.6 C0.06 7.74, -0.9 5.41, -0.4 4.13 C0.11 2.85, 1.79 2.36, 3.69 1.91 C5.6 1.47, 9.91 1.54, 11.05 1.47 C12.19 1.39, 10.63 1.41, 10.54 1.46" stroke="#000000" stroke-width="1" fill="none"></path></g><g stroke-linecap="round" transform="translate(65.55355182317658 476.78895264402036) rotate(357.5021844865888 7.438434203773852 8.072978182789711)"><path d="M4.22 0.47 C5.58 -0.34, 7.97 -0.73, 9.57 -0.15 C11.18 0.43, 13.1 2.4, 13.84 3.96 C14.58 5.52, 14.22 7.44, 14.02 9.19 C13.81 10.94, 13.69 13.28, 12.61 14.47 C11.52 15.65, 8.91 16.25, 7.52 16.32 C6.13 16.39, 5.42 15.88, 4.26 14.9 C3.1 13.92, 1.3 11.94, 0.56 10.45 C-0.17 8.97, -1.03 7.81, -0.15 5.98 C0.73 4.16, 4.61 0.63, 5.84 -0.51 C7.07 -1.64, 7.33 -1.15, 7.23 -0.83 M5.54 -0.44 C6.59 -1.16, 6.73 -0.36, 8.25 0.35 C9.78 1.06, 13.34 2.25, 14.68 3.82 C16.02 5.39, 16.66 8.2, 16.29 9.77 C15.93 11.35, 13.66 12.04, 12.5 13.28 C11.34 14.52, 10.78 17.21, 9.31 17.21 C7.85 17.2, 5.43 14.65, 3.73 13.25 C2.02 11.84, -0.44 10.41, -0.94 8.78 C-1.43 7.15, -0.24 4.98, 0.77 3.46 C1.78 1.93, 4.72 0.27, 5.12 -0.37 C5.52 -1.01, 3.19 -0.81, 3.18 -0.38" stroke="none" stroke-width="0" fill="#868e96"></path><path d="M9.53 0.79 C10.8 1.54, 12.45 3.55, 13.27 4.93 C14.08 6.31, 14.76 7.42, 14.41 9.05 C14.06 10.68, 12.43 13.52, 11.19 14.7 C9.96 15.87, 8.65 16.37, 7.01 16.09 C5.38 15.82, 2.64 14.37, 1.39 13.07 C0.13 11.76, -0.4 10.01, -0.52 8.26 C-0.64 6.51, -0.19 3.79, 0.67 2.57 C1.54 1.34, 2.77 1.1, 4.69 0.93 C6.61 0.75, 10.93 1.5, 12.19 1.52 C13.45 1.53, 12.58 0.84, 12.24 1.01 M7.66 -0.84 C9.39 -1.15, 11.23 -0.26, 12.46 0.75 C13.69 1.76, 14.77 3.69, 15.04 5.21 C15.31 6.73, 14.69 8.1, 14.07 9.86 C13.45 11.63, 12.49 14.7, 11.3 15.81 C10.11 16.92, 8.54 17.22, 6.93 16.54 C5.33 15.85, 2.82 13.34, 1.68 11.69 C0.53 10.04, -0.21 7.97, 0.06 6.65 C0.33 5.34, 2.09 4.78, 3.31 3.8 C4.53 2.81, 6.72 1.18, 7.37 0.72 C8.03 0.26, 7.3 0.93, 7.24 1.05" stroke="#000000" stroke-width="1" fill="none"></path></g><g transform="translate(10 505.4002785026496) rotate(0 58.5 15)"><text x="58.5" y="21" font-family="Virgil, Segoe UI Emoji" font-size="23.161766062755152px" fill="#000000" text-anchor="middle" style="white-space: pre;" direction="ltr">Database</text></g><g stroke-linecap="round"><g transform="translate(290 310) rotate(0 -83.24270866950974 53.709814095404)"><path d="M1.09 -1.19 C-66.75 42.38, -128.33 82.45, -167.01 107.47 M0.37 0.68 C-52.14 33.5, -104.51 68.22, -167.58 108.61" stroke="#000000" stroke-width="2" fill="none"></path></g><g transform="translate(290 310) rotate(0 -83.24270866950974 53.709814095404)"><path d="M-148.35 83.52 C-158.28 95.76, -162.23 103.27, -167.59 108.08 M-149.07 85.39 C-155.02 91.72, -160.44 99.92, -168.15 109.22" stroke="#000000" stroke-width="2" fill="none"></path></g><g transform="translate(290 310) rotate(0 -83.24270866950974 53.709814095404)"><path d="M-137.23 100.77 C-151.41 106.23, -159.66 107.07, -167.59 108.08 M-137.95 102.64 C-147.48 103.53, -156.41 106.29, -168.15 109.22" stroke="#000000" stroke-width="2" fill="none"></path></g></g><g stroke-linecap="round"><g transform="translate(290 490) rotate(0 -83.36245295545086 -20.57952824840322)"><path d="M1.97 -0.44 C-49.06 -11.03, -95.9 -22.75, -168.22 -41.99 M-0.81 0.83 C-51.47 -12.75, -104.24 -26.3, -168.69 -39.5" stroke="#000000" stroke-width="2" fill="none"></path></g><g transform="translate(290 490) rotate(0 -83.36245295545086 -20.57952824840322)"><path d="M-137 -43.98 C-148.1 -41.56, -154.58 -40.43, -168.92 -41.49 M-139.78 -42.71 C-147.27 -41.51, -156.94 -41.33, -169.38 -38.99" stroke="#000000" stroke-width="2" fill="none"></path></g><g transform="translate(290 490) rotate(0 -83.36245295545086 -20.57952824840322)"><path d="M-141.35 -23.93 C-150.98 -27.36, -156.19 -32.08, -168.92 -41.49 M-144.13 -22.65 C-150.3 -27.68, -158.61 -33.74, -169.38 -38.99" stroke="#000000" stroke-width="2" fill="none"></path></g></g><g stroke-linecap="round"><g transform="translate(290 610) rotate(0 -82.81651774320949 -61.90176888044971)"><path d="M1.24 -1.1 C-65.97 -49.82, -131.88 -99.04, -166.44 -124.6 M0.87 0.8 C-66.46 -49.46, -131.73 -98.27, -166.88 -124.21" stroke="#000000" stroke-width="2" fill="none"></path></g><g transform="translate(290 610) rotate(0 -82.81651774320949 -61.90176888044971)"><path d="M-136.72 -116.89 C-149.63 -119.43, -161.37 -123.08, -167.37 -124.88 M-137.14 -114.75 C-149.68 -119.83, -160.22 -122.62, -167.87 -124.44" stroke="#000000" stroke-width="2" fill="none"></path></g><g transform="translate(290 610) rotate(0 -82.81651774320949 -61.90176888044971)"><path d="M-148.95 -100.41 C-157.07 -109.41, -163.97 -119.57, -167.37 -124.88 M-149.37 -98.27 C-157.09 -109.97, -162.76 -119.32, -167.87 -124.44" stroke="#000000" stroke-width="2" fill="none"></path></g></g></svg>