<svg version="1.1" xmlns="http://www.w3.org/2000/svg" viewBox="0 0 900 500" width="2700" height="1500">
  <!-- svg-source:excalidraw -->
  
  <defs>
    <style>
      @font-face {
        font-family: "Virgil";
        src: url("https://excalidraw.com/Virgil.woff2");
      }
      @font-face {
        font-family: "Cascadia";
        src: url("https://excalidraw.com/Cascadia.woff2");
      }
    </style>
  </defs>
  <g stroke-linecap="round" transform="translate(290 190) rotate(0 110 60)"><path d="M0 0 C0 0, 0 0, 0 0 M0 0 C0 0, 0 0, 0 0 M-0.94 6.44 C0.57 5.04, 2.11 2.47, 5.69 0.49 M0.05 6.28 C0.86 5.06, 2.57 3.34, 4.9 0.01 M-0.93 12.03 C3.9 8.73, 3.12 7.23, 11.53 0.81 M0.93 12.15 C3.27 8.96, 5.53 5.48, 9.86 -0.25 M-1.9 17.24 C4.34 11.97, 12.39 5.51, 16.43 -1.35 M-0.32 18.33 C4.46 14.25, 7.87 8.73, 16.28 -0.34 M0.6 23.41 C7.66 16.96, 14.1 9.28, 19.55 -1.2 M-0.39 24.47 C6.45 16.55, 12.55 9.08, 20.43 0.64 M-1.51 29.45 C8.61 21.72, 15.15 14.27, 26.19 -1.54 M-0.8 30.46 C8.28 21.75, 16.94 11.07, 26.84 1.24 M-1.63 37.31 C5.13 28.95, 13.91 20.02, 33.38 1.15 M0.52 35.89 C8.62 24.54, 18.76 14.1, 31.79 -0.47 M-0.36 42.97 C11.01 26.95, 24.91 13.25, 35.1 1.57 M0.79 42.6 C8.44 32.76, 15.45 23.86, 36.17 0.16 M-1.15 49.32 C10.98 34.62, 22.24 25.02, 43.85 0.28 M0.74 48.03 C9.21 38.05, 17.04 29.25, 42.1 0.57 M-1.46 53.62 C12.63 40.03, 25.34 24.22, 47.76 0.42 M0.6 54.13 C17.65 34.63, 34.25 14.83, 48.01 0.11 M0.38 60.23 C9.52 48.44, 24.26 34.03, 52.08 -1.65 M-0.86 60.53 C11.38 46.35, 25.13 32.6, 53.21 0.2 M-1.98 67.96 C12.24 52.43, 25.23 34.66, 56.3 0.4 M-0.37 67.43 C15.54 47.8, 32.45 28.39, 59.04 -0.46 M1.47 71.08 C19.45 47.83, 44.88 22.98, 63.71 1.49 M0.23 73.03 C22.94 46.23, 46.23 19.74, 63.43 0.15 M-0.58 78.23 C16.46 58.67, 34.92 41.68, 70.41 1.89 M-0.66 79.92 C24.67 50.16, 48.93 22.09, 67.98 0.68 M2.16 85.86 C25.12 57.13, 47.6 30.42, 74.94 -2.18 M0.53 84.96 C20.91 62.54, 38.65 40.13, 74.58 0.4 M0.65 92.91 C27.86 57.62, 57.88 25.19, 79.28 -1.78 M0.68 91.51 C18.63 67.93, 38.59 44.48, 78.49 0.52 M1.39 98.28 C17.5 77.23, 34.67 56.62, 86.48 -0.61 M-1.13 97.25 C28.88 62.37, 59.53 27.41, 84.95 0.2 M0.8 103.71 C28.13 69.07, 58.1 36.45, 89.65 1.7 M-0.23 102.64 C27.81 73.19, 54.6 42.05, 90.24 -0.17 M1.56 110.77 C30.2 75.33, 63.54 39.86, 97.59 0.25 M0.03 110.33 C36.85 69.49, 71.83 26.25, 96.31 -0.93 M1.49 116.27 C28.42 87.02, 53.14 56.5, 99.78 1.6 M0.19 116.01 C33.24 77.64, 66.92 39.91, 99.87 0.11 M-0.68 120.23 C32.03 84.44, 65.64 49.79, 108.03 -1.59 M0.47 120.9 C24.13 94.56, 45.36 69.5, 106.94 -0.23 M6.79 121.46 C29.5 95.19, 50.44 68.81, 109.47 -1.83 M5.93 120.8 C27.81 95.23, 50.83 68.72, 112.01 0.67 M10.01 119.96 C36.43 91.17, 63.44 62.06, 115.48 -1.4 M11.82 120.89 C33.97 94.14, 57.3 67.21, 115.92 0.12 M16.07 120.38 C37.92 96.99, 61.06 70.27, 122.04 0.61 M17.23 120.75 C54.15 78.76, 91.59 37.07, 122.27 -0.44 M21.52 122.11 C62.31 74.02, 104.33 24.97, 128.07 -0.74 M21.66 120.85 C58.1 80.18, 95.07 36.55, 126.79 0.92 M25.95 121.88 C67.32 71.22, 108.38 26.43, 134.34 1.12 M27.54 120.64 C64.42 77.37, 100.86 34.98, 132.26 0.59 M33.05 122.5 C57.9 90.2, 85.4 61.64, 138.53 -0.94 M33.4 121.79 C56.8 95.75, 79.13 67.02, 136.62 -0.5 M40.18 119.51 C70.25 84.21, 101.32 49.37, 142.78 0.84 M38.4 120.24 C76.76 76.22, 114.55 32.16, 142.55 0.34 M43.39 121.9 C69.43 91.96, 96.46 60.47, 148.77 -0.12 M43.45 121.48 C68.06 91.12, 93.8 62.93, 147.6 -0.3 M47.04 118.77 C83.33 78.93, 118.2 36.32, 153.27 -0.11 M49.81 120.58 C87.7 76.35, 125.23 32.63, 153.72 -0.81 M52.82 120.05 C85.04 81.28, 118.36 47.21, 159.22 1.58 M54.17 121.46 C80.89 88.97, 109.99 57.65, 159.42 -0.37 M61.34 119.15 C98.67 79.73, 132.7 35.53, 163.26 -0.65 M59.26 120.96 C87.24 90.5, 113.78 60.5, 165.31 0.22 M65.17 121.67 C89.69 92.55, 114.33 63.24, 170.84 -0.02 M64.93 120.04 C101.71 77.27, 139.04 32.08, 170.24 0.67 M70.43 120.08 C98.92 86.3, 126.35 51.72, 175.73 -0.71 M70.75 119.93 C106.78 79.13, 145.69 35.58, 174.86 0.34 M73.81 122.44 C111.98 82.65, 145.34 39.27, 179.14 0.87 M75.09 121.28 C102.11 90.45, 128 60.1, 179.73 0.45 M80.17 119 C101.38 95.12, 127.15 67.4, 185.21 0.72 M79.74 120.32 C115.05 80.89, 149.65 42.67, 184.9 -0.82 M87.61 119 C112.77 93.33, 135.2 62.56, 192.14 2.01 M84.97 120.02 C110.27 93.96, 135.57 64.49, 190.01 -0.12 M92.98 121.27 C116.1 92.24, 136.24 67.95, 195.72 -0.35 M92.17 120.23 C114.92 92.02, 141.72 62.18, 195.91 0.17 M97 118.97 C120.79 92.86, 146.68 61.6, 200.41 -0.88 M96.89 120.87 C126.34 85.48, 158.92 48.81, 200.72 0.14 M101.79 122.25 C131.55 86.57, 159.96 50.79, 206.86 1.03 M101.48 120.02 C133.39 82.33, 165.89 44.31, 207.41 -0.53 M107.93 118.95 C147.77 78.07, 186.11 32.81, 211.03 -0.1 M106.16 121.18 C128.35 96.72, 150.19 73.15, 211.94 -0.35 M111.4 122.02 C146.98 79, 184.01 38.3, 215.73 0.79 M112.94 122.06 C149.61 76.43, 187.86 32.35, 216.85 -0.96 M115.88 122.49 C147.93 85.56, 180.06 48.28, 220.33 3.54 M118.05 120.08 C156.3 77.11, 194.5 33.68, 221.98 0.63 M123.14 120.36 C155.95 86.12, 188.47 49.01, 220.4 7.39 M123.26 120.74 C158.13 79.73, 193.4 38.18, 222.13 7.13 M127.88 122.1 C153.55 91.65, 180.03 60.52, 222.58 12.71 M128.84 121.49 C148.73 97.5, 168.02 75.68, 221.02 14.11 M132.86 119.29 C154.02 96.68, 173.96 72.65, 221.68 17.67 M133.67 121.96 C158.65 89.84, 183.93 60.18, 222.33 19.2 M140.45 121.3 C168.6 85.32, 198.67 51.29, 219.65 24.45 M138.79 121.05 C157.71 100.91, 176.14 79.66, 221.81 25.75 M143.65 122.03 C163.69 96.38, 186.77 70.83, 220.54 32.69 M143.54 121.15 C163.89 97.34, 183.75 74.14, 222.14 32.71 M149.69 120.54 C164.01 102.36, 179.33 83.29, 220.76 38.35 M149.12 121.21 C167.35 99.31, 185.49 77.93, 222.39 37.05 M155.08 119.78 C179.21 90.45, 205.61 60.59, 221.52 42.75 M154.72 120.99 C169.92 105.72, 183.69 88.2, 222.3 43.17 M161.19 119.24 C178.22 101.61, 195.82 81.15, 221.66 47.93 M161.08 120.14 C176.45 101.04, 192.41 82.62, 222.29 49.78 M165.28 121.7 C181.26 104, 194.46 85.25, 222.75 57.39 M164.57 120.43 C176.13 107.46, 189.56 92.4, 220.54 57.1 M172.1 121.82 C192.03 97.95, 209.72 76.16, 221.98 63.47 M170.85 120.82 C189.19 100.27, 206.42 80.19, 220.88 61.72 M176.91 120.93 C190.47 101.9, 208.51 85.95, 220.51 68.34 M174.9 121.7 C191.88 101.92, 208.31 82.75, 221.23 68.04 M181.09 119.64 C192.49 109.35, 201.92 101.35, 221.82 74.93 M180.64 119.98 C194.52 105.21, 206.96 92.53, 220.95 74.66 M187.15 120.57 C193.42 113.99, 202.23 102.34, 222.62 80.32 M187.03 121.28 C195 110.24, 205.2 100.26, 221.75 80.29 M190.36 121.03 C197.21 113.2, 206.11 105.57, 219.89 86.5 M191.63 121.09 C202.64 109.67, 210.56 98.47, 221.84 85.91 M197.72 119.7 C205.05 110.97, 216 99.6, 221.8 93.76 M196.74 120.91 C205.23 110.24, 214.33 100.26, 220.79 92.68 M203.63 121.31 C211.14 111.59, 218.12 103.32, 222.06 99.62 M202.97 121.42 C207.75 114.93, 211.14 110.86, 221 98.31 M208.87 119.35 C214.12 116.57, 215.95 109.27, 220.24 103.81 M207.32 120.62 C210.32 116.51, 213.75 113.45, 221.99 104.53 M212.57 120.65 C213.99 118.71, 217.93 116.1, 222.4 111.31 M212.97 120.81 C215.7 118.25, 216.9 115.23, 222.19 110.19 M218.04 120.76 C219.92 119.92, 220.9 117.75, 221.09 117.5 M218.33 121.04 C218.99 119.92, 220.25 118.88, 221.41 117.1" stroke="#4c6ef5" stroke-width="0.5" fill="none"></path><path d="M-0.19 0.19 C59.37 0.49, 121.07 -0.56, 219.92 0.56 M-0.22 -0.12 C51.1 0.43, 101.11 0.42, 219.91 -0.26 M220.4 -0.5 C219.99 38.15, 217.75 77.2, 219.18 118.86 M219.54 0.94 C218.07 34.37, 218.24 68.86, 220.07 119.99 M219.14 120.95 C139.4 120.71, 58.89 122.14, -0.7 120.19 M219.38 119.19 C167.76 122.22, 115.61 122.47, 0.47 120.22 M0.83 120.97 C-2.28 89.87, 0.69 55.34, -0.78 -0.32 M-0.07 119.58 C0.24 83.76, -0.03 49.21, -0.83 -0.87" stroke="#000000" stroke-width="1" fill="none"></path></g><g stroke-linecap="round" transform="translate(670 190) rotate(0 110 60)"><path d="M0 0 C0 0, 0 0, 0 0 M0 0 C0 0, 0 0, 0 0 M0.49 6.09 C2.45 3.99, 3.02 1.18, 4.93 -0.28 M-0.47 6.03 C1.02 5.16, 2.4 3.47, 4.88 0.71 M1.01 10.86 C5.09 5.66, 8.08 3.09, 11.34 -1.27 M-0.01 12.74 C2.2 9.86, 3.98 6.76, 11.19 -0.37 M1.24 17.52 C4.5 14.63, 7.39 9.02, 16.84 0.24 M0.42 18.28 C5.74 11.81, 9.34 6.95, 16.22 0.57 M-0.09 23.55 C4.38 16.77, 11.41 12.39, 22.28 1.12 M0.2 24.37 C5.53 18.5, 8.88 13.35, 20.32 -0.98 M1.63 29.77 C5.6 25.17, 13.46 15.42, 28.19 2.23 M-0.04 31.19 C5.27 24.36, 12.7 16.62, 26.74 1.18 M-2.22 36.8 C11.54 22.88, 23.68 9.97, 33.41 1.67 M-0.62 36.79 C8.57 26.04, 18.01 15.92, 32.31 0.09 M-0.93 41.67 C12.97 25.5, 26.74 10.71, 38.3 1.14 M-0.5 42.72 C10.16 32.63, 18.53 20.52, 37.73 -0.34 M-2.07 48.81 C17.53 28.73, 34.69 10.22, 44.33 -1.33 M0.1 48.44 C9.15 38.66, 18.4 28.65, 43.11 -0.14 M-0.65 55.45 C14.66 37.11, 31.71 16.46, 49.12 -0.7 M0.66 55.17 C15.45 37.14, 29.8 19.72, 48.12 0.87 M0.01 62.32 C12.63 48.42, 23.64 34, 54 -0.27 M0.43 60.11 C10.6 47.25, 22.62 34.95, 53.53 0.2 M-0.87 67.09 C15.17 50.09, 32.07 29.68, 59.1 -0.95 M-0.61 68.33 C21.4 43.28, 44 19.37, 57.33 0.92 M0.87 71.27 C20.86 50.29, 40.17 27.36, 62.9 -0.61 M-0.39 73.13 C19.06 53.87, 36.67 33.3, 64.35 0.74 M-1.4 81.24 C14.84 57.69, 34.37 40.17, 69.26 0.67 M-0.38 79.53 C26.7 47.92, 52.92 16.02, 68.28 0.22 M-0.13 83.58 C23.76 56.95, 49.93 30.15, 75.03 1.19 M0.35 85.07 C24.8 57.03, 47.88 28.34, 75.34 -0.12 M-0.53 89.83 C27.9 56.64, 58.99 23.23, 81.1 0.42 M0.26 91.09 C30.53 57.16, 60.24 22.2, 80.33 0.42 M0.28 95.89 C19.94 77.55, 37.41 57.42, 83.95 -0.39 M-0.8 97.53 C27.83 65.7, 57.18 33.25, 84.26 -0.21 M1.67 102.97 C25.84 76.86, 47.66 49.81, 90.71 0.52 M0.88 104.38 C35.05 64.96, 68.92 25.16, 90.38 -0.57 M1.83 108.54 C28.94 75.71, 58.38 38.94, 94.74 -1.89 M0.15 110.11 C33.94 68.9, 69.34 29.92, 95.84 -0.62 M0.66 115.74 C30.65 80.5, 58.34 48.47, 98.67 -0.81 M0.03 115.51 C24.88 90.47, 46.77 61.92, 99.76 0.45 M-0.5 119.35 C30.42 88.36, 60.27 51.3, 105.99 -0.87 M0.38 121.17 C33.59 80.37, 67.72 41.13, 106.81 -0.64 M7.32 119.41 C34.4 91.47, 62.48 57.32, 112.1 0.57 M6.16 121.56 C31.71 91.88, 55.57 63.03, 111.33 0.92 M11.96 121.55 C48 78.22, 84.83 34.72, 115.2 -1.18 M11.72 120.8 C38.14 91.18, 65.59 60.72, 116.23 -0.07 M16.85 122.52 C52.69 81.47, 85.02 43.01, 122.66 0.81 M17.48 120.7 C45.47 87.95, 74.38 54.16, 122.4 -0.43 M23.41 122.21 C49.19 87.81, 80.56 57.05, 127.35 2.05 M21.46 120.22 C45.1 96.34, 67.68 69.57, 127.09 0.83 M26.7 120.33 C57.9 84.07, 91.2 47.88, 132.54 -1.99 M26.88 120.62 C61.02 82.64, 94.19 42.19, 131.8 -0.62 M34.41 119.07 C70.02 72.89, 110.63 28.27, 136.98 0.9 M32.23 121.61 C75.07 72.29, 117.38 25.02, 137.41 0.78 M38.46 119.81 C72.47 80.8, 106.54 42.71, 144.44 -1.76 M38.87 120.5 C70.75 83.67, 102.51 45.33, 142.8 0.59 M42.05 121.82 C76.46 81.13, 109.75 43.78, 148.82 1.67 M43.14 120.39 C65.43 95.73, 88.41 71.3, 147.87 -0.44 M47.23 118.9 C89.94 72.51, 130.78 24.92, 155.63 1.54 M47.92 121.28 C76.18 90.6, 102.52 59.9, 154.19 -0.27 M53.95 122.13 C90.33 82.4, 122.23 41.92, 159.14 -0.34 M54.77 120.27 C96.4 71.83, 137.1 24.44, 158.09 -0.32 M59.64 120.5 C90.08 88.44, 118.43 51.67, 163.88 -0.08 M59.49 120.68 C93.86 80.63, 129.45 39.98, 165.23 0.58 M66.27 119.63 C101.18 80.48, 139.51 36.36, 169.74 1.09 M64.21 120.23 C97.07 83.04, 130.93 45.06, 169.71 -0.57 M71.88 122.46 C110.14 76.55, 148.59 33.54, 173.5 -0.64 M71.01 120.17 C93.34 91.12, 119.09 62.6, 174.67 -0.83 M73.69 119.93 C104.99 83.91, 138.29 46.71, 181.94 1.18 M76 121.49 C104.99 88.56, 133.63 56.2, 179.35 -0.14 M79.64 119.64 C103.34 95.51, 121.93 71.67, 185.34 -2.19 M80.91 119.99 C122.57 72.73, 165.65 23.73, 185.74 -1.18 M87.44 120.59 C110.77 92.76, 133.59 65.22, 190.59 2.11 M85.19 120.55 C125.67 73.56, 165.2 27.27, 191.61 -0.2 M92.15 121.83 C131.22 74.42, 172.51 28.02, 194.76 -0.83 M91.61 120.15 C126.43 80.68, 161.84 40.99, 197.15 -0.89 M97.25 121.16 C134.07 77.59, 170.85 35.67, 202.1 -0.97 M96.32 120.17 C124.97 85.74, 156.76 50.9, 202.06 0.83 M102.18 119.81 C127.75 91.52, 154.4 61.8, 205.67 -0.66 M102.5 121.43 C139.47 77.07, 176.03 34.55, 206.11 -1.12 M105.41 121.14 C129.08 95.19, 151.48 69.8, 212.37 -1.93 M106.39 120.4 C135.11 87.75, 164.1 56.49, 212.27 0.29 M111.37 120.07 C152.54 71.77, 193.65 24.9, 216.51 0.17 M112.3 121.1 C133.04 95.41, 157.11 70.55, 217.3 -0.75 M116.74 122.02 C153.73 80.77, 188 38.69, 219.56 -0.19 M117.91 121.52 C151.97 80.8, 185.99 43.05, 221.49 1.83 M122.85 119.83 C159.01 80.39, 195.55 37.17, 219.69 7.02 M122.69 120.98 C148.98 90.23, 177.26 56.6, 221.32 8.12 M128.56 121.24 C162.78 80.86, 195.65 41.48, 220.76 15.37 M127.84 121.09 C154.51 90.18, 180.99 59.91, 222.38 14.37 M131.33 121.52 C160.87 86.52, 193.27 51.76, 223.32 20.68 M133.37 120.88 C167.18 81.54, 199.53 43.03, 221.46 19.13 M140.77 122.21 C163.72 93.16, 187.05 64.35, 221.68 25.21 M138.67 120.95 C161.62 93.35, 186.66 65.78, 221.63 25.99 M143.7 119.79 C164.74 99.09, 186.69 71.69, 220.73 33.11 M143.65 120.64 C166.91 93.42, 192.19 65.86, 222.13 32.4 M149.75 120.33 C167.92 100.24, 185.73 78.71, 220.36 39.32 M149.33 120.18 C173.57 93.93, 196.98 65.64, 220.76 37.12 M156.38 120.25 C176.31 97.7, 196.1 70.51, 221.77 44.55 M154.87 121.86 C178.65 93.41, 201.41 65.88, 221.27 44.6 M158.45 120.94 C183.18 93.5, 209.34 63.9, 222.38 48.67 M160.26 120.15 C178.44 99.03, 198.58 75.71, 222.26 48.92 M165.31 121.5 C177.62 103.59, 195.21 91.46, 222.89 57.45 M165.33 120.91 C186.13 96.99, 206.64 73.28, 221.32 55.92 M170.34 121.37 C186.12 101.47, 200.35 85.08, 222.19 63.94 M170.38 121.48 C189.52 99.37, 207.08 79.69, 221.94 63.1 M175.99 121.08 C185 108.67, 194.98 96.68, 219.71 67.46 M175.3 121.91 C189.87 105.76, 202.37 90.62, 220.88 68.06 M179.41 120.9 C192.18 109.17, 199.97 97.8, 219.75 74.52 M182.1 121.06 C194.11 105.5, 208.67 89.05, 220.57 73.86 M185.43 121.53 C199.2 106.24, 212.34 89.57, 220.39 78.23 M186.06 121.77 C193.33 111.48, 201.6 103.7, 221.02 79.98 M192.19 118.8 C199.35 112.03, 205.92 104.04, 222.56 87.03 M192.3 121.04 C201.95 109.53, 212.45 98.45, 220.94 87.43 M196.16 120.34 C202.89 112.45, 209.69 107.75, 222.95 92.11 M196.86 121.15 C205.45 111.21, 214.35 100.54, 221.65 93.68 M201.74 120.29 C209.71 111.73, 214.46 106.85, 222.33 100.32 M203.35 119.85 C209.53 111.84, 215.97 103.88, 221.48 98.06 M206.28 119.97 C211.41 117.85, 214.1 110.88, 219.92 105.16 M207.95 121.48 C210.99 117.57, 214.88 112.69, 221.12 104.15 M213.53 119.24 C214.42 118.72, 216.6 116.07, 220.82 111.65 M213.82 120.92 C214.89 117.28, 218.23 115.3, 222.31 110.06 M218.54 121.09 C219.69 119.36, 220.44 118.62, 221.26 117.22 M218.08 120.61 C219.6 119.64, 220.47 118.17, 221.48 117.02" stroke="#fab005" stroke-width="0.5" fill="none"></path><path d="M-1.14 0.15 C59.31 -1.46, 120.41 -0.92, 219.56 -0.31 M-0.17 -0.84 C70.46 -0.64, 140.34 -0.39, 219.31 0.13 M219.83 -1.62 C221.01 30.61, 221.11 62.33, 218.27 121.25 M219.72 0.58 C221.2 29.65, 220.77 59.49, 220.68 120.92 M220.93 120.83 C171.13 121.31, 119.83 119.76, 1.49 120.76 M220.7 120.75 C144.39 118.47, 69.63 118.77, 0.55 120.69 M-1.57 121.45 C0.75 83.15, -1.23 49.81, -1 0.99 M0.09 120.65 C0.26 85.85, 0.82 51.66, 0.92 -0.54" stroke="#000000" stroke-width="1" fill="none"></path></g><g stroke-linecap="round"><g transform="translate(70.74159595854576 250.6488297427445) rotate(0 109.31047820616516 0.08585523407498385)"><path d="M-0.74 0.82 C35.9 0.69, 183.05 -0.59, 219.36 -0.65 M1.07 0.21 C37.69 0.2, 182.6 0.16, 218.99 0.44" stroke="#000000" stroke-width="2" fill="none"></path></g><g transform="translate(70.74159595854576 250.6488297427445) rotate(0 109.31047820616516 0.08585523407498385)"><path d="M192.14 12.45 C196.66 6.28, 205.81 6.57, 219.95 2.1 M191.63 11.05 C201.16 7.59, 210.12 4.31, 219.85 -0.14" stroke="#000000" stroke-width="2" fill="none"></path></g><g transform="translate(70.74159595854576 250.6488297427445) rotate(0 109.31047820616516 0.08585523407498385)"><path d="M192.2 -8.07 C196.73 -8.91, 205.86 -3.29, 219.95 2.1 M191.7 -9.47 C201.25 -5.66, 210.19 -1.67, 219.85 -0.14" stroke="#000000" stroke-width="2" fill="none"></path></g></g><g stroke-linecap="round" transform="translate(670 10) rotate(0 110 60)"><path d="M0 0 C0 0, 0 0, 0 0 M0 0 C0 0, 0 0, 0 0 M0.22 6.35 C0.74 4.2, 2.03 3.68, 5.5 -0.34 M0.01 6.61 C1.15 5, 2.21 3.47, 4.97 0.01 M-1.22 11.13 C2.19 8.18, 6.86 4.62, 11.23 -0.22 M0.02 11.49 C4.15 7.83, 6.97 5.03, 10.18 0.49 M1.82 17.69 C3.18 16.5, 7.75 9.5, 17.09 0.51 M-0.99 18.98 C4.48 13.25, 9.1 6.94, 15.42 0.09 M0.54 25.82 C7.1 20.09, 11.58 13.65, 23.16 -1.15 M1.19 23.31 C6.65 16.23, 15.02 7.44, 21.52 0.87 M0.26 30.43 C9.26 18.32, 16.89 8.99, 26.38 0.81 M-0.72 30.11 C7.58 22.35, 15.74 13.19, 26.96 0.61 M-0.19 38.01 C11.81 21.13, 23.01 11.07, 32.14 1.23 M-1.06 36.29 C8.95 26.01, 18.87 15.1, 32.04 0.71 M-0.55 43.36 C13.34 28.48, 24.96 17.08, 37.47 -1.51 M-0.83 43.3 C9.25 32.7, 18.43 21.48, 36.82 0.58 M-0.73 48.56 C13.17 35.49, 26.81 17.04, 42.64 -0.89 M-0.38 49.54 C9.35 37.74, 18.6 27.74, 42.74 0.7 M2.08 56.33 C18.58 36.05, 34.56 17.46, 46.2 0.51 M-0.4 54.28 C16.74 34.74, 31.96 16.16, 46.72 0.83 M0.47 60.81 C16.57 41.72, 36.04 19.86, 52.53 -0.34 M0.12 61.8 C17.9 39.58, 37.25 17.19, 52.72 -0.85 M-0.28 68.9 C16.85 49.25, 28.12 31.7, 58.93 -0.22 M-1.16 67.31 C16.3 49.43, 30.74 30.76, 57.87 0.42 M0.16 71.29 C19.24 46.84, 40.72 25.21, 63.18 -0.98 M-0.54 73.34 C20.73 51.15, 38.73 28.71, 64.06 -0.85 M1.47 79.34 C15.67 58.61, 31.46 41.34, 70.58 1.18 M0.09 79.16 C18.69 57.05, 37.16 34.9, 67.99 -0.29 M-0.38 84.52 C22.06 61.3, 43.89 36.5, 73.53 0.33 M1.17 85.69 C22.73 58.94, 45.68 34.01, 74.83 -0.45 M-0.06 91.14 C29.32 57.9, 56.98 27.91, 78.58 -0.44 M0.57 90.63 C21.6 66.29, 44.52 40.78, 80.25 -0.7 M-1.99 99.72 C32.86 64.19, 62.71 28.14, 86.01 -0.34 M-0.43 97.39 C24.35 69.97, 49.26 40.45, 84.07 -0.03 M-0.02 104.01 C35.19 64.39, 66.08 25.66, 88.89 1.76 M-0.85 102.5 C32.73 63.3, 67.09 25.29, 90.32 1.07 M0.98 109.84 C22.21 84.44, 47.11 56.57, 96.62 0.07 M-0.54 110.01 C23.85 81.78, 48.77 53.56, 94.84 -0.21 M-0.05 116.63 C35.5 74.77, 68.14 34.7, 102.02 0.55 M0.68 115.37 C34.93 75.64, 70.55 36.65, 101.36 -0.85 M-0.6 119.29 C22.4 96.07, 46.14 70.29, 104.88 1.59 M-0.19 120.87 C31.72 85.44, 63.06 51.17, 107.13 -0.85 M7.62 121.87 C33.22 92.51, 58.71 61.36, 111 0.7 M6.89 121.76 C43.99 78.18, 80.37 37.04, 111 0.95 M9.87 121.89 C32.83 92.16, 57 63.74, 115.16 -0.04 M11.26 121.99 C47.27 80.83, 81.03 39.58, 116.32 0.73 M17.12 119.86 C53.48 79.95, 88.57 41.22, 123.38 0.94 M16.29 120.29 C39.5 95.09, 60.32 69.62, 122.36 0.15 M20.48 119.31 C51.55 87.49, 81.02 55.24, 125.35 1.64 M22.89 121.57 C47.14 92.12, 72.52 62.23, 126.68 -0.3 M26.8 119.45 C65.55 75.08, 104.94 28.22, 131.27 -0.04 M27.08 120.1 C62.43 81.14, 97.25 41.22, 133.05 -0.33 M33.69 121.87 C56.39 94.07, 80.87 64.74, 136.92 -1.68 M32.12 121.71 C62.05 87.29, 91.59 53.94, 136.55 1.25 M37.14 119.21 C60.22 97.54, 79.09 70.95, 141.27 -1.58 M38.06 120.84 C60.48 93.71, 82.75 68.12, 144.17 0.72 M42.51 121.87 C76.98 80.59, 111.98 41.62, 147.5 1.89 M43.86 120.81 C72.43 87.94, 101 53.63, 147.88 0.6 M48.16 118.67 C70.47 94.52, 93.03 72.29, 152.55 0.97 M48.99 120.89 C80.75 83.81, 112.82 47.78, 153.28 -0.22 M52.46 119.56 C94.54 75.3, 135.74 28.42, 160.25 -0.78 M53.5 120.52 C81.49 89.72, 108.58 58.37, 158.61 0.71 M61.4 120.31 C79.15 94.96, 99.74 68.49, 162.8 -1.8 M59.63 120.42 C95.51 80.47, 131.21 40.56, 163.44 -0.44 M63.61 121.17 C99.3 81.37, 138.36 39.58, 169.88 2.16 M63.9 120.77 C104.93 73.75, 146.42 26.96, 169.67 -0.66 M69.95 119.6 C110.37 75.71, 153.05 26.63, 174.22 0.69 M70.72 120.36 C94.49 92.34, 118.12 64.63, 174.2 0.08 M76.55 120.9 C100.83 89.29, 130.73 58.02, 180.63 1.5 M74.43 120.75 C102.86 89.42, 129.35 57.17, 179.98 -0.01 M80.4 118.97 C121.29 75.14, 156.91 30.93, 187.58 0.98 M80.97 121.41 C118.94 75.74, 157.8 29.75, 186.59 -0.41 M86.4 118.92 C107.18 94.49, 129.06 72.76, 192.26 1.02 M85.92 119.9 C125.84 75.37, 166.4 29.69, 191.41 0.93 M90.9 121.82 C124.07 79.41, 158.9 40.15, 196.14 -0.42 M92.11 121.02 C126.16 79.32, 160.66 38.96, 196.12 -0.36 M96.81 119.35 C132.93 79.74, 169.42 37.28, 202.06 -0.54 M95.7 120.95 C129.69 84.54, 160.16 46.49, 201.86 0.19 M101.12 118.51 C132.41 85.99, 163.16 51.66, 207.73 -1.04 M101.81 120.42 C139.58 77.14, 176.72 34.52, 207.79 0 M105.98 120.31 C132.92 91.09, 155.98 61.99, 210.86 0.54 M106.58 120.87 C138.45 83.36, 168.25 48.86, 212.19 0.6 M113.61 121.15 C135.43 91.06, 159.05 64.62, 218.67 1.57 M112.11 120.35 C138.6 91.79, 164.18 61.66, 217.07 -0.24 M116.62 119.85 C152.88 82.02, 184.7 41.75, 219.7 0.45 M117.85 119.92 C142.87 92.74, 169.94 63.49, 221.94 2.21 M122.4 122.53 C157.93 80.82, 193.91 38.33, 221.3 7.37 M122.97 121.07 C153.2 83.96, 185.83 48.58, 222.38 7.77 M129.97 122.03 C155.19 89.36, 185.27 58.56, 222.61 11.9 M128.29 120.61 C162.49 80.55, 196.95 39.7, 221.06 13.43 M135.11 122.67 C155.27 96.1, 177.53 68.36, 221.62 17.74 M133.39 121.85 C153.75 97.67, 174.5 72.29, 221.78 19.61 M139.83 118.86 C163.26 93.46, 184.87 64.85, 220.18 26.93 M139.16 120.72 C167.21 89.44, 193.94 56.85, 220.55 24.79 M145.53 119.83 C167.83 92.35, 195.09 61.97, 220.87 31.24 M142.98 120.98 C170.89 88.78, 198.77 58.39, 221.49 32.38 M150.49 120.3 C167.7 101.35, 185.67 79.45, 223.37 37.13 M149.22 120.31 C171.27 95.71, 194.45 71.86, 221.23 38.16 M154.98 121.2 C177.2 95.96, 198.13 69.53, 222.81 44.7 M154.37 121.51 C179.31 90.94, 206.66 61.5, 222.25 44.68 M158.8 120.31 C172.18 103.1, 185.91 88.02, 220.67 49.07 M159.68 120.67 C178.08 101.09, 193.66 81.34, 221.87 49.16 M166.34 120.99 C184.34 101.48, 200.04 79.56, 219.8 55.15 M164.16 120.27 C185.23 97.37, 204.93 74.53, 222.29 55.66 M172.14 118.81 C182.74 105.4, 198.75 88.62, 219.42 63.02 M171.27 121.39 C190.06 98.17, 210.42 75.16, 221.59 62.95 M173.98 122.32 C186.09 109.64, 194.3 98.95, 221.36 66.86 M175.93 120.83 C185.09 110.05, 196.02 97.88, 221.02 68.97 M182.41 119.67 C196.65 102.19, 209.81 86.22, 222.49 75.96 M181.18 121.3 C195.87 103.58, 212.5 85.51, 221.45 74.19 M185.83 119.33 C196.28 110.67, 200.75 101.17, 223.56 82.05 M187.24 120.56 C194.92 112.33, 203.19 102.48, 221.29 80.54 M192.04 120.75 C199.96 112.67, 204.31 104.89, 222.3 88.11 M192.1 121.53 C202.13 107.51, 213.56 97.31, 221.54 86.56 M197.33 119.1 C204.97 113.28, 215.15 100.79, 222.32 91.68 M196.65 121.56 C202.64 114.3, 208.61 106.19, 221.8 92.3 M204.01 119.88 C207.98 112.99, 215.7 107.01, 221.45 97.9 M203.21 120.44 C207.53 116.61, 211.3 110.97, 222.59 98.74 M209.48 119.68 C211.41 115.99, 217.63 110.99, 222.09 106.4 M206.69 121.71 C212.44 115.36, 216.72 110.49, 220.72 104.2 M212.32 120.71 C215.23 117.82, 217.88 115.68, 221.99 109.41 M213.19 120.61 C215.75 117.42, 219.12 113.06, 222.12 110.37 M218.39 120.65 C218.58 119.77, 219.27 118.96, 221.62 116.57 M218.42 121.04 C219.24 119.79, 219.74 118.79, 221.34 117.23" stroke="#fab005" stroke-width="0.5" fill="none"></path><path d="M0.51 0.76 C54.6 -1.45, 109.7 -1.49, 218.41 -1.39 M-0.31 -0.08 C65.99 -0.73, 130.11 -0.71, 220.84 -0.6 M221.42 -1.47 C221.01 39.87, 219.5 78.22, 221.78 121.56 M219.96 -0.36 C219.23 23.77, 219.77 49.04, 220.88 119.75 M219.85 120.1 C147.54 120.46, 76.72 120.04, 0.33 121.13 M219.63 119.76 C151.7 118.9, 84.29 119.6, 0.38 119.55 M0.4 121.96 C1.15 82.03, -2.04 44.91, -1.19 1.73 M-0.05 120.37 C-1.53 95.39, -1.31 70.28, -0.59 -0.87" stroke="#000000" stroke-width="1" fill="none"></path></g><g stroke-linecap="round" transform="translate(670 370) rotate(0 110 60)"><path d="M0 0 C0 0, 0 0, 0 0 M0 0 C0 0, 0 0, 0 0 M0.28 6.82 C1.17 5.15, 1.96 3.64, 4.95 -0.33 M-0.6 6.17 C1.13 4.42, 3.17 2.54, 5.14 0.31 M-0.08 10.94 C4.88 7.31, 7.28 5.41, 9.72 1.02 M0.91 11.74 C2.36 10.3, 5.04 6.51, 11.22 0.04 M-1.85 19.52 C4.13 13.61, 8.6 6.5, 15.22 -0.14 M0.01 19.31 C4.59 15.01, 8.1 10.34, 16.57 -0.22 M2.11 22.53 C5.86 16.75, 15.21 7.69, 21.77 1.82 M0.4 24.05 C7.51 14.94, 14.01 7.19, 21.33 0.19 M-1.45 29.75 C7.75 23, 16.4 13.5, 27.68 0.92 M0.04 31.04 C9.89 18.23, 19.29 8.82, 26.37 0.96 M-1.86 35.71 C8.05 26.41, 18.01 15.95, 32.19 1.53 M-0.6 37.3 C10.75 24.72, 21 13.91, 32.19 -0.99 M-1.81 44.08 C9.15 33.18, 18.66 20.94, 36.76 0.91 M-0.17 42.34 C11.72 30.37, 23.35 15.62, 36.94 -0.12 M-0.63 50.16 C9.56 37.48, 18.84 28.08, 42.96 1.53 M0.78 49.8 C15.63 31.98, 30.18 15.15, 41.87 0.01 M-1.07 53.99 C17.38 34.12, 31.55 15.7, 45.93 1.44 M0.5 54.49 C15.33 36.86, 32.05 17.9, 47.2 0.14 M0.23 62.64 C17.11 39.65, 37.27 16.19, 52.29 -1.53 M0 61.73 C14.86 44.99, 26.56 29.24, 53.55 -0.38 M-2.07 67.27 C16.94 49.55, 29.83 30.61, 57.61 0.66 M-0.24 66.5 C18.03 44.13, 37.66 23.08, 57.84 -0.2 M-1.21 73.68 C21.45 51.81, 38.17 29.11, 64.34 -1.5 M0.93 72.97 C15.06 54.55, 30 37.81, 64.69 0.31 M0.3 78.93 C18.34 56.8, 36.26 34.36, 67.22 -0.73 M-0.45 79.14 C20.07 57.06, 39.97 34.33, 68.33 0.44 M2.06 86.33 C23.08 58.51, 46.63 34.39, 75.24 -0.66 M0.24 84.89 C27.14 54.19, 53.05 25.29, 74 -0.52 M1.13 89.81 C21.49 66.87, 45.47 41, 81.1 -1.51 M-0.86 92.38 C30.06 59.61, 58.17 26.41, 79.88 0.08 M-0.62 96.95 C24.06 70.61, 48.79 40.45, 83.11 0.21 M-0.33 98.1 C32.56 61.3, 63.02 24.66, 84.47 0.56 M-1.84 101.53 C31.82 62.5, 67.03 25.01, 90.62 2.05 M0.69 103.46 C21.27 79.2, 43.89 53.56, 90.5 0.27 M-0.96 110.15 C23.23 82.21, 48.36 54.19, 94 -0.12 M-0.28 110.43 C33.22 71.16, 65.22 33.1, 96.35 -0.06 M1.08 115.22 C34.36 75.07, 70.93 36.98, 102.06 -1.75 M-0.36 114.58 C21.16 91.67, 42.89 67.44, 99.95 1.02 M-1.05 120.58 C31.63 84.75, 63.12 52.08, 107.97 -1.35 M1.33 121.72 C27.53 92.05, 53.73 61, 106.16 0 M7.46 122.75 C44.61 77.57, 80.94 37.21, 110.71 1.89 M5.6 121.15 C28.43 92.04, 52.47 64.09, 110.73 -0.19 M11.21 122.86 C48.14 81.21, 80.38 39.3, 116.36 1.09 M11.39 120.69 C47.13 80.46, 82.29 40.82, 117.01 0.85 M15.62 119.84 C40.32 95.55, 60.07 69.77, 122.8 0.31 M16.22 119.84 C46.23 87.39, 75.46 54.59, 121.14 0.63 M23.84 122.04 C46.93 92.65, 72.86 61.44, 126.46 -0.94 M21.54 120.47 C60.36 75.13, 99.78 29.02, 126.26 0.35 M26.58 119.5 C62.11 81.42, 96.46 42.16, 133.56 -0.61 M28.14 121.11 C51.65 93.24, 75.62 65.08, 132.24 -1.05 M31.67 122.35 C61.25 86.7, 90.99 53.76, 135.57 2.2 M32.03 120.33 C53.85 97, 74.07 71.3, 136.58 -0.44 M37.91 121.01 C59.8 93.46, 81.91 68.07, 145.15 1.53 M37.87 121.09 C72.29 80.27, 107.57 40.34, 142.84 0.72 M44.53 120.59 C72.02 88.37, 100.39 52.84, 147.6 0.92 M42.86 120.04 C65.28 95.41, 87.37 71.86, 147.54 0.82 M49.14 121.15 C80.15 83.84, 112.67 48.17, 152.74 -0.33 M48.16 119.92 C89.6 74.27, 130.65 27.31, 154.54 -0.63 M53.17 120.05 C81.94 89.49, 109.22 57.73, 158.43 1.19 M54.79 120.85 C73.96 95.44, 95.1 69.73, 157.98 -0.58 M59.79 120.25 C95.51 80.05, 131.68 40.78, 162.44 -0.72 M59.05 120.71 C95.24 80.45, 132.73 38.89, 164.67 0.82 M63.35 120.59 C104.19 73.12, 146.41 26.42, 169.92 -1.52 M64.38 120.47 C105.19 75.1, 146.74 27.32, 169 0.65 M71.33 120.16 C95.2 91.44, 118.32 63.78, 173.34 0.35 M70.83 120.55 C96.47 88.83, 125.12 57.43, 175.36 0.47 M73.78 120.58 C103.33 89.36, 129.09 56.18, 179.9 -0.19 M74.92 120.14 C115.05 75.97, 152.17 31.66, 181 0.77 M81.22 122.29 C118.56 76.27, 157.05 29.43, 187.49 -0.58 M81.07 119.54 C102.25 94.91, 124.16 71.42, 186.48 0.22 M86.13 118.92 C126.38 75.35, 167.08 30.45, 192.14 1.72 M85.49 121.55 C119.37 80.39, 154.07 40.87, 190.59 0.05 M92.86 121.54 C126.43 79.45, 160.41 39.03, 195.92 -0.46 M91.59 119.74 C128.31 79.05, 164.81 36.82, 196.7 -0.58 M95.06 121.04 C130.57 85.23, 159.27 46.22, 202.41 0.29 M95.91 119.88 C127.21 86.04, 157.96 51.2, 201.7 -0.27 M101.64 120.37 C140.3 76.52, 177.58 33.87, 208.62 0.3 M101.49 120.2 C127.87 91.38, 151.84 62.53, 206.41 -0.06 M106.19 120.92 C139.35 82.47, 168.02 49.04, 212.44 1.13 M107.8 120.81 C130.36 91.76, 154.17 64.74, 212.49 1.01 M112.26 119.52 C139.09 91.87, 163.89 61.95, 216.56 -0.16 M111.47 120.71 C147.27 81.01, 181.19 40.16, 216.81 -0.87 M118.1 119.06 C141.88 93.74, 170.85 64.17, 222.61 2.88 M117.51 121.48 C154.2 78.06, 191.7 34.37, 221.08 1.63 M123.35 121 C152.8 83.18, 186.23 49.04, 223.1 8.35 M123.46 121.79 C151.91 87.66, 182.59 54.27, 222.26 6.34 M128.35 120.47 C162.05 80.45, 196.22 38.72, 220.72 13.28 M129.18 121.53 C151.19 94.23, 174.69 66.13, 221.31 12.84 M133.55 122.59 C153.3 97.79, 173.56 71.46, 221.77 20 M133.7 120.18 C158.89 91.83, 183.01 62.21, 221.12 19.88 M139.46 120.73 C167.17 89.55, 193.01 56.15, 219.58 23.96 M139.7 120.09 C165.41 90.08, 193.3 58.49, 221.33 25.23 M142.11 120.89 C171.18 88.11, 199.5 58.9, 221.72 32.74 M144.35 120.89 C163.08 99.89, 181.98 77.53, 222.12 31.76 M148.94 119.93 C170.79 95.41, 195.44 72.7, 220.79 38.65 M149.75 120.76 C173.77 93.05, 197.4 64.7, 222.37 37.98 M154.27 121.99 C178.64 90.63, 207.18 61.83, 223.1 45.3 M153.82 120.87 C168.25 102.71, 183.2 85.87, 220.84 43.74 M159.23 120.69 C178.66 100.6, 192.88 80.6, 221.94 48.61 M160.74 120.64 C180.6 98.71, 198.93 75.69, 220.93 49.23 M163.21 119.53 C185.82 96.65, 205.38 73.77, 223.05 55.21 M165.81 120.1 C179.63 102.92, 196.52 84.31, 220.61 56.36 M171.78 122.16 C189.53 98.32, 210.85 74.59, 221.9 63.41 M169.88 121.29 C181.61 108.59, 191.42 96.68, 221.12 61.86 M176.11 120.7 C184.59 110.52, 196.59 97.51, 220.36 69.8 M176.26 120.52 C192.95 100.96, 209.16 81.9, 222.21 68.85 M180.97 122.03 C195.35 104.55, 213.29 86.01, 221.49 73.84 M181.11 119.77 C191.48 109.52, 198.87 98.85, 222.28 75.47 M188.1 120.18 C194.92 113.2, 203.09 103.13, 220.77 80.89 M186.39 121.04 C195.04 111.5, 201.98 102.12, 222.18 80.95 M192.19 122.52 C202.03 106.61, 214.47 98.18, 221.54 86.53 M192.18 119.64 C202.05 109.91, 213.13 96.77, 222.06 85.93 M196.29 122.21 C202.13 114.69, 208.05 105.4, 222.33 91.62 M197.69 120.59 C204.19 111.85, 212.62 103.61, 221.17 92.62 M203.77 120.38 C208.53 117.06, 212.24 110.17, 223.5 98.87 M203.57 119.92 C208.99 113.07, 216.41 105.6, 222.01 99.31 M205.74 122.55 C212.29 115.52, 215.9 111.48, 220.03 103.39 M206.9 121.05 C210.92 116.71, 214.76 112.99, 221.56 104.06 M213.1 120.74 C215.12 117.86, 218.78 112.71, 222.43 110.08 M213.45 120.24 C214.62 118, 216.45 115.87, 221.91 110.03 M218.57 121.25 C219.36 119.7, 219.51 118.64, 221.13 117.39 M218.46 120.7 C219.34 119.53, 221.01 117.71, 221.79 117.1" stroke="#fab005" stroke-width="0.5" fill="none"></path><path d="M-0.61 -0.15 C66.5 0.1, 129.28 0.13, 221.68 -1.19 M0.62 -0.64 C71.45 0.62, 141.59 0.5, 220.77 0.68 M219.92 -0.72 C219.13 23.4, 220.21 49.8, 221.77 119.51 M219.91 0.06 C218.24 39.34, 218.3 77.79, 220.19 120.65 M219.26 119.53 C151.09 118.82, 83.95 120.22, 0.77 119.11 M220.18 120.85 C150.19 118.97, 78.42 119.52, -0.52 120.75 M-0.11 120.74 C-1.95 96.1, -1.5 71.18, -1.19 -1.73 M-0.48 119.94 C0.37 89.72, 0.83 59.84, 0 0.33" stroke="#000000" stroke-width="1" fill="none"></path></g><g transform="translate(90 210) rotate(0 80.5 18)"><text x="0" y="25" font-family="Virgil, Segoe UI Emoji" font-size="28px" fill="#000000" text-anchor="start" style="white-space: pre;" direction="ltr">Place order</text></g><g transform="translate(360.5 227) rotate(0 39.5 23)"><text x="39.5" y="32" font-family="Virgil, Segoe UI Emoji" font-size="36px" fill="#000000" text-anchor="middle" style="white-space: pre;" direction="ltr">Shop</text></g><g stroke-linecap="round"><g transform="translate(511 250) rotate(0 78.71380041909413 0.7662748602311922)"><path d="M0.12 0.7 C26.58 0.67, 132.33 0.2, 158.71 0 M-1.28 0.02 C25.09 0.19, 131.61 1.45, 158.13 1.53" stroke="#000000" stroke-width="2" fill="none"></path></g><g transform="translate(511 250) rotate(0 78.71380041909413 0.7662748602311922)"><path d="M131.03 12.75 C138.16 9.24, 145.6 7.18, 157.21 2.42 M129.07 12.37 C135.61 9.56, 141.97 6.28, 158.52 2.14" stroke="#000000" stroke-width="2" fill="none"></path></g><g transform="translate(511 250) rotate(0 78.71380041909413 0.7662748602311922)"><path d="M131.19 -7.77 C138.3 -5.24, 145.7 -1.28, 157.21 2.42 M129.24 -8.15 C135.84 -6.41, 142.17 -5.15, 158.52 2.14" stroke="#000000" stroke-width="2" fill="none"></path></g></g><g stroke-linecap="round"><g transform="translate(510 250) rotate(0 80.48658126406372 -90.63397841297706)"><path d="M-0.73 -1.76 C31.22 1.06, 60.79 -1.22, 78.52 -1.33 M-0.43 -0.66 C28.89 1.38, 58.3 0.76, 80.38 -0.65 M80.6 -0.95 C80.93 -63.35, 78.95 -125.16, 80.21 -180.33 M80.08 -0.5 C79.02 -60.92, 78.64 -120.67, 79.35 -179.61 M78.08 -181.91 C107.16 -178.58, 134.99 -180.6, 161.7 -178.72 M80.04 -180.97 C97.94 -180.94, 115.69 -180.42, 160.36 -180.5" stroke="#000000" stroke-width="2" fill="none"></path></g><g transform="translate(510 250) rotate(0 80.48658126406372 -90.63397841297706)"><path d="M131.42 -172.05 C143.71 -173.02, 153.56 -179.19, 158.88 -181.83 M131.72 -170.95 C142.27 -173.05, 152.98 -177.36, 160.74 -181.15" stroke="#000000" stroke-width="2" fill="none"></path></g><g transform="translate(510 250) rotate(0 80.48658126406372 -90.63397841297706)"><path d="M131.46 -192.57 C143.64 -185.73, 153.48 -184.09, 158.88 -181.83 M131.76 -191.48 C142.43 -186.16, 153.12 -183.06, 160.74 -181.15" stroke="#000000" stroke-width="2" fill="none"></path></g></g><g stroke-linecap="round"><g transform="translate(510 250) rotate(0 79.45869741030037 89.4488098813548)"><path d="M-0.73 0.34 C32.31 1.9, 62.66 2.01, 80.63 1.47 M0.56 -0.06 C19.41 -0.49, 41.66 0.1, 80.67 0.07 M78.83 -1.81 C80.31 40.61, 81.22 84.96, 81.63 180.44 M80.42 0.72 C80.27 57.9, 81.37 114.87, 79.12 179.41 M81.56 179.81 C98.41 181.22, 113.8 180.65, 159.65 180.23 M79.82 179.81 C98.26 180.24, 114.11 180.3, 158.62 179.16" stroke="#000000" stroke-width="2" fill="none"></path></g><g transform="translate(510 250) rotate(0 79.45869741030037 89.4488098813548)"><path d="M129.93 190.37 C142.82 187.34, 152.99 183.23, 159.26 180.63 M131.23 189.98 C136.82 186.79, 145.82 184.61, 159.29 179.23" stroke="#000000" stroke-width="2" fill="none"></path></g><g transform="translate(510 250) rotate(0 79.45869741030037 89.4488098813548)"><path d="M129.48 169.86 C142.5 174.78, 152.85 178.63, 159.26 180.63 M130.78 169.46 C136.5 171.5, 145.61 174.54, 159.29 179.23" stroke="#000000" stroke-width="2" fill="none"></path></g></g><g transform="translate(687.5 47) rotate(0 92.5 23)"><text x="92.5" y="32" font-family="Virgil, Segoe UI Emoji" font-size="36px" fill="#000000" text-anchor="middle" style="white-space: pre;" direction="ltr">Warehouse</text></g><g transform="translate(707 227) rotate(0 73 23)"><text x="73" y="32" font-family="Virgil, Segoe UI Emoji" font-size="36px" fill="#000000" text-anchor="middle" style="white-space: pre;" direction="ltr">Payment</text></g><g transform="translate(677 407) rotate(0 103 23)"><text x="103" y="32" font-family="Virgil, Segoe UI Emoji" font-size="36px" fill="#000000" text-anchor="middle" style="white-space: pre;" direction="ltr">Notification</text></g><g stroke-linecap="round" transform="translate(20.456377249198 170) rotate(0 27.81460987140798 25.60069298867583)"><path d="M23.21 0.82 C28.74 -0.44, 36.8 -0.18, 41.74 2.49 C46.68 5.16, 50.66 11.5, 52.84 16.85 C55.03 22.19, 56.53 29.29, 54.86 34.54 C53.19 39.79, 47.95 45.44, 42.82 48.32 C37.69 51.21, 30.18 52.8, 24.07 51.85 C17.95 50.91, 10.12 47, 6.13 42.65 C2.15 38.29, 0.22 31.21, 0.18 25.74 C0.14 20.27, 1.32 14.08, 5.89 9.81 C10.45 5.54, 23.36 1.69, 27.57 0.12 C31.78 -1.45, 31.36 -0.03, 31.13 0.38 M30.02 -1.09 C36.01 -1.09, 44.4 2.71, 48.82 6.61 C53.24 10.51, 56.02 16.55, 56.53 22.3 C57.03 28.04, 55.51 36.34, 51.85 41.09 C48.2 45.83, 40.49 49.32, 34.61 50.78 C28.73 52.25, 22.09 52.42, 16.58 49.89 C11.07 47.36, 3.96 40.96, 1.55 35.6 C-0.85 30.24, 0.52 22.86, 2.14 17.74 C3.76 12.62, 6.83 7.88, 11.27 4.88 C15.71 1.89, 25.66 0.74, 28.78 -0.2 C31.91 -1.15, 29.7 -1.3, 30.01 -0.78" stroke="#000000" stroke-width="2" fill="none"></path></g><g stroke-linecap="round"><g transform="translate(45.10622594569725 220.91760922836215) rotate(0 -1.6245492761478317 30.04483072975367)"><path d="M0.23 -0.45 C-0.31 9.74, -2.22 50.41, -2.6 60.9 M-1.11 -1.73 C-1.86 8.58, -3.26 51.47, -3.47 61.82" stroke="#000000" stroke-width="2" fill="none"></path></g></g><g stroke-linecap="round"><g transform="translate(42.620066331690055 284.5803753694788) rotate(0 12.522724454178103 18.86114135997957)"><path d="M-0.45 0.13 C3.49 6.52, 19.16 32.21, 23.4 38.57 M1.51 -0.84 C5.83 5.18, 21.67 30.65, 25.5 36.82" stroke="#000000" stroke-width="2" fill="none"></path></g></g><g stroke-linecap="round"><g transform="translate(41.36465552316656 283.28587704969834) rotate(0 -11.49894365174032 16.64054831940018)"><path d="M0.13 -1.17 C-3.66 4.65, -18.72 28.74, -22.56 34.45 M-1.26 0.83 C-5.17 6.32, -19.44 27.05, -23.13 32.56" stroke="#000000" stroke-width="2" fill="none"></path></g></g><g stroke-linecap="round"><g transform="translate(11.172018193081044 256.1901143315031) rotate(0 15.878557372927446 -10.798385852605747)"><path d="M-1.17 0.71 C4.39 -2.71, 27.47 -16.62, 32.93 -20.4 M0.41 0.04 C5.9 -3.77, 26.62 -18.75, 32.21 -22.31" stroke="#000000" stroke-width="2" fill="none"></path></g></g><g stroke-linecap="round"><g transform="translate(45.49213099964584 235.98629807634734) rotate(0 10.334204033965591 12.822719044778353)"><path d="M0.71 0.44 C4.2 4.8, 17.92 20.66, 21.05 24.97 M-0.38 -0.37 C2.97 4.21, 16.63 21.93, 20.31 26.02" stroke="#000000" stroke-width="2" fill="none"></path></g></g><g stroke-linecap="round" transform="translate(15 157.38775510204084) rotate(0 32 33.30612244897958)"><path d="M42.33 1.63 C48.21 3.2, 55.65 8.39, 59.1 13.94 C62.56 19.49, 63.4 28.39, 63.06 34.95 C62.71 41.51, 60.66 48.4, 57.04 53.32 C53.42 58.23, 47.3 62.63, 41.35 64.44 C35.41 66.24, 27.47 66.17, 21.35 64.15 C15.23 62.14, 8.06 57.76, 4.63 52.34 C1.19 46.93, 0.41 38.46, 0.72 31.69 C1.03 24.92, 2.63 16.86, 6.48 11.72 C10.33 6.58, 17.13 2.23, 23.82 0.84 C30.5 -0.54, 42.11 2.33, 46.58 3.42 C51.05 4.51, 50.86 6.84, 50.65 7.39 M29.75 0.54 C35.68 -0.31, 45.19 1.47, 50.57 4.98 C55.96 8.49, 60.01 15.54, 62.05 21.61 C64.1 27.69, 64.8 34.89, 62.84 41.43 C60.89 47.96, 55.13 56.72, 50.33 60.82 C45.53 64.91, 40.28 66.07, 34.06 65.98 C27.84 65.9, 18.48 64.01, 12.99 60.31 C7.51 56.61, 3.2 49.66, 1.14 43.76 C-0.93 37.86, -1.41 31.21, 0.62 24.91 C2.66 18.62, 8.16 10.36, 13.33 6 C18.5 1.64, 28.62 -0.45, 31.65 -1.23 C34.67 -2.01, 31.8 0.3, 31.48 1.29" stroke="none" stroke-width="0" fill="#fab005"></path><path d="M16.18 3.74 C21.38 0.28, 30.99 -0.75, 37.23 0.17 C43.47 1.1, 49.2 4.78, 53.61 9.3 C58.02 13.82, 62.45 20.98, 63.69 27.28 C64.93 33.59, 63.93 41.3, 61.07 47.13 C58.21 52.96, 52.17 59.22, 46.52 62.27 C40.88 65.31, 33.42 66.18, 27.19 65.42 C20.96 64.65, 13.65 62.09, 9.16 57.66 C4.66 53.23, 1.1 45.26, 0.21 38.86 C-0.67 32.45, 0.32 25.24, 3.86 19.24 C7.39 13.24, 18.03 5.78, 21.43 2.85 C24.83 -0.08, 24.05 1.24, 24.27 1.67 M17.71 3.33 C22.52 -0.01, 30.27 -0.66, 36.43 0.33 C42.58 1.32, 50.03 4.37, 54.64 9.3 C59.25 14.22, 63.21 23.23, 64.08 29.87 C64.96 36.51, 62.88 43.32, 59.92 49.14 C56.95 54.95, 51.83 62.15, 46.32 64.75 C40.81 67.36, 32.96 66.21, 26.88 64.77 C20.8 63.33, 14.46 60.42, 9.83 56.11 C5.2 51.79, -0.11 45.51, -0.9 38.88 C-1.7 32.25, 1.72 22.47, 5.07 16.33 C8.43 10.2, 17.14 3.98, 19.25 2.07 C21.35 0.17, 17.92 4.15, 17.73 4.91" stroke="#000000" stroke-width="1" fill="none"></path></g><g stroke-linecap="round" transform="translate(44.16315289139027 180.42223425835522) rotate(0 4.0074139686943795 0.763316946417973)"><path d="M0.38 0 L7.63 0 L8.01 1.14 L0.38 1.53 L0.38 0" stroke="none" stroke-width="0" fill="#000000"></path><path d="M0.38 0 M0.38 0 C2.09 0, 3.8 0, 7.63 0 M0.38 0 C2.22 0, 4.06 0, 7.63 0 M7.63 0 C7.89 0, 8.01 0.13, 8.01 0.38 M7.63 0 C7.89 0, 8.01 0.13, 8.01 0.38 M8.01 0.38 C8.01 0.54, 8.01 0.7, 8.01 1.14 M8.01 0.38 C8.01 0.59, 8.01 0.8, 8.01 1.14 M8.01 1.14 C8.01 1.4, 7.89 1.53, 7.63 1.53 M8.01 1.14 C8.01 1.4, 7.89 1.53, 7.63 1.53 M7.63 1.53 C6.08 1.53, 4.53 1.53, 0.38 1.53 M7.63 1.53 C5.85 1.53, 4.06 1.53, 0.38 1.53 M0.38 1.53 C0.13 1.53, 0 1.4, 0 1.14 M0.38 1.53 C0.13 1.53, 0 1.4, 0 1.14 M0 1.14 C0 0.88, 0 0.62, 0 0.38 M0 1.14 C0 0.99, 0 0.83, 0 0.38 M0 0.38 C0 0.13, 0.13 0, 0.38 0 M0 0.38 C0 0.13, 0.13 0, 0.38 0" stroke="#000000" stroke-width="4" fill="none"></path></g><g stroke-linecap="round"><g transform="translate(24.50957570406422 177.12819435031895) rotate(0 7.894480477992204 8.073522477709332)" fill-rule="evenodd"><path d="M0 0 L14.94 -0.21 L18.83 0.62 L20.52 2.55 L20.96 5.28 L19.68 10.58 L16.28 14.32 L11.23 16.41 L4.84 15.76 L-1.01 13.21 L-4.17 8.49 L-5.16 3.71 L-2.84 1.26 L0 0" stroke="none" stroke-width="0" fill="#000000" fill-rule="evenodd"></path><path d="M0 0 C3.14 0.1, 15.55 -1.15, 18.83 0.62 C22.11 2.38, 20.95 7.95, 19.68 10.58 C18.41 13.22, 14.68 15.97, 11.23 16.41 C7.78 16.84, 1.72 15.32, -1.01 13.21 C-3.75 11.09, -5.33 5.91, -5.16 3.71 C-4.99 1.51, -0.86 0.62, 0 0 M0 0 C3.14 0.1, 15.55 -1.15, 18.83 0.62 C22.11 2.38, 20.95 7.95, 19.68 10.58 C18.41 13.22, 14.68 15.97, 11.23 16.41 C7.78 16.84, 1.72 15.32, -1.01 13.21 C-3.75 11.09, -5.33 5.91, -5.16 3.71 C-4.99 1.51, -0.86 0.62, 0 0" stroke="#000000" stroke-width="1" fill="none"></path></g></g><g stroke-linecap="round"><g transform="translate(54.622429240254974 177.09002850299885) rotate(0 7.894480477992204 8.073522477709332)" fill-rule="evenodd"><path d="M0 0 L14.94 -0.21 L18.83 0.62 L20.52 2.55 L20.96 5.28 L19.68 10.58 L16.28 14.32 L11.23 16.41 L4.84 15.76 L-1.01 13.21 L-4.17 8.49 L-5.16 3.71 L-2.84 1.26 L0 0" stroke="none" stroke-width="0" fill="#000000" fill-rule="evenodd"></path><path d="M0 0 C3.14 0.1, 15.55 -1.15, 18.83 0.62 C22.11 2.38, 20.95 7.95, 19.68 10.58 C18.41 13.22, 14.68 15.97, 11.23 16.41 C7.78 16.84, 1.72 15.32, -1.01 13.21 C-3.75 11.09, -5.33 5.91, -5.16 3.71 C-4.99 1.51, -0.86 0.62, 0 0 M0 0 C3.14 0.1, 15.55 -1.15, 18.83 0.62 C22.11 2.38, 20.95 7.95, 19.68 10.58 C18.41 13.22, 14.68 15.97, 11.23 16.41 C7.78 16.84, 1.72 15.32, -1.01 13.21 C-3.75 11.09, -5.33 5.91, -5.16 3.71 C-4.99 1.51, -0.86 0.62, 0 0" stroke="#000000" stroke-width="1" fill="none"></path></g></g><g stroke-linecap="round"><g transform="translate(64.57346862653208 210.50664928086383) rotate(176.8197862031195 -17.385485461717792 -3.607083728357509)" fill-rule="evenodd"><path d="M0 0 L-13.34 -6.1 L-17.18 -7.08 L-24.79 -5.1 L-34.75 -0.22 L-22.5 -6.15 L-17.43 -7.21 L-12.68 -6.24 L0 0" stroke="none" stroke-width="0" fill="#0000" fill-rule="evenodd"></path><path d="M0 0 C-2.22 -1.02, -9.83 -5.01, -13.34 -6.1 C-16.85 -7.18, -17.49 -7.49, -21.06 -6.51 C-24.63 -5.53, -35.35 -0.11, -34.75 -0.22 C-34.14 -0.34, -23.23 -7.25, -17.43 -7.21 C-11.64 -7.18, -2.91 -1.2, 0 0 M0 0 C-2.22 -1.02, -9.83 -5.01, -13.34 -6.1 C-16.85 -7.18, -17.49 -7.49, -21.06 -6.51 C-24.63 -5.53, -35.35 -0.11, -34.75 -0.22 C-34.14 -0.34, -23.23 -7.25, -17.43 -7.21 C-11.64 -7.18, -2.91 -1.2, 0 0" stroke="#000000" stroke-width="1" fill="none"></path></g></g></svg>