<svg version="1.1" xmlns="http://www.w3.org/2000/svg" viewBox="0 0 950.0723025802163 158.2247211235824" width="2850.216907740649" height="474.67416337074724">
  <!-- svg-source:excalidraw -->
  
  <defs>
    <style>
      @font-face {
        font-family: "Virgil";
        src: url("https://excalidraw.com/Virgil.woff2");
      }
      @font-face {
        font-family: "Cascadia";
        src: url("https://excalidraw.com/Cascadia.woff2");
      }
    </style>
  </defs>
  <g stroke-linecap="round" transform="translate(369.040979107328 22.612244897959272) rotate(0 110 60)"><path d="M0 0 C0 0, 0 0, 0 0 M0 0 C0 0, 0 0, 0 0 M0.16 5.69 C1.01 4.5, 1.48 3.43, 5.6 -0.22 M0 6.06 C1.18 4.65, 2.65 2.85, 4.89 0.28 M1.65 11.62 C3.31 8.9, 9.35 2.97, 10.43 -0.39 M0.82 11.85 C2.75 9.29, 5.99 4.73, 11.37 0.35 M-1.92 19.87 C3.87 10.6, 10.19 7.19, 14.91 1.08 M-1.1 18.59 C4.93 14.2, 7.83 9.91, 16.62 0.36 M-1.71 25.51 C8.82 15.44, 15.64 7.12, 20.32 1.9 M-0.41 23.83 C6.74 16.39, 15.38 6.37, 20.97 -0.65 M-0.64 30.41 C5.3 21.27, 14.7 15.17, 24.77 0.93 M0.56 31.02 C5.56 24.44, 12.41 16.71, 25.84 -0.33 M-1.99 38.39 C12.54 21.57, 22.42 10.1, 31.64 -1.37 M-0.68 35.97 C6.49 28.1, 14.94 18.41, 32.42 -0.53 M-0.91 44.3 C7.73 34.25, 14.08 23.42, 36.38 -0.07 M-0.03 42.15 C9.89 31.05, 20.84 18.75, 36 0.81 M1.66 49.23 C13.68 32.93, 29.29 17.46, 41.82 -0.8 M0.64 48.9 C16.66 30.64, 33.08 11.4, 41.76 0.65 M1.65 54.17 C12.84 41.85, 26.15 27.22, 48.95 -0.86 M0.57 55.25 C10.79 43.55, 19.96 30.76, 46.96 0.96 M-1.34 58.97 C15.98 44.07, 33.34 26.12, 52.27 -0.27 M0.34 59.96 C17.61 38.85, 35.75 18.9, 52.65 -0.34 M-1.35 68.01 C19.73 46.96, 39.38 23.98, 58.57 1.19 M-1.09 67.29 C13.73 51.96, 25.87 37.14, 57.91 0.74 M0 73.38 C15.45 56.7, 30.2 37.99, 62.29 0.91 M-0.85 73.24 C21.62 46.54, 44.31 20.47, 63.55 -0.77 M1.6 80.13 C19.55 56.35, 36.59 38.09, 68.28 0.35 M0.31 78.93 C27.81 48.34, 53.15 17.47, 68.33 -0.75 M-0.45 85.85 C19.15 65.61, 35.48 42.22, 75.12 -1.97 M0.11 85.26 C28.48 53.77, 56.56 22.46, 74.69 -0.95 M-0.07 89.7 C27.22 58.71, 55.8 28.09, 77.97 0.45 M-0.06 92.05 C30.95 55.16, 63.32 19.82, 78.97 1.03 M-0.53 96.08 C29.4 61.48, 64.88 22.79, 83.86 -1.01 M-1.09 98.74 C18.29 76.59, 36.73 55.24, 85.12 -1.24 M1.64 103.75 C18.74 82.45, 38.49 61.16, 90.48 0.92 M0.39 103.72 C35.88 63.14, 70.03 22.61, 90.92 1.05 M-1.25 109.12 C35.7 67.03, 71.59 29.69, 97.54 -1.74 M-0.52 110.6 C23 83.75, 44.94 57.28, 95.69 -1.05 M-1.38 115.86 C26.11 84.55, 56.18 53, 101.54 -1.21 M0.08 115.98 C36.81 73.71, 73.58 33.82, 100.53 -0.22 M0.01 121.13 C38.41 81.6, 72.29 36.47, 107.1 -1.09 M-0.25 120.73 C27.59 91.35, 53.47 61.81, 106.02 0.16 M6.59 121.46 C38.79 81.21, 71.14 45.86, 109.78 -1.33 M6.1 120.01 C43.44 77.26, 81.29 33.76, 110.46 0.09 M9.94 121.29 C43.92 84.55, 72.83 47.3, 114.72 -0.62 M11.14 120.89 C49.96 75.64, 89.98 31.51, 116.91 0.65 M17.96 118.83 C51.56 82.79, 86.27 41.82, 122.75 -1.2 M16.15 120.26 C44.49 90.4, 70.2 58.92, 122.69 0.35 M21.12 122.25 C43.44 97.49, 64.3 71.43, 126.47 0.4 M21.31 120.19 C47.41 94.28, 71.27 66.73, 127.9 0.36 M27.75 122.65 C54.29 89.39, 80.97 60.07, 130.9 0.96 M27.42 120.91 C65.59 75.75, 107.46 28.72, 133.46 -0.65 M30.87 120.96 C69 80.79, 102.63 41.02, 138.33 -0.41 M32.1 120.87 C70.06 79.91, 105.85 37.34, 138.35 0.46 M39.49 120.9 C64.25 90.35, 87.93 63.8, 141.59 0.57 M37.51 119.79 C69.58 82.55, 99.82 47.75, 142.32 -0.65 M41.43 119.93 C74.47 84.12, 107.74 45.17, 148.87 -1.61 M42.6 120.63 C76.48 85.15, 109.13 45.85, 149.09 -0.72 M50.62 122.15 C88.89 75.4, 129.61 26.07, 153.07 0.62 M48.8 120.69 C74 89.43, 102.21 57.56, 153.12 -0.93 M53.93 121.29 C81.29 90.26, 108.46 57.19, 160.55 0.86 M54.25 121.61 C79.11 91.84, 106.14 61.6, 158.76 0.16 M58.48 121.57 C80.58 93.92, 104.53 69.41, 164.51 1.7 M59.49 120.38 C90.87 86.5, 121.03 51.32, 165.01 0.66 M66.42 120.74 C93.88 89.03, 121.45 56.87, 169.75 -0.37 M63.74 121.41 C97.97 81.36, 132.74 41.48, 168.76 0.35 M70.3 118.93 C105.41 78.55, 146.51 32.25, 173.99 -0.01 M70.55 121.54 C102.48 81.56, 136.52 44.12, 175.44 0.73 M75.85 121.61 C109.2 81.71, 146.32 42.98, 180.73 1.92 M76.07 120.09 C102.41 86.91, 130.89 54.67, 180.31 0.07 M81.26 120.57 C115.4 80.14, 147.47 45.54, 184.5 1.27 M80.76 119.84 C111.89 85.91, 141.64 50.56, 185.14 -0.63 M84.06 120.79 C126.47 76.62, 165.75 28.79, 191.69 -0.44 M85.57 121.14 C112.18 91.05, 138.19 61.39, 191.43 -0.52 M92.4 121.44 C121.5 85.3, 149.82 52.86, 197.91 -1.09 M91.7 120.88 C115.83 94.53, 139.55 66.92, 197.15 -0.92 M95.83 122.78 C123.02 85.73, 150.96 54.76, 200.72 -1.03 M96.81 120.54 C135.09 77.79, 173.06 33.41, 201.93 -0.28 M100.68 119.09 C132.79 83.8, 163.26 46.52, 205.02 -0.13 M102.74 121.22 C138.68 79.62, 174.05 38.64, 207.81 -0.15 M108.82 121.66 C128.42 93.65, 152.23 69.12, 211.81 -0.84 M107.7 121.69 C145.37 74.97, 185.64 30.68, 212.41 -0.14 M112.34 120.41 C147.25 82.48, 182.22 41.15, 219.53 -1.29 M111.39 122.13 C148.37 77.82, 186.26 35.74, 217.73 0.09 M115.61 119.12 C146.75 85.09, 176.36 52.18, 219.56 3.24 M118.44 120.45 C158.46 74.48, 197.47 27.58, 221.97 1.43 M123.45 120.62 C159.31 76.33, 196.55 32.52, 221.49 7.14 M122.94 121.57 C158.71 80.6, 196.06 38.44, 222.3 7.25 M129.68 122.44 C163.59 79.23, 200.4 37.88, 221.89 14.47 M128.5 120.15 C159.64 84.1, 192.21 46.86, 221.94 13.48 M134.04 121.8 C165.76 82.53, 198.3 43.28, 223.03 17.87 M133.48 121.71 C152.8 99.39, 169.94 79.39, 222.36 18.64 M139.42 122.49 C161.84 95.49, 183.39 68.12, 221.71 27.07 M139.69 120.56 C166.77 90.33, 193.65 59.32, 222.49 26.38 M144.71 119.86 C162.13 95.14, 183.16 75.15, 221.86 32.48 M143.59 120.93 C162.48 98.6, 182.47 76.6, 220.71 32.26 M150.11 119.73 C167.38 99.34, 184.55 78.07, 222.65 38.44 M149.07 120.9 C169.96 98.1, 191.81 72.93, 221.42 37.01 M153.94 119.32 C176.98 93.28, 202.09 69.15, 220.6 42.39 M154.62 121.55 C169.3 105.47, 183.09 89.58, 220.48 44.85 M161.96 122.21 C184.46 95.15, 202.69 69.68, 220.22 48.55 M160.04 120.85 C178.38 100.04, 195.91 79.51, 222.32 49.22 M164.15 119.28 C182.63 98.8, 199.93 77.7, 220.83 54.87 M165.71 120.85 C187.29 96.83, 208.3 71.97, 222.13 56.87 M172.07 119.6 C190.44 99.63, 208.66 76.15, 223.21 62.72 M171.27 121.55 C185.72 104.12, 200.64 88.96, 220.93 61.56 M175.64 119.44 C187.2 108.03, 199.58 93.31, 219.69 68.06 M174.83 120.06 C190.73 103.48, 206.81 86.06, 221.08 68.44 M180.46 121.13 C194.84 101, 213.19 87.26, 222.27 74.63 M181.73 120.57 C194.11 106.52, 207.17 89.99, 220.75 75.27 M184.63 122.09 C194.79 114.43, 202.07 103.62, 223.23 81.65 M185.72 121.38 C195.08 109.73, 205.44 98.97, 222.02 79.19 M192.05 121.65 C199.88 111.85, 204.41 106.11, 219.99 84.78 M191.7 120.95 C201.41 108.29, 212.64 97.09, 222.09 85.8 M197.24 122.12 C205.93 108.93, 215.64 98.97, 219.74 91.73 M196.93 120.94 C202.52 114.12, 207.82 107.52, 221.32 93.9 M202.66 119.59 C208.74 114.87, 213.94 108.99, 223.52 99.52 M201.75 120.19 C209.11 112.81, 216.81 103.22, 221.74 98.8 M207.5 121 C210.33 118.64, 213.87 112.6, 220.38 105.67 M206.79 121.83 C211.68 114.78, 217.56 109.05, 220.58 104.59 M213.11 119.5 C216.38 118, 218.92 111.98, 221.89 110.11 M213.57 120.96 C217.04 117.48, 218.9 113.6, 221.46 110.16 M218.53 120.83 C218.91 119.49, 220.33 118.86, 221.47 116.98 M218.31 120.9 C219.39 119.61, 220.5 118.06, 221.6 117.28" stroke="#4c6ef5" stroke-width="0.5" fill="none"></path><path d="M0.05 0.33 C62.32 2.68, 126.14 -0.24, 219.71 0.1 M0.16 0.16 C79.19 -1, 159.6 -0.49, 220.15 0.04 M218.38 0.57 C221.05 39.12, 220.93 75.7, 219.75 119.27 M220.78 -0.13 C220.07 36.73, 220.21 72.98, 220.43 120.02 M219.83 121.35 C145.72 120.76, 73.96 120.42, -1.05 120.56 M220.17 119.58 C174.75 120.01, 129.76 120.38, -0.85 119.77 M1.33 120.9 C-2.16 94.82, -2.02 67.59, 1.84 -1.86 M0.57 119.2 C1.27 89.28, 1.12 58.2, -0.44 -0.6" stroke="#000000" stroke-width="1" fill="none"></path></g><g stroke-linecap="round"><g transform="translate(149.78257506587306 83.26107464070378) rotate(0 109.02940910129814 -0.1698467589988013)"><path d="M0.23 -0.14 C36.9 0.02, 183.01 0.95, 219.17 0.97 M-1.11 -1.26 C35.56 -1.44, 181.93 -1.16, 218.69 -0.75" stroke="#000000" stroke-width="2" fill="none"></path></g><g transform="translate(149.78257506587306 83.26107464070378) rotate(0 109.02940910129814 -0.1698467589988013)"><path d="M190.22 10.86 C198.17 5.14, 203.01 4.8, 219.94 -2.07 M189.84 8.99 C200.11 6.14, 209.58 2.57, 218.87 -1.38" stroke="#000000" stroke-width="2" fill="none"></path></g><g transform="translate(149.78257506587306 83.26107464070378) rotate(0 109.02940910129814 -0.1698467589988013)"><path d="M190.33 -9.66 C198.27 -10.7, 203.08 -6.35, 219.94 -2.07 M189.95 -11.53 C200.22 -7.49, 209.65 -4.17, 218.87 -1.38" stroke="#000000" stroke-width="2" fill="none"></path></g></g><g transform="translate(169.04097910732798 42.61224489795927) rotate(0 47 18)"><text x="0" y="25" font-family="Virgil, Segoe UI Emoji" font-size="28px" fill="#000000" text-anchor="start" style="white-space: pre;" direction="ltr">What's</text></g><g transform="translate(439.540979107328 59.61224489795927) rotate(0 39.5 23)"><text x="39.5" y="32" font-family="Virgil, Segoe UI Emoji" font-size="36px" fill="#000000" text-anchor="middle" style="white-space: pre;" direction="ltr">Shop</text></g><g stroke-linecap="round"><g transform="translate(785.6729513849132 -41.11315683797443) rotate(269.83845249062614 28.821364464759426 123.95119944641567)" fill-rule="evenodd"><path d="M0.96 0.33 L58.8 1.24 L54.6 224.36 L26.54 245.69 L1.41 221.89 L-0.71 0.75" stroke="none" stroke-width="0" fill="#eeeeee" fill-rule="evenodd"></path><path d="M0.39 -1.62 C17.92 2.11, 35.67 1.92, 56.28 -0.47 M-0.02 0.78 C14.86 0.6, 30.63 0.69, 57.72 0.21 M58.49 -0.38 C58.75 66.66, 56.24 136.04, 55.04 221.88 M56.73 -0.05 C54.49 74.08, 55.1 148.64, 57.1 222.08 M57.74 224.25 C49.12 228.07, 40.56 234.99, 25.92 249.52 M55.57 223.5 C49.47 228.38, 44.31 233.35, 27.08 247.23 M26.14 247.28 C21.72 239.49, 14.66 234.14, 0.15 219.78 M27.99 248.02 C21.9 240.92, 14.72 235.89, 0.59 220.68 M1.58 222.47 C0.73 135.68, 0.6 48.03, -0.87 1.32 M1.03 222.12 C-0.22 170.8, 0.57 120.16, 0.42 -0.22 M0 0 C0 0, 0 0, 0 0 M0 0 C0 0, 0 0, 0 0" stroke="#000000" stroke-width="1" fill="none"></path></g></g><g stroke-linecap="round" transform="translate(698.6455781867526 71.18308832924708) rotate(0 23.136195556589655 15.377950340008738)"><path d="M-1.79 0.74 L47.07 1.05 L44.51 31.22 L-1.51 29.63" stroke="none" stroke-width="0" fill="#868e96"></path><path d="M-1.62 0.57 C16.53 0.88, 31.11 -0.69, 46.02 -0.73 M0.78 -0.13 C14.38 0.66, 28.43 0.85, 46.7 0.02 M46.08 1.56 C45.51 9.13, 47.8 19.05, 45.06 31.4 M46.47 -0.49 C46.58 6.74, 47.03 13.51, 45.3 30.5 M47.6 31.66 C34.7 31.37, 25.01 29.63, 1.84 28.89 M46.85 29.95 C34.92 30.42, 22.91 30.11, -0.44 30.16 M-0.4 31.41 C-1.91 22.45, -0.98 13.52, -1.78 -1.45 M0.34 31.19 C-0.52 22.36, 0.4 15.1, -0.88 0.89" stroke="#000000" stroke-width="1" fill="none"></path></g><g stroke-linecap="round"><g transform="translate(723.0055549777962 86.2566824216558) rotate(0 -0.19690400427248278 -7.205412059698233)" fill-rule="evenodd"><path d="M0.74 0.8 L23 -16.29 L-22.63 -15.86 L-1.12 -1" stroke="none" stroke-width="0" fill="#ced4da" fill-rule="evenodd"></path><path d="M0.57 1.82 C6.13 -1.57, 9.75 -6.94, 21.22 -14.52 M-0.13 0.47 C6.51 -3.44, 12.55 -7.49, 21.97 -14.18 M23.5 -15.14 C9.46 -12.85, -2.23 -15.7, -22.45 -16.23 M21.46 -14.38 C6.44 -13.79, -9.04 -15.29, -23.36 -15.23 M-22.19 -16.09 C-14.96 -11.31, -8.97 -3.05, -1.86 -0.87 M-23.9 -13.84 C-17.69 -10.72, -12.54 -8.13, -0.6 -0.32 M0 0 C0 0, 0 0, 0 0 M0 0 C0 0, 0 0, 0 0" stroke="#000000" stroke-width="1" fill="none"></path></g></g><g stroke-linecap="round"><g transform="translate(796.6796776186184 88.89664619295058) rotate(0 29.984807969029816 -0.38639587234206374)"><path d="M1.82 0.97 C20.27 -1.11, 36.9 -1.58, 58.15 -1.74" stroke="#000000" stroke-width="1.5" fill="none" stroke-dasharray="1.5 7"></path></g></g><g stroke-linecap="round" transform="translate(753.957655558348 71.44943862156401) rotate(0 23.136195556589655 15.377950340008738)"><path d="M1.05 -1.76 L46.74 -1.51 L45.15 29.75 L1.53 29.3" stroke="none" stroke-width="0" fill="#868e96"></path><path d="M0.97 1.69 C9.54 -0.67, 19.54 -0.41, 45.61 -0.03 M0.66 0.61 C18.35 0.21, 35.04 0.14, 45.78 0.94 M45.09 1.68 C44.94 7.72, 47.16 15.99, 47.34 30.4 M46.67 0.59 C46.94 8.85, 45.86 18.78, 46.62 31.43 M46.58 29.15 C27.88 32.2, 10.5 29.48, -1.26 29.11 M46.32 31.12 C29.47 30.55, 12.61 30.67, 0 30.15 M-0.05 29.78 C-0.84 20.36, -1.55 12.51, -1.03 1.28 M-0.72 30.99 C-0.43 19.61, 0.76 9.34, 0.37 0.4" stroke="#000000" stroke-width="1" fill="none"></path></g><g stroke-linecap="round"><g transform="translate(778.3546605579095 85.44689318384303) rotate(0 -0.5374076219279686 -7.47725656578632)" fill-rule="evenodd"><path d="M-1.76 0.46 L20.44 -15.65 L-24.1 -12.82 L-1.46 0.19" stroke="none" stroke-width="0" fill="#ced4da" fill-rule="evenodd"></path><path d="M1.69 -0.6 C6.83 -5.61, 14.3 -10.32, 21.91 -12.96 M0.61 0.84 C6.66 -4.29, 12.89 -8.98, 22.88 -14.62 M23.63 -16.1 C3.71 -14.08, -13.96 -13.6, -23.45 -13.96 M22.54 -13.71 C9.67 -14.56, -1.54 -13.91, -22.42 -13.69 M-24.7 -15.79 C-13.4 -11.29, -8.15 -5.74, -1.65 1.15 M-22.73 -14.62 C-18.39 -11.8, -13.19 -8.06, -0.6 -0.2 M0 0 C0 0, 0 0, 0 0 M0 0 C0 0, 0 0, 0 0" stroke="#000000" stroke-width="1" fill="none"></path></g></g><g stroke-linecap="round" transform="translate(853.2175311625724 70.38403745228675) rotate(0 23.136195556589655 15.377950340008738)"><path d="M0.46 -1.51 L45.15 -1 L47.8 29.3 L0.19 29.78" stroke="none" stroke-width="0" fill="#868e96"></path><path d="M-0.6 -0.25 C17.35 -0.38, 35.5 -0.43, 47.84 -0.26 M0.84 0.43 C16.06 0.07, 31.6 0.65, 46.18 0.78 M44.7 -1.21 C46.74 6.41, 47.15 16.21, 46.66 29.78 M47.1 -0.98 C46.14 8.8, 46.74 20.03, 46.94 31.21 M44.84 32.6 C34.56 29.51, 25.3 28.74, 1.15 29.15 M46 30.31 C29.43 30.61, 13.78 30.32, -0.2 31.08 M-0.74 28.98 C-1.44 23.46, -1.02 19.45, 0.67 0.87 M-0.3 29.87 C1.11 22.73, 0.59 16.89, 0.53 -0.88" stroke="#000000" stroke-width="1" fill="none"></path></g><g stroke-linecap="round"><g transform="translate(878.548748321743 83.71879758259297) rotate(0 -0.6750369478952507 -7.595033187095055)" fill-rule="evenodd"><path d="M-1.51 -1.12 L20.95 -13 L-24.56 -14.16 L-0.98 0.32" stroke="none" stroke-width="0" fill="#ced4da" fill-rule="evenodd"></path><path d="M-0.25 -0.73 C7.54 -5.66, 15.14 -8.49, 21.69 -13.59 M0.43 0.02 C8.29 -5.99, 16.9 -10.9, 22.73 -14.84 M20.73 -13.88 C9.22 -13.78, -0.12 -14.41, -24.08 -14.06 M20.97 -14.79 C5.75 -13.75, -8.01 -13.37, -22.64 -15.22 M-21.25 -16.21 C-16.8 -10.92, -10.29 -3.99, -1.61 1.02 M-23.54 -14.95 C-16.32 -9.91, -9.56 -5.73, 0.32 -0.95 M0 0 C0 0, 0 0, 0 0 M0 0 C0 0, 0 0, 0 0" stroke="#000000" stroke-width="1" fill="none"></path></g></g><g stroke-linecap="round"><g transform="translate(588.6460477454102 82.61224489795927) rotate(0 50.10231116972864 0.361667110119015)"><path d="M-0.73 0.01 C37.78 0.09, 78.46 -0.13, 100.93 1.31 M0.02 0.35 C35.64 0.51, 72.16 0.35, 99.69 -0.59" stroke="#000000" stroke-width="2" fill="none"></path></g><g transform="translate(588.6460477454102 82.61224489795927) rotate(0 50.10231116972864 0.361667110119015)"><path d="M71.03 10.36 C81.86 6.14, 94.84 1.71, 100.63 0.72 M71.78 10.7 C81.27 7.21, 91.76 3.1, 99.38 -1.18" stroke="#000000" stroke-width="2" fill="none"></path></g><g transform="translate(588.6460477454102 82.61224489795927) rotate(0 50.10231116972864 0.361667110119015)"><path d="M70.53 -10.16 C81.5 -6.49, 94.66 -3.03, 100.63 0.72 M71.28 -9.82 C81.12 -5.9, 91.79 -2.59, 99.38 -1.18" stroke="#000000" stroke-width="2" fill="none"></path></g></g><g transform="translate(606.4817168696295 38.00000000000023) rotate(0 26 23)"><text x="0" y="32" font-family="Virgil, Segoe UI Emoji" font-size="36px" fill="#000000" text-anchor="start" style="white-space: pre;" direction="ltr">???</text></g><g transform="translate(169.4817168696295 95.00000000000023) rotate(0 68.5 18)"><text x="0" y="25" font-family="Virgil, Segoe UI Emoji" font-size="28px" fill="#000000" text-anchor="start" style="white-space: pre;" direction="ltr">happening?</text></g><g stroke-linecap="round"><g transform="translate(65.36095266777329 138.40110022025988) rotate(0 -3.0707942665590053 2.0242035288890747)" fill-rule="evenodd"><path d="M0 0 L-0.58 3.73 L-6.09 4.49 L-5.7 2.5 L-4.11 0.29 L0.07 -0.67" stroke="none" stroke-width="0" fill="#f3d3c4" fill-rule="evenodd"></path><path d="M0 0 C-0.1 0.62, 0.43 2.98, -0.58 3.73 C-1.59 4.48, -5.5 5.07, -6.09 4.49 C-6.67 3.92, -5.13 1.15, -4.11 0.29 C-3.08 -0.57, -0.62 -0.51, 0.07 -0.67 M0 0 C-0.1 0.62, 0.43 2.98, -0.58 3.73 C-1.59 4.48, -5.5 5.07, -6.09 4.49 C-6.67 3.92, -5.13 1.15, -4.11 0.29 C-3.08 -0.57, -0.62 -0.51, 0.07 -0.67" stroke="#f3d3c4" stroke-width="2" fill="none"></path></g></g><g stroke-linecap="round"><g transform="translate(98.26892892876094 134.79730462648172) rotate(0 0.6914455999562961 2.12309622747955)" fill-rule="evenodd"><path d="M0 0 L3.99 4.78 L2.78 5.76 L0.66 5.32 L-2.61 -1.36 L0 0" stroke="none" stroke-width="0" fill="#f3d3c4" fill-rule="evenodd"></path><path d="M0 0 C0.67 0.8, 3.88 3.9, 3.99 4.78 C4.1 5.67, 1.76 6.34, 0.66 5.32 C-0.44 4.29, -2.5 -0.48, -2.61 -1.36 C-2.72 -2.25, -0.43 -0.23, 0 0 M0 0 C0.67 0.8, 3.88 3.9, 3.99 4.78 C4.1 5.67, 1.76 6.34, 0.66 5.32 C-0.44 4.29, -2.5 -0.48, -2.61 -1.36 C-2.72 -2.25, -0.43 -0.23, 0 0" stroke="#f3d3c4" stroke-width="2" fill="none"></path></g></g><g stroke-linecap="round"><g transform="translate(127.1748178344128 96.05456769733405) rotate(0 5.180568209911826 8.093274434255704)" fill-rule="evenodd"><path d="M0 0 L12.47 3.56 L12.44 4.54 L8.97 7.46 L17.39 10.25 L16.09 12.69 L12.62 14.89 L8.32 16.05 L3.66 15.72 L-0.53 12.55 L-6.38 4.78 L-6.97 1.79 L0 0" stroke="none" stroke-width="0" fill="#f3d3c4" fill-rule="evenodd"></path><path d="M0 0 C2.08 0.59, 10.98 2.32, 12.47 3.56 C13.97 4.8, 8.15 6.34, 8.97 7.46 C9.79 8.57, 16.78 9.01, 17.39 10.25 C18 11.49, 14.91 13.97, 12.62 14.89 C10.33 15.8, 6.42 16.79, 3.66 15.72 C0.89 14.65, -2.2 10.77, -3.97 8.45 C-5.74 6.13, -7.63 3.2, -6.97 1.79 C-6.31 0.38, -1.16 0.3, 0 0 M0 0 C2.08 0.59, 10.98 2.32, 12.47 3.56 C13.97 4.8, 8.15 6.34, 8.97 7.46 C9.79 8.57, 16.78 9.01, 17.39 10.25 C18 11.49, 14.91 13.97, 12.62 14.89 C10.33 15.8, 6.42 16.79, 3.66 15.72 C0.89 14.65, -2.2 10.77, -3.97 8.45 C-5.74 6.13, -7.63 3.2, -6.97 1.79 C-6.31 0.38, -1.16 0.3, 0 0" stroke="#f3d3c4" stroke-width="2" fill="none"></path></g></g><g stroke-linecap="round"><g transform="translate(29.133506290419064 105.9433818828195) rotate(0 -6.180832246954878 9.234045228597097)" fill-rule="evenodd"><path d="M0 0 L-13.46 5.67 L-13.16 6.78 L-8.48 9.57 L-18.78 12.75 L-18.54 15.99 L-15.59 18.78 L-10.3 19.53 L-4.25 18.42 L0.97 14.33 L6.64 6.49 L6.38 3.9 L0 -1.06" stroke="none" stroke-width="0" fill="#f3d3c4" fill-rule="evenodd"></path><path d="M0 0 C-2.24 0.94, -12.05 4.07, -13.46 5.67 C-14.88 7.26, -7.6 8.38, -8.48 9.57 C-9.37 10.75, -17.59 11.22, -18.78 12.75 C-19.96 14.29, -18.01 17.83, -15.59 18.78 C-13.17 19.72, -7.68 19.96, -4.25 18.42 C-0.83 16.89, 3.19 11.99, 4.96 9.57 C6.73 7.14, 7.2 5.67, 6.38 3.9 C5.55 2.13, 1.06 -0.24, 0 -1.06 M0 0 C-2.24 0.94, -12.05 4.07, -13.46 5.67 C-14.88 7.26, -7.6 8.38, -8.48 9.57 C-9.37 10.75, -17.59 11.22, -18.78 12.75 C-19.96 14.29, -18.01 17.83, -15.59 18.78 C-13.17 19.72, -7.68 19.96, -4.25 18.42 C-0.83 16.89, 3.19 11.99, 4.96 9.57 C6.73 7.14, 7.2 5.67, 6.38 3.9 C5.55 2.13, 1.06 -0.24, 0 -1.06" stroke="#f3d3c4" stroke-width="2" fill="none"></path></g></g><g stroke-linecap="round"><g transform="translate(77.17967462918114 40.39903916750768) rotate(0 10.919196726012842 14.095781084406894)" fill-rule="evenodd"><path d="M0 0 L0 -9.92 L-3.54 -17.71 L-1.37 -23.27 L3.19 -27.99 L10.99 -29.84 L18.78 -29.05 L23.32 -24.47 L25.4 -18.26 L23.99 -12.11 L17.36 1.06 L18.51 2.37 L17.11 11.82 L9.58 50.54 L7.19 58.03 L6 54.12 L4.58 18.96 L0.55 0.22" stroke="none" stroke-width="0" fill="#f3d3c4" fill-rule="evenodd"></path><path d="M0 0 C0 -1.65, 0.59 -6.97, 0 -9.92 C-0.59 -12.87, -4.07 -14.7, -3.54 -17.71 C-3.01 -20.73, -0.53 -26.1, 3.19 -27.99 C6.91 -29.88, 15.08 -30.67, 18.78 -29.05 C22.48 -27.43, 24.99 -22.04, 25.4 -18.26 C25.81 -14.48, 22.6 -9.6, 21.26 -6.38 C19.92 -3.16, 17.91 -1.16, 17.36 1.06 C16.81 3.29, 19.66 -2.51, 17.97 6.99 C16.27 16.48, 9.43 56.03, 7.19 58.03 C4.96 60.02, 5.68 28.6, 4.58 18.96 C3.47 9.33, 1.22 3.34, 0.55 0.22 M0 0 C0 -1.65, 0.59 -6.97, 0 -9.92 C-0.59 -12.87, -4.07 -14.7, -3.54 -17.71 C-3.01 -20.73, -0.53 -26.1, 3.19 -27.99 C6.91 -29.88, 15.08 -30.67, 18.78 -29.05 C22.48 -27.43, 24.99 -22.04, 25.4 -18.26 C25.81 -14.48, 22.6 -9.6, 21.26 -6.38 C19.92 -3.16, 17.91 -1.16, 17.36 1.06 C16.81 3.29, 19.66 -2.51, 17.97 6.99 C16.27 16.48, 9.43 56.03, 7.19 58.03 C4.96 60.02, 5.68 28.6, 4.58 18.96 C3.47 9.33, 1.22 3.34, 0.55 0.22" stroke="#f3d3c4" stroke-width="2" fill="none"></path></g></g><g stroke-linecap="round"><g transform="translate(30.179057921764525 103.24622596928361) rotate(0 49.95524192164589 -9.644728268251015)" fill-rule="evenodd"><path d="M0 0 L5.98 -6.15 L13.19 -15.89 L23.08 -44.67 L27.39 -53.29 L32.38 -58.76 L40.4 -62.88 L44.55 -63.58 L47.67 -62.36 L49.39 -58.66 L50.96 -39.27 L51.86 -7.49 L52.8 -4.62 L54.04 -3.8 L56.66 -7.19 L57.82 -11.72 L65.05 -53.66 L67.26 -57.92 L69.85 -58.76 L73.34 -57.41 L76.75 -53.06 L80.94 -34.18 L86.94 -17.69 L93.83 -10.19 L92.65 -5.49 L91.06 -3.64 L89.04 -3.3 L86.2 -5.28 L76.45 -15.89 L74.07 -20.47 L71.94 -11.67 L71.65 -6.06 L72.96 -0.6 L76.73 4.78 L92.93 20.99 L99.26 29.24 L102.53 35.67 L101.54 39.99 L98.05 42.66 L93.17 43.97 L83 44.27 L78.24 42.27 L67.15 26.98 L58.29 22.48 L49.17 20.99 L42.05 24.36 L26.38 39.27 L17.87 41.88 L9.29 42.87 L3.19 42.14 L-0.9 39.57 L-2.7 34.49 L-1.8 28.48 L3 23.03 L23.08 7.49 L25.91 0.86 L28.82 -16.66 L29.08 -23.38 L23.08 -10.79 L18.66 -3.77 L10.42 6.54 L6.9 8.09 L2.55 4.7 L-0.9 0.6" stroke="none" stroke-width="0" fill="#98768f" fill-rule="evenodd"></path><path d="M0 0 C2.2 -2.65, 9.34 -8.44, 13.19 -15.89 C17.04 -23.33, 19.89 -37.52, 23.08 -44.67 C26.28 -51.81, 28.28 -55.81, 32.38 -58.76 C36.47 -61.71, 44.57 -65.6, 47.67 -62.36 C50.76 -59.11, 50.26 -48.42, 50.96 -39.27 C51.66 -30.13, 50.91 -12.84, 51.86 -7.49 C52.81 -2.15, 55.11 -3.1, 56.66 -7.19 C58.21 -11.29, 59.76 -24.33, 61.16 -32.08 C62.56 -39.82, 63.6 -49.22, 65.05 -53.66 C66.5 -58.11, 67.9 -58.86, 69.85 -58.76 C71.8 -58.66, 74.9 -57.16, 76.75 -53.06 C78.59 -48.97, 79.24 -40.07, 80.94 -34.18 C82.64 -28.28, 84.79 -21.68, 86.94 -17.69 C89.09 -13.69, 93.48 -12.59, 93.83 -10.19 C94.18 -7.79, 91.93 -2.35, 89.04 -3.3 C86.14 -4.25, 78.99 -13.17, 76.45 -15.89 C73.9 -18.6, 74.34 -22.14, 73.76 -19.59 C73.18 -17.04, 69.76 -7.36, 72.96 -0.6 C76.15 6.16, 88.01 14.94, 92.93 20.99 C97.86 27.03, 101.67 32.06, 102.53 35.67 C103.38 39.29, 100.53 41.24, 98.05 42.66 C95.57 44.07, 90.96 44.23, 87.66 44.16 C84.36 44.1, 81.66 45.13, 78.24 42.27 C74.83 39.41, 72 30.53, 67.15 26.98 C62.31 23.43, 54.36 20.54, 49.17 20.99 C43.97 21.43, 39.77 26.63, 35.97 29.68 C32.18 32.73, 30.83 37.07, 26.38 39.27 C21.93 41.47, 13.84 42.82, 9.29 42.87 C4.75 42.92, 0.95 41.97, -0.9 39.57 C-2.75 37.17, -3.55 32.13, -1.8 28.48 C-0.05 24.83, 5.45 21.18, 9.59 17.69 C13.74 14.19, 20.14 11.54, 23.08 7.49 C26.03 3.45, 26.28 -1.45, 27.28 -6.6 C28.28 -11.74, 29.78 -22.68, 29.08 -23.38 C28.38 -24.08, 25.58 -15.09, 23.08 -10.79 C20.59 -6.5, 16.79 -0.75, 14.09 2.4 C11.39 5.55, 9.39 8.39, 6.9 8.09 C4.4 7.79, 0.4 1.85, -0.9 0.6 M0 0 C2.2 -2.65, 9.34 -8.44, 13.19 -15.89 C17.04 -23.33, 19.89 -37.52, 23.08 -44.67 C26.28 -51.81, 28.28 -55.81, 32.38 -58.76 C36.47 -61.71, 44.57 -65.6, 47.67 -62.36 C50.76 -59.11, 50.26 -48.42, 50.96 -39.27 C51.66 -30.13, 50.91 -12.84, 51.86 -7.49 C52.81 -2.15, 55.11 -3.1, 56.66 -7.19 C58.21 -11.29, 59.76 -24.33, 61.16 -32.08 C62.56 -39.82, 63.6 -49.22, 65.05 -53.66 C66.5 -58.11, 67.9 -58.86, 69.85 -58.76 C71.8 -58.66, 74.9 -57.16, 76.75 -53.06 C78.59 -48.97, 79.24 -40.07, 80.94 -34.18 C82.64 -28.28, 84.79 -21.68, 86.94 -17.69 C89.09 -13.69, 93.48 -12.59, 93.83 -10.19 C94.18 -7.79, 91.93 -2.35, 89.04 -3.3 C86.14 -4.25, 78.99 -13.17, 76.45 -15.89 C73.9 -18.6, 74.34 -22.14, 73.76 -19.59 C73.18 -17.04, 69.76 -7.36, 72.96 -0.6 C76.15 6.16, 88.01 14.94, 92.93 20.99 C97.86 27.03, 101.67 32.06, 102.53 35.67 C103.38 39.29, 100.53 41.24, 98.05 42.66 C95.57 44.07, 90.96 44.23, 87.66 44.16 C84.36 44.1, 81.66 45.13, 78.24 42.27 C74.83 39.41, 72 30.53, 67.15 26.98 C62.31 23.43, 54.36 20.54, 49.17 20.99 C43.97 21.43, 39.77 26.63, 35.97 29.68 C32.18 32.73, 30.83 37.07, 26.38 39.27 C21.93 41.47, 13.84 42.82, 9.29 42.87 C4.75 42.92, 0.95 41.97, -0.9 39.57 C-2.75 37.17, -3.55 32.13, -1.8 28.48 C-0.05 24.83, 5.45 21.18, 9.59 17.69 C13.74 14.19, 20.14 11.54, 23.08 7.49 C26.03 3.45, 26.28 -1.45, 27.28 -6.6 C28.28 -11.74, 29.78 -22.68, 29.08 -23.38 C28.38 -24.08, 25.58 -15.09, 23.08 -10.79 C20.59 -6.5, 16.79 -0.75, 14.09 2.4 C11.39 5.55, 9.39 8.39, 6.9 8.09 C4.4 7.79, 0.4 1.85, -0.9 0.6" stroke="#98768f" stroke-width="1" fill="none"></path></g></g><g stroke-linecap="round"><g transform="translate(27.338130768063365 107.06375215583103) rotate(0 44.26571779521714 0.3774526896820589)"><path d="M0 0 C-2.29 0.66, -12.34 2.9, -13.73 3.96 C-15.11 5.02, -9.64 5.69, -8.28 6.36 C-6.93 7.04, -4.18 7.15, -5.58 8.02 C-6.98 8.89, -15.55 9.93, -16.7 11.59 C-17.85 13.24, -15.03 17.01, -12.45 17.94 C-9.88 18.87, -4.79 19.13, -1.27 17.18 C2.25 15.23, 5.13 9.85, 8.64 6.25 C12.16 2.65, 16.31 0.66, 19.83 -4.42 C23.34 -9.51, 27.58 -18.28, 29.74 -24.25 C31.9 -30.22, 32.62 -41.83, 32.79 -40.26 C32.96 -38.69, 31.56 -21.07, 30.75 -14.85 C29.95 -8.62, 29.19 -6.12, 27.96 -2.9 C26.73 0.32, 27.32 0.7, 23.38 4.47 C19.44 8.24, 8.18 15.78, 4.32 19.72 C0.47 23.66, 0.38 24.97, 0.25 28.11 C0.13 31.24, 1.1 36.58, 3.56 38.53 C6.02 40.48, 11.01 40.01, 15 39.8 C18.98 39.59, 21.99 40.65, 27.45 37.26 C32.91 33.87, 42.45 22.24, 47.78 19.47 C53.11 16.69, 55.95 19.69, 59.42 20.62 C62.9 21.55, 64.93 22.03, 68.63 25.06 C72.32 28.09, 77.22 36.12, 81.59 38.78 C85.95 41.45, 91.33 41.24, 94.8 41.07 C98.28 40.9, 100.69 39.42, 102.43 37.77 C104.17 36.12, 106.24 34.46, 105.23 31.16 C104.21 27.85, 100.23 22.22, 96.33 17.94 C92.43 13.66, 85.32 9.3, 81.84 5.49 C78.37 1.68, 76.29 1.55, 75.49 -4.93 C74.68 -11.41, 76.76 -28.66, 77.01 -33.4 M0 0 C-2.29 0.66, -12.34 2.9, -13.73 3.96 C-15.11 5.02, -9.64 5.69, -8.28 6.36 C-6.93 7.04, -4.18 7.15, -5.58 8.02 C-6.98 8.89, -15.55 9.93, -16.7 11.59 C-17.85 13.24, -15.03 17.01, -12.45 17.94 C-9.88 18.87, -4.79 19.13, -1.27 17.18 C2.25 15.23, 5.13 9.85, 8.64 6.25 C12.16 2.65, 16.31 0.66, 19.83 -4.42 C23.34 -9.51, 27.58 -18.28, 29.74 -24.25 C31.9 -30.22, 32.62 -41.83, 32.79 -40.26 C32.96 -38.69, 31.56 -21.07, 30.75 -14.85 C29.95 -8.62, 29.19 -6.12, 27.96 -2.9 C26.73 0.32, 27.32 0.7, 23.38 4.47 C19.44 8.24, 8.18 15.78, 4.32 19.72 C0.47 23.66, 0.38 24.97, 0.25 28.11 C0.13 31.24, 1.1 36.58, 3.56 38.53 C6.02 40.48, 11.01 40.01, 15 39.8 C18.98 39.59, 21.99 40.65, 27.45 37.26 C32.91 33.87, 42.45 22.24, 47.78 19.47 C53.11 16.69, 55.95 19.69, 59.42 20.62 C62.9 21.55, 64.93 22.03, 68.63 25.06 C72.32 28.09, 77.22 36.12, 81.59 38.78 C85.95 41.45, 91.33 41.24, 94.8 41.07 C98.28 40.9, 100.69 39.42, 102.43 37.77 C104.17 36.12, 106.24 34.46, 105.23 31.16 C104.21 27.85, 100.23 22.22, 96.33 17.94 C92.43 13.66, 85.32 9.3, 81.84 5.49 C78.37 1.68, 76.29 1.55, 75.49 -4.93 C74.68 -11.41, 76.76 -28.66, 77.01 -33.4" stroke="#4b172d" stroke-width="2" fill="none"></path></g></g><g stroke-linecap="round"><g transform="translate(98.02513901543534 44.20266038793238) rotate(0 -31.712649561071657 13.190169859534194)"><path d="M0 0 C-0.43 -0.66, -2.25 -2.74, -2.56 -3.98 C-2.87 -5.21, -2.58 -6.19, -1.87 -7.41 C-1.17 -8.63, 0.63 -9.15, 1.65 -11.28 C2.68 -13.41, 4.22 -17.28, 4.3 -20.21 C4.39 -23.14, 3.99 -26.56, 2.17 -28.85 C0.34 -31.14, -3.38 -33.37, -6.63 -33.97 C-9.87 -34.57, -14.46 -34.01, -17.3 -32.44 C-20.14 -30.87, -22.6 -27.06, -23.66 -24.56 C-24.71 -22.06, -24.1 -19.53, -23.66 -17.45 C-23.21 -15.36, -21.6 -13.76, -21 -12.03 C-20.41 -10.31, -19.44 -8.7, -20.1 -7.1 C-20.75 -5.5, -22.79 -3.56, -24.93 -2.45 C-27.06 -1.34, -30.02 -2.15, -32.92 -0.42 C-35.82 1.32, -39.99 3.82, -42.32 7.97 C-44.65 12.12, -45.03 19.03, -46.9 24.49 C-48.76 29.96, -51.01 35.97, -53.51 40.76 C-56.01 45.54, -59.52 49.91, -61.89 53.21 C-64.27 56.52, -66.76 59.35, -67.74 60.58 M0 0 C-0.43 -0.66, -2.25 -2.74, -2.56 -3.98 C-2.87 -5.21, -2.58 -6.19, -1.87 -7.41 C-1.17 -8.63, 0.63 -9.15, 1.65 -11.28 C2.68 -13.41, 4.22 -17.28, 4.3 -20.21 C4.39 -23.14, 3.99 -26.56, 2.17 -28.85 C0.34 -31.14, -3.38 -33.37, -6.63 -33.97 C-9.87 -34.57, -14.46 -34.01, -17.3 -32.44 C-20.14 -30.87, -22.6 -27.06, -23.66 -24.56 C-24.71 -22.06, -24.1 -19.53, -23.66 -17.45 C-23.21 -15.36, -21.6 -13.76, -21 -12.03 C-20.41 -10.31, -19.44 -8.7, -20.1 -7.1 C-20.75 -5.5, -22.79 -3.56, -24.93 -2.45 C-27.06 -1.34, -30.02 -2.15, -32.92 -0.42 C-35.82 1.32, -39.99 3.82, -42.32 7.97 C-44.65 12.12, -45.03 19.03, -46.9 24.49 C-48.76 29.96, -51.01 35.97, -53.51 40.76 C-56.01 45.54, -59.52 49.91, -61.89 53.21 C-64.27 56.52, -66.76 59.35, -67.74 60.58" stroke="#4b172d" stroke-width="2" fill="none"></path></g></g><g stroke-linecap="round"><g transform="translate(97.9837309340578 44.2708030987194) rotate(0 23.09066358020391 34.15539694081656)"><path d="M0 0 C1.51 0.98, 7.01 2.85, 9.05 5.91 C11.09 8.97, 11 13.54, 12.23 18.38 C13.46 23.22, 14.69 30.32, 16.44 34.94 C18.18 39.57, 19.86 42.96, 22.7 46.11 C25.54 49.25, 29.99 52.17, 33.48 53.8 C36.96 55.44, 42.45 55.03, 43.62 55.93 C44.8 56.82, 40.12 58.18, 40.54 59.17 C40.96 60.16, 45.86 60.63, 46.15 61.87 C46.44 63.1, 44.33 65.53, 42.28 66.57 C40.23 67.62, 36.23 68.76, 33.85 68.13 C31.47 67.49, 29.99 64.5, 28 62.75 C26.02 61, 24.77 60.22, 21.92 57.61 C19.08 54.99, 13.66 50.36, 10.93 47.08 C8.21 43.81, 6.45 39.48, 5.56 37.96 M0 0 C1.51 0.98, 7.01 2.85, 9.05 5.91 C11.09 8.97, 11 13.54, 12.23 18.38 C13.46 23.22, 14.69 30.32, 16.44 34.94 C18.18 39.57, 19.86 42.96, 22.7 46.11 C25.54 49.25, 29.99 52.17, 33.48 53.8 C36.96 55.44, 42.45 55.03, 43.62 55.93 C44.8 56.82, 40.12 58.18, 40.54 59.17 C40.96 60.16, 45.86 60.63, 46.15 61.87 C46.44 63.1, 44.33 65.53, 42.28 66.57 C40.23 67.62, 36.23 68.76, 33.85 68.13 C31.47 67.49, 29.99 64.5, 28 62.75 C26.02 61, 24.77 60.22, 21.92 57.61 C19.08 54.99, 13.66 50.36, 10.93 47.08 C8.21 43.81, 6.45 39.48, 5.56 37.96" stroke="#4b172d" stroke-width="2" fill="none"></path></g></g><g stroke-linecap="round"><g transform="translate(84.35902142614441 21.139538711979412) rotate(344.24531677847153 3.821026083171546 0.09786244449219339)" fill-rule="evenodd"><path d="M0 0 L1.9 -2.57 L5.34 -2.74 L7.59 -0.49 L6.97 2.66 L2.83 2.94 L0 0" stroke="none" stroke-width="0" fill="#4b172d" fill-rule="evenodd"></path><path d="M0 0 C0.32 -0.43, 1.01 -2.11, 1.9 -2.57 C2.79 -3.02, 4.39 -3.08, 5.34 -2.74 C6.29 -2.39, 7.32 -1.39, 7.59 -0.49 C7.86 0.41, 7.77 2.09, 6.97 2.66 C6.18 3.23, 3.97 3.28, 2.83 2.94 C1.7 2.6, 0.64 1.11, 0.17 0.62 C-0.3 0.13, 0.03 0.1, 0 0 M0 0 C0.32 -0.43, 1.01 -2.11, 1.9 -2.57 C2.79 -3.02, 4.39 -3.08, 5.34 -2.74 C6.29 -2.39, 7.32 -1.39, 7.59 -0.49 C7.86 0.41, 7.77 2.09, 6.97 2.66 C6.18 3.23, 3.97 3.28, 2.83 2.94 C1.7 2.6, 0.64 1.11, 0.17 0.62 C-0.3 0.13, 0.03 0.1, 0 0" stroke="#4b172d" stroke-width="1" fill="none"></path></g></g><g stroke-linecap="round"><g transform="translate(95.75447341037898 133.38197922117388) rotate(0 3.5974441739797385 3.4475506667305353)"><path d="M0 0 C0.24 0.99, 0.24 4.76, 1.44 5.91 C2.64 7.06, 6.24 6.73, 7.19 6.9 M0 0 C0.24 0.99, 0.24 4.76, 1.44 5.91 C2.64 7.06, 6.24 6.73, 7.19 6.9" stroke="#4b172d" stroke-width="2" fill="none"></path></g></g><g stroke-linecap="round"><g transform="translate(57.681522569093886 142.07580264162493) rotate(0 4.056932696233389 -2.1810118588045952)"><path d="M0 0 C1.1 0.15, 5.25 1.45, 6.6 0.9 C7.94 0.35, 8.19 -2.25, 8.09 -3.3 C7.99 -4.35, 6.35 -5.05, 6 -5.4 M0 0 C1.1 0.15, 5.25 1.45, 6.6 0.9 C7.94 0.35, 8.19 -2.25, 8.09 -3.3 C7.99 -4.35, 6.35 -5.05, 6 -5.4" stroke="#4b172d" stroke-width="2" fill="none"></path></g></g><g stroke-linecap="round"><g transform="translate(57.08194854009753 102.20412971334963) rotate(0 22.7838131018716 2.8607473562591395)"><path d="M0 0 C2.25 0.95, 5.9 5.35, 13.49 5.7 C21.09 6.05, 40.22 2.7, 45.57 2.1 M0 0 C2.25 0.95, 5.9 5.35, 13.49 5.7 C21.09 6.05, 40.22 2.7, 45.57 2.1" stroke="#4b172d" stroke-width="2" fill="none"></path></g></g><g stroke-linecap="round"><g transform="translate(28.901969177256433 105.20199985833256) rotate(0 4.047124695727234 3.8972311884781448)"><path d="M0 0 C0.7 0.45, 2.85 1.4, 4.2 2.7 C5.55 4, 7.44 6.95, 8.09 7.79 M0 0 C0.7 0.45, 2.85 1.4, 4.2 2.7 C5.55 4, 7.44 6.95, 8.09 7.79" stroke="#4b172d" stroke-width="2" fill="none"></path></g></g><g stroke-linecap="round"><g transform="translate(120.22908527402114 100.93902851216717) rotate(0 3.5974441739797385 -2.5481896232357713)"><path d="M0 0 C0.35 -0.7, 0.9 -3.35, 2.1 -4.2 C3.3 -5.05, 6.35 -4.95, 7.19 -5.1 M0 0 C0.35 -0.7, 0.9 -3.35, 2.1 -4.2 C3.3 -5.05, 6.35 -4.95, 7.19 -5.1" stroke="#4b172d" stroke-width="2" fill="none"></path></g></g><g stroke-linecap="round"><g transform="translate(77.47693900749255 40.10580400973322) rotate(0 10.18220185390578 28.871993571740404)"><path d="M0 0 C0.49 2.03, 2.15 3.55, 2.95 12.16 C3.74 20.78, 3.66 44.78, 4.76 51.69 C5.87 58.6, 7.61 60.06, 9.57 53.63 C11.53 47.21, 14.74 21.29, 16.54 13.14 C18.34 4.99, 19.73 6.13, 20.36 4.73 M0 0 C0.49 2.03, 2.15 3.55, 2.95 12.16 C3.74 20.78, 3.66 44.78, 4.76 51.69 C5.87 58.6, 7.61 60.06, 9.57 53.63 C11.53 47.21, 14.74 21.29, 16.54 13.14 C18.34 4.99, 19.73 6.13, 20.36 4.73" stroke="#4b172d" stroke-width="2" fill="none"></path></g></g><g stroke-linecap="round" transform="translate(78.60282150467583 13.299693389306412) rotate(339.9517996050271 3.4477498455989917 2.4004338286032407)"><path d="M6.9 2.4 C6.9 2.54, 6.88 2.68, 6.84 2.82 C6.81 2.95, 6.76 3.09, 6.69 3.22 C6.62 3.35, 6.53 3.48, 6.43 3.6 C6.33 3.72, 6.22 3.84, 6.09 3.94 C5.96 4.05, 5.82 4.15, 5.66 4.24 C5.51 4.33, 5.34 4.41, 5.17 4.48 C5 4.55, 4.81 4.61, 4.63 4.66 C4.44 4.7, 4.24 4.74, 4.05 4.76 C3.85 4.79, 3.65 4.8, 3.45 4.8 C3.25 4.8, 3.05 4.79, 2.85 4.76 C2.65 4.74, 2.46 4.7, 2.27 4.66 C2.08 4.61, 1.9 4.55, 1.72 4.48 C1.55 4.41, 1.38 4.33, 1.23 4.24 C1.08 4.15, 0.93 4.05, 0.81 3.94 C0.68 3.84, 0.56 3.72, 0.46 3.6 C0.36 3.48, 0.28 3.35, 0.21 3.22 C0.14 3.09, 0.09 2.95, 0.05 2.82 C0.02 2.68, 0 2.54, 0 2.4 C0 2.26, 0.02 2.12, 0.05 1.98 C0.09 1.85, 0.14 1.71, 0.21 1.58 C0.28 1.45, 0.36 1.32, 0.46 1.2 C0.56 1.08, 0.68 0.96, 0.81 0.86 C0.93 0.75, 1.08 0.65, 1.23 0.56 C1.38 0.47, 1.55 0.39, 1.72 0.32 C1.9 0.25, 2.08 0.19, 2.27 0.14 C2.46 0.1, 2.65 0.06, 2.85 0.04 C3.05 0.01, 3.25 0, 3.45 0 C3.65 0, 3.85 0.01, 4.05 0.04 C4.24 0.06, 4.44 0.1, 4.63 0.14 C4.81 0.19, 5 0.25, 5.17 0.32 C5.34 0.39, 5.51 0.47, 5.66 0.56 C5.82 0.65, 5.96 0.75, 6.09 0.86 C6.22 0.96, 6.33 1.08, 6.43 1.2 C6.53 1.32, 6.62 1.45, 6.69 1.58 C6.76 1.71, 6.81 1.85, 6.84 1.98 C6.88 2.12, 6.89 2.33, 6.9 2.4 C6.9 2.47, 6.9 2.33, 6.9 2.4" stroke="none" stroke-width="0" fill="#fff"></path><path d="M6.9 2.4 C6.9 2.54, 6.88 2.68, 6.84 2.82 C6.81 2.95, 6.76 3.09, 6.69 3.22 C6.62 3.35, 6.53 3.48, 6.43 3.6 C6.33 3.72, 6.22 3.84, 6.09 3.94 C5.96 4.05, 5.82 4.15, 5.66 4.24 C5.51 4.33, 5.34 4.41, 5.17 4.48 C5 4.55, 4.81 4.61, 4.63 4.66 C4.44 4.7, 4.24 4.74, 4.05 4.76 C3.85 4.79, 3.65 4.8, 3.45 4.8 C3.25 4.8, 3.05 4.79, 2.85 4.76 C2.65 4.74, 2.46 4.7, 2.27 4.66 C2.08 4.61, 1.9 4.55, 1.72 4.48 C1.55 4.41, 1.38 4.33, 1.23 4.24 C1.08 4.15, 0.93 4.05, 0.81 3.94 C0.68 3.84, 0.56 3.72, 0.46 3.6 C0.36 3.48, 0.28 3.35, 0.21 3.22 C0.14 3.09, 0.09 2.95, 0.05 2.82 C0.02 2.68, 0 2.54, 0 2.4 C0 2.26, 0.02 2.12, 0.05 1.98 C0.09 1.85, 0.14 1.71, 0.21 1.58 C0.28 1.45, 0.36 1.32, 0.46 1.2 C0.56 1.08, 0.68 0.96, 0.81 0.86 C0.93 0.75, 1.08 0.65, 1.23 0.56 C1.38 0.47, 1.55 0.39, 1.72 0.32 C1.9 0.25, 2.08 0.19, 2.27 0.14 C2.46 0.1, 2.65 0.06, 2.85 0.04 C3.05 0.01, 3.25 0, 3.45 0 C3.65 0, 3.85 0.01, 4.05 0.04 C4.24 0.06, 4.44 0.1, 4.63 0.14 C4.81 0.19, 5 0.25, 5.17 0.32 C5.34 0.39, 5.51 0.47, 5.66 0.56 C5.82 0.65, 5.96 0.75, 6.09 0.86 C6.22 0.96, 6.33 1.08, 6.43 1.2 C6.53 1.32, 6.62 1.45, 6.69 1.58 C6.76 1.71, 6.81 1.85, 6.84 1.98 C6.88 2.12, 6.89 2.33, 6.9 2.4 C6.9 2.47, 6.9 2.33, 6.9 2.4" stroke="#4b172d" stroke-width="1" fill="none"></path></g><g stroke-linecap="round" transform="translate(92.06208831392132 14.030596403371192) rotate(20.048200394972916 3.4477498455989917 2.4004338286032407)"><path d="M6.9 2.4 C6.9 2.54, 6.88 2.68, 6.84 2.82 C6.81 2.95, 6.76 3.09, 6.69 3.22 C6.62 3.35, 6.53 3.48, 6.43 3.6 C6.33 3.72, 6.22 3.84, 6.09 3.94 C5.96 4.05, 5.82 4.15, 5.66 4.24 C5.51 4.33, 5.34 4.41, 5.17 4.48 C5 4.55, 4.81 4.61, 4.63 4.66 C4.44 4.7, 4.24 4.74, 4.05 4.76 C3.85 4.79, 3.65 4.8, 3.45 4.8 C3.25 4.8, 3.05 4.79, 2.85 4.76 C2.65 4.74, 2.46 4.7, 2.27 4.66 C2.08 4.61, 1.9 4.55, 1.72 4.48 C1.55 4.41, 1.38 4.33, 1.23 4.24 C1.08 4.15, 0.93 4.05, 0.81 3.94 C0.68 3.84, 0.56 3.72, 0.46 3.6 C0.36 3.48, 0.28 3.35, 0.21 3.22 C0.14 3.09, 0.09 2.95, 0.05 2.82 C0.02 2.68, 0 2.54, 0 2.4 C0 2.26, 0.02 2.12, 0.05 1.98 C0.09 1.85, 0.14 1.71, 0.21 1.58 C0.28 1.45, 0.36 1.32, 0.46 1.2 C0.56 1.08, 0.68 0.96, 0.81 0.86 C0.93 0.75, 1.08 0.65, 1.23 0.56 C1.38 0.47, 1.55 0.39, 1.72 0.32 C1.9 0.25, 2.08 0.19, 2.27 0.14 C2.46 0.1, 2.65 0.06, 2.85 0.04 C3.05 0.01, 3.25 0, 3.45 0 C3.65 0, 3.85 0.01, 4.05 0.04 C4.24 0.06, 4.44 0.1, 4.63 0.14 C4.81 0.19, 5 0.25, 5.17 0.32 C5.34 0.39, 5.51 0.47, 5.66 0.56 C5.82 0.65, 5.96 0.75, 6.09 0.86 C6.22 0.96, 6.33 1.08, 6.43 1.2 C6.53 1.32, 6.62 1.45, 6.69 1.58 C6.76 1.71, 6.81 1.85, 6.84 1.98 C6.88 2.12, 6.89 2.33, 6.9 2.4 C6.9 2.47, 6.9 2.33, 6.9 2.4" stroke="none" stroke-width="0" fill="#fff"></path><path d="M6.9 2.4 C6.9 2.54, 6.88 2.68, 6.84 2.82 C6.81 2.95, 6.76 3.09, 6.69 3.22 C6.62 3.35, 6.53 3.48, 6.43 3.6 C6.33 3.72, 6.22 3.84, 6.09 3.94 C5.96 4.05, 5.82 4.15, 5.66 4.24 C5.51 4.33, 5.34 4.41, 5.17 4.48 C5 4.55, 4.81 4.61, 4.63 4.66 C4.44 4.7, 4.24 4.74, 4.05 4.76 C3.85 4.79, 3.65 4.8, 3.45 4.8 C3.25 4.8, 3.05 4.79, 2.85 4.76 C2.65 4.74, 2.46 4.7, 2.27 4.66 C2.08 4.61, 1.9 4.55, 1.72 4.48 C1.55 4.41, 1.38 4.33, 1.23 4.24 C1.08 4.15, 0.93 4.05, 0.81 3.94 C0.68 3.84, 0.56 3.72, 0.46 3.6 C0.36 3.48, 0.28 3.35, 0.21 3.22 C0.14 3.09, 0.09 2.95, 0.05 2.82 C0.02 2.68, 0 2.54, 0 2.4 C0 2.26, 0.02 2.12, 0.05 1.98 C0.09 1.85, 0.14 1.71, 0.21 1.58 C0.28 1.45, 0.36 1.32, 0.46 1.2 C0.56 1.08, 0.68 0.96, 0.81 0.86 C0.93 0.75, 1.08 0.65, 1.23 0.56 C1.38 0.47, 1.55 0.39, 1.72 0.32 C1.9 0.25, 2.08 0.19, 2.27 0.14 C2.46 0.1, 2.65 0.06, 2.85 0.04 C3.05 0.01, 3.25 0, 3.45 0 C3.65 0, 3.85 0.01, 4.05 0.04 C4.24 0.06, 4.44 0.1, 4.63 0.14 C4.81 0.19, 5 0.25, 5.17 0.32 C5.34 0.39, 5.51 0.47, 5.66 0.56 C5.82 0.65, 5.96 0.75, 6.09 0.86 C6.22 0.96, 6.33 1.08, 6.43 1.2 C6.53 1.32, 6.62 1.45, 6.69 1.58 C6.76 1.71, 6.81 1.85, 6.84 1.98 C6.88 2.12, 6.89 2.33, 6.9 2.4 C6.9 2.47, 6.9 2.33, 6.9 2.4" stroke="#4b172d" stroke-width="1" fill="none"></path></g></svg>