<svg version="1.1" xmlns="http://www.w3.org/2000/svg" viewBox="0 0 869.4512027698315 184.40520037348415" width="2608.3536083094946" height="553.2156011204524">
  <!-- svg-source:excalidraw -->
  
  <defs>
    <style>
      @font-face {
        font-family: "Virgil";
        src: url("https://excalidraw.com/Virgil.woff2");
      }
      @font-face {
        font-family: "Cascadia";
        src: url("https://excalidraw.com/Cascadia.woff2");
      }
    </style>
  </defs>
  <g stroke-linecap="round" transform="translate(289.16201205104744 41.612244897959044) rotate(0 110 60)"><path d="M0 0 C0 0, 0 0, 0 0 M0 0 C0 0, 0 0, 0 0 M-0.05 6.23 C1.95 3.63, 3.77 2.12, 5.06 0.54 M0.1 6.35 C1.39 4.4, 3.25 2.63, 5.34 0.61 M-0.56 12.5 C4.29 9.38, 6.46 3.02, 11.93 -0.38 M0.8 12.43 C2.48 8.79, 5.69 4.03, 9.91 -0.61 M0.04 18 C3.64 14.48, 10.96 7.39, 16.87 1.1 M0.09 18.42 C3.39 14.37, 8.59 8.95, 16.44 0.59 M-0.27 25.77 C9.13 15.64, 13.93 5.83, 20.76 -1.35 M0.22 23.92 C3.78 18.42, 8.7 14.73, 22.2 0.19 M-0.4 30.15 C8.41 21.84, 13.11 16.09, 26.21 -1.51 M-0.78 30.81 C5.7 23.86, 13.82 15.06, 27.11 1.28 M0.55 38.82 C10.52 23.46, 24.59 7.96, 30.23 0.17 M0.22 36.9 C10.46 25.15, 21.73 12.65, 32.5 -0.42 M2.07 41.17 C14.34 28.12, 26.04 13.22, 38.23 -1.43 M-0.31 42.69 C11.9 28.55, 25.01 14.09, 36.69 0.75 M-0.79 50.69 C11.53 33.63, 25.55 18.59, 42.24 -0.11 M0.52 49.21 C13.82 34.21, 25.59 18.68, 42.28 -1.12 M0.15 53.71 C9.54 43.65, 21.19 32.2, 46.56 -0.18 M0.6 55.09 C11.46 42.65, 21.7 29.61, 47.95 -0.02 M-0.18 59.51 C14.75 44.77, 24.9 30.24, 53.98 -0.51 M0.66 60.16 C17.04 41.5, 32.87 22.29, 53.68 0.37 M1.5 69.09 C13.79 52.1, 27.84 37.21, 59.43 -0.38 M-1.15 66.58 C13.22 51.67, 25.94 36.14, 58.6 0.25 M1.73 73.53 C14.62 56.7, 33.14 38.48, 64.22 0.54 M-0.19 72.6 C19.86 51.12, 37.96 29.08, 64.25 0.09 M1.33 78.27 C14.7 58.4, 33.67 37.91, 69.67 0.27 M0.75 79.28 C21.24 55.55, 42.56 30.54, 68.32 0.16 M0.9 85.92 C22.57 60.17, 43.87 36.16, 75.34 -1.44 M1.06 84.68 C19.25 64.88, 37.94 42.99, 74.01 -1.08 M0.49 92.36 C30 55.08, 60.61 17.73, 80.69 -1.02 M-0.89 92.37 C17.64 72.4, 35.69 51.34, 79.74 0.58 M-0.8 97.51 C31.91 59.56, 68.5 21.35, 83.3 0.94 M-0.17 97.6 C24.13 70.4, 47.43 42.59, 84.45 -0.51 M2.06 101.65 C20.97 79.57, 41.11 60.35, 88.51 1.84 M0.83 104.05 C36.32 62.83, 69.34 21.88, 89.41 -0.31 M1.08 111.77 C29.65 74.74, 60.8 42.59, 95.66 1 M-0.57 109.58 C29.05 76.19, 59.91 42.05, 95.48 -0.73 M0.73 114.33 C31.45 78.85, 61.35 43.51, 99.73 1.86 M-0.71 115.35 C23.68 89.22, 47.26 60.69, 100.88 -0.04 M0.28 120.6 C25.39 89.04, 56.01 59.4, 105.56 -0.06 M0.84 120.66 C43.59 73.55, 84.63 23.79, 106.5 -0.5 M6.67 119.68 C39.63 80.77, 72.74 42.67, 109.54 0.97 M7.21 120.28 C33.21 89.15, 59.32 60.38, 111.63 -0.83 M12.31 122.2 C53.22 75.23, 93.13 29.64, 117.11 1.65 M12.17 121.61 C37.1 90.92, 63.47 59.02, 116.67 0.97 M18.44 121.22 C52.22 81.8, 88.43 39.22, 123.75 -0.01 M16.55 119.96 C49.68 85.02, 80.49 48.69, 122.1 -0.62 M20.23 119.62 C51.87 83.67, 83.3 49.34, 125.94 -0.36 M21.43 121.38 C52.66 85.23, 83.38 49.4, 126.6 0.03 M28.93 122.13 C61.2 86.15, 91.13 47.32, 132.73 0.65 M27.43 121.08 C63.07 77.98, 101.29 36.69, 132.67 -0.04 M33.57 121.45 C65.69 80.6, 98.98 43.46, 137.35 -0.4 M32.47 120.91 C70.7 76.34, 110.5 29.34, 137.37 0.07 M39.17 122.22 C76.54 76.7, 113.7 32.8, 141.47 -0.4 M39.04 119.83 C71.59 82.84, 104.74 45.35, 142.68 0.57 M44.42 119.2 C71.55 86.71, 100.11 57.19, 146.85 -1.62 M44.05 121.4 C71.25 87.32, 100.91 55.12, 148.18 -0.49 M47.84 121.21 C90.48 73.27, 132.24 26.2, 155.54 -1.64 M48.02 120.21 C70.39 93.65, 92.67 69.75, 153.43 0.17 M53.49 121.3 C82.03 90.18, 107.59 56.54, 157.56 -1.29 M52.92 121.39 C76.75 94.2, 99.73 68.64, 158.67 -0.4 M61.16 120.72 C81.77 93.69, 105.9 67.68, 163.1 1.39 M59.43 121.02 C83.13 91.93, 107.78 65.23, 165.17 0.02 M64.07 119.06 C96.09 85.55, 125.44 51.51, 170.2 -0.74 M64.75 121.69 C100.55 80.83, 137.1 40.56, 169.95 -0.64 M70.99 122.27 C112.4 72.59, 151.04 25.21, 176.93 -1.94 M69.83 120.86 C96.42 90.62, 121.6 61.74, 174.1 0.66 M76.04 120.73 C101.63 89.24, 129.89 55.63, 181.08 0.57 M75.19 120.42 C95.46 96.58, 118.24 70.46, 179.56 0.62 M80.76 121.3 C105.78 91.13, 131.96 61.77, 184.37 0.61 M80.2 121.1 C110.55 84.14, 141.71 49.51, 185.37 -1.05 M83.88 121.43 C126.08 77.83, 163.46 31.94, 192.1 -0.88 M84.83 119.98 C119.81 81.76, 153 41.09, 190.51 0.99 M91.48 121.15 C111.24 96.86, 134.92 69.45, 197.38 -1.78 M90.98 120.94 C125.03 82.48, 157.74 43.37, 196.1 -0.96 M94.67 121.21 C129.41 83.58, 162.48 45.09, 200.76 1.28 M96.21 120.1 C122.17 92.81, 147.11 64.99, 202.26 0.91 M103.79 119.07 C134.76 85.75, 165.3 48.67, 206.49 -1.04 M101.07 120.35 C127.6 92.78, 150.98 64.24, 206.34 -0.64 M106.08 119.02 C133.8 87.37, 161.21 57.54, 210.14 1.32 M106.84 120.77 C147.38 72.83, 189.66 25.6, 211.72 0.58 M111.24 120.96 C138.44 89.38, 165.77 59.02, 218.84 -0.18 M112.17 121.87 C133.45 96.51, 155.12 71.97, 218.1 -0.35 M116.37 122.71 C151.44 81.75, 182.79 45.56, 221.61 0.95 M118.16 121.29 C145.81 87.66, 176.53 53.21, 220.95 2.53 M120.95 120.37 C162.52 78.05, 197.75 33.3, 221.6 8.23 M122.39 120.57 C144.43 96.13, 165.06 70.59, 221.8 7.51 M126.38 119.06 C150.66 93.51, 173.04 70.83, 219.59 13.3 M128.58 121.27 C159.65 84.63, 190.07 48.67, 220.9 12.63 M131.66 121.03 C161.9 90.04, 185.47 58.47, 223.72 17.96 M133.33 121.57 C162.73 89.02, 190.61 57.12, 220.98 19.24 M137.58 119.72 C165.13 88.8, 191.1 57.55, 221.12 25.8 M138.45 121.6 C172.92 83.31, 204.83 44.93, 222.01 25.92 M142.38 119.8 C159.97 100.79, 176.76 82.19, 221.4 32.94 M143.7 122.04 C169.79 90.01, 196.72 59.09, 220.79 32.7 M150 119.27 C171.25 96.58, 192.93 66.96, 219.67 36.36 M149.09 121.48 C166.47 101.29, 185.33 80.24, 221.01 37.8 M153.69 121.47 C167.99 104.98, 183.92 89.26, 221.46 44.26 M153.66 120.96 C180.21 91.81, 204.91 62.61, 222.36 43.31 M160.27 121.19 C177.06 101.83, 195.19 78.4, 220.3 48.8 M159.76 121.39 C177.94 99.75, 196.41 79.64, 221.09 50.47 M165.78 120.71 C177.33 108.09, 191.95 93.11, 223.35 56.2 M165.83 120.08 C182.47 101.12, 202.46 78.54, 221.83 57.06 M171.64 119.87 C191.3 96.42, 210.6 74.92, 221 63.57 M170.68 120.12 C185.99 102.98, 199.76 87.25, 222.21 62.68 M176.41 120.12 C186.67 109.47, 195 97.91, 219.77 69.17 M176.27 120.96 C191.42 102.48, 208.3 83.64, 221.93 68.45 M179.92 118.6 C194.55 105.81, 205.48 94.99, 221.33 72.79 M182.01 119.76 C196.46 102.43, 212.63 85.62, 220.78 73.73 M186.97 120.2 C200.2 105.09, 212.94 91.14, 222 78.49 M185.52 119.96 C200.99 103.96, 215.13 87.75, 222.33 80.31 M191.53 119.59 C201.87 110.16, 209.63 97.97, 220.47 86.74 M192.89 120.69 C200.05 110.62, 209.04 101.69, 220.67 86.95 M196.42 121.34 C203.85 114.75, 206.73 108.63, 221.29 93.16 M197.53 121.24 C204.44 112.95, 211.51 105.58, 222.04 93.51 M201.48 121.93 C209.22 111.58, 216.63 105.53, 221.86 96.86 M202.39 120.57 C208.42 113.89, 214.26 106.21, 220.88 97.73 M207.31 121.86 C214.89 113.06, 216.87 106.87, 221.42 106.79 M206.75 121.75 C211.4 116.83, 215.26 113, 220.94 104.95 M212.04 119.94 C215.72 118.75, 218.16 114.78, 222.28 110.55 M212.79 121.07 C216.83 116.94, 219.24 113.31, 221.83 111.06 M218.65 120.62 C218.73 119.52, 220.57 119.11, 221.36 116.84 M218.46 120.68 C219.28 119.43, 220.69 118.16, 221.39 117.07" stroke="#4c6ef5" stroke-width="0.5" fill="none"></path><path d="M1.3 -0.76 C60.32 0.5, 118.42 -0.54, 221.49 1.21 M-0.3 -0.58 C68.88 0.23, 138.91 -0.05, 219.76 -0.56 M220.05 0.54 C220.12 45.7, 220.51 85.72, 221.71 121.4 M220.05 0.5 C219.2 40.15, 218.18 78.24, 219.87 120.26 M219.86 118.68 C154.38 119.51, 87.11 116.58, 0.29 119.06 M219.61 119.78 C171.85 120.18, 123.24 120.77, 0.45 120.7 M1.12 118.89 C-1.07 94.04, 0 70.18, -1.72 -1.41 M0.1 119.6 C0.79 94.02, 0.41 68.84, -0.79 0.65" stroke="#000000" stroke-width="1" fill="none"></path></g><g stroke-linecap="round"><g transform="translate(69.90360800959252 102.26107464070355) rotate(0 109.40215969934138 0.6886783349403913)"><path d="M0.9 -0.53 C37.55 -0.44, 182.71 -0.06, 218.9 -0.1 M-0.09 1.81 C36.55 2.12, 182.09 1.58, 218.28 1.27" stroke="#000000" stroke-width="2" fill="none"></path></g><g transform="translate(69.90360800959252 102.26107464070355) rotate(0 109.40215969934138 0.6886783349403913)"><path d="M189.27 12.75 C195.73 8.79, 200.59 8.72, 219.68 1.58 M189.48 11.06 C200.84 7.96, 211.07 3.7, 217.64 1.92" stroke="#000000" stroke-width="2" fill="none"></path></g><g transform="translate(69.90360800959252 102.26107464070355) rotate(0 109.40215969934138 0.6886783349403913)"><path d="M189.16 -7.77 C195.54 -7.32, 200.42 -2.98, 219.68 1.58 M189.37 -9.46 C200.76 -4.87, 211.03 -1.44, 217.64 1.92" stroke="#000000" stroke-width="2" fill="none"></path></g></g><g transform="translate(85.16201205104744 61.612244897959044) rotate(0 88.5 18)"><text x="0" y="25" font-family="Virgil, Segoe UI Emoji" font-size="28px" fill="#000000" text-anchor="start" style="white-space: pre;" direction="ltr">GIVE ME MY</text></g><g transform="translate(359.66201205104744 78.61224489795904) rotate(0 39.5 23)"><text x="39.5" y="32" font-family="Virgil, Segoe UI Emoji" font-size="36px" fill="#000000" text-anchor="middle" style="white-space: pre;" direction="ltr">Shop</text></g><g stroke-linecap="round"><g transform="translate(705.7939843286317 -22.113156837974657) rotate(269.83845249062614 28.566140398371772 123.15466035668544)" fill-rule="evenodd"><path d="M0.57 0.92 L58.33 -0.78 L54.72 224.55 L26.91 247.73 L1.58 222.3 L1.67 0.98" stroke="none" stroke-width="0" fill="#eeeeee" fill-rule="evenodd"></path><path d="M-0.44 -1.71 C16.29 1.49, 29.44 1.53, 56.77 -0.92 M0.08 -0.18 C13.01 -0.78, 27.23 -0.02, 56.08 -0.19 M57.15 -1.93 C58.12 73.93, 56.97 144.2, 55.59 223.01 M56.18 -0.7 C57 78.1, 56.98 155.35, 55.55 222.85 M57.58 221.12 C50.42 227.61, 42.02 235.54, 27.95 246.77 M57.15 223.15 C49.08 230.41, 39.6 236.11, 26.75 248.24 M26.98 246.37 C19.35 239.66, 12.87 233.21, -0.16 221.76 M26.87 247.57 C19.71 241.41, 13.82 233.16, 0.21 220.69 M-0.18 220.75 C0.72 142.62, 1.26 65.48, 0.6 -0.33 M0.47 221.92 C2.65 176.17, 2.33 132.04, 0.3 0.22 M0 0 C0 0, 0 0, 0 0 M0 0 C0 0, 0 0, 0 0" stroke="#000000" stroke-width="1" fill="none"></path></g></g><g stroke-linecap="round" transform="translate(618.766611130472 90.18308832924686) rotate(0 23.136195556589655 15.377950340008738)"><path d="M0.49 -0.88 L45.03 -0.94 L46.97 29.71 L1.69 30.74" stroke="none" stroke-width="0" fill="#868e96"></path><path d="M-1.71 1.72 C17.74 0.41, 34.18 0, 45.58 -1.33 M-0.18 -0.28 C10.33 0.62, 22.12 -0.83, 46.3 0.27 M44.28 1.71 C47.96 9.68, 44.87 17.3, 46.37 31.75 M45.71 -0.13 C46.76 9.92, 45.79 18.78, 46.19 29.99 M44.46 31.09 C27.74 29.46, 12.69 31.63, -0.91 30.26 M46.49 31.28 C30.18 30.13, 12.18 30.51, 0.56 30.2 M-1.31 29.03 C-1.15 22, -1.22 15.68, 0.2 -0.8 M-0.11 29.97 C0.79 22.04, -0.67 12.23, -0.87 0.52" stroke="#000000" stroke-width="1" fill="none"></path></g><g stroke-linecap="round"><g transform="translate(643.1265879215157 105.25668242165557) rotate(0 -0.10007278686430254 -7.193448286003786)" fill-rule="evenodd"><path d="M-0.88 -1.24 L21.01 -13.83 L-24.14 -12.66 L-0.01 0.69" stroke="none" stroke-width="0" fill="#ced4da" fill-rule="evenodd"></path><path d="M1.72 1.4 C6.36 -2.3, 11.96 -8.47, 20.62 -15.78 M-0.28 -0.64 C7.54 -4.36, 12.99 -9.07, 22.22 -14.57 M23.66 -13.12 C4.84 -16.6, -14.33 -14.74, -22.1 -13.93 M21.82 -14.27 C5.13 -15.43, -12.75 -14.73, -23.86 -13.58 M-22.76 -15.43 C-15.83 -7.39, -4.91 -4.18, -0.5 1.3 M-22.58 -13.54 C-18.09 -11.06, -11.84 -6.54, -0.56 -0.72 M0 0 C0 0, 0 0, 0 0 M0 0 C0 0, 0 0, 0 0" stroke="#000000" stroke-width="1" fill="none"></path></g></g><g stroke-linecap="round"><g transform="translate(716.8007105623369 107.89664619295036) rotate(0 29.142234743531617 -0.5967745729449234)"><path d="M1.4 0.31 C17.66 -0.91, 31.62 -2.43, 56.89 -0.79" stroke="#000000" stroke-width="1.5" fill="none" stroke-dasharray="1.5 7"></path></g></g><g stroke-linecap="round" transform="translate(674.0786885020666 90.44943862156379) rotate(0 23.136195556589655 15.377950340008738)"><path d="M-0.94 0.7 L45.22 1.69 L46.26 31.45 L-0.38 28.78" stroke="none" stroke-width="0" fill="#868e96"></path><path d="M0.31 1.5 C9.82 -1.02, 18.52 -1.58, 46.56 0.15 M0.65 0.17 C12.26 0.33, 26.39 0.26, 47.2 0.16 M46.84 -1.69 C45.61 6.27, 47.53 12.76, 47.76 29.14 M46.32 -0.71 C45.26 7.42, 45.47 15.78, 47.06 31.35 M44.7 32.07 C37.18 29.6, 26.38 31.81, -0.91 32.28 M45.29 30.45 C30.76 31.69, 15.89 30.41, -0.85 30.57 M-1.75 29.27 C-0.78 23.74, -0.53 16.13, -0.91 -0.96 M0.21 29.94 C-0.44 21, 0.76 13.24, -0.44 -0.62" stroke="#000000" stroke-width="1" fill="none"></path></g><g stroke-linecap="round"><g transform="translate(698.4756935016289 104.4468931838428) rotate(0 -1.3054371883165459 -7.539253260906207)" fill-rule="evenodd"><path d="M0.7 -1.05 L23.64 -14.54 L-22.41 -14.73 L-1.97 -1.23" stroke="none" stroke-width="0" fill="#ced4da" fill-rule="evenodd"></path><path d="M1.5 -0.11 C7.67 -6.97, 15.59 -10.96, 22.1 -14.88 M0.17 -0.8 C6.09 -3.83, 12 -7.13, 22.1 -15.52 M20.26 -15.45 C4.68 -13.33, -12.37 -12.78, -24.71 -15.47 M21.23 -15.5 C8.94 -15.22, -3.12 -13.62, -22.5 -15.26 M-21.78 -13.75 C-16.77 -10.12, -7.24 -5.99, 1.52 0.45 M-23.4 -14.95 C-14.29 -9.63, -7.44 -4.88, -0.18 -0.65 M0 0 C0 0, 0 0, 0 0 M0 0 C0 0, 0 0, 0 0" stroke="#000000" stroke-width="1" fill="none"></path></g></g><g stroke-linecap="round" transform="translate(773.338564106291 89.38403745228652) rotate(0 23.136195556589655 15.377950340008738)"><path d="M-1.05 1.69 L46.26 0.69 L45.89 28.78 L-1.23 29.99" stroke="none" stroke-width="0" fill="#868e96"></path><path d="M-0.11 -0.7 C15.79 -1.6, 34.52 -0.19, 45.92 -0.56 M-0.8 0.03 C11.17 -0.11, 22.72 0.08, 45.28 0.86 M45.35 0.1 C47.36 11.81, 47.85 21.15, 45.15 30.49 M45.3 -0.08 C45.52 10.8, 47.07 20.65, 45.37 30.92 M46.88 29.85 C34.4 32.36, 22.61 32.58, 0.45 31.8 M45.68 31.32 C28.09 29.9, 10.18 30.43, -0.65 29.89 M-1.05 30.96 C-0.53 23.5, -0.64 15.68, -0.23 -1.58 M-0.68 29.88 C0.46 19.79, -0.5 7.71, -0.47 0.35" stroke="#000000" stroke-width="1" fill="none"></path></g><g stroke-linecap="round"><g transform="translate(798.6697812654625 102.71879758259274) rotate(0 -0.600393589307032 -7.101397662855106)" fill-rule="evenodd"><path d="M1.69 -0.01 L22.64 -14.91 L-25.07 -15.58 L-0.77 -0.99" stroke="none" stroke-width="0" fill="#ced4da" fill-rule="evenodd"></path><path d="M-0.7 -1.33 C5.56 -4.28, 13.9 -9.51, 21.39 -15.82 M0.03 0.27 C7.96 -4.21, 16.17 -11.44, 22.8 -13.83 M22.05 -13.53 C7.58 -13.19, -9.25 -15.74, -23.36 -13.83 M21.86 -15.29 C9.01 -14.13, -4.88 -15.76, -22.93 -14.89 M-24 -14.85 C-16.59 -12.16, -11.25 -7.62, 1.04 1.62 M-22.53 -14.91 C-19.19 -12.17, -13.99 -9.07, -0.86 -0.7 M0 0 C0 0, 0 0, 0 0 M0 0 C0 0, 0 0, 0 0" stroke="#000000" stroke-width="1" fill="none"></path></g></g><g stroke-linecap="round"><g transform="translate(508.76708068912967 101.61224489795904) rotate(0 49.687089854385704 0.02693771757185459)"><path d="M-1.33 -1.25 C37.77 0.5, 74.61 -0.21, 98.71 1.31 M0.27 -0.04 C32.58 0.13, 62.33 0.83, 100.7 0.28" stroke="#000000" stroke-width="2" fill="none"></path></g><g transform="translate(508.76708068912967 101.61224489795904) rotate(0 49.687089854385704 0.02693771757185459)"><path d="M71.25 9.46 C83.41 7.06, 93.31 2.44, 99.41 1.59 M72.84 10.68 C82.49 7.56, 89.47 4.96, 101.4 0.57" stroke="#000000" stroke-width="2" fill="none"></path></g><g transform="translate(508.76708068912967 101.61224489795904) rotate(0 49.687089854385704 0.02693771757185459)"><path d="M71.12 -11.06 C83.32 -5.77, 93.27 -2.7, 99.41 1.59 M72.72 -9.84 C82.24 -6.46, 89.26 -2.57, 101.4 0.57" stroke="#000000" stroke-width="2" fill="none"></path></g></g><g transform="translate(526.6027498133485 57) rotate(0 26 23)"><text x="0" y="32" font-family="Virgil, Segoe UI Emoji" font-size="36px" fill="#000000" text-anchor="start" style="white-space: pre;" direction="ltr">???</text></g><g stroke-linecap="round" transform="translate(19.61838930024396 21.612244897959044) rotate(0 27.814609871408038 25.60069298867586)"><path d="M28.23 0.67 C33.96 0.46, 42.13 2.22, 46.66 5.84 C51.19 9.45, 54.62 16.67, 55.4 22.39 C56.17 28.11, 54.47 35.73, 51.32 40.16 C48.16 44.6, 42 47.34, 36.48 48.98 C30.95 50.62, 23.66 52.05, 18.17 50.01 C12.67 47.96, 6.5 41.66, 3.5 36.7 C0.5 31.74, -1.13 25.43, 0.16 20.25 C1.46 15.06, 5.81 9.04, 11.26 5.59 C16.71 2.13, 28.98 0.21, 32.86 -0.5 C36.75 -1.21, 34.74 0.74, 34.59 1.31 M16.96 2.77 C22.58 0.81, 32.73 0.68, 38.31 2.37 C43.89 4.05, 47.75 8.5, 50.44 12.88 C53.13 17.27, 55.03 23.23, 54.43 28.67 C53.83 34.12, 51.35 41.85, 46.84 45.54 C42.33 49.23, 33.31 50.97, 27.35 50.83 C21.38 50.68, 15.37 48.03, 11.08 44.65 C6.79 41.28, 2.72 35.65, 1.6 30.57 C0.49 25.49, 1.9 19.09, 4.4 14.18 C6.91 9.28, 14.47 3.03, 16.63 1.15 C18.8 -0.72, 17.13 2.64, 17.4 2.93" stroke="#000000" stroke-width="2" fill="none"></path></g><g stroke-linecap="round"><g transform="translate(44.26823799674321 72.52985412632097) rotate(0 -1.9143531767974764 31.09770295528415)"><path d="M0.17 0.09 C-0.18 10.51, -2.33 51.28, -2.94 61.74 M-1.19 -0.91 C-1.66 9.75, -4.03 52.8, -4 63.1" stroke="#000000" stroke-width="2" fill="none"></path></g></g><g stroke-linecap="round"><g transform="translate(41.78207838273602 136.19262026743763) rotate(0 11.459332184063896 18.421375534558933)"><path d="M0.09 -0.21 C4.26 5.94, 20.03 30.7, 24.24 37.08 M-1.32 -1.37 C2.72 4.9, 18.73 31.4, 23.11 38.21" stroke="#000000" stroke-width="2" fill="none"></path></g></g><g stroke-linecap="round"><g transform="translate(40.52666757421366 134.89812194765727) rotate(0 -12.125867770633704 16.6206613486288)"><path d="M-0.21 -0.33 C-4.25 5.45, -20.23 29.23, -24.04 34.8 M-1.78 -1.56 C-5.45 3.88, -18.08 27.18, -21.73 33.09" stroke="#000000" stroke-width="2" fill="none"></path></g></g><g stroke-linecap="round"><g transform="translate(10.334030244127007 107.80235922946213) rotate(0 16.469155313908686 -10.59622095975351)"><path d="M-0.33 -0.77 C5.2 -4.17, 27.96 -17.28, 33.27 -20.61 M1.69 1.43 C7.12 -2.33, 27.36 -19.15, 32.74 -22.63" stroke="#000000" stroke-width="2" fill="none"></path></g></g><g stroke-linecap="round"><g transform="translate(44.6541430506918 87.59854297430638) rotate(0 10.030659542389685 13.062256240229885)"><path d="M-0.77 0.79 C2.73 5, 17.26 20.7, 20.84 24.94 M1.02 0.15 C4.41 4.51, 16.84 21.38, 19.99 25.97" stroke="#000000" stroke-width="2" fill="none"></path></g></g><g stroke-linecap="round" transform="translate(15.64452257806306 10) rotate(0 32.0132732781326 31.624273733026712)"><path d="M33.19 -0.44 C39.77 -0.63, 48.5 2.95, 53.7 7.68 C58.91 12.41, 63.7 21.19, 64.43 27.94 C65.16 34.68, 62.05 42.39, 58.07 48.13 C54.09 53.87, 46.92 60.35, 40.54 62.38 C34.16 64.41, 26.06 63.12, 19.79 60.31 C13.51 57.51, 5.99 51.59, 2.89 45.55 C-0.22 39.5, -0.62 30.55, 1.16 24.03 C2.94 17.5, 7.74 10.39, 13.56 6.39 C19.38 2.39, 32.24 1, 36.1 0.03 C39.97 -0.95, 36.93 0.07, 36.75 0.54 M39.7 0.14 C46.03 1.36, 53.74 7.01, 57.73 12.51 C61.73 18.01, 64.17 26.4, 63.7 33.14 C63.22 39.88, 59.35 47.97, 54.89 52.96 C50.43 57.95, 43.52 62.07, 36.94 63.06 C30.36 64.06, 21.33 62.6, 15.43 58.92 C9.53 55.25, 3.48 47.55, 1.52 41.01 C-0.44 34.46, 1.17 25.86, 3.68 19.64 C6.2 13.41, 10.76 6.67, 16.61 3.65 C22.46 0.62, 34.91 1.72, 38.78 1.48 C42.65 1.24, 39.93 1.97, 39.84 2.22" stroke="none" stroke-width="0" fill="#ffd77a"></path><path d="M19.54 3.41 C25.41 0.32, 34.9 -1.55, 41.61 0.41 C48.31 2.37, 56.02 9.45, 59.76 15.17 C63.51 20.89, 65.13 28.1, 64.06 34.72 C62.99 41.33, 58.32 50.08, 53.32 54.86 C48.33 59.64, 40.75 63.23, 34.11 63.42 C27.46 63.61, 19.07 60.17, 13.42 56.02 C7.78 51.87, 1.85 44.99, 0.24 38.53 C-1.36 32.06, -0.32 23.71, 3.79 17.24 C7.89 10.76, 20.22 2.56, 24.88 -0.33 C29.55 -3.23, 31.42 -0.94, 31.78 -0.13 M40.56 0.2 C47.3 1.73, 56.09 9.04, 59.85 14.85 C63.6 20.67, 63.94 28.57, 63.11 35.11 C62.27 41.64, 59.54 49.33, 54.82 54.07 C50.11 58.81, 41.71 62.87, 34.83 63.54 C27.95 64.21, 19.44 62.3, 13.53 58.09 C7.61 53.88, 1.17 44.94, -0.65 38.28 C-2.47 31.62, -0.62 24.25, 2.59 18.11 C5.81 11.97, 12.42 4.27, 18.67 1.43 C24.92 -1.4, 36.5 1.23, 40.09 1.11 C43.68 0.98, 40.32 0.36, 40.21 0.69" stroke="transparent" stroke-width="2" fill="none"></path></g><g stroke-linecap="round"><g transform="translate(16.048783854048907 45.076462042313324) rotate(0 31.30854012308123 14.30375882047906)" fill-rule="evenodd"><path d="M0 0 L5.08 7.67 L12.29 16.03 L20.31 20.25 L29.41 21.47 L40.25 18.57 L50.41 13.54 L62.08 2.02 L62.95 2.64 L62.98 4.75 L60.84 10.43 L55.34 16.66 L48.24 22.56 L41.19 26.3 L34.23 28.32 L28.27 28.43 L22.41 26.76 L15.61 23.2 L9.18 18.36 L3.94 12.33 L0.31 6.54 L-0.4 2.53 L0 0" stroke="none" stroke-width="0" fill="#ccab60" fill-rule="evenodd"></path><path d="M0 0 C2.05 2.67, 7.39 12.45, 12.29 16.03 C17.19 19.61, 23.05 21.89, 29.41 21.47 C35.76 21.06, 44.97 16.78, 50.41 13.54 C55.86 10.3, 60.35 2.54, 62.08 2.02 C63.82 1.5, 63.15 7, 60.84 10.43 C58.53 13.85, 52.67 19.58, 48.24 22.56 C43.8 25.54, 38.54 27.62, 34.23 28.32 C29.93 29.02, 26.58 28.42, 22.41 26.76 C18.23 25.1, 12.86 21.73, 9.18 18.36 C5.5 14.99, 1.84 9.6, 0.31 6.54 C-1.22 3.48, 0.05 1.09, 0 0 M0 0 C2.05 2.67, 7.39 12.45, 12.29 16.03 C17.19 19.61, 23.05 21.89, 29.41 21.47 C35.76 21.06, 44.97 16.78, 50.41 13.54 C55.86 10.3, 60.35 2.54, 62.08 2.02 C63.82 1.5, 63.15 7, 60.84 10.43 C58.53 13.85, 52.67 19.58, 48.24 22.56 C43.8 25.54, 38.54 27.62, 34.23 28.32 C29.93 29.02, 26.58 28.42, 22.41 26.76 C18.23 25.1, 12.86 21.73, 9.18 18.36 C5.5 14.99, 1.84 9.6, 0.31 6.54 C-1.22 3.48, 0.05 1.09, 0 0" stroke="#ccab60" stroke-width="1" fill="none"></path></g></g><g stroke-linecap="round"><g transform="translate(60.17486964895079 41.693912538592485) rotate(0 8.792371843171622 10.667160548504057)" fill-rule="evenodd"><path d="M0 0 L4.02 10.62 L3.58 25.93 L4.57 27.34 L5.59 24.7 L5.36 7.6 L6.18 5.68 L7.15 7.71 L8.27 22.24 L9.89 22.04 L12.07 18.33 L15.31 11.82 L17.66 4.81 L16.57 0.17 L12.3 -5.34 L10.51 -6.04 L8.83 -1.79 L-0.11 -0.11" stroke="none" stroke-width="0" fill="#80c4ff" fill-rule="evenodd"></path><path d="M0 0 C0.67 1.77, 3.43 6.3, 4.02 10.62 C4.62 14.94, 3.32 23.58, 3.58 25.93 C3.84 28.28, 5.29 27.76, 5.59 24.7 C5.89 21.65, 5.1 10.43, 5.36 7.6 C5.63 4.77, 6.67 5.27, 7.15 7.71 C7.64 10.15, 7.45 20.47, 8.27 22.24 C9.09 24.01, 10.51 21.24, 12.07 18.33 C13.64 15.42, 17.29 8.38, 17.66 4.81 C18.03 1.23, 15.5 -1.32, 14.31 -3.13 C13.11 -4.94, 11.42 -6.26, 10.51 -6.04 C9.59 -5.81, 10 -2.72, 8.83 -1.79 C7.66 -0.86, 4.96 -0.73, 3.46 -0.45 C1.97 -0.17, 0.48 -0.17, -0.11 -0.11 M0 0 C0.67 1.77, 3.43 6.3, 4.02 10.62 C4.62 14.94, 3.32 23.58, 3.58 25.93 C3.84 28.28, 5.29 27.76, 5.59 24.7 C5.89 21.65, 5.1 10.43, 5.36 7.6 C5.63 4.77, 6.67 5.27, 7.15 7.71 C7.64 10.15, 7.45 20.47, 8.27 22.24 C9.09 24.01, 10.51 21.24, 12.07 18.33 C13.64 15.42, 17.29 8.38, 17.66 4.81 C18.03 1.23, 15.5 -1.32, 14.31 -3.13 C13.11 -4.94, 11.42 -6.26, 10.51 -6.04 C9.59 -5.81, 10 -2.72, 8.83 -1.79 C7.66 -0.86, 4.96 -0.73, 3.46 -0.45 C1.97 -0.17, 0.48 -0.17, -0.11 -0.11" stroke="#1864ab" stroke-width="1" fill="none"></path></g></g><g stroke-linecap="round"><g transform="translate(23.51467589947015 40.01737928785133) rotate(0 0.25322295734804356 12.050449050155862)" fill-rule="evenodd"><path d="M0 0 L-3.24 6.15 L-5.59 13.19 L-5.17 15.51 L-4.14 15.87 L-1.56 7.15 L-0.68 6.8 L-0.34 8.83 L-2.01 19.11 L0.31 22.9 L1.84 23.99 L2.91 23.81 L3.35 11.07 L6.04 2.12 L3.19 0.5 L0 0" stroke="none" stroke-width="0" fill="#80c4ff" fill-rule="evenodd"></path><path d="M0 0 C-0.54 1.02, -2.31 3.95, -3.24 6.15 C-4.17 8.35, -5.44 11.57, -5.59 13.19 C-5.74 14.81, -4.81 16.88, -4.14 15.87 C-3.46 14.87, -2.2 8.33, -1.56 7.15 C-0.93 5.98, -0.26 6.84, -0.34 8.83 C-0.41 10.82, -2.55 16.62, -2.01 19.11 C-1.47 21.61, 2.01 25.15, 2.91 23.81 C3.8 22.47, 2.83 14.68, 3.35 11.07 C3.87 7.45, 6.59 3.97, 6.04 2.12 C5.48 0.28, 1.01 0.35, 0 0 M0 0 C-0.54 1.02, -2.31 3.95, -3.24 6.15 C-4.17 8.35, -5.44 11.57, -5.59 13.19 C-5.74 14.81, -4.81 16.88, -4.14 15.87 C-3.46 14.87, -2.2 8.33, -1.56 7.15 C-0.93 5.98, -0.26 6.84, -0.34 8.83 C-0.41 10.82, -2.55 16.62, -2.01 19.11 C-1.47 21.61, 2.01 25.15, 2.91 23.81 C3.8 22.47, 2.83 14.68, 3.35 11.07 C3.87 7.45, 6.59 3.97, 6.04 2.12 C5.48 0.28, 1.01 0.35, 0 0" stroke="#1864ab" stroke-width="1" fill="none"></path></g></g><g stroke-linecap="round" transform="translate(22.86058171041759 29.403102314523494) rotate(0 6.801934902995981 6.801934902996095)"><path d="M13.6 6.8 C13.6 7.2, 13.57 7.6, 13.5 7.98 C13.43 8.37, 13.33 8.76, 13.19 9.13 C13.06 9.5, 12.89 9.86, 12.69 10.2 C12.5 10.54, 12.27 10.87, 12.01 11.17 C11.76 11.48, 11.48 11.76, 11.17 12.01 C10.87 12.27, 10.54 12.5, 10.2 12.69 C9.86 12.89, 9.5 13.06, 9.13 13.19 C8.76 13.33, 8.37 13.43, 7.98 13.5 C7.6 13.57, 7.2 13.6, 6.8 13.6 C6.41 13.6, 6.01 13.57, 5.62 13.5 C5.23 13.43, 4.85 13.33, 4.48 13.19 C4.11 13.06, 3.74 12.89, 3.4 12.69 C3.06 12.5, 2.73 12.27, 2.43 12.01 C2.13 11.76, 1.84 11.48, 1.59 11.17 C1.34 10.87, 1.11 10.54, 0.91 10.2 C0.71 9.86, 0.54 9.5, 0.41 9.13 C0.28 8.76, 0.17 8.37, 0.1 7.98 C0.03 7.6, 0 7.2, 0 6.8 C0 6.41, 0.03 6.01, 0.1 5.62 C0.17 5.23, 0.28 4.85, 0.41 4.48 C0.54 4.11, 0.71 3.74, 0.91 3.4 C1.11 3.06, 1.34 2.73, 1.59 2.43 C1.84 2.13, 2.13 1.84, 2.43 1.59 C2.73 1.34, 3.06 1.11, 3.4 0.91 C3.74 0.71, 4.11 0.54, 4.48 0.41 C4.85 0.28, 5.23 0.17, 5.62 0.1 C6.01 0.03, 6.41 0, 6.8 0 C7.2 0, 7.6 0.03, 7.98 0.1 C8.37 0.17, 8.76 0.28, 9.13 0.41 C9.5 0.54, 9.86 0.71, 10.2 0.91 C10.54 1.11, 10.87 1.34, 11.17 1.59 C11.48 1.84, 11.76 2.13, 12.01 2.43 C12.27 2.73, 12.5 3.06, 12.69 3.4 C12.89 3.74, 13.06 4.11, 13.19 4.48 C13.33 4.85, 13.43 5.23, 13.5 5.62 C13.57 6.01, 13.59 6.61, 13.6 6.8 C13.62 7, 13.62 6.61, 13.6 6.8" stroke="#4b172d" stroke-width="2" fill="none"></path></g><g stroke-linecap="round" transform="translate(56.43914767520755 27.89023064302455) rotate(0 6.801934902995981 6.801934902996095)"><path d="M13.6 6.8 C13.6 7.2, 13.57 7.6, 13.5 7.98 C13.43 8.37, 13.33 8.76, 13.19 9.13 C13.06 9.5, 12.89 9.86, 12.69 10.2 C12.5 10.54, 12.27 10.87, 12.01 11.17 C11.76 11.48, 11.48 11.76, 11.17 12.01 C10.87 12.27, 10.54 12.5, 10.2 12.69 C9.86 12.89, 9.5 13.06, 9.13 13.19 C8.76 13.33, 8.37 13.43, 7.98 13.5 C7.6 13.57, 7.2 13.6, 6.8 13.6 C6.41 13.6, 6.01 13.57, 5.62 13.5 C5.23 13.43, 4.85 13.33, 4.48 13.19 C4.11 13.06, 3.74 12.89, 3.4 12.69 C3.06 12.5, 2.73 12.27, 2.43 12.01 C2.13 11.76, 1.84 11.48, 1.59 11.17 C1.34 10.87, 1.11 10.54, 0.91 10.2 C0.71 9.86, 0.54 9.5, 0.41 9.13 C0.28 8.76, 0.17 8.37, 0.1 7.98 C0.03 7.6, 0 7.2, 0 6.8 C0 6.41, 0.03 6.01, 0.1 5.62 C0.17 5.23, 0.28 4.85, 0.41 4.48 C0.54 4.11, 0.71 3.74, 0.91 3.4 C1.11 3.06, 1.34 2.73, 1.59 2.43 C1.84 2.13, 2.13 1.84, 2.43 1.59 C2.73 1.34, 3.06 1.11, 3.4 0.91 C3.74 0.71, 4.11 0.54, 4.48 0.41 C4.85 0.28, 5.23 0.17, 5.62 0.1 C6.01 0.03, 6.41 0, 6.8 0 C7.2 0, 7.6 0.03, 7.98 0.1 C8.37 0.17, 8.76 0.28, 9.13 0.41 C9.5 0.54, 9.86 0.71, 10.2 0.91 C10.54 1.11, 10.87 1.34, 11.17 1.59 C11.48 1.84, 11.76 2.13, 12.01 2.43 C12.27 2.73, 12.5 3.06, 12.69 3.4 C12.89 3.74, 13.06 4.11, 13.19 4.48 C13.33 4.85, 13.43 5.23, 13.5 5.62 C13.57 6.01, 13.59 6.61, 13.6 6.8 C13.62 7, 13.62 6.61, 13.6 6.8" stroke="#4b172d" stroke-width="2" fill="none"></path></g><g stroke-linecap="round" transform="translate(22.473382364414192 27.347353209452194) rotate(0 6.801934902995981 7.085348857287499)"><path d="M13.6 7.09 C13.6 7.5, 13.57 7.91, 13.5 8.32 C13.43 8.72, 13.33 9.12, 13.19 9.51 C13.06 9.89, 12.89 10.27, 12.69 10.63 C12.5 10.98, 12.27 11.33, 12.01 11.64 C11.76 11.95, 11.48 12.25, 11.17 12.51 C10.87 12.78, 10.54 13.02, 10.2 13.22 C9.86 13.43, 9.5 13.6, 9.13 13.74 C8.76 13.88, 8.37 13.99, 7.98 14.06 C7.6 14.13, 7.2 14.17, 6.8 14.17 C6.41 14.17, 6.01 14.13, 5.62 14.06 C5.23 13.99, 4.85 13.88, 4.48 13.74 C4.11 13.6, 3.74 13.43, 3.4 13.22 C3.06 13.02, 2.73 12.78, 2.43 12.51 C2.13 12.25, 1.84 11.95, 1.59 11.64 C1.34 11.33, 1.11 10.98, 0.91 10.63 C0.71 10.27, 0.54 9.89, 0.41 9.51 C0.28 9.12, 0.17 8.72, 0.1 8.32 C0.03 7.91, 0 7.5, 0 7.09 C0 6.68, 0.03 6.26, 0.1 5.85 C0.17 5.45, 0.28 5.05, 0.41 4.66 C0.54 4.28, 0.71 3.9, 0.91 3.54 C1.11 3.19, 1.34 2.85, 1.59 2.53 C1.84 2.22, 2.13 1.92, 2.43 1.66 C2.73 1.39, 3.06 1.15, 3.4 0.95 C3.74 0.74, 4.11 0.57, 4.48 0.43 C4.85 0.29, 5.23 0.18, 5.62 0.11 C6.01 0.04, 6.41 0, 6.8 0 C7.2 0, 7.6 0.04, 7.98 0.11 C8.37 0.18, 8.76 0.29, 9.13 0.43 C9.5 0.57, 9.86 0.74, 10.2 0.95 C10.54 1.15, 10.87 1.39, 11.17 1.66 C11.48 1.92, 11.76 2.22, 12.01 2.53 C12.27 2.85, 12.5 3.19, 12.69 3.54 C12.89 3.9, 13.06 4.28, 13.19 4.66 C13.33 5.05, 13.43 5.45, 13.5 5.85 C13.57 6.26, 13.59 6.88, 13.6 7.09 C13.62 7.29, 13.62 6.88, 13.6 7.09" stroke="none" stroke-width="0" fill="#fa5252"></path><path d="M13.6 7.09 C13.6 7.5, 13.57 7.91, 13.5 8.32 C13.43 8.72, 13.33 9.12, 13.19 9.51 C13.06 9.89, 12.89 10.27, 12.69 10.63 C12.5 10.98, 12.27 11.33, 12.01 11.64 C11.76 11.95, 11.48 12.25, 11.17 12.51 C10.87 12.78, 10.54 13.02, 10.2 13.22 C9.86 13.43, 9.5 13.6, 9.13 13.74 C8.76 13.88, 8.37 13.99, 7.98 14.06 C7.6 14.13, 7.2 14.17, 6.8 14.17 C6.41 14.17, 6.01 14.13, 5.62 14.06 C5.23 13.99, 4.85 13.88, 4.48 13.74 C4.11 13.6, 3.74 13.43, 3.4 13.22 C3.06 13.02, 2.73 12.78, 2.43 12.51 C2.13 12.25, 1.84 11.95, 1.59 11.64 C1.34 11.33, 1.11 10.98, 0.91 10.63 C0.71 10.27, 0.54 9.89, 0.41 9.51 C0.28 9.12, 0.17 8.72, 0.1 8.32 C0.03 7.91, 0 7.5, 0 7.09 C0 6.68, 0.03 6.26, 0.1 5.85 C0.17 5.45, 0.28 5.05, 0.41 4.66 C0.54 4.28, 0.71 3.9, 0.91 3.54 C1.11 3.19, 1.34 2.85, 1.59 2.53 C1.84 2.22, 2.13 1.92, 2.43 1.66 C2.73 1.39, 3.06 1.15, 3.4 0.95 C3.74 0.74, 4.11 0.57, 4.48 0.43 C4.85 0.29, 5.23 0.18, 5.62 0.11 C6.01 0.04, 6.41 0, 6.8 0 C7.2 0, 7.6 0.04, 7.98 0.11 C8.37 0.18, 8.76 0.29, 9.13 0.43 C9.5 0.57, 9.86 0.74, 10.2 0.95 C10.54 1.15, 10.87 1.39, 11.17 1.66 C11.48 1.92, 11.76 2.22, 12.01 2.53 C12.27 2.85, 12.5 3.19, 12.69 3.54 C12.89 3.9, 13.06 4.28, 13.19 4.66 C13.33 5.05, 13.43 5.45, 13.5 5.85 C13.57 6.26, 13.59 6.88, 13.6 7.09 C13.62 7.29, 13.62 6.88, 13.6 7.09" stroke="#4b172d" stroke-width="2" fill="none"></path></g><g stroke-linecap="round"><g transform="translate(36.81517302199563 48.40004554154666) rotate(0 9.391652685589861 -6.180091081598675)" fill-rule="evenodd"><path d="M0 0 L2.35 -8.83 L5.92 -11.44 L9.95 -12.52 L13.27 -11.52 L15.98 -9.05 L17.97 -4.88 L18.78 -1.01 L17.86 0.04 L0 0" stroke="none" stroke-width="0" fill="#4b172d" fill-rule="evenodd"></path><path d="M0 0 C0.39 -1.47, 0.69 -6.74, 2.35 -8.83 C4.01 -10.92, 7.67 -12.48, 9.95 -12.52 C12.22 -12.56, 14.51 -10.97, 15.98 -9.05 C17.45 -7.13, 18.89 -2.53, 18.78 -1.01 C18.67 0.52, 17.58 -0.09, 15.31 0.08 C13.04 0.26, 7.69 0.07, 5.14 0.06 C2.59 0.04, 0.86 0.01, 0 0 M0 0 C0.39 -1.47, 0.69 -6.74, 2.35 -8.83 C4.01 -10.92, 7.67 -12.48, 9.95 -12.52 C12.22 -12.56, 14.51 -10.97, 15.98 -9.05 C17.45 -7.13, 18.89 -2.53, 18.78 -1.01 C18.67 0.52, 17.58 -0.09, 15.31 0.08 C13.04 0.26, 7.69 0.07, 5.14 0.06 C2.59 0.04, 0.86 0.01, 0 0" stroke="#4b172d" stroke-width="1" fill="none"></path></g></g><g stroke-linecap="round" transform="translate(57.12173621300872 26.564971025772138) rotate(0 6.801934902995981 7.085348857287499)"><path d="M13.6 7.09 C13.6 7.5, 13.57 7.91, 13.5 8.32 C13.43 8.72, 13.33 9.12, 13.19 9.51 C13.06 9.89, 12.89 10.27, 12.69 10.63 C12.5 10.98, 12.27 11.33, 12.01 11.64 C11.76 11.95, 11.48 12.25, 11.17 12.51 C10.87 12.78, 10.54 13.02, 10.2 13.22 C9.86 13.43, 9.5 13.6, 9.13 13.74 C8.76 13.88, 8.37 13.99, 7.98 14.06 C7.6 14.13, 7.2 14.17, 6.8 14.17 C6.41 14.17, 6.01 14.13, 5.62 14.06 C5.23 13.99, 4.85 13.88, 4.48 13.74 C4.11 13.6, 3.74 13.43, 3.4 13.22 C3.06 13.02, 2.73 12.78, 2.43 12.51 C2.13 12.25, 1.84 11.95, 1.59 11.64 C1.34 11.33, 1.11 10.98, 0.91 10.63 C0.71 10.27, 0.54 9.89, 0.41 9.51 C0.28 9.12, 0.17 8.72, 0.1 8.32 C0.03 7.91, 0 7.5, 0 7.09 C0 6.68, 0.03 6.26, 0.1 5.85 C0.17 5.45, 0.28 5.05, 0.41 4.66 C0.54 4.28, 0.71 3.9, 0.91 3.54 C1.11 3.19, 1.34 2.85, 1.59 2.53 C1.84 2.22, 2.13 1.92, 2.43 1.66 C2.73 1.39, 3.06 1.15, 3.4 0.95 C3.74 0.74, 4.11 0.57, 4.48 0.43 C4.85 0.29, 5.23 0.18, 5.62 0.11 C6.01 0.04, 6.41 0, 6.8 0 C7.2 0, 7.6 0.04, 7.98 0.11 C8.37 0.18, 8.76 0.29, 9.13 0.43 C9.5 0.57, 9.86 0.74, 10.2 0.95 C10.54 1.15, 10.87 1.39, 11.17 1.66 C11.48 1.92, 11.76 2.22, 12.01 2.53 C12.27 2.85, 12.5 3.19, 12.69 3.54 C12.89 3.9, 13.06 4.28, 13.19 4.66 C13.33 5.05, 13.43 5.45, 13.5 5.85 C13.57 6.26, 13.59 6.88, 13.6 7.09 C13.62 7.29, 13.62 6.88, 13.6 7.09" stroke="none" stroke-width="0" fill="#fa5252"></path><path d="M13.6 7.09 C13.6 7.5, 13.57 7.91, 13.5 8.32 C13.43 8.72, 13.33 9.12, 13.19 9.51 C13.06 9.89, 12.89 10.27, 12.69 10.63 C12.5 10.98, 12.27 11.33, 12.01 11.64 C11.76 11.95, 11.48 12.25, 11.17 12.51 C10.87 12.78, 10.54 13.02, 10.2 13.22 C9.86 13.43, 9.5 13.6, 9.13 13.74 C8.76 13.88, 8.37 13.99, 7.98 14.06 C7.6 14.13, 7.2 14.17, 6.8 14.17 C6.41 14.17, 6.01 14.13, 5.62 14.06 C5.23 13.99, 4.85 13.88, 4.48 13.74 C4.11 13.6, 3.74 13.43, 3.4 13.22 C3.06 13.02, 2.73 12.78, 2.43 12.51 C2.13 12.25, 1.84 11.95, 1.59 11.64 C1.34 11.33, 1.11 10.98, 0.91 10.63 C0.71 10.27, 0.54 9.89, 0.41 9.51 C0.28 9.12, 0.17 8.72, 0.1 8.32 C0.03 7.91, 0 7.5, 0 7.09 C0 6.68, 0.03 6.26, 0.1 5.85 C0.17 5.45, 0.28 5.05, 0.41 4.66 C0.54 4.28, 0.71 3.9, 0.91 3.54 C1.11 3.19, 1.34 2.85, 1.59 2.53 C1.84 2.22, 2.13 1.92, 2.43 1.66 C2.73 1.39, 3.06 1.15, 3.4 0.95 C3.74 0.74, 4.11 0.57, 4.48 0.43 C4.85 0.29, 5.23 0.18, 5.62 0.11 C6.01 0.04, 6.41 0, 6.8 0 C7.2 0, 7.6 0.04, 7.98 0.11 C8.37 0.18, 8.76 0.29, 9.13 0.43 C9.5 0.57, 9.86 0.74, 10.2 0.95 C10.54 1.15, 10.87 1.39, 11.17 1.66 C11.48 1.92, 11.76 2.22, 12.01 2.53 C12.27 2.85, 12.5 3.19, 12.69 3.54 C12.89 3.9, 13.06 4.28, 13.19 4.66 C13.33 5.05, 13.43 5.45, 13.5 5.85 C13.57 6.26, 13.59 6.88, 13.6 7.09 C13.62 7.29, 13.62 6.88, 13.6 7.09" stroke="#4b172d" stroke-width="2" fill="none"></path></g><g stroke-linecap="round" transform="translate(16.111322032189946 10.4925291423001) rotate(0 31.624273733026712 31.624273733026712)"><path d="M36.14 0.82 C42.75 1.53, 51 6.39, 55.38 11.26 C59.76 16.13, 62.26 23.34, 62.42 30.03 C62.59 36.72, 60.41 46.1, 56.37 51.41 C52.33 56.71, 44.95 60.52, 38.18 61.86 C31.41 63.2, 21.85 62.38, 15.74 59.43 C9.63 56.49, 3.74 50.35, 1.51 44.18 C-0.72 38, 0.27 28.92, 2.36 22.38 C4.44 15.84, 7.03 8.32, 14.02 4.94 C21.01 1.56, 37.85 1.49, 44.3 2.11 C50.75 2.73, 52.94 8.07, 52.73 8.64 M42.08 2.44 C48.62 3.69, 56.46 8.2, 59.85 13.71 C63.24 19.22, 63.51 28.69, 62.43 35.49 C61.35 42.3, 58.55 50.12, 53.36 54.53 C48.16 58.94, 38.24 61.82, 31.28 61.96 C24.32 62.09, 16.92 59.53, 11.59 55.34 C6.27 51.14, 0.83 43.45, -0.68 36.78 C-2.18 30.12, -0.77 21.09, 2.57 15.34 C5.9 9.6, 12.9 4.63, 19.33 2.32 C25.76 0.02, 37.56 1.64, 41.14 1.52 C44.73 1.39, 40.96 1.22, 40.86 1.54" stroke="#4b172d" stroke-width="2" fill="none"></path></g><g stroke-linecap="round"><g transform="translate(37.30274424168101 47.25222825161018) rotate(0 8.847510514177202 -0.8695428028763672)" fill-rule="evenodd"><path d="M0 0 L0.97 -2.08 L16.62 -1.97 L17.7 0.34 L0.12 0" stroke="none" stroke-width="0" fill="#fff" fill-rule="evenodd"></path><path d="M0 0 C0.19 -0.42, 0.39 -0.84, 0.97 -2.08 M0 0 C0.24 -0.51, 0.47 -1.02, 0.97 -2.08 M0.97 -2.08 C4.25 -2.06, 7.53 -2.04, 16.62 -1.97 M0.97 -2.08 C6.01 -2.05, 11.05 -2.01, 16.62 -1.97 M16.62 -1.97 C16.87 -1.43, 17.12 -0.88, 17.7 0.34 M16.62 -1.97 C16.93 -1.3, 17.24 -0.63, 17.7 0.34 M17.7 0.34 C13.25 0.26, 8.81 0.17, 0.12 0 M17.7 0.34 C11.69 0.23, 5.69 0.11, 0.12 0 M0.12 0 C0.08 0, 0.04 0, 0 0 M0.12 0 C0.08 0, 0.04 0, 0 0" stroke="#fff" stroke-width="1" fill="none"></path></g></g><g stroke-linecap="round" transform="translate(25.3355719036922 29.92071251725565) rotate(0 4.129562892350577 4.25470116181566)"><path d="M8.26 4.25 C8.26 4.5, 8.24 4.75, 8.2 4.99 C8.15 5.24, 8.09 5.48, 8.01 5.71 C7.93 5.94, 7.83 6.17, 7.71 6.38 C7.59 6.6, 7.45 6.8, 7.29 6.99 C7.14 7.18, 6.97 7.36, 6.78 7.51 C6.6 7.67, 6.4 7.82, 6.19 7.94 C5.99 8.06, 5.77 8.17, 5.54 8.25 C5.32 8.34, 5.08 8.4, 4.85 8.44 C4.61 8.49, 4.37 8.51, 4.13 8.51 C3.89 8.51, 3.65 8.49, 3.41 8.44 C3.18 8.4, 2.94 8.34, 2.72 8.25 C2.49 8.17, 2.27 8.06, 2.06 7.94 C1.86 7.82, 1.66 7.67, 1.48 7.51 C1.29 7.36, 1.12 7.18, 0.97 6.99 C0.81 6.8, 0.67 6.6, 0.55 6.38 C0.43 6.17, 0.33 5.94, 0.25 5.71 C0.17 5.48, 0.1 5.24, 0.06 4.99 C0.02 4.75, 0 4.5, 0 4.25 C0 4.01, 0.02 3.76, 0.06 3.52 C0.1 3.27, 0.17 3.03, 0.25 2.8 C0.33 2.57, 0.43 2.34, 0.55 2.13 C0.67 1.91, 0.81 1.71, 0.97 1.52 C1.12 1.33, 1.29 1.15, 1.48 1 C1.66 0.84, 1.86 0.69, 2.06 0.57 C2.27 0.45, 2.49 0.34, 2.72 0.26 C2.94 0.17, 3.18 0.11, 3.41 0.06 C3.65 0.02, 3.89 0, 4.13 0 C4.37 0, 4.61 0.02, 4.85 0.06 C5.08 0.11, 5.32 0.17, 5.54 0.26 C5.77 0.34, 5.99 0.45, 6.19 0.57 C6.4 0.69, 6.6 0.84, 6.78 1 C6.97 1.15, 7.14 1.33, 7.29 1.52 C7.45 1.71, 7.59 1.91, 7.71 2.13 C7.83 2.34, 7.93 2.57, 8.01 2.8 C8.09 3.03, 8.15 3.27, 8.2 3.52 C8.24 3.76, 8.25 4.13, 8.26 4.25 C8.27 4.38, 8.27 4.13, 8.26 4.25" stroke="none" stroke-width="0" fill="#ffc2c2"></path><path d="M8.26 4.25 C8.26 4.5, 8.24 4.75, 8.2 4.99 C8.15 5.24, 8.09 5.48, 8.01 5.71 C7.93 5.94, 7.83 6.17, 7.71 6.38 C7.59 6.6, 7.45 6.8, 7.29 6.99 C7.14 7.18, 6.97 7.36, 6.78 7.51 C6.6 7.67, 6.4 7.82, 6.19 7.94 C5.99 8.06, 5.77 8.17, 5.54 8.25 C5.32 8.34, 5.08 8.4, 4.85 8.44 C4.61 8.49, 4.37 8.51, 4.13 8.51 C3.89 8.51, 3.65 8.49, 3.41 8.44 C3.18 8.4, 2.94 8.34, 2.72 8.25 C2.49 8.17, 2.27 8.06, 2.06 7.94 C1.86 7.82, 1.66 7.67, 1.48 7.51 C1.29 7.36, 1.12 7.18, 0.97 6.99 C0.81 6.8, 0.67 6.6, 0.55 6.38 C0.43 6.17, 0.33 5.94, 0.25 5.71 C0.17 5.48, 0.1 5.24, 0.06 4.99 C0.02 4.75, 0 4.5, 0 4.25 C0 4.01, 0.02 3.76, 0.06 3.52 C0.1 3.27, 0.17 3.03, 0.25 2.8 C0.33 2.57, 0.43 2.34, 0.55 2.13 C0.67 1.91, 0.81 1.71, 0.97 1.52 C1.12 1.33, 1.29 1.15, 1.48 1 C1.66 0.84, 1.86 0.69, 2.06 0.57 C2.27 0.45, 2.49 0.34, 2.72 0.26 C2.94 0.17, 3.18 0.11, 3.41 0.06 C3.65 0.02, 3.89 0, 4.13 0 C4.37 0, 4.61 0.02, 4.85 0.06 C5.08 0.11, 5.32 0.17, 5.54 0.26 C5.77 0.34, 5.99 0.45, 6.19 0.57 C6.4 0.69, 6.6 0.84, 6.78 1 C6.97 1.15, 7.14 1.33, 7.29 1.52 C7.45 1.71, 7.59 1.91, 7.71 2.13 C7.83 2.34, 7.93 2.57, 8.01 2.8 C8.09 3.03, 8.15 3.27, 8.2 3.52 C8.24 3.76, 8.25 4.13, 8.26 4.25 C8.27 4.38, 8.27 4.13, 8.26 4.25" stroke="#ffc2c2" stroke-width="1" fill="none"></path></g><g stroke-linecap="round" transform="translate(59.89090787207215 29.50569275441012) rotate(0 4.129562892350577 4.25470116181566)"><path d="M8.26 4.25 C8.26 4.5, 8.24 4.75, 8.2 4.99 C8.15 5.24, 8.09 5.48, 8.01 5.71 C7.93 5.94, 7.83 6.17, 7.71 6.38 C7.59 6.6, 7.45 6.8, 7.29 6.99 C7.14 7.18, 6.97 7.36, 6.78 7.51 C6.6 7.67, 6.4 7.82, 6.19 7.94 C5.99 8.06, 5.77 8.17, 5.54 8.25 C5.32 8.34, 5.08 8.4, 4.85 8.44 C4.61 8.49, 4.37 8.51, 4.13 8.51 C3.89 8.51, 3.65 8.49, 3.41 8.44 C3.18 8.4, 2.94 8.34, 2.72 8.25 C2.49 8.17, 2.27 8.06, 2.06 7.94 C1.86 7.82, 1.66 7.67, 1.48 7.51 C1.29 7.36, 1.12 7.18, 0.97 6.99 C0.81 6.8, 0.67 6.6, 0.55 6.38 C0.43 6.17, 0.33 5.94, 0.25 5.71 C0.17 5.48, 0.1 5.24, 0.06 4.99 C0.02 4.75, 0 4.5, 0 4.25 C0 4.01, 0.02 3.76, 0.06 3.52 C0.1 3.27, 0.17 3.03, 0.25 2.8 C0.33 2.57, 0.43 2.34, 0.55 2.13 C0.67 1.91, 0.81 1.71, 0.97 1.52 C1.12 1.33, 1.29 1.15, 1.48 1 C1.66 0.84, 1.86 0.69, 2.06 0.57 C2.27 0.45, 2.49 0.34, 2.72 0.26 C2.94 0.17, 3.18 0.11, 3.41 0.06 C3.65 0.02, 3.89 0, 4.13 0 C4.37 0, 4.61 0.02, 4.85 0.06 C5.08 0.11, 5.32 0.17, 5.54 0.26 C5.77 0.34, 5.99 0.45, 6.19 0.57 C6.4 0.69, 6.6 0.84, 6.78 1 C6.97 1.15, 7.14 1.33, 7.29 1.52 C7.45 1.71, 7.59 1.91, 7.71 2.13 C7.83 2.34, 7.93 2.57, 8.01 2.8 C8.09 3.03, 8.15 3.27, 8.2 3.52 C8.24 3.76, 8.25 4.13, 8.26 4.25 C8.27 4.38, 8.27 4.13, 8.26 4.25" stroke="none" stroke-width="0" fill="#ffc2c2"></path><path d="M8.26 4.25 C8.26 4.5, 8.24 4.75, 8.2 4.99 C8.15 5.24, 8.09 5.48, 8.01 5.71 C7.93 5.94, 7.83 6.17, 7.71 6.38 C7.59 6.6, 7.45 6.8, 7.29 6.99 C7.14 7.18, 6.97 7.36, 6.78 7.51 C6.6 7.67, 6.4 7.82, 6.19 7.94 C5.99 8.06, 5.77 8.17, 5.54 8.25 C5.32 8.34, 5.08 8.4, 4.85 8.44 C4.61 8.49, 4.37 8.51, 4.13 8.51 C3.89 8.51, 3.65 8.49, 3.41 8.44 C3.18 8.4, 2.94 8.34, 2.72 8.25 C2.49 8.17, 2.27 8.06, 2.06 7.94 C1.86 7.82, 1.66 7.67, 1.48 7.51 C1.29 7.36, 1.12 7.18, 0.97 6.99 C0.81 6.8, 0.67 6.6, 0.55 6.38 C0.43 6.17, 0.33 5.94, 0.25 5.71 C0.17 5.48, 0.1 5.24, 0.06 4.99 C0.02 4.75, 0 4.5, 0 4.25 C0 4.01, 0.02 3.76, 0.06 3.52 C0.1 3.27, 0.17 3.03, 0.25 2.8 C0.33 2.57, 0.43 2.34, 0.55 2.13 C0.67 1.91, 0.81 1.71, 0.97 1.52 C1.12 1.33, 1.29 1.15, 1.48 1 C1.66 0.84, 1.86 0.69, 2.06 0.57 C2.27 0.45, 2.49 0.34, 2.72 0.26 C2.94 0.17, 3.18 0.11, 3.41 0.06 C3.65 0.02, 3.89 0, 4.13 0 C4.37 0, 4.61 0.02, 4.85 0.06 C5.08 0.11, 5.32 0.17, 5.54 0.26 C5.77 0.34, 5.99 0.45, 6.19 0.57 C6.4 0.69, 6.6 0.84, 6.78 1 C6.97 1.15, 7.14 1.33, 7.29 1.52 C7.45 1.71, 7.59 1.91, 7.71 2.13 C7.83 2.34, 7.93 2.57, 8.01 2.8 C8.09 3.03, 8.15 3.27, 8.2 3.52 C8.24 3.76, 8.25 4.13, 8.26 4.25 C8.27 4.38, 8.27 4.13, 8.26 4.25" stroke="#ffc2c2" stroke-width="1" fill="none"></path></g><g transform="translate(84.60274981334851 114) rotate(0 95.5 18)"><text x="0" y="25" font-family="Virgil, Segoe UI Emoji" font-size="28px" fill="#000000" text-anchor="start" style="white-space: pre;" direction="ltr">MONEY BACK!</text></g></svg>