<svg version="1.1" xmlns="http://www.w3.org/2000/svg" viewBox="0 0 872.3980682633817 712.612244897959" width="2617.194204790145" height="2137.836734693877">
  <!-- svg-source:excalidraw -->
  
  <defs>
    <style>
      @font-face {
        font-family: "Virgil";
        src: url("https://excalidraw.com/Virgil.woff2");
      }
      @font-face {
        font-family: "Cascadia";
        src: url("https://excalidraw.com/Cascadia.woff2");
      }
    </style>
  </defs>
  <g stroke-linecap="round" transform="translate(290.39493136191754 42.612244897959044) rotate(0 110 60)"><path d="M0 0 C0 0, 0 0, 0 0 M0 0 C0 0, 0 0, 0 0 M0.12 6.49 C0.74 5.22, 2.98 2.92, 4.6 -0.06 M-0.52 6.7 C1.11 4.38, 3.08 2.87, 5.13 0.42 M-1.24 12.91 C1.33 10.35, 4.16 7, 10.74 -1.16 M0.16 11.97 C3.26 8.22, 7.56 2.98, 10.87 -0.19 M-0.21 19.53 C4.56 11.38, 10.12 8.22, 15.31 0.26 M-0.35 18.43 C4.51 13.84, 8.87 6.62, 15.19 -0.24 M-1.38 23.89 C6.7 16.89, 12.55 11.66, 19.99 -0.95 M1.2 23.83 C5 18.93, 9.62 11.56, 20.29 0.91 M-0.75 31.45 C8.24 20.94, 14.58 12.19, 28.1 1.32 M-0.62 30.4 C7.49 20.34, 14.88 12.5, 26.57 -0.1 M-1.91 35.46 C13.04 22.84, 23.93 5.97, 32.1 -0.76 M0.35 36.65 C8.93 27.33, 18.16 17.02, 30.9 -0.88 M0.61 43.46 C8.33 33.1, 17.02 26.38, 37.33 -1.12 M0.86 43.01 C14.04 27.38, 27.99 9.69, 37.43 1.11 M0.25 49.62 C12.01 35.23, 23.13 21.9, 42.12 -1.78 M0.35 48.62 C11.6 36.14, 22 24.26, 41.85 0.07 M2.01 53.53 C17.04 33.95, 31.51 17.86, 45.57 -0.75 M0.58 55.48 C10.17 42.89, 20.97 31.15, 48.21 0.32 M-1.89 60.3 C14.46 44.44, 30.27 22.61, 51.65 -1.99 M0.4 61 C18.91 40.48, 38.06 18.18, 53.17 -0.26 M-0.48 67.31 C20.6 43.11, 40.23 20.5, 56.96 0.65 M-0.63 68.13 C12.23 53.28, 25.45 37.41, 58.8 0.28 M-1.05 72.59 C15.53 57.91, 27.51 38.66, 62.88 1.52 M-0.17 72.12 C25.96 43.89, 50.3 14.37, 62.84 -0.6 M-0.22 81.09 C12.39 63.72, 29.97 44.99, 67.26 -0.79 M-0.05 80.27 C15.33 60.56, 33.37 40.29, 69.52 0.55 M1.64 85.49 C28.19 53.45, 52.15 24.81, 72.62 -1.41 M0.4 85.07 C31.12 51.12, 60.09 16.44, 73.79 0.62 M-1.95 92.31 C29.62 58.85, 60.65 23.21, 77.81 -1.06 M0.05 91.78 C19.63 68.21, 41.34 42.95, 80.16 0.45 M-2.01 98.66 C25.55 67.18, 52.41 38.37, 86.24 -0.07 M0.68 97.52 C22.34 70.02, 46.8 44.08, 84.92 0.26 M-1.16 102.59 C23.58 74.58, 47.1 48.67, 89.53 1.78 M-0.01 103.09 C25.66 75.94, 49.26 47.61, 90.96 0.14 M1.37 111.39 C22.67 81.6, 47 56.41, 95.73 -0.8 M-0.33 109.65 C28.51 77.44, 57.69 44.29, 96.05 -0.51 M1.26 116.43 C29.23 84.17, 56.28 49.6, 100.96 1.57 M1.05 114.93 C23.41 90.69, 43.06 66.13, 101.62 -0.46 M1.44 120.41 C35.96 83.84, 67.07 45.95, 105.66 -1.07 M0.5 120.97 C27.79 90.72, 53.95 60.34, 107 -1.24 M6.91 120.46 C32.06 93.58, 55.17 61.86, 110.21 -1.93 M6.37 120.53 C30.47 92.96, 57.04 64.03, 112.28 -0.61 M12.61 121.77 C50.04 73.59, 93.21 24.83, 114.53 1.33 M11.93 121.2 C35.46 92.58, 61.15 62.84, 115.86 -0.41 M16.76 120.52 C55.68 79.36, 90.7 35.27, 121 -1.09 M16.81 121.72 C43.34 88.6, 71.44 58.82, 122.55 0.21 M23.9 121.31 C49.74 90.45, 76.82 57.22, 127.44 -0.76 M21.16 121.76 C56.4 83.4, 88.15 45.26, 126.63 0.52 M29.12 119.12 C46.72 96.27, 70.38 70.46, 132.64 1.67 M27.94 121.38 C66.07 75.05, 105.42 28.6, 132.47 -0.66 M33.74 119.47 C67.24 81.5, 100.99 41.47, 138.07 -1.32 M31.68 121.53 C59.55 90.09, 84.75 60.71, 138.31 0.64 M37.47 120.39 C59.3 91.18, 85.68 66.58, 142.03 -0.19 M38.83 121.44 C66.08 89.18, 94.71 57.32, 143.55 -0.11 M42.14 120.59 C71.17 89.53, 96.55 59.47, 149.37 1.82 M42.44 121.19 C79.48 78.21, 114.42 37.31, 148.51 -0.39 M47.87 121.39 C84.81 79.04, 122.57 32.76, 153.66 0.69 M48.53 121.1 C88.71 74.64, 129.51 28.03, 153.75 -0.21 M52.74 122.92 C86.13 82.51, 121.71 41.45, 158.88 1.73 M52.83 120.24 C79.59 91.41, 105.82 62.68, 157.8 -0.62 M60.99 122.06 C82.47 93.11, 106.65 62.29, 165.62 -0.4 M59.05 119.87 C96.73 77.2, 135.64 33.46, 164.49 0.75 M62.74 120.6 C97.18 84.17, 131.24 45.3, 168.75 0.4 M63.7 121.95 C95.63 83.97, 128.84 47.53, 168.69 1.17 M70.1 119.25 C110.98 71.99, 155.2 26.62, 175.6 1.72 M70.34 120.55 C94.09 93.87, 118.65 66.25, 175.62 -0.72 M76.95 121.71 C114.7 77.72, 155.67 31.67, 179.69 -1.29 M74.36 120.39 C99.48 94.49, 121.86 66.26, 180.64 0.54 M79.06 120.73 C109.63 87.28, 133.9 56.66, 186.88 0.13 M81.29 120.24 C118.45 78.81, 155.95 36.81, 186.47 -0.3 M85.78 122.2 C127.28 75.66, 164.81 26.31, 189.05 -1.55 M85.55 121.44 C108.36 96.28, 130.46 68.56, 191.07 0.3 M92.3 119.17 C128.6 77.47, 164.55 34.89, 198.32 -2.15 M90.76 121.34 C127.94 77.9, 164.04 34.86, 196.82 -0.89 M95.23 119.95 C118.17 96.55, 139.56 72.56, 200.72 0.33 M96.5 121.77 C123.59 90.43, 150.71 61, 200.36 -0.4 M100.87 122.14 C132.5 86.1, 164.14 51.14, 206.39 -2.24 M102.58 120.53 C136.98 80.61, 172.83 40.18, 207.87 0.41 M108.87 120.73 C145.72 77.43, 186 31.3, 211.23 1.95 M107.86 119.85 C149.04 73.33, 189.06 26.35, 212.83 0.85 M111.76 122.88 C155.19 72.16, 198.44 23.39, 219.14 0.69 M111.84 120.57 C140.97 87.96, 170.99 53.01, 217.32 -0.69 M117.9 120.23 C142.22 92.52, 166.31 65.44, 222.36 1.34 M116.74 120.93 C145.73 89.73, 172.18 57.38, 220.46 2.3 M124.5 119.26 C147.77 90.57, 173.62 62.62, 219.67 6.88 M122.57 120.24 C149.29 89.11, 175.92 57.25, 221.73 6.86 M127.09 122.04 C150.62 94.49, 175.59 65.03, 221.95 12.96 M127.73 120.08 C148.4 98.11, 166.29 78.12, 220.6 13.02 M133.26 120.33 C150.03 98.39, 172.07 78.07, 219.86 19.95 M132.79 121.86 C152.18 98.52, 173.41 74.75, 221.31 18.32 M140.81 119.65 C160.83 97.12, 181.86 72.21, 221.47 26.58 M139.83 121.16 C163.72 93.65, 186.93 65.34, 220.62 24.76 M143.46 121.3 C160.88 101.76, 176.56 80.8, 221.8 30.65 M144.13 121.32 C173.95 84.57, 204.98 51.3, 220.38 32.02 M149.03 122.47 C175.59 88.65, 203.62 58.16, 219.8 39.42 M149.52 119.82 C171.43 95.94, 193.4 70.06, 222.66 37.15 M153.12 122.27 C167.16 105.76, 183.04 88.06, 221.27 45.9 M154.15 121.8 C171.35 100.52, 187.38 82.26, 221.74 43.33 M161.3 121.8 C183.54 94.92, 203.74 73.84, 222.43 51.63 M159.73 120.51 C174.05 106.15, 185.77 89.87, 221.81 50.08 M166.82 122.25 C184.7 99.11, 202.3 76.36, 221.61 54.8 M165.38 120.77 C177.13 107.59, 188.77 92.41, 221.68 55.7 M168.78 120.87 C191.89 98.36, 209.05 75.86, 222.77 61.01 M170.85 121.47 C182.28 106.77, 193.81 93.71, 220.46 61.52 M173.79 121.15 C191.17 102.5, 204.34 85.04, 222.46 67.59 M176.32 121.01 C190.25 105.49, 205.02 88.64, 221.6 68.6 M182.21 120.79 C193.95 104.19, 208.43 91.55, 222.81 73.98 M181.7 119.76 C197.16 103.24, 212.62 83.3, 221.93 75.48 M185.8 121.81 C197.82 108.93, 209.67 96.55, 221.03 78.43 M186.39 121.58 C196.47 107.94, 207.1 95.2, 222.34 79.32 M193.93 118.59 C198.76 109.52, 207.06 101.09, 223.14 88.17 M192.58 120.22 C202.39 106.87, 215 94.76, 221.5 87.5 M195.24 119.96 C200.67 114.81, 207.56 106.71, 221.47 92.14 M196.99 120.84 C201.52 115.83, 206.83 108.39, 220.55 92.69 M203.87 121.21 C209.54 114.18, 216.63 103.85, 223.63 99.34 M202.22 120.47 C207.55 115.03, 213.3 107.53, 222.09 98.69 M209.1 122.23 C214.71 115.7, 218.17 108.98, 219.49 103.15 M208.46 121.47 C212.61 114.63, 216.19 109.57, 222.3 105.07 M213.46 119.83 C215.65 118.15, 219.92 114.75, 221.1 111.63 M212.98 120.15 C215.87 118.55, 217.06 115.97, 222.29 111.17 M218.43 120.67 C219.63 119.76, 219.77 118.28, 221.27 117.32 M218.47 120.98 C219.34 119.76, 220.22 119.04, 221.7 117.27" stroke="#4c6ef5" stroke-width="0.5" fill="none"></path><path d="M0.59 -0.76 C58.6 0.62, 114.66 0.42, 220.44 1.46 M-0.28 -0.59 C55.7 -0.44, 112.73 -1.26, 220.18 -0.56 M220.9 -0.24 C218.76 31.13, 219.39 60.46, 220.26 121.2 M219.58 -0.93 C219.91 39.63, 220.3 79.52, 220.81 119.67 M219.61 120.23 C167.31 122.17, 114.98 120.46, 0.48 118.88 M219.29 119.93 C164.29 119.5, 110.08 120.6, -0.79 119.5 M-0.6 120.21 C0 76.42, 0.85 34.36, -1.52 1.57 M0.51 120.56 C0.83 93.08, 1.49 66.29, 0.12 -0.58" stroke="#000000" stroke-width="1" fill="none"></path></g><g stroke-linecap="round" transform="translate(290 402.61224489795904) rotate(0 110 60)"><path d="M0 0 C0 0, 0 0, 0 0 M0 0 C0 0, 0 0, 0 0 M-0.17 5.9 C2.32 4.28, 3.78 1.41, 4.57 0.48 M0.04 6.11 C1.2 4.66, 3.17 2.96, 5.05 0.15 M1.01 10.59 C4.1 7.85, 6.41 6.11, 9.51 0.92 M0.06 11.38 C3.67 8.44, 5.78 5.36, 10.47 0.16 M0.97 18 C3.33 13.15, 10.67 7.5, 15.56 0.32 M-0.14 18.44 C6.04 11.95, 9.6 5.73, 15.05 -0.08 M0.07 25.22 C6.85 17.15, 15.39 5.69, 20.38 -1.29 M0.01 23.71 C6.46 16.7, 10.45 10.08, 22.24 -0.32 M0.98 31.59 C7.26 21.02, 15.31 12.84, 27.28 0.33 M-0.07 30.09 C7.25 20.17, 16.83 11.87, 25.86 1.17 M-1.67 37.47 C7.55 27.48, 12.56 20, 31.23 -0.51 M-0.49 37.05 C10 26.23, 19.48 13.96, 31.11 -0.98 M1.08 43.09 C12.23 29.47, 27.03 14.02, 35.5 1.82 M0.62 42.76 C13.98 27.62, 25.25 12.93, 37.73 -0.13 M0.58 49.7 C9.88 37.04, 20.28 23.31, 40.88 -0.86 M-0.43 49.43 C13.16 33.34, 27.3 17.98, 42.73 0.37 M-0.76 55.28 C17.34 31.33, 38.94 9.32, 46.54 -1.53 M1.19 54.01 C10.7 42.53, 21.03 30.9, 47.6 0.25 M-0.65 59.48 C19.25 39.86, 33.18 20.25, 51.33 0.9 M0.05 61.28 C19.02 40.96, 36.14 19.82, 53.06 0.31 M-0.3 67.29 C11.31 52.33, 24.54 37.6, 58.6 -1.42 M0.52 66.62 C14.48 51.07, 27.39 35.93, 58.23 -0.5 M-0.27 74.23 C25.7 44.66, 47.04 17.98, 65.51 1.62 M-0.74 73.24 C12.66 57.83, 24.86 42.17, 63.39 -1.12 M1.57 77.57 C21.79 56.52, 40.72 29.34, 67.82 -0.96 M0.75 78.54 C25.75 50.55, 50.19 21.79, 69.16 0.75 M0.73 85.97 C18.51 60.6, 39.81 38.37, 73.24 1.72 M0.31 85.86 C18.05 64.75, 35.12 43.41, 75.27 0.57 M0.89 90.44 C23.2 67.95, 43.28 42.53, 78.21 -0.67 M0.35 90.48 C25.3 62.99, 48.6 35.19, 79.73 0.1 M0.58 98.04 C22.22 72.83, 46.47 44.92, 85.25 -0.76 M-0.56 97.44 C29.2 62.73, 60.63 27.23, 85.58 -0.68 M-0.75 103.05 C20.79 77.7, 44.44 51.41, 91.72 -0.48 M-0.24 103.8 C20.91 79.87, 40.88 58.05, 90.08 -0.41 M1.4 108.15 C23.42 80.08, 49.9 53.79, 95.18 -0.2 M-0.34 109.95 C36.05 70.03, 71.37 30.35, 95.47 -0.46 M1.19 116.14 C34.15 77, 64.73 41.11, 102.18 -1.73 M-0.3 116.34 C20.28 90.44, 40.6 68.58, 100.15 0.22 M-0.08 122.08 C25.76 91.8, 50.29 65.09, 105.58 -1.4 M0.48 121.82 C29.04 88.9, 57.53 55.77, 105.41 -0.94 M6.01 121.25 C39.53 82.74, 68.2 47.24, 109.34 -1.14 M6.08 120.6 C49.09 74.29, 90.61 26.94, 110.66 0.94 M11.94 119.66 C51.44 74.47, 90.48 25.82, 117.23 -0.78 M11.38 120.89 C52.6 73.92, 92.59 26.9, 115.49 0.95 M16.73 121.84 C49.42 84.19, 79.12 49.45, 120.85 -0.87 M17.93 119.82 C45.04 87.44, 75.55 54.36, 122.15 -0.34 M22.15 121.17 C59.02 78.49, 93.46 39.46, 125.8 0.54 M22.6 121.8 C42.68 97.57, 63.05 73.16, 127.08 -0.55 M26 118.72 C69.45 72.54, 109.88 26.3, 134.27 1.54 M28.26 120.48 C69.05 72.01, 109.82 25.03, 131.94 0.24 M30.97 120.21 C55.84 92.22, 78.66 67.81, 135.91 -0.68 M33.03 121.86 C64.52 84.07, 98.09 47.58, 137.87 -0.46 M37.94 118.99 C72.68 79.59, 112.18 34.4, 143.07 -0.88 M38.98 120.24 C61.25 94.34, 83.91 67.29, 143.16 -0.52 M42.76 120.93 C64.49 94.99, 87.1 72.92, 149.71 1.15 M43.36 121.31 C73.97 83.97, 106.72 48.17, 147.51 0.86 M49.6 119.38 C86.04 79.32, 118.44 39.65, 154.62 1.51 M49.31 120.18 C78.27 87.55, 107.03 53.53, 153.72 0.15 M55.75 120.1 C96.12 74.37, 135.89 26.52, 160.29 -0.8 M53.08 120.37 C82.64 88.98, 112.21 55.79, 157.94 -0.46 M60.93 120.2 C97.69 75.64, 132.72 33.4, 164.19 0.95 M58.74 119.86 C84.13 92.84, 108.56 62.93, 165.34 -0.04 M64.1 121.07 C98.03 85.73, 129.48 46.04, 169.62 0.25 M65.45 120.17 C93.55 88.34, 123.26 52.86, 170.4 1.14 M68.79 119.34 C93.93 93.54, 121.05 63.74, 176.98 -1.75 M70.09 120.29 C93.21 94.73, 115.5 67.71, 174.54 0.59 M75.88 119.8 C100.4 93.92, 122.79 67.28, 178.6 -1.32 M74.56 121.83 C109.32 82.96, 141.66 45.65, 180.42 -0.31 M80.93 122.31 C103.72 91.15, 129.49 62.92, 186.06 0.83 M80.44 120.93 C110.8 87.37, 140.49 53.85, 185.62 0.66 M87.03 122.81 C129.36 71.38, 168.77 23.03, 189 -1.55 M86.27 121.41 C123.59 79.28, 158.22 38, 190.85 0.66 M90.04 120.19 C117.87 87.61, 144.85 59.96, 194.44 0.71 M92.2 120.69 C123.95 82.62, 156.21 45.19, 195.69 -1.25 M95.44 121.25 C125.19 89.05, 154.23 54.69, 201.55 -0.88 M97.27 120.92 C120.76 93.44, 146.05 63.6, 200.81 -0.02 M103.67 119.66 C124.73 96.07, 146.8 69.31, 205.02 0.49 M102.07 120.93 C144.09 73.54, 185.49 26.73, 207.66 0.38 M106.89 120.86 C138.66 86.4, 167.48 48.82, 213.84 1.84 M106.01 121.33 C131.44 90.78, 156.47 63.13, 212.73 1.03 M113.66 121.76 C136.15 94.45, 160.57 65.27, 218.61 -0.64 M111.36 121.23 C154.76 73.73, 195.75 25.9, 217.23 -0.96 M117.05 119.94 C141.01 92.26, 165.71 67.66, 221.06 0.86 M117.75 121.56 C151.64 83.08, 184.25 44.43, 222.02 1.15 M120.71 120.85 C155.11 81.52, 190.26 41.53, 221.36 6.68 M121.69 121.35 C157.87 79.28, 193.4 38.23, 221.33 6.71 M129.52 119.43 C155.94 90.53, 180.39 60.16, 220.78 11.59 M127.57 121.48 C148.38 96.63, 171.22 71.29, 220.84 12.69 M132.45 119.14 C158.18 92.43, 185.49 59.11, 222.52 17.8 M133.97 120.77 C168.86 81.99, 203.28 40.73, 220.89 18.76 M137.8 120.83 C156.89 100.01, 173.55 79.78, 222.49 25.38 M139.31 120.93 C156.66 99.44, 173.21 78.78, 220.67 24.83 M144.08 121.7 C173.25 87.03, 201 54.9, 219.9 33.93 M144.1 120.67 C166.72 93.03, 192.87 64.29, 221.27 32.77 M151.28 120.24 C174.6 91.39, 201.31 58.94, 223.42 37.76 M148.63 120.67 C172.4 94.92, 194.18 70.29, 221.15 36.75 M155.71 119.18 C170.16 104.47, 183.36 87.16, 223.24 43.14 M155.24 121.68 C180.04 90.36, 207.91 60.41, 220.67 44.5 M161.28 122.37 C173.44 104.2, 191.36 87.35, 223.73 47.87 M159.99 121.45 C176.36 102.12, 190.88 83.99, 222.17 50.1 M166.35 121.82 C185.37 96.55, 204.87 74.11, 220.23 54.34 M164.88 120.88 C180.72 102.82, 194.58 85.84, 221.13 56.98 M171.02 122.51 C189.19 99.61, 207.47 80.66, 219.78 61.15 M171.62 120.94 C190.49 97.63, 210.98 73.67, 220.3 62.74 M175.93 121.46 C187.55 105.09, 200.34 91.96, 221.12 68.3 M175.78 120.81 C185.74 110.55, 194.39 99.43, 222.13 68.39 M181.6 120.55 C195.61 103.89, 213.55 85.9, 220.85 76.42 M180.57 120.79 C196.03 104.41, 208.1 89.07, 222.34 74.7 M187.25 121.53 C201.03 106.42, 215.33 88.54, 220.05 80.38 M187.01 120.46 C200.14 103.8, 214.21 88.87, 220.94 79.9 M190.07 118.95 C196.36 111.85, 203.33 107.67, 223.13 88.33 M191.69 119.59 C201.35 109.29, 212.23 97.71, 222.46 85.76 M196.06 119.07 C202.56 114.47, 206.12 108.51, 220.44 91.28 M196.94 120.28 C205.91 111.23, 212.41 101.91, 220.99 93.37 M203.35 120.81 C208.13 116.25, 209.63 112.19, 222.39 98.37 M202.61 119.89 C208.72 114.23, 212.75 108.96, 221.74 99.38 M209 122.69 C211.85 116.94, 214.49 110.98, 219.55 106.03 M208.23 121.15 C212.25 113.67, 218.06 109.41, 221.46 105.34 M212.64 120.02 C216.8 118.46, 219.25 113.79, 222.77 110 M212.95 120.93 C216.25 117.22, 218.55 115.37, 222.31 110.52 M218.1 121.28 C219.12 119.48, 219.57 118.53, 221.81 116.92 M218.41 120.99 C218.96 120.09, 220.01 119.26, 221.75 116.94" stroke="#fab005" stroke-width="0.5" fill="none"></path><path d="M-0.76 0.79 C64.24 -1.61, 129.55 -0.21, 221.46 -0.77 M-0.59 -0.48 C47.89 1, 94.2 0.8, 219.44 -0.44 M219.76 -1.44 C222.2 37.17, 221.7 76.2, 221.2 120.58 M219.07 -0.67 C220.24 41.53, 220.62 84.43, 219.67 119.39 M220.23 119.84 C150.35 119.61, 77.8 120.06, -1.12 119.15 M219.93 119.5 C173.49 118.95, 128.78 117.65, -0.5 120.53 M0.21 121.08 C-1 75.11, 0.31 24.83, 1.57 -1.52 M0.56 119.79 C-0.52 94.8, -0.44 68.83, -0.58 -0.8" stroke="#000000" stroke-width="1" fill="none"></path></g><g stroke-linecap="round"><g transform="translate(71.1365273204633 103.26107464070355) rotate(0 109.55324594104667 0.13408975728907535)"><path d="M-0.53 0.55 C35.9 0.4, 181.09 -0.45, 217.38 -0.46 M1.4 -0.21 C38.3 -0.25, 183.27 0.36, 219.63 0.73" stroke="#000000" stroke-width="2" fill="none"></path></g><g transform="translate(71.1365273204633 103.26107464070355) rotate(0 109.55324594104667 0.13408975728907535)"><path d="M192.29 9.34 C195.92 7.21, 203.23 8.55, 218.74 -0.99 M190.82 11.69 C202.11 7.28, 212.14 3.04, 219.12 0.89" stroke="#000000" stroke-width="2" fill="none"></path></g><g transform="translate(71.1365273204633 103.26107464070355) rotate(0 109.55324594104667 0.13408975728907535)"><path d="M192.42 -11.18 C196.1 -9.18, 203.38 -3.71, 218.74 -0.99 M190.96 -8.83 C202.13 -5.79, 212.12 -2.58, 219.12 0.89" stroke="#000000" stroke-width="2" fill="none"></path></g></g><g stroke-linecap="round" transform="translate(290 222.61224489795904) rotate(0 110 60)"><path d="M0 0 C0 0, 0 0, 0 0 M0 0 C0 0, 0 0, 0 0 M0.39 6.6 C1.68 3.94, 2.96 2.36, 4.98 0.06 M-0.4 6.43 C1.2 5.15, 2.23 3.38, 4.8 0.06 M1.35 10.82 C3.17 9.66, 3.44 7.92, 10.41 -1.2 M0.58 11.9 C2.87 8.7, 6.35 5, 10.58 -0.61 M-1.43 18.46 C5.85 12.81, 9.03 7.75, 16.42 1.46 M0.79 18.07 C3.38 12.98, 8.06 7.96, 16.2 0.25 M-0.69 25.63 C4.93 17.44, 8.55 12.24, 20.57 0.49 M0.95 23.31 C7.67 13.69, 17.81 4.92, 21.5 0.05 M-1.22 30.72 C5.05 24.27, 14.64 14.55, 26.57 1.9 M-0.81 29.55 C6.74 23.72, 12.13 17.09, 25.59 1.09 M0.3 35.9 C5.02 28.95, 13.33 20.29, 31.77 -0.9 M0.41 37.29 C12.12 22.5, 22.23 9.27, 32.31 -0.13 M-0.32 43.99 C13.61 29.19, 22.33 16.63, 37.95 -0.34 M0.86 42.83 C12.6 27.27, 28.1 10.62, 36.44 0.99 M-0.69 49.68 C12.21 32.72, 25.23 16.77, 42.65 -1.87 M-0.33 48.58 C15.68 31.01, 29.83 15.15, 43.47 0.14 M-1.15 53.19 C20.36 31.43, 36.13 10.6, 45.97 -0.91 M-0.13 54.79 C14.79 37.55, 31.12 18.89, 47.76 0.21 M1.99 59.21 C9.74 47.33, 20.16 37.38, 53.85 -2.03 M0.65 61.65 C17.96 40.08, 35.93 19.82, 52.28 0.25 M-0.86 66.59 C16.78 46.82, 33.93 27, 56.95 0.11 M0.41 67 C14.07 50.85, 29.93 31.89, 58.86 -0.48 M1.52 71.53 C14.6 54.13, 32.59 39.26, 61.89 1.6 M0.24 72.68 C17.08 52.26, 34.55 32.65, 63.85 0.53 M1.26 80.78 C18.72 55.15, 38.9 32.17, 70.13 0.27 M0.45 79.75 C20.03 56.38, 41.92 31.88, 68.37 1.09 M0.02 83.3 C29.14 51.51, 53.49 23.87, 73.21 0.59 M0.61 85.31 C23.02 57.19, 47.4 31.99, 74.04 -0.71 M1.86 91.22 C16.66 71.82, 30.47 54.19, 79.64 0.67 M0.79 91.51 C23.14 65.21, 48.28 36.68, 79.19 -0.42 M-2.15 99.51 C15.91 78.16, 35.7 55.69, 86.14 1.11 M-0.41 98.36 C34.56 59.48, 67.66 20.64, 84.56 -0.23 M-1.83 103.2 C20.7 78.91, 44.5 54.57, 88.52 0.03 M0.67 102.98 C26.4 74.71, 51.74 43.87, 89.54 -0.91 M-1.77 108.51 C35.64 69.52, 70.27 28.32, 96.94 -2.08 M0.25 109.88 C27.7 79.47, 53.35 48.21, 95.88 -0.82 M1.3 114.6 C34.12 75.22, 71.33 32.85, 98.74 0.65 M0.15 114.78 C38.5 72.12, 76.13 27.8, 99.92 0.17 M1.99 119.72 C38.77 78.95, 71.83 37.46, 105.76 0.37 M0.67 121.85 C30.41 86.85, 59.69 51.22, 106.29 -0.33 M8.19 119.12 C40.26 79.66, 73.71 39.81, 113.14 -1.55 M6.95 121.73 C39.56 85.14, 69.97 48.27, 112.13 0.82 M12.05 121.6 C48.69 76.03, 88.59 32.49, 117.99 -0.82 M11.38 121.15 C48.86 77.19, 86.53 34.41, 116.19 0.09 M18.45 119.33 C48.17 84.13, 77.04 49.1, 121.48 0.92 M16.42 120.87 C46.62 87.74, 76.12 52.21, 122.28 -0.49 M23.19 120.09 C64.05 73.48, 104.34 25.05, 124.92 1.36 M22.23 121 C44.1 93.2, 68.04 65.71, 127.78 0.01 M28.33 120.19 C68.6 76.28, 109.45 32.24, 134.43 1.14 M28.39 119.99 C62.19 80.31, 96.63 40.15, 131.75 0.15 M32.97 119.41 C71.28 78.75, 107.16 33.94, 137.76 0.82 M32.15 120.73 C54.72 95.41, 76.81 68.29, 138.08 1.19 M36.59 121.95 C66.68 88.65, 93.45 57.27, 141.58 -0.2 M38.1 121.53 C74.74 77.78, 113.23 33.28, 142.24 -0.9 M41.84 119.37 C68.98 92.43, 96.9 62.25, 148.29 1.28 M42.42 120.17 C66.38 93.95, 89.48 67.07, 148.53 -0.4 M49.87 119.48 C72.85 90.78, 101.97 62.21, 153.39 -0.82 M48.58 120.91 C75.78 88.5, 104.77 56.28, 154.75 0.18 M55.14 121.36 C78.17 91.9, 105.69 61.14, 158.2 -0.93 M53.57 120.57 C76.74 96.44, 95.96 72.53, 159.42 1.15 M60.73 120.22 C96.3 76.56, 137.31 31.06, 163.25 1.14 M59.64 121.48 C86.8 90.21, 115.5 59.08, 164.55 -0.34 M65.15 122.39 C86.62 94.37, 109.8 69.25, 169.07 1.11 M64.47 121.62 C86.93 93.93, 111.37 68.49, 168.8 0.73 M69.64 122.22 C104.14 85.48, 135.83 47.13, 173.47 1.15 M70.92 121.55 C104.09 82.31, 137.54 43.46, 174.23 -0.73 M77.03 121.05 C117.49 73.66, 155.72 25.04, 180.4 -1.11 M75.25 120.51 C98.76 93.13, 123.77 64.65, 179.53 1.16 M78.98 120.1 C101.4 94.65, 126.38 68.41, 185.24 -1.73 M80.83 121.39 C119.15 77.92, 155.69 35.06, 186.68 -0.81 M86.85 119.5 C115.52 81.6, 146.94 44.92, 191.6 -1.46 M86.36 120.83 C113.83 86.47, 144.77 52.36, 190.25 0.21 M91.01 119.11 C128.24 80.75, 163.1 37.84, 196.66 1.16 M91.59 120.2 C114.87 91.73, 140.2 61.21, 196.07 -0.95 M95.6 121.54 C122.05 90.57, 148.37 60.72, 199.96 -1.25 M95.55 121.67 C128.43 81.76, 160.92 44.53, 200.43 -0.38 M101.92 121.06 C126.36 90.83, 150.28 62.71, 208.74 -1.95 M102.22 121.17 C140.34 77.53, 177.97 33.95, 206.87 -1.08 M107.17 122.54 C146.94 72.41, 191.81 27.22, 210.72 0.81 M106.83 120.53 C148.71 74.31, 190.41 27.52, 211.31 0.08 M111.15 123.13 C140.11 87.22, 173.15 50.16, 219.42 -1.22 M112.87 121.17 C143.61 85.92, 173.07 50.63, 216.86 0.36 M118.34 119.45 C152.49 84.79, 182.99 45.48, 221.67 0.12 M117.56 120.41 C138.92 93.7, 162.49 68.64, 221.63 1.73 M122 120.81 C164.05 74.26, 201.68 30.7, 222.94 8.34 M122.45 120.77 C152.43 87.08, 182.3 52.6, 221.54 6.89 M128.82 120.84 C148.39 95.9, 172.15 67.34, 219.98 14.21 M127.36 120.72 C152.74 92.59, 174.76 65.83, 221.34 13.23 M131.72 122.47 C160.07 89.29, 187.82 59.04, 223.67 18.73 M133.71 121.74 C155.23 94.76, 177.06 68.6, 220.9 18.94 M139.21 120.85 C171.81 82.83, 206.01 44.87, 219.76 25.59 M139.16 120.34 C170.53 81.98, 203.04 44.45, 222.28 25.55 M144.13 120.31 C164.42 96.39, 185.81 72.79, 221.52 32.81 M142.87 121.09 C169.92 91.37, 194.29 63.87, 221.88 32.64 M149.02 121.24 C168.86 96.01, 190.44 75.01, 221.85 37.93 M150.19 120.62 C172.17 96.59, 193.31 69.59, 220.88 37.19 M154.93 121.11 C168.29 103.7, 186.85 85.08, 223.35 45.27 M153.9 120.73 C172.4 100.47, 188.79 80.08, 220.77 43.82 M158.68 121.34 C183.73 95.3, 205.89 67.38, 221 51.5 M160.95 120.33 C175.6 101.67, 192.74 83.57, 222.38 50.6 M165.75 120.27 C186.38 95.83, 206.92 68.97, 220.95 56.68 M165.62 120.56 C182.79 100.01, 201.75 79.52, 222.14 57.05 M171.51 120.09 C181.63 109.95, 189.5 95.42, 223.2 61.89 M170.28 120.72 C185.86 101.66, 200.52 84.74, 221.14 61.94 M174.11 119.77 C182.99 110.97, 193.72 99.66, 219.68 68.43 M176.61 121.42 C192.44 102.08, 209.04 83.51, 222.57 67.57 M179.74 122.01 C195.66 106.29, 208.07 91.07, 222.34 75.05 M182.29 120.49 C194.13 105.75, 209.23 90.14, 222.3 75.06 M187.45 122.18 C197.39 109.01, 203.66 98.93, 223.8 81.54 M186.25 120.1 C196.59 109.34, 206.65 96.21, 220.89 81.1 M190.5 119.22 C203.31 108.95, 217.29 95.66, 222.2 85.78 M191.38 120.77 C203.05 108.7, 214.07 95.82, 220.83 87.02 M197.12 120.66 C200.39 115.4, 206.58 107.59, 221.82 91.33 M197.74 120.37 C203.57 111.98, 211.24 104.76, 220.6 93.55 M203.84 121.44 C207.73 114.53, 217.02 104.42, 221.18 96.71 M203.27 120.17 C206.97 115.42, 212.5 110.13, 221.15 98.1 M208.35 120.98 C212.61 112.91, 215.95 109.92, 223.13 106.49 M207.05 119.9 C212.71 115.66, 218.12 109.03, 221.45 105.04 M214.21 121.45 C216.8 116.71, 219.65 113.67, 221.63 109.63 M213.73 120 C215.8 118.41, 218.16 115.3, 221.6 111.2 M218.27 120.5 C218.95 119.27, 220.73 118.15, 221.17 116.68 M218.19 120.97 C219.73 119.52, 220.95 117.81, 221.79 117.14" stroke="#fab005" stroke-width="0.5" fill="none"></path><path d="M-1.27 -0.96 C72.07 -0.42, 148.52 -1.64, 218.51 1.1 M0.77 0.38 C58.85 1.23, 117.25 0.61, 220.14 0.66 M221.29 -0.8 C220.64 41.66, 221.06 83.39, 220.97 120.2 M220.12 -0.28 C219.38 31.73, 218.55 61.22, 220.22 120.51 M221.2 120.03 C158.38 120.3, 96.67 118.97, -1.59 120.18 M219.31 120.5 C172.3 118.1, 123.31 119.42, 0.78 120.56 M-0.22 121.94 C0.96 86.09, 1.45 53.7, -1.73 0.79 M-0.05 120.45 C-0.64 78, -1.26 34.96, 0.8 0.43" stroke="#000000" stroke-width="1" fill="none"></path></g><g stroke-linecap="round" transform="translate(290 582.612244897959) rotate(0 110 60)"><path d="M0 0 C0 0, 0 0, 0 0 M0 0 C0 0, 0 0, 0 0 M-0.06 6.52 C1.02 4.06, 3.17 2.59, 4.69 -0.15 M-0.23 6.66 C1.89 4.21, 3.51 1.7, 4.69 0.02 M-1.08 12.89 C4.07 6.55, 8.64 3.18, 9.47 0.02 M0 11.58 C3.52 8.31, 6.53 4.91, 10.05 -0.07 M-0.1 19.86 C5.19 12.05, 11.08 6.49, 16.75 -0.11 M-0.49 17.57 C4.16 12.31, 8.89 8.03, 15.54 -0.5 M1.81 24.16 C4.95 16.29, 11.11 9.47, 21.82 1.79 M-0.51 23.17 C5.14 18.29, 11.62 10.93, 21.38 -0.45 M0.24 28.79 C10.84 21.14, 18.18 9.91, 27.85 -0.95 M-0.92 30.95 C8.11 21.49, 16.33 12.4, 27.05 -0.53 M-1.24 34.9 C7.22 27.65, 13.97 19.71, 31.1 1.11 M0.16 37.58 C7.59 25.64, 16.6 16.6, 31.86 0.13 M1.61 44.31 C13.21 26.56, 27.07 14.35, 36.28 1.69 M0.45 41.53 C13.39 28.37, 25.26 12.36, 37.61 0.44 M0.64 47.83 C13.57 30.96, 27.54 16.3, 40.79 0.8 M-0.47 49.77 C10.46 35.98, 23.14 23.49, 42.8 0.73 M-1.1 56.1 C9.87 40.42, 21.8 26.35, 46.37 0.84 M0.5 53.95 C19.81 33.53, 37.66 12.36, 47.5 -0.73 M-1.74 59.6 C13.15 42.29, 29.91 28.49, 51.3 0.61 M0.7 60.92 C16.01 41.92, 32.65 22.52, 53.57 -0.29 M-1.02 67.52 C15.99 48, 32.94 26.34, 58.06 -0.57 M-0.6 66.89 C22.94 41.72, 43.62 17, 57.47 -0.41 M-1.33 72.02 C16.58 53.83, 37.09 29.75, 65.59 -0.84 M-0.18 72.22 C12.53 57.02, 26.05 41.95, 64.52 -0.26 M1.26 78.59 C25.59 47.5, 52.47 19.34, 68.88 0.3 M0.23 79.07 C27.95 48.75, 54.44 17.3, 69.71 0.83 M-1.47 86.8 C22 56.46, 49.67 28.92, 75.24 0 M0.54 84.66 C21.44 59.79, 45.36 32.69, 73.94 -1.22 M-0.21 92.46 C26.16 58.14, 54.23 28.19, 79.94 0.2 M0.09 90.75 C28.16 60.67, 53.88 29.64, 78.86 -0.76 M1.43 96.33 C29.95 65.38, 57.36 32.81, 86.42 1.59 M0.28 98.81 C22.92 72.17, 45.54 44.81, 85.09 -0.93 M-0.14 102.48 C22.83 79.66, 45.7 50.06, 89.97 -0.23 M-0.35 103.76 C24.23 76.05, 46.29 48.49, 89.04 0.83 M-1.48 110.61 C36.9 68.76, 72.95 29.11, 93.9 -0.73 M-0.11 110.74 C26.8 78.72, 52.87 48.53, 95.16 0.18 M-0.64 114.86 C34.89 76.65, 67.48 33.33, 101.26 1.59 M-0.46 115.22 C24.53 87.27, 47.97 59.16, 100.78 0.43 M-0.77 123.09 C27.19 87.86, 54.5 56.16, 107.02 -0.7 M1.37 120.83 C30.25 86.15, 58.62 52.9, 106.31 -0.05 M4.67 119.95 C34.82 83.47, 64.62 52.9, 109.73 0.11 M7.28 121.74 C36.54 86.09, 65.5 54.17, 112.1 0.67 M11.77 120.54 C45.29 81.62, 80.71 42.31, 115.08 1.63 M11.33 120.72 C43.45 83.15, 76.7 46.73, 115.99 0.28 M15.54 121.31 C45.73 83.95, 76.16 49.64, 122.86 -0.29 M17.08 121.53 C60.48 73.43, 101.34 25.47, 121.45 0.96 M20.93 121.52 C55.02 81.83, 87.29 43.44, 127.93 -1.21 M21.84 120.7 C59.26 76.73, 97.1 33.2, 126.58 1.11 M27.07 121.17 C52.06 95.35, 76.76 68.83, 133.74 0.66 M26.87 120.9 C66.4 74.78, 105.43 30.13, 132.75 0.53 M30.92 121.19 C56.74 92.61, 78.35 67.86, 138.05 -1.46 M32.24 121.54 C68.76 79.97, 103.6 38.32, 138.42 -0.07 M39.5 121.38 C68.14 86.82, 98.57 50.72, 143.07 1.15 M39.08 120.14 C78.72 75.17, 117.55 28.67, 142.36 -0.62 M41.54 120.6 C73.65 89.7, 102.51 54.7, 149.18 -1.24 M42.34 120.84 C76.44 82.94, 109.93 45.71, 147.49 -0.21 M47.69 118.71 C84.93 80.08, 122.19 38.03, 153.11 -0.73 M49.12 119.85 C85.76 78.91, 122.52 38.02, 154.11 -0.67 M54.2 120.73 C96.04 73.94, 136.51 24.01, 157.63 -1.75 M53.4 121.95 C77.2 93.23, 101.11 67.55, 159.71 1 M59.1 118.83 C100.06 74.63, 139.14 28.64, 165.74 -0.99 M60.35 119.93 C84.28 93.85, 108.24 65.59, 164.26 -1.02 M65.89 120.44 C93.35 86.69, 123.72 52.04, 170.33 -1.31 M65.12 121.06 C106.57 73.71, 150.15 23.91, 169.95 0.21 M71.76 122.3 C95.98 94.39, 118.5 62.58, 176.41 0.28 M71.09 120.56 C102.36 83.07, 133.97 46.66, 174.53 0.74 M75.21 122.52 C111.04 77.45, 145.55 38.27, 178.78 -1.29 M74.67 120.12 C100.5 91.29, 125.36 60.57, 181.04 -0.67 M80.31 118.61 C113.4 84.34, 145.85 46.06, 184.2 0.89 M81.59 121.25 C109.51 87.56, 138.12 55.85, 185.12 -0.19 M84.33 119.64 C121.31 74.45, 159.66 32.87, 189.1 -0.19 M85.66 119.89 C122.8 77.43, 160.27 33.89, 190.76 0.6 M89.98 120.16 C118.08 90.55, 141.62 64.52, 197.75 -1.45 M91.07 119.78 C131.98 73.18, 170.87 27.11, 195.64 -0.82 M97.04 120.39 C122.26 90.71, 148.63 58.35, 199.97 0.4 M97.16 120.95 C136.47 73.85, 178.46 26.12, 200.84 -0.46 M102.59 120.22 C142.22 72.18, 183.89 29.52, 205.3 0.88 M102.7 121.22 C134.62 83.78, 166.67 45.84, 206.18 0.65 M108.7 119.28 C137.27 86.91, 170.79 48.1, 212.69 1.83 M106.69 120.65 C128.56 97.24, 149.95 71.31, 211.96 -0.04 M113.91 119.76 C153.82 75.86, 192.62 29.9, 216.7 -0.58 M111.96 121.72 C136.94 90.76, 161.89 61.27, 218.28 -0.18 M116.27 122.71 C147.43 87.74, 173.88 55.88, 219.84 -0.19 M117.23 120.13 C148.51 84.05, 181.55 46.12, 221.46 2.49 M122.26 122.37 C141.16 97.69, 163.02 75.83, 222.81 7.14 M122.22 120.45 C143.15 97.12, 163.34 73.48, 221.37 6.61 M128.32 118.98 C163.44 80.81, 194.84 40.97, 222.03 12.56 M128.2 121.36 C148.39 95.99, 170.05 71.48, 221.05 13.6 M134.58 120.82 C155.42 95.89, 179.07 70.43, 221.3 18.36 M133.86 121.13 C166.29 81.58, 199.5 43.4, 221.51 20.2 M139 120.31 C159.14 98.08, 179.35 71.89, 221.5 27.54 M138.49 120.07 C166.23 86.84, 194.84 55.69, 221.46 25.43 M143.09 120.03 C168.21 91.88, 193.69 65.77, 222.06 32.56 M143.86 122.03 C168.45 92.94, 195.2 64.66, 221.89 31.79 M150.06 120.82 C175.91 90.29, 205.97 56.39, 221.93 37.71 M149.44 120.82 C165.92 101.92, 179.44 83.91, 221.19 36.98 M154.56 119.82 C179.25 94.91, 202.64 67.2, 222.61 43.38 M154.17 121.73 C179.49 91.76, 204.76 62.91, 221.16 44.65 M160.82 122.54 C182.21 97.63, 201.81 69.52, 223.59 48.92 M159.81 119.95 C177.21 100.22, 195.22 80.14, 222.69 50.56 M164.38 120.92 C185.35 96.03, 203.94 73.26, 222.11 56.64 M164.67 120.09 C180.96 102.36, 197.3 85.41, 222.48 55.11 M170.24 121.4 C187.51 100.74, 200.48 85.98, 220.66 62.68 M170.87 120.59 C189.26 97.44, 209.81 75.84, 220.71 61.52 M174.54 118.98 C190.6 104.47, 204.17 86.7, 221.96 69.3 M176.19 121.26 C189.71 104.99, 203.99 89.38, 221.1 68.55 M182.82 121.25 C195.23 106.04, 208.15 93.22, 221.91 75.17 M181.3 119.68 C190.55 111.1, 198.94 100.99, 221.93 74.25 M187.61 122.53 C197.66 104.98, 210.82 94.72, 223.16 80.22 M185.54 120.71 C200 105.28, 212.09 90.39, 222.72 81.14 M190.7 119.83 C199.87 115.47, 206 107.67, 220.73 87.7 M192.24 120.95 C200.2 112.57, 207.31 101.86, 221.98 85.7 M196.76 119.02 C203.59 112.98, 207.84 107.31, 219.63 92.95 M196.47 120.2 C203.59 112.23, 211.85 103.62, 221.85 93.59 M203.58 118.79 C210.95 113.77, 215.12 105.22, 219.76 97.76 M202.31 119.93 C208.84 113.96, 214.82 106.89, 221.15 99.35 M207.74 120.81 C210.64 113.12, 218.64 110.87, 222.89 106.66 M206.67 120.77 C213.44 115.29, 217.83 109.58, 221.43 105.16 M214.26 121.27 C214.74 118.92, 216.92 115.32, 220.77 110.06 M212.8 120.78 C215.82 118.47, 217.33 115.31, 222.35 110.88 M217.93 120.42 C218.83 120.09, 219.84 118.45, 221.17 117.47 M218.4 121.07 C219.57 119.7, 220.47 118.39, 221.62 117.09" stroke="#fab005" stroke-width="0.5" fill="none"></path><path d="M-0.96 -1.46 C56.77 2.85, 111.88 -0.09, 221.1 -0.56 M0.38 -0.05 C51.21 -2.24, 101.6 -1.54, 220.66 0.39 M219.2 0.78 C219.4 35.78, 219.72 70.13, 220.2 119.15 M219.72 0.5 C220.01 24.45, 218.59 49.78, 220.51 119.78 M220.03 119.49 C151.62 120.21, 81.43 119.73, 0.18 118.59 M220.5 120.4 C154.96 117.98, 92.04 119.26, 0.56 119.74 M1.94 121.09 C-2.17 84.33, -2.17 43.8, 0.79 1.02 M0.45 120.03 C0.37 76.68, -0.56 35.31, 0.43 0.83" stroke="#000000" stroke-width="1" fill="none"></path></g><g transform="translate(90.39493136191754 62.612244897959044) rotate(0 80.5 18)"><text x="0" y="25" font-family="Virgil, Segoe UI Emoji" font-size="28px" fill="#000000" text-anchor="start" style="white-space: pre;" direction="ltr">Place order</text></g><g transform="translate(360.89493136191754 79.61224489795904) rotate(0 39.5 23)"><text x="39.5" y="32" font-family="Virgil, Segoe UI Emoji" font-size="36px" fill="#000000" text-anchor="middle" style="white-space: pre;" direction="ltr">Shop</text></g><g transform="translate(307.5 259.61224489795904) rotate(0 92.5 23)"><text x="92.5" y="32" font-family="Virgil, Segoe UI Emoji" font-size="36px" fill="#000000" text-anchor="middle" style="white-space: pre;" direction="ltr">Warehouse</text></g><g transform="translate(327 439.61224489795904) rotate(0 73 23)"><text x="73" y="32" font-family="Virgil, Segoe UI Emoji" font-size="36px" fill="#000000" text-anchor="middle" style="white-space: pre;" direction="ltr">Payment</text></g><g transform="translate(297 619.612244897959) rotate(0 103 23)"><text x="103" y="32" font-family="Virgil, Segoe UI Emoji" font-size="36px" fill="#000000" text-anchor="middle" style="white-space: pre;" direction="ltr">Notification</text></g><g stroke-linecap="round" transform="translate(20.851308611115428 22.612244897959044) rotate(0 27.81460987140798 25.60069298867586)"><path d="M39.92 1.82 C45.03 3.79, 50 9.91, 52.58 15.08 C55.16 20.24, 56.91 27.67, 55.4 32.82 C53.89 37.96, 48.44 42.96, 43.52 45.93 C38.6 48.91, 31.73 51.06, 25.88 50.69 C20.03 50.32, 12.62 47.52, 8.43 43.73 C4.23 39.95, 1.16 33.45, 0.69 27.98 C0.22 22.51, 2.33 15.58, 5.6 10.9 C8.88 6.22, 14.5 1.16, 20.34 -0.1 C26.19 -1.36, 37.01 2.49, 40.67 3.35 C44.34 4.2, 42.31 4.73, 42.33 5.03 M19.09 1.39 C24.31 -0.45, 32.73 0.99, 38.3 2.98 C43.86 4.97, 49.65 8.79, 52.5 13.32 C55.35 17.85, 56.8 24.95, 55.39 30.15 C53.98 35.35, 48.8 41.22, 44.03 44.52 C39.26 47.82, 32.63 50.11, 26.78 49.96 C20.93 49.81, 13.54 46.97, 8.92 43.62 C4.3 40.26, -0.31 35.35, -0.96 29.82 C-1.61 24.3, 1.78 15.11, 5.04 10.49 C8.29 5.87, 15.92 3.42, 18.57 2.11 C21.22 0.81, 20.74 2.38, 20.95 2.66" stroke="#000000" stroke-width="2" fill="none"></path></g><g stroke-linecap="round"><g transform="translate(45.501157307614676 73.5298541263212) rotate(0 -0.8405611407745823 32.037316104990396)"><path d="M-0.66 1.06 C-0.96 11.53, -1.9 51.96, -2.2 62 M1.19 0.57 C0.81 11.31, -2.16 53.23, -2.87 63.5" stroke="#000000" stroke-width="2" fill="none"></path></g></g><g stroke-linecap="round"><g transform="translate(43.014997693607484 137.19262026743786) rotate(0 12.329819995824835 18.932976913783932)"><path d="M1.06 0.53 C5.28 6.99, 20.71 31.99, 24.5 38.11 M0.16 -0.24 C4.29 5.89, 19.16 29.7, 23.52 36.12" stroke="#000000" stroke-width="2" fill="none"></path></g></g><g stroke-linecap="round"><g transform="translate(41.75958688508422 135.89812194765727) rotate(0 -11.651002923215628 16.61083639703031)"><path d="M0.53 -0.07 C-3.2 5.29, -18.95 27.53, -23.01 33.24 M-0.65 -1.15 C-4.46 4.86, -19.78 28.24, -23.83 34.38" stroke="#000000" stroke-width="2" fill="none"></path></g></g><g stroke-linecap="round"><g transform="translate(11.566949554998473 108.80235922946213) rotate(0 16.229342701133078 -10.58614323563188)"><path d="M-0.07 0.25 C5.04 -3.41, 26.26 -18.07, 31.72 -21.42 M-1.57 -0.66 C3.83 -4.22, 28.43 -16.69, 34.03 -20.21" stroke="#000000" stroke-width="2" fill="none"></path></g></g><g stroke-linecap="round"><g transform="translate(45.88706236156327 88.59854297430638) rotate(0 10.666525496512975 12.661294776238378)"><path d="M0.25 -0.77 C3.5 3.59, 16.47 21.56, 20.02 26.09 M-1.08 1.44 C2.53 5.42, 18.69 20.25, 22.41 24.07" stroke="#000000" stroke-width="2" fill="none"></path></g></g><g stroke-linecap="round" transform="translate(15.394931361917543 10) rotate(0 32 33.306122448979636)"><path d="M31.39 -0.57 C37.13 -1.04, 44.2 2.77, 49.41 6.72 C54.62 10.67, 60.5 17.26, 62.63 23.12 C64.76 28.99, 63.93 35.84, 62.18 41.92 C60.43 47.99, 57.14 55.62, 52.14 59.57 C47.14 63.52, 38.61 65.36, 32.18 65.61 C25.75 65.86, 18.77 64.62, 13.56 61.07 C8.36 57.51, 3 50.46, 0.96 44.3 C-1.09 38.13, -0.65 30.44, 1.3 24.08 C3.25 17.71, 6.91 10.1, 12.65 6.1 C18.39 2.1, 31.36 0.94, 35.73 0.07 C40.11 -0.81, 39.04 0.15, 38.9 0.85 M45.89 5.01 C51.31 7.5, 58.21 13.21, 61.04 18.72 C63.86 24.23, 63.89 31.68, 62.82 38.07 C61.76 44.47, 59.07 52.55, 54.62 57.09 C50.17 61.63, 42.16 64.52, 36.11 65.29 C30.06 66.07, 23.85 64.58, 18.31 61.74 C12.76 58.9, 5.65 53.82, 2.84 48.24 C0.03 42.67, 0.28 34.87, 1.44 28.28 C2.61 21.69, 5.64 13.56, 9.84 8.72 C14.04 3.88, 20.68 -0.07, 26.63 -0.75 C32.58 -1.44, 42.45 3.56, 45.54 4.61 C48.62 5.65, 45.39 5.03, 45.16 5.52" stroke="none" stroke-width="0" fill="#fab005"></path><path d="M34.51 -0.61 C40.46 -0.69, 48.68 3.26, 53.51 7.66 C58.35 12.05, 62.1 19.31, 63.53 25.78 C64.97 32.24, 64.53 40.44, 62.12 46.45 C59.72 52.47, 54.63 58.68, 49.11 61.86 C43.58 65.05, 35.39 66.1, 28.95 65.57 C22.51 65.03, 15.19 62.69, 10.46 58.67 C5.73 54.66, 1.77 47.89, 0.58 41.46 C-0.62 35.04, 0.93 26.19, 3.29 20.12 C5.66 14.05, 9.13 8.4, 14.77 5.07 C20.4 1.73, 33.15 0.76, 37.12 0.13 C41.09 -0.51, 38.63 0.68, 38.58 1.27 M26.61 -1.02 C32.39 -2.41, 41.34 -0.53, 47 2.58 C52.65 5.69, 57.99 11.45, 60.55 17.64 C63.11 23.83, 63.26 33.39, 62.35 39.74 C61.44 46.09, 59.5 51.17, 55.07 55.74 C50.65 60.31, 41.89 65.84, 35.8 67.18 C29.71 68.52, 24 66.94, 18.51 63.79 C13.03 60.64, 5.75 54.29, 2.88 48.25 C0 42.22, -0.1 33.9, 1.26 27.57 C2.63 21.25, 6.92 14.65, 11.08 10.31 C15.23 5.97, 23.66 3.3, 26.2 1.53 C28.74 -0.23, 25.93 -0.76, 26.29 -0.28" stroke="#000000" stroke-width="1" fill="none"></path></g><g stroke-linecap="round" transform="translate(44.558084253307925 33.03447915631432) rotate(0 4.0074139686943795 0.7633169464179446)"><path d="M0.38 0 L7.63 0 L8.01 1.14 L0.38 1.53 L0.38 0" stroke="none" stroke-width="0" fill="#000000"></path><path d="M0.38 0 M0.38 0 C2.84 0, 5.3 0, 7.63 0 M0.38 0 C1.88 0, 3.38 0, 7.63 0 M7.63 0 C7.89 0, 8.01 0.13, 8.01 0.38 M7.63 0 C7.89 0, 8.01 0.13, 8.01 0.38 M8.01 0.38 C8.01 0.59, 8.01 0.8, 8.01 1.14 M8.01 0.38 C8.01 0.6, 8.01 0.83, 8.01 1.14 M8.01 1.14 C8.01 1.4, 7.89 1.53, 7.63 1.53 M8.01 1.14 C8.01 1.4, 7.89 1.53, 7.63 1.53 M7.63 1.53 C5.06 1.53, 2.49 1.53, 0.38 1.53 M7.63 1.53 C5.05 1.53, 2.47 1.53, 0.38 1.53 M0.38 1.53 C0.13 1.53, 0 1.4, 0 1.14 M0.38 1.53 C0.13 1.53, 0 1.4, 0 1.14 M0 1.14 C0 0.96, 0 0.77, 0 0.38 M0 1.14 C0 0.89, 0 0.63, 0 0.38 M0 0.38 C0 0.13, 0.13 0, 0.38 0 M0 0.38 C0 0.13, 0.13 0, 0.38 0" stroke="#000000" stroke-width="4" fill="none"></path></g><g stroke-linecap="round"><g transform="translate(24.90450706598176 29.740439248278108) rotate(0 7.894480477992204 8.073522477709275)" fill-rule="evenodd"><path d="M0 0 L14.94 -0.21 L18.83 0.62 L20.52 2.55 L20.96 5.28 L19.68 10.58 L16.28 14.32 L11.23 16.41 L4.84 15.76 L-1.01 13.21 L-4.17 8.49 L-5.16 3.71 L-2.84 1.26 L0 0" stroke="none" stroke-width="0" fill="#000000" fill-rule="evenodd"></path><path d="M0 0 C3.14 0.1, 15.55 -1.15, 18.83 0.62 C22.11 2.38, 20.95 7.95, 19.68 10.58 C18.41 13.22, 14.68 15.97, 11.23 16.41 C7.78 16.84, 1.72 15.32, -1.01 13.21 C-3.75 11.09, -5.33 5.91, -5.16 3.71 C-4.99 1.51, -0.86 0.62, 0 0 M0 0 C3.14 0.1, 15.55 -1.15, 18.83 0.62 C22.11 2.38, 20.95 7.95, 19.68 10.58 C18.41 13.22, 14.68 15.97, 11.23 16.41 C7.78 16.84, 1.72 15.32, -1.01 13.21 C-3.75 11.09, -5.33 5.91, -5.16 3.71 C-4.99 1.51, -0.86 0.62, 0 0" stroke="#000000" stroke-width="1" fill="none"></path></g></g><g stroke-linecap="round"><g transform="translate(55.0173606021724 29.702273400957893) rotate(0 7.894480477992204 8.073522477709275)" fill-rule="evenodd"><path d="M0 0 L14.94 -0.21 L18.83 0.62 L20.52 2.55 L20.96 5.28 L19.68 10.58 L16.28 14.32 L11.23 16.41 L4.84 15.76 L-1.01 13.21 L-4.17 8.49 L-5.16 3.71 L-2.84 1.26 L0 0" stroke="none" stroke-width="0" fill="#000000" fill-rule="evenodd"></path><path d="M0 0 C3.14 0.1, 15.55 -1.15, 18.83 0.62 C22.11 2.38, 20.95 7.95, 19.68 10.58 C18.41 13.22, 14.68 15.97, 11.23 16.41 C7.78 16.84, 1.72 15.32, -1.01 13.21 C-3.75 11.09, -5.33 5.91, -5.16 3.71 C-4.99 1.51, -0.86 0.62, 0 0 M0 0 C3.14 0.1, 15.55 -1.15, 18.83 0.62 C22.11 2.38, 20.95 7.95, 19.68 10.58 C18.41 13.22, 14.68 15.97, 11.23 16.41 C7.78 16.84, 1.72 15.32, -1.01 13.21 C-3.75 11.09, -5.33 5.91, -5.16 3.71 C-4.99 1.51, -0.86 0.62, 0 0" stroke="#000000" stroke-width="1" fill="none"></path></g></g><g stroke-linecap="round"><g transform="translate(64.96839998844962 63.11889417882276) rotate(176.8197862031195 -17.385485461717792 -3.6070837283575656)" fill-rule="evenodd"><path d="M0 0 L-13.34 -6.1 L-17.18 -7.08 L-24.79 -5.1 L-34.75 -0.22 L-22.5 -6.15 L-17.43 -7.21 L-12.68 -6.24 L0 0" stroke="none" stroke-width="0" fill="#0000" fill-rule="evenodd"></path><path d="M0 0 C-2.22 -1.02, -9.83 -5.01, -13.34 -6.1 C-16.85 -7.18, -17.49 -7.49, -21.06 -6.51 C-24.63 -5.53, -35.35 -0.11, -34.75 -0.22 C-34.14 -0.34, -23.23 -7.25, -17.43 -7.21 C-11.64 -7.18, -2.91 -1.2, 0 0 M0 0 C-2.22 -1.02, -9.83 -5.01, -13.34 -6.1 C-16.85 -7.18, -17.49 -7.49, -21.06 -6.51 C-24.63 -5.53, -35.35 -0.11, -34.75 -0.22 C-34.14 -0.34, -23.23 -7.25, -17.43 -7.21 C-11.64 -7.18, -2.91 -1.2, 0 0" stroke="#000000" stroke-width="1" fill="none"></path></g></g><g stroke-linecap="round"><g transform="translate(707.0269036395027 -21.113156837974657) rotate(269.83845249062614 28.229387630256042 123.60972377630793)" fill-rule="evenodd"><path d="M-1.21 1.92 L57.03 1.06 L54.86 224.52 L29.26 247.97 L1.55 221.17 L-1.26 -0.16" stroke="none" stroke-width="0" fill="#eeeeee" fill-rule="evenodd"></path><path d="M-0.58 0.17 C16.84 -0.71, 31.32 -0.04, 56.26 -0.02 M-0.62 0.64 C12.01 0.4, 23.94 -0.03, 57.44 0.19 M56.06 -0.84 C57.95 81.61, 58.11 164.63, 56.24 221.65 M57.4 0.26 C57.9 70.97, 57.18 141.41, 56.7 222.18 M56.24 224.64 C45.89 230.39, 35.61 241.67, 26.33 248.94 M55.87 223.28 C49.03 228.77, 43.16 234.6, 27.99 247.49 M26.84 247.64 C20.61 241.55, 14.22 236.55, 0.39 220.87 M27.66 248.06 C21.53 241.16, 13.81 235.17, 0.09 220.91 M-0.18 220.28 C-0.47 152.7, 1.23 86.21, 1.5 -1.72 M1.31 221.7 C-0.49 134.92, -1.75 48.47, -0.77 -0.76 M0 0 C0 0, 0 0, 0 0 M0 0 C0 0, 0 0, 0 0" stroke="#000000" stroke-width="1" fill="none"></path></g></g><g stroke-linecap="round" transform="translate(619.9995304413426 91.18308832924663) rotate(0 23.13619555658954 15.377950340008738)"><path d="M0.52 -0.65 L45.03 -1.48 L45.58 28.95 L1.59 29.88" stroke="none" stroke-width="0" fill="#868e96"></path><path d="M0.17 0.97 C11.69 -0.29, 24.59 -0.49, 46.47 -1.83 M0.64 0.14 C11.97 0.49, 23.51 0.85, 46.68 0.72 M45.55 0.13 C44.67 11.58, 44.56 21.94, 44.79 31.13 M46.83 0.95 C46.44 10.1, 45.68 19.97, 45.41 31.11 M47.99 29.94 C30.2 29.36, 18.2 29.7, 1.26 29.5 M46.62 30.34 C33.18 31.13, 20.28 31.16, -0.19 29.97 M-0.04 29.64 C-0.5 22.59, 0.28 17.23, -0.69 -1.23 M0.39 31.42 C-0.47 18.87, -0.22 7.67, -0.65 0.04" stroke="#000000" stroke-width="1" fill="none"></path></g><g stroke-linecap="round"><g transform="translate(644.3595072323865 106.2566824216558) rotate(0 -0.5097717453729729 -8.026142007129351)" fill-rule="evenodd"><path d="M-0.65 -1.24 L20.47 -15.22 L-24.9 -12.76 L-0.87 1.74" stroke="none" stroke-width="0" fill="#ced4da" fill-rule="evenodd"></path><path d="M0.97 -0.48 C6.86 -4.56, 13.92 -9.42, 20.12 -15.37 M0.14 0.05 C5.33 -3.81, 10.72 -6.4, 22.67 -13.94 M22.08 -16.03 C10.53 -16.25, -2.1 -16.08, -22.72 -13.98 M22.9 -14.42 C7.91 -14.87, -6.35 -15.03, -22.74 -14.11 M-23.92 -15.44 C-15.52 -7.1, -6.22 -2.16, -1.25 -0.45 M-23.51 -14.59 C-13.96 -9.38, -5.35 -3.95, -0.79 -0.88 M0 0 C0 0, 0 0, 0 0 M0 0 C0 0, 0 0, 0 0" stroke="#000000" stroke-width="1" fill="none"></path></g></g><g stroke-linecap="round"><g transform="translate(718.0336298732084 108.89664619295013) rotate(0 28.40839414015022 -1.467581663281294)"><path d="M-0.48 -0.43 C16.02 -1.19, 31.72 -2.69, 57.3 -2.49" stroke="#000000" stroke-width="1.5" fill="none" stroke-dasharray="1.5 7"></path></g></g><g stroke-linecap="round" transform="translate(675.3116078129376 91.44943862156401) rotate(0 23.13619555658954 15.377950340008738)"><path d="M-1.48 -0.69 L44.47 1.59 L45.4 32.5 L-1.99 32.54" stroke="none" stroke-width="0" fill="#868e96"></path><path d="M-0.43 0.26 C13.66 0.31, 26.74 -0.73, 44.86 -1.24 M0.2 -0.34 C17.39 0.38, 34.38 0.57, 45.92 -0.48 M46.8 -1.6 C46.13 6.64, 46.66 16.62, 46.64 31.98 M46.57 -0.65 C46.93 10.09, 46.92 22.13, 47.15 30.68 M44.91 32.64 C27.4 31.77, 9.31 30.06, 1.44 29.71 M46.89 30.47 C31.41 30.45, 14.47 29.76, 0.25 30.5 M-1.65 31.12 C-0.33 20.9, -1.05 13.67, 0.64 0.62 M-0.75 30.63 C-1.01 19.7, -0.17 10.19, -0.32 -0.62" stroke="#000000" stroke-width="1" fill="none"></path></g><g stroke-linecap="round"><g transform="translate(699.7086128124993 105.4468931838428) rotate(0 -0.9565279308710615 -7.334118663940558)" fill-rule="evenodd"><path d="M-0.69 -1.8 L23.54 -15.4 L-21.35 -16.34 L1.78 1.28" stroke="none" stroke-width="0" fill="#ced4da" fill-rule="evenodd"></path><path d="M0.26 -0.62 C7.88 -6.84, 14.48 -11.49, 20.71 -13.26 M-0.34 0.56 C7.28 -3.88, 14.36 -9.51, 21.47 -14.89 M20.34 -14.7 C6.65 -13.98, -5.31 -13.94, -21.87 -13.23 M21.3 -14.16 C3.31 -13.97, -13.38 -13.38, -23.17 -13.49 M-21.21 -15.37 C-15.93 -11.73, -11.65 -5.32, -1.04 0.7 M-23.39 -13.71 C-17.35 -11.57, -12.06 -6.81, -0.25 -0.02 M0 0 C0 0, 0 0, 0 0 M0 0 C0 0, 0 0, 0 0" stroke="#000000" stroke-width="1" fill="none"></path></g></g><g stroke-linecap="round" transform="translate(774.5714834171622 90.38403745228652) rotate(0 23.13619555658954 15.377950340008738)"><path d="M-1.8 1.59 L45.4 1.74 L44.28 32.54 L1.28 31.6" stroke="none" stroke-width="0" fill="#868e96"></path><path d="M-0.62 0.2 C10.95 -0.91, 24.13 -1.3, 47.55 0.27 M0.56 0.41 C14.83 0.75, 27.86 -0.32, 45.91 0.07 M46.1 -1.48 C46.73 7.3, 46.72 15.07, 47.39 32.65 M46.64 -0.86 C46.72 9.8, 47.24 19.04, 47.13 30.35 M45.25 32.02 C33.66 30.75, 24.99 30.15, 0.7 29.93 M46.91 30.56 C32.7 29.74, 20.96 30.37, -0.02 30.2 M-0.5 30.07 C-0.97 23.42, 0.89 14.22, 0.77 1.32 M-0.8 30.11 C0.27 22.94, -0.09 13.98, -0.74 -0.34" stroke="#000000" stroke-width="1" fill="none"></path></g><g stroke-linecap="round"><g transform="translate(799.9027005763332 103.71879758259252) rotate(0 -0.6419159627523641 -7.438987936034778)" fill-rule="evenodd"><path d="M1.59 -0.87 L23.69 -16.52 L-21.31 -13.07 L0.84 0.96" stroke="none" stroke-width="0" fill="#ced4da" fill-rule="evenodd"></path><path d="M0.2 -1.83 C5.25 -5.39, 10.97 -6.76, 22.22 -14.43 M0.41 0.72 C7.67 -5.13, 13.64 -9.79, 22.01 -15.28 M20.47 -14.16 C7.62 -14.14, -6.23 -13.33, -21.2 -14.14 M21.09 -14.18 C7.33 -13.43, -7.85 -13.39, -23.51 -14.9 M-21.83 -15.6 C-18.05 -9.47, -13.29 -6.88, -0.83 -0.47 M-23.29 -15.14 C-15.67 -9.06, -6.69 -4.14, -0.56 -0.21 M0 0 C0 0, 0 0, 0 0 M0 0 C0 0, 0 0, 0 0" stroke="#000000" stroke-width="1" fill="none"></path></g></g><g stroke-linecap="round"><g transform="translate(510 102.61224489795904) rotate(0 49.22470130911097 -0.029004698619246483)"><path d="M-1.57 1.49 C29.53 -2.15, 55.33 0.55, 98.45 -1.54 M0.59 0.64 C25.04 0.2, 48.05 -0.48, 100.02 -0.37" stroke="#000000" stroke-width="2" fill="none"></path></g><g transform="translate(510 102.61224489795904) rotate(0 49.22470130911097 -0.029004698619246483)"><path d="M70.28 11.44 C80.79 5.12, 86.06 4.86, 98.47 -1.92 M72.44 10.58 C79.28 8.04, 84.76 4.84, 100.04 -0.75" stroke="#000000" stroke-width="2" fill="none"></path></g><g transform="translate(510 102.61224489795904) rotate(0 49.22470130911097 -0.029004698619246483)"><path d="M70.24 -9.09 C80.88 -9.54, 86.17 -3.93, 98.47 -1.92 M72.39 -9.94 C79.43 -7.48, 84.92 -5.67, 100.04 -0.75" stroke="#000000" stroke-width="2" fill="none"></path></g></g><g stroke-linecap="round"><g transform="translate(706.0691690387523 159.70249567665292) rotate(269.83845249062614 28.476575788745095 123.16406104488749)" fill-rule="evenodd"><path d="M-1.96 0.84 L57.46 -1.63 L56.89 220.96 L26.08 248.29 L0.9 223.2 L0.02 -1.87" stroke="none" stroke-width="0" fill="#eeeeee" fill-rule="evenodd"></path><path d="M-0.42 -0.47 C15.03 -0.31, 29.38 -2.2, 55.05 -0.89 M0.52 -0.68 C18.6 -1.27, 38.54 -1.37, 56.56 0.33 M56.51 1.01 C53.58 59.59, 54.81 123, 57.89 223.16 M56.76 0.02 C55.19 54.05, 56.54 109.61, 55.59 222.48 M57.94 224.76 C51.34 227.88, 42.77 232.53, 25.67 247.68 M55.68 222.28 C48.46 229.09, 40.14 236.16, 26.76 247.62 M29.13 247.06 C17.67 236.85, 8.81 228.41, -0.99 220.87 M27.02 247.27 C21.45 240.43, 14.57 233.84, 0.71 222.46 M2.28 221.54 C0.89 176.94, 1.47 129.31, 0.77 0.68 M0.83 221.59 C-0.37 159.89, 0.66 98.77, -0.18 -0.4 M0 0 C0 0, 0 0, 0 0 M0 0 C0 0, 0 0, 0 0" stroke="#000000" stroke-width="1" fill="none"></path></g></g><g stroke-linecap="round" transform="translate(619.0417958405917 271.998740843874) rotate(0 23.13619555658954 15.377950340008738)"><path d="M0.21 -1.03 L47.88 -0.02 L46.71 32.25 L1.33 30.24" stroke="none" stroke-width="0" fill="#868e96"></path><path d="M-0.47 0.55 C11.26 0.51, 20.47 -1.73, 45.6 0.88 M-0.68 -0.97 C13.57 -0.84, 27.9 -0.56, 46.83 -0.24 M47.7 -1.51 C44.3 6.32, 46.52 14.23, 46.55 29.69 M46.55 -0.79 C45.52 8.73, 46.15 14.72, 45.76 29.97 M48.1 32.36 C35.96 30.58, 25.28 29.43, 0.01 30.05 M45.63 30.5 C31.93 29.54, 18.39 29.84, -0.06 31.37 M-0.62 30.44 C-0.93 24.23, 0.08 15.06, -0.69 -0.97 M-0.41 31.4 C-0.95 23.27, -0.97 14.76, 0.9 -0.93" stroke="#000000" stroke-width="1" fill="none"></path></g><g stroke-linecap="round"><g transform="translate(643.4017726316358 287.0723349362836) rotate(0 -0.6676070133228222 -8.145905415959078)" fill-rule="evenodd"><path d="M-1.03 1.61 L21.92 -14.09 L-21.61 -13.02 L-0.51 0.89" stroke="none" stroke-width="0" fill="#ced4da" fill-rule="evenodd"></path><path d="M0.55 0.21 C8.79 -7.11, 14.89 -11.67, 22.83 -14.33 M-0.97 -0.77 C7.55 -6.08, 16.05 -10.18, 21.7 -15.5 M20.44 -16.5 C8.64 -13.9, -3.08 -13.83, -24.16 -15.27 M21.16 -15.42 C7.29 -14.61, -10.1 -14.8, -23.88 -15.23 M-21.49 -14.82 C-17.03 -11.84, -11.69 -6.49, -0.71 0.08 M-23.35 -14.63 C-18 -10.18, -11.61 -6.7, 0.61 -0.75 M0 0 C0 0, 0 0, 0 0 M0 0 C0 0, 0 0, 0 0" stroke="#000000" stroke-width="1" fill="none"></path></g></g><g stroke-linecap="round"><g transform="translate(717.0758952724575 289.7122987075775) rotate(0 29.273921490605744 -0.22180205677773301)"><path d="M0.21 0.41 C14.59 -2.29, 31.78 0.12, 58.34 0.41" stroke="#000000" stroke-width="1.5" fill="none" stroke-dasharray="1.5 7"></path></g></g><g stroke-linecap="round" transform="translate(674.3538732121872 272.2650911361918) rotate(0 23.13619555658954 15.377950340008738)"><path d="M-0.02 0.44 L47.76 1.33 L45.76 31.64 L0.78 30.33" stroke="none" stroke-width="0" fill="#868e96"></path><path d="M0.41 -1.64 C10.96 -0.72, 26.47 0.15, 47.76 1.04 M-0.6 -0.79 C10.41 0.91, 21.21 -0.61, 46.24 -0.21 M46.34 0.26 C47.78 11.7, 44.97 21.94, 47.18 30.47 M47.18 -0.27 C45.11 9.58, 45.24 19.31, 46.08 31.53 M45.74 29.44 C26.47 30.65, 9.33 30.73, -0.73 29.34 M45.38 31 C34.79 30.57, 25.11 29.87, -0.82 31.65 M0.38 30.59 C-1.83 21.79, -0.92 13.35, 0.94 -0.66 M0.42 29.94 C-0.38 23.7, -1.13 14.93, -0.51 0.8" stroke="#000000" stroke-width="1" fill="none"></path></g><g stroke-linecap="round"><g transform="translate(698.7508782117486 286.2625456984704) rotate(0 -0.7105140538890282 -8.016479006644317)" fill-rule="evenodd"><path d="M0.44 1.49 L23.27 -15.04 L-22.21 -13.57 L-0.43 0.22" stroke="none" stroke-width="0" fill="#ced4da" fill-rule="evenodd"></path><path d="M-1.64 -1.83 C6.5 -3.92, 14.55 -8.07, 22.99 -15.89 M-0.79 -0.32 C5.12 -3.06, 8.05 -5.8, 21.73 -13.81 M22.21 -12.79 C12.1 -15.54, 0.79 -13.52, -23.38 -13.79 M21.68 -15.45 C11.49 -14.86, 1.19 -14.23, -22.32 -13.44 M-24.41 -16.03 C-14.34 -9.54, -5.48 -4.1, -1.41 -1.29 M-22.85 -14.94 C-16.85 -9.59, -11.2 -7.08, 0.89 -0.31 M0 0 C0 0, 0 0, 0 0 M0 0 C0 0, 0 0, 0 0" stroke="#000000" stroke-width="1" fill="none"></path></g></g><g stroke-linecap="round" transform="translate(773.6137488164115 271.1996899669141) rotate(0 23.13619555658954 15.377950340008738)"><path d="M1.49 1.33 L45.76 0.89 L47.05 30.33 L0.22 30.21" stroke="none" stroke-width="0" fill="#868e96"></path><path d="M-1.83 -0.67 C15.24 0.58, 30.2 1.42, 44.91 -1.94 M-0.32 0.55 C10.07 -0.6, 20.6 0.15, 46.99 -0.75 M48.01 0.27 C45.22 5.29, 47.19 12.12, 46.83 29.17 M45.35 -0.52 C45.77 5.61, 46.36 13.75, 47.19 31.56 M44.59 30.76 C32.78 30.53, 19.97 29.04, -1.29 30.25 M45.68 30.7 C34.31 30.11, 20.3 31.76, -0.31 30.6 M-1.88 30.07 C-1.03 22.48, 0.88 15.26, -0.82 1.28 M-0.18 31.66 C-1.06 24.11, -0.64 18.05, -0.01 0.22" stroke="#000000" stroke-width="1" fill="none"></path></g><g stroke-linecap="round"><g transform="translate(798.9449659755826 284.53445009721986) rotate(0 -1.2294157000262658 -7.625954556886086)" fill-rule="evenodd"><path d="M1.33 -0.51 L22.84 -13.75 L-23.52 -14.13 L-0.54 -0.15" stroke="none" stroke-width="0" fill="#ced4da" fill-rule="evenodd"></path><path d="M-0.67 0.88 C7.36 -2.97, 15.23 -10.48, 20.01 -16.07 M0.55 -0.24 C4.42 -3.45, 10.45 -6.2, 21.19 -15.51 M22.22 -15.6 C7.36 -13.17, -5.69 -13.47, -24.68 -16.13 M21.43 -15.31 C3.47 -15.07, -12.48 -13.89, -22.29 -14.59 M-23.09 -15.06 C-16.8 -10.96, -11.98 -7.61, -0.51 -0.56 M-23.15 -13.74 C-18.95 -12.01, -12.44 -8.48, -0.16 -0.59 M0 0 C0 0, 0 0, 0 0 M0 0 C0 0, 0 0, 0 0" stroke="#000000" stroke-width="1" fill="none"></path></g></g><g stroke-linecap="round"><g transform="translate(706.2699661996644 339.00123422254774) rotate(269.83845249062614 28.51528488098438 123.58077406346695)" fill-rule="evenodd"><path d="M-0.43 -0.09 L55.03 -1.16 L57.06 222.53 L25.96 249.24 L-0.58 222.06 L-0.76 1.39" stroke="none" stroke-width="0" fill="#eeeeee" fill-rule="evenodd"></path><path d="M-0.96 1.62 C20.94 -2.24, 39.94 -0.95, 57.19 1.37 M-0.51 -0.77 C12.57 -0.1, 23.97 -0.46, 56.99 -1.12 M57.81 0.46 C57.36 46.84, 57.23 90.41, 56.28 222.32 M56.31 -0.5 C56.06 54.62, 56.46 109.87, 55.56 222.14 M58 224.09 C48.93 229.27, 39.2 235.97, 27.63 248.29 M57.15 222.59 C48.25 228.94, 40.26 235.62, 27.88 248.1 M28.76 247.24 C19.18 241.96, 12.61 233.71, 1.38 220.84 M26.38 247.4 C18.32 238.68, 8.92 228.96, 1.44 221.18 M0.11 220.12 C1.24 135.84, 0.56 51.77, -0.28 -0.69 M0.6 222.16 C0.28 164.38, 0.36 107.01, 0.5 0.66 M0 0 C0 0, 0 0, 0 0 M0 0 C0 0, 0 0, 0 0" stroke="#000000" stroke-width="1" fill="none"></path></g></g><g stroke-linecap="round" transform="translate(619.2425930015038 451.2974793897688) rotate(0 23.13619555658954 15.377950340008738)"><path d="M-1.49 -0.68 L45.36 -1.66 L45.42 29.43 L-1.24 30.03" stroke="none" stroke-width="0" fill="#868e96"></path><path d="M1.62 0.41 C9.46 -0.9, 21.99 0.54, 47.86 -1.64 M-0.77 0.17 C10.88 -0.58, 22.01 0.35, 45.37 -0.96 M47.06 -0.34 C48.16 10.25, 45.95 21.12, 45.57 29.73 M45.94 -0.93 C45.7 9.07, 45.47 17.81, 45.36 30.82 M47.44 32.24 C32.21 31.77, 18.31 31.41, 0.61 29.97 M45.93 30.21 C32.03 30.15, 18.71 31.64, 0.42 30.27 M-0.44 29.06 C0.99 22.04, -0.68 17.02, -0.72 0.98 M-0.28 30.96 C0.22 21.48, -0.38 12.66, -0.38 0.82" stroke="#000000" stroke-width="1" fill="none"></path></g><g stroke-linecap="round"><g transform="translate(643.6025697925484 466.3710734821784) rotate(0 -1.2578303853053967 -7.792300455703753)" fill-rule="evenodd"><path d="M-0.68 -0.91 L20.29 -15.38 L-24.42 -15.59 L-0.73 -0.32" stroke="none" stroke-width="0" fill="#ced4da" fill-rule="evenodd"></path><path d="M0.41 -1.69 C7.36 -6.06, 17.21 -9.73, 20.31 -15.58 M0.17 -0.56 C3.88 -3.76, 9.43 -6.86, 20.99 -14.08 M21.61 -12.69 C7.32 -14.67, -6.7 -14.95, -24.13 -14.25 M21.02 -15.25 C5.88 -15.57, -10.52 -15.46, -23.03 -14.54 M-21.61 -15.39 C-16.98 -13.09, -12 -7.23, -0.78 -0.14 M-23.64 -15.05 C-15.03 -9.2, -4.62 -2.77, -0.48 -0.69 M0 0 C0 0, 0 0, 0 0 M0 0 C0 0, 0 0, 0 0" stroke="#000000" stroke-width="1" fill="none"></path></g></g><g stroke-linecap="round"><g transform="translate(717.2766924333696 469.0110372534723) rotate(0 27.69859868377057 -1.8561561876817905)"><path d="M-1.69 -1.13 C14.31 -0.08, 30.85 -2.3, 57.09 -2.86" stroke="#000000" stroke-width="1.5" fill="none" stroke-dasharray="1.5 7"></path></g></g><g stroke-linecap="round" transform="translate(674.5546703730993 451.56382968208663) rotate(0 23.13619555658954 15.377950340008738)"><path d="M-1.66 -0.85 L44.95 -1.24 L45.54 30.44 L-0.8 29.94" stroke="none" stroke-width="0" fill="#868e96"></path><path d="M-1.13 -0.32 C17.94 1.97, 33.62 -0.66, 44.49 -1.03 M-0.81 -0.87 C10.44 -0.65, 19.69 0.71, 46.44 0.54 M45.9 -0.37 C46.1 9.74, 45.19 20.99, 47.27 29.43 M45.95 -0.96 C45.02 7.31, 46.05 16.25, 45.59 31.56 M46.92 28.83 C29.97 31.12, 12.32 30.37, 1.72 32.28 M45.31 30.29 C34.49 30.85, 21.17 29.75, -0.24 31.46 M-1.61 30 C0.75 21.49, 1.24 13.72, -0.36 -1.94 M0.05 30.32 C0.49 22.01, 0.75 13.29, -0.34 -0.45" stroke="#000000" stroke-width="1" fill="none"></path></g><g stroke-linecap="round"><g transform="translate(698.9516753726607 465.56128424436565) rotate(0 -1.2637890686285118 -7.876784800983387)" fill-rule="evenodd"><path d="M-0.85 -1.32 L20.71 -15.26 L-23.42 -15.15 L-0.82 0.9" stroke="none" stroke-width="0" fill="#ced4da" fill-rule="evenodd"></path><path d="M-0.32 0.31 C8.74 -6.17, 13.13 -10.97, 20.92 -16.07 M-0.87 0.11 C6.14 -5.39, 14.45 -8.87, 22.49 -14.13 M21.58 -14.65 C8.49 -15.59, -3.45 -13.52, -24.42 -15.01 M20.99 -15.49 C11.7 -14.57, 3.1 -15.28, -22.29 -13.77 M-25.02 -14.07 C-13.92 -9.84, -6.02 -1.96, 1.53 -0.68 M-23.57 -13.82 C-17.1 -11.09, -12.54 -7.32, 0.7 -0.22 M0 0 C0 0, 0 0, 0 0 M0 0 C0 0, 0 0, 0 0" stroke="#000000" stroke-width="1" fill="none"></path></g></g><g stroke-linecap="round" transform="translate(773.8145459773236 450.4984285128089) rotate(0 23.13619555658954 15.377950340008738)"><path d="M-1.32 -1.24 L45.54 -0.32 L45.47 29.94 L0.9 32.6" stroke="none" stroke-width="0" fill="#868e96"></path><path d="M0.31 1.58 C8.33 -0.98, 18.16 -0.95, 44.74 0.34 M0.11 -0.91 C10.34 0.86, 22.77 0.95, 46.67 -0.17 M46.15 -0.71 C45.19 12.15, 47.21 22.78, 45.62 28.9 M45.31 -0.91 C46.24 6.81, 45.49 14.8, 46.86 31.5 M46.55 31.36 C34.01 30.17, 25.04 31.84, -0.68 29.67 M46.8 31.18 C35.13 29.85, 24.71 31.24, -0.22 29.91 M0.49 30.04 C1.23 20.18, -0.11 7.55, -0.56 0.42 M0.55 30.37 C0.8 20.27, -0.36 10.82, -0.83 -0.43" stroke="#000000" stroke-width="1" fill="none"></path></g><g stroke-linecap="round"><g transform="translate(799.1457631364951 463.8331886431147) rotate(0 -1.3310472818095604 -7.670944929264465)" fill-rule="evenodd"><path d="M-1.24 -0.73 L21.63 -15.33 L-23.91 -13.45 L1.85 -0.69" stroke="none" stroke-width="0" fill="#ced4da" fill-rule="evenodd"></path><path d="M1.58 -1.64 C4.32 -5.36, 9.69 -8.65, 22.29 -15.65 M-0.91 -0.96 C5.38 -3.03, 10.26 -5.98, 21.78 -13.61 M21.24 -15.56 C9.37 -13.51, -4.74 -15.11, -24.95 -15.8 M21.04 -14.47 C9.69 -15.6, -1.39 -14.28, -22.35 -14.87 M-22.49 -15.13 C-15.7 -7.89, -6.35 -5.52, -1.09 -1.39 M-22.68 -14.83 C-19.14 -11.79, -13.04 -8.84, -0.85 0.46 M0 0 C0 0, 0 0, 0 0 M0 0 C0 0, 0 0, 0 0" stroke="#000000" stroke-width="1" fill="none"></path></g></g><g stroke-linecap="round"><g transform="translate(706.8339767726247 518.7745350735836) rotate(269.83845249062614 28.289448364349482 123.73855864046038)" fill-rule="evenodd"><path d="M1.83 -1.99 L56.89 -1.88 L54.89 222.49 L25.57 246.33 L1.75 223.02 L0.06 -1.48" stroke="none" stroke-width="0" fill="#eeeeee" fill-rule="evenodd"></path><path d="M0.28 0.61 C13.32 0.35, 29.94 1.97, 56.2 -1.31 M0.53 0.42 C12.62 -0.47, 25.97 0.87, 56.66 -1.06 M57.3 -0.83 C56.01 77, 54.69 152.45, 55.9 223.28 M57.35 -0.55 C57.52 69.82, 56.37 140.74, 55.67 222.56 M56.07 222.13 C48.62 229.51, 44.5 233.71, 28.75 248.78 M56.97 223.69 C47.21 230.94, 37.67 239.05, 27.09 247.96 M27.55 246.1 C19.16 240.06, 12.01 235.45, 1.4 219.73 M28.03 248.63 C21.72 241.95, 15.42 236.01, 1.23 221.36 M1.33 220.9 C0.39 169.63, -2.42 120.13, 0.52 -0.33 M0.44 222.24 C2.07 154.28, 1.02 87.87, 0.57 0.31 M0 0 C0 0, 0 0, 0 0 M0 0 C0 0, 0 0, 0 0" stroke="#000000" stroke-width="1" fill="none"></path></g></g><g stroke-linecap="round" transform="translate(619.8066035744641 631.0707802408047) rotate(0 23.13619555658954 15.377950340008738)"><path d="M1.56 -1.47 L46.77 -0.76 L47.66 29.81 L-1.63 31.68" stroke="none" stroke-width="0" fill="#868e96"></path><path d="M0.61 -0.78 C15.24 1.66, 32.29 -0.74, 45.18 -1.39 M0.42 -0.48 C8.75 -0.49, 19.58 -0.46, 45.43 0.46 M45.56 0.98 C46.22 6.4, 44.22 12.95, 46.69 31.09 M45.89 0.82 C45.4 9.03, 45.68 17.92, 45.85 30.09 M45.47 29.94 C36.16 32.53, 23.57 32.08, 1.1 31.24 M47.03 30.76 C28.04 30.91, 9.99 30.77, 0.29 30.27 M-1.58 29.47 C-1.14 16.71, 0.82 6.74, -1.83 -1.77 M0.95 30.54 C0.15 22.64, -0.28 16.72, -0.2 -0.69" stroke="#000000" stroke-width="1" fill="none"></path></g><g stroke-linecap="round"><g transform="translate(644.1665803655087 646.1443743332143) rotate(0 -0.49332350883673826 -7.3052442776629505)" fill-rule="evenodd"><path d="M-1.47 0.5 L21.19 -13.14 L-24.04 -15.98 L0.92 0.6" stroke="none" stroke-width="0" fill="#ced4da" fill-rule="evenodd"></path><path d="M-0.78 -0.14 C6.17 -1.5, 8.25 -7.08, 20.56 -16.45 M-0.48 -0.69 C5.23 -3.06, 10.81 -8.29, 22.41 -15.33 M22.93 -14.47 C9.78 -16.58, -2.23 -14.18, -22.76 -14.26 M22.77 -15.27 C10.06 -15.11, -1.98 -15.04, -23.76 -14.97 M-23.91 -13.45 C-15.19 -11.16, -9.55 -5.59, 0.48 1.84 M-23.09 -14.44 C-15.58 -9.85, -8.18 -4.87, -0.49 0.99 M0 0 C0 0, 0 0, 0 0 M0 0 C0 0, 0 0, 0 0" stroke="#000000" stroke-width="1" fill="none"></path></g></g><g stroke-linecap="round"><g transform="translate(717.8407030063299 648.7843381045082) rotate(0 28.038799763615998 -0.14847940276808913)"><path d="M-0.14 1.72 C19.79 -0.79, 35.43 -1.84, 56.22 -2.02" stroke="#000000" stroke-width="1.5" fill="none" stroke-dasharray="1.5 7"></path></g></g><g stroke-linecap="round" transform="translate(675.1186809460596 631.3371305331225) rotate(0 23.13619555658954 15.377950340008738)"><path d="M-0.76 1.39 L45.33 -1.63 L47.2 31.36 L-0.38 30.83" stroke="none" stroke-width="0" fill="#868e96"></path><path d="M1.72 1.53 C14.61 -1.05, 29.18 -1.89, 45.33 1.06 M-0.24 0.7 C15.61 -0.53, 32.11 -0.48, 45.89 0.24 M45.91 -1.94 C45.86 8.54, 46.76 16.35, 45.4 31.85 M45.93 -0.45 C45.69 7.62, 45.86 15.47, 45.91 30.6 M48.12 30.07 C35.63 32.07, 22.68 32.8, 0.53 31.92 M46.16 30.75 C28.61 31, 10.98 31.7, 0.15 30.86 M-1.78 31.62 C0.7 22.13, -1.58 15.84, -1.26 1.36 M-0.93 30.29 C0.4 18.4, -0.63 7.21, -0.74 0.25" stroke="#000000" stroke-width="1" fill="none"></path></g><g stroke-linecap="round"><g transform="translate(699.515685945621 645.3345850954015) rotate(0 -0.3874082418162743 -6.919153254445064)" fill-rule="evenodd"><path d="M1.39 -0.94 L20.32 -13.61 L-22.49 -14.73 L0.07 -1.04" stroke="none" stroke-width="0" fill="#ced4da" fill-rule="evenodd"></path><path d="M1.53 -0.68 C4.65 -5.37, 9.54 -8.71, 23.01 -13.69 M0.7 -0.22 C4.78 -3.15, 10.34 -7.64, 22.19 -14.89 M20.01 -15.09 C6.64 -14.21, -9.4 -15.36, -22 -15.12 M21.49 -15.36 C4.33 -15.28, -13.06 -14.91, -23.26 -14.75 M-23.78 -12.96 C-15.94 -10.36, -9.23 -6.6, 1.17 1.52 M-23.11 -14.61 C-15.88 -10.5, -8.23 -5.54, 0.1 -0.79 M0 0 C0 0, 0 0, 0 0 M0 0 C0 0, 0 0, 0 0" stroke="#000000" stroke-width="1" fill="none"></path></g></g><g stroke-linecap="round" transform="translate(774.378556550284 630.2717293638448) rotate(0 23.13619555658954 15.377950340008738)"><path d="M-0.94 -1.63 L47.2 0.6 L45.89 30.83 L-1.04 32.13" stroke="none" stroke-width="0" fill="#868e96"></path><path d="M-0.68 -1.09 C12.16 -2.27, 26.16 0.71, 47.11 -0.97 M-0.22 -0.85 C11.16 -1.13, 21.03 -0.08, 45.91 0.49 M45.71 0.42 C46.55 9.42, 45.34 19.75, 45.5 32.39 M45.44 -0.43 C45.51 6.32, 45.8 13.72, 45.87 30.35 M47.67 31.86 C30.79 32.44, 14.88 31.76, 1.52 30.77 M46.02 31.04 C32.33 31.74, 19.5 30.85, -0.79 30.11 M0.5 28.93 C-1.5 21.88, -0.99 17.03, 1.91 -0.43 M0.34 30.56 C-0.41 22.44, -0.45 12.82, -0.38 0.69" stroke="#000000" stroke-width="1" fill="none"></path></g><g stroke-linecap="round"><g transform="translate(799.7097737094555 643.6064894941505) rotate(0 -0.5336011268202583 -7.722688239033687)" fill-rule="evenodd"><path d="M-1.63 0.92 L22.55 -14.91 L-23.02 -15.39 L1.38 -1.04" stroke="none" stroke-width="0" fill="#ced4da" fill-rule="evenodd"></path><path d="M-1.09 -1.39 C6.44 -6.48, 17.9 -10.3, 20.98 -15.9 M-0.85 0.46 C5.15 -4.34, 12.26 -8.33, 22.44 -14.5 M22.36 -14.19 C9.34 -15.48, -2.36 -15.32, -21.46 -15.84 M21.52 -15.19 C9.36 -15.22, -2.16 -15.21, -23.51 -13.9 M-21.99 -13.87 C-12.24 -8.35, -3.85 -1.73, 0.02 -0.18 M-22.81 -14.84 C-15.44 -10, -9.66 -6.79, -0.64 -0.55 M0 0 C0 0, 0 0, 0 0 M0 0 C0 0, 0 0, 0 0" stroke="#000000" stroke-width="1" fill="none"></path></g></g><g stroke-linecap="round"><g transform="translate(862 102.61224489795904) rotate(0 -316.2435587811284 90.01918407063931)"><path d="M0.35 0.96 C-0.78 25.55, -0.34 51.98, -1.2 81.44 M-0.72 -0.87 C-1.09 24.64, -0.21 50.43, -0.56 80.57 M0.4 80.75 C-199.63 81.99, -398.76 82.1, -632.28 80.2 M-0.04 80.38 C-131.21 77.46, -262.61 77.52, -632.24 80.03 M-630.12 78.86 C-631.37 112.37, -633.75 144.03, -631.56 178.13 M-632.89 79.2 C-631 111.81, -631.68 144.9, -632.56 180.67 M-632.85 180.06 C-616.15 179.85, -598.96 178.64, -570.59 180.62 M-631.18 180.91 C-615.84 179.13, -601.46 179.81, -571.27 179.86" stroke="#000000" stroke-width="2" fill="none"></path></g><g transform="translate(862 102.61224489795904) rotate(0 -316.2435587811284 90.01918407063931)"><path d="M-599.17 190.93 C-590.75 186.93, -581.37 184.84, -572.47 181.31 M-600.24 189.09 C-591.19 185.95, -581.37 183.22, -571.83 180.44" stroke="#000000" stroke-width="2" fill="none"></path></g><g transform="translate(862 102.61224489795904) rotate(0 -316.2435587811284 90.01918407063931)"><path d="M-599.06 170.41 C-590.81 172.9, -581.47 177.31, -572.47 181.31 M-600.13 168.57 C-591.22 171.93, -581.44 175.69, -571.83 180.44" stroke="#000000" stroke-width="2" fill="none"></path></g></g><g stroke-linecap="round"><g transform="translate(859.8252886291593 282.534854632308) rotate(0 -316.5198859827267 90.8193857758306)"><path d="M0.48 0.85 C1.25 23.33, 0.27 45.95, 0.68 81.53 M0.47 0.08 C-1.01 28.68, -0.74 55.77, -0.39 80.87 M-0.05 80.79 C-191.79 81.04, -384.42 81.56, -632.59 79.58 M-0.34 79.94 C-244.61 79.22, -489.43 79.12, -632.08 80.35 M-633.83 79.49 C-632.73 114.56, -631.21 153.99, -630.26 181.56 M-632.58 79.72 C-632.39 117.66, -631.72 153.95, -632.76 180.39 M-633 181.07 C-613.14 181.58, -591.46 180.05, -568.99 179.68 M-631.35 180.95 C-607.24 178.65, -581.37 178.84, -569.01 180.26" stroke="#000000" stroke-width="2" fill="none"></path></g><g transform="translate(859.8252886291593 282.534854632308) rotate(0 -316.5198859827267 90.8193857758306)"><path d="M-597.31 189.56 C-589.1 187.85, -582.15 186.12, -568.33 181.79 M-597.33 188.79 C-588 186.59, -577.71 182.9, -569.4 181.13" stroke="#000000" stroke-width="2" fill="none"></path></g><g transform="translate(859.8252886291593 282.534854632308) rotate(0 -316.5198859827267 90.8193857758306)"><path d="M-596.01 169.08 C-588.05 173, -581.45 176.9, -568.33 181.79 M-596.03 168.31 C-587.33 173.24, -577.5 176.68, -569.4 181.13" stroke="#000000" stroke-width="2" fill="none"></path></g></g><g stroke-linecap="round"><g transform="translate(859.9623774766426 462.67489867235463) rotate(0 -316.1276724412928 90.3459518039599)"><path d="M1.46 -0.06 C0.11 18.27, 2.11 33.69, 1.63 81.85 M0.37 0.51 C0.51 19.63, 0.84 40.48, 0.5 80.65 M0.39 79.8 C-151.27 81.6, -301.98 81.43, -632.38 79.86 M-0.3 80.08 C-146.88 81.95, -293.14 81.97, -632.15 80.03 M-630 81.57 C-631 106.71, -634.08 135.67, -633.96 178.86 M-632.2 80.38 C-633 105.42, -632.25 129.25, -632.95 179.09 M-632.68 178.85 C-615.39 180.86, -597 178.71, -569.75 180.75 M-631.66 179.74 C-614.18 180.99, -597.51 180.9, -570.29 179.79" stroke="#000000" stroke-width="2" fill="none"></path></g><g transform="translate(859.9623774766426 462.67489867235463) rotate(0 -316.1276724412928 90.3459518039599)"><path d="M-596.68 190.9 C-592.84 190.7, -585.12 187.4, -568.66 181.64 M-597.77 191.47 C-590.51 187.43, -583.04 184.88, -569.79 180.44" stroke="#000000" stroke-width="2" fill="none"></path></g><g transform="translate(859.9623774766426 462.67489867235463) rotate(0 -316.1276724412928 90.3459518039599)"><path d="M-597.35 170.39 C-593.25 174.41, -585.39 175.32, -568.66 181.64 M-598.44 170.96 C-591 172.19, -583.36 174.9, -569.79 180.44" stroke="#000000" stroke-width="2" fill="none"></path></g></g><g stroke-linecap="round"><g transform="translate(510 282.61224489795904) rotate(0 50.69801897695288 -0.5312906415645102)"><path d="M0.56 0.16 C21.3 0.27, 40.63 -0.98, 101.86 -1.62 M-0.46 -0.23 C39.43 0.06, 80.46 0.61, 100.35 0.56" stroke="#000000" stroke-width="2" fill="none"></path></g><g transform="translate(510 282.61224489795904) rotate(0 50.69801897695288 -0.5312906415645102)"><path d="M72.67 10.87 C79.11 9.08, 84.09 5.8, 102.2 -1.07 M71.65 10.48 C83.06 6.48, 95.57 2.99, 100.69 1.12" stroke="#000000" stroke-width="2" fill="none"></path></g><g transform="translate(510 282.61224489795904) rotate(0 50.69801897695288 -0.5312906415645102)"><path d="M72.76 -9.65 C79.07 -7.33, 84.03 -6.51, 102.2 -1.07 M71.74 -10.04 C83.02 -5.88, 95.5 -1.21, 100.69 1.12" stroke="#000000" stroke-width="2" fill="none"></path></g></g><g stroke-linecap="round"><g transform="translate(510.4544133422896 464.0396655976731) rotate(0 49.41945454198867 -0.36661666618954314)"><path d="M0.51 0.69 C27.93 -2.26, 51.67 -1.61, 98.39 -0.44 M-0.45 -0.99 C36.37 0.38, 73.31 0.51, 99.29 -0.03" stroke="#000000" stroke-width="2" fill="none"></path></g><g transform="translate(510.4544133422896 464.0396655976731) rotate(0 49.41945454198867 -0.36661666618954314)"><path d="M71.73 11.24 C79.9 6.14, 84.35 3.95, 97.68 -0.47 M70.77 9.56 C80.86 6.39, 91.13 2.61, 98.59 -0.07" stroke="#000000" stroke-width="2" fill="none"></path></g><g transform="translate(510.4544133422896 464.0396655976731) rotate(0 49.41945454198867 -0.36661666618954314)"><path d="M71.5 -9.28 C79.67 -8.88, 84.18 -5.56, 97.68 -0.47 M70.53 -10.96 C80.81 -6.51, 91.17 -2.69, 98.59 -0.07" stroke="#000000" stroke-width="2" fill="none"></path></g></g><g stroke-linecap="round"><g transform="translate(510 642.612244897959) rotate(0 49.58453250816092 -0.51180725709537)"><path d="M-1.69 -0.91 C25.84 -1.92, 54.69 -2.21, 99.34 -1.41 M-0.56 -0.37 C29.46 -0.23, 58.69 0.8, 100.85 0.85" stroke="#000000" stroke-width="2" fill="none"></path></g><g transform="translate(510 642.612244897959) rotate(0 49.58453250816092 -0.51180725709537)"><path d="M70.9 9.99 C78.41 6.53, 87.31 3.45, 100.2 -0.57 M72.03 10.53 C80.84 7.3, 88.78 5.35, 101.71 1.69" stroke="#000000" stroke-width="2" fill="none"></path></g><g transform="translate(510 642.612244897959) rotate(0 49.58453250816092 -0.51180725709537)"><path d="M71.06 -10.53 C78.66 -8.28, 87.52 -5.66, 100.2 -0.57 M72.18 -9.99 C80.8 -7.13, 88.69 -3, 101.71 1.69" stroke="#000000" stroke-width="2" fill="none"></path></g></g></svg>