<svg version="1.1" xmlns="http://www.w3.org/2000/svg" viewBox="0 0 1060 860" width="3180" height="2580">
  <!-- svg-source:excalidraw -->
  
  <defs>
    <style>
      @font-face {
        font-family: "Virgil";
        src: url("https://excalidraw.com/Virgil.woff2");
      }
      @font-face {
        font-family: "Cascadia";
        src: url("https://excalidraw.com/Cascadia.woff2");
      }
    </style>
  </defs>
  <g stroke-linecap="round" transform="translate(10 10) rotate(0 520 80)"><path d="M1.67 -0.12 L1038.11 0.26 L1038.62 160.94 L-1.1 159.68" stroke="none" stroke-width="0" fill="#ffd77a"></path><path d="M0.34 0.1 C327 2.45, 655.02 1.98, 1040.71 0.02 M0.18 0.39 C387.13 -2.16, 773.53 -1.74, 1040.04 -0.35 M1038.84 -1.35 C1040.24 36.26, 1041.71 77.38, 1039.23 161.1 M1039.09 0.95 C1040.36 58.22, 1039.54 114.26, 1039.57 159.73 M1040.7 160.79 C707.18 157.78, 373.5 156.7, 0.11 160.15 M1039.79 159.63 C643.2 160.29, 246.39 160.55, -0.32 160.21 M-0.58 158.14 C-0.02 123.7, -0.13 89.94, 0.7 -1.8 M0.36 159.69 C1.42 99.31, 1.86 38.38, -0.78 0.98" stroke="#000000" stroke-width="2" fill="none"></path></g><g transform="translate(489 15) rotate(0 41 23)"><text x="41" y="32" font-family="Virgil, Segoe UI Emoji" font-size="36px" fill="#000000" text-anchor="middle" style="white-space: pre;" direction="ltr">User</text></g><g stroke-linecap="round" transform="translate(10 290) rotate(0 220 280)"><path d="M-0.68 0.08 L439.26 0.98 L441.59 558.13 L1.03 560.35" stroke="none" stroke-width="0" fill="#56c77f"></path><path d="M0.82 -0.38 C141.84 -0.53, 282.9 -1.86, 440.88 0.09 M-0.15 0.22 C94.89 1.43, 189.43 1.76, 439.86 0.26 M440.18 0.11 C442.72 150.15, 442.08 298.62, 440.51 560.79 M439.83 0.1 C439.1 163.87, 439.48 328.35, 439.75 559.63 M440.5 559.72 C323.81 561.91, 206.95 561.13, 0.08 560.16 M439.67 559.88 C339.52 558.35, 238.71 558.9, -0.29 560.11 M0.56 560.72 C-1.11 368.63, -0.97 176.84, -0.15 -0.26 M-0.35 560.02 C-2.04 423.52, -2.13 287.84, 0.28 -0.21" stroke="#000000" stroke-width="2" fill="none"></path></g><g transform="translate(150 295) rotate(0 80 23)"><text x="80" y="32" font-family="Virgil, Segoe UI Emoji" font-size="36px" fill="#000000" text-anchor="middle" style="white-space: pre;" direction="ltr">Temporal</text></g><g stroke-linecap="round" transform="translate(610 290) rotate(0 220 280)"><path d="M-1.31 -1.77 L438.11 1.94 L438.77 561.5 L0.85 561.53" stroke="none" stroke-width="0" fill="#23b5d3"></path><path d="M0.75 -0.28 C139.91 0.42, 279.78 -0.01, 440.23 0.14 M-0.41 0.32 C159.89 0.36, 318.59 0.68, 439.79 0.12 M440.41 -0.5 C438.15 164.02, 438.49 329.3, 440.4 559.78 M439.69 0.03 C440.09 171.86, 439.82 344.07, 439.74 559.9 M440.25 559.42 C309.5 558.83, 179.27 559.15, 0.7 560.9 M439.79 559.91 C283.97 561.3, 128.76 561.61, -0.44 560.02 M0.65 560.56 C0.91 371, 1.36 182.25, 0.39 0.64 M-0.04 559.71 C-1.38 444.65, -1.35 328.28, 0.04 0.12" stroke="#000000" stroke-width="2" fill="none"></path></g><g transform="translate(771.5 295) rotate(0 58.5 23)"><text x="58.5" y="32" font-family="Virgil, Segoe UI Emoji" font-size="36px" fill="#000000" text-anchor="middle" style="white-space: pre;" direction="ltr">Worker</text></g><g stroke-linecap="round"><g transform="translate(609 450) rotate(0 -79.21553987823427 -0.4892302179557646)"><path d="M0.56 -1.46 C-62.3 -2.66, -122.66 -1.33, -158.99 0.81 M-0.13 0.82 C-47.43 -0.18, -94 -1.32, -158.91 0.93" stroke="#000000" stroke-width="2" fill="none"></path></g><g transform="translate(609 450) rotate(0 -79.21553987823427 -0.4892302179557646)"><path d="M-130.39 -11.42 C-142.56 -7.19, -152.19 -1.62, -159.9 1.75 M-131.08 -9.13 C-140.2 -6.02, -148.49 -3.96, -159.82 1.87" stroke="#000000" stroke-width="2" fill="none"></path></g><g transform="translate(609 450) rotate(0 -79.21553987823427 -0.4892302179557646)"><path d="M-129.93 9.1 C-142.21 5.31, -152.01 2.89, -159.9 1.75 M-130.62 11.38 C-139.68 8.45, -148.11 4.48, -159.82 1.87" stroke="#000000" stroke-width="2" fill="none"></path></g></g><g stroke-linecap="round"><g transform="translate(609 770) rotate(0 -79.68912508198991 0.16618917003074785)"><path d="M-1.82 1.85 C-38.32 0.87, -74.56 3.17, -158.68 -0.28 M-0.7 0.76 C-63.09 -2.14, -125.39 -1.95, -157.54 -0.44" stroke="#000000" stroke-width="2" fill="none"></path></g><g transform="translate(609 770) rotate(0 -79.68912508198991 0.16618917003074785)"><path d="M-131.45 -9.59 C-138.01 -9.11, -144.31 -4.28, -158.22 -0.72 M-130.32 -10.68 C-140.91 -8.04, -151.36 -3.47, -157.07 -0.88" stroke="#000000" stroke-width="2" fill="none"></path></g><g transform="translate(609 770) rotate(0 -79.68912508198991 0.16618917003074785)"><path d="M-130.91 10.92 C-137.57 6.68, -143.99 6.8, -158.22 -0.72 M-129.78 9.84 C-140.5 4.3, -151.17 0.69, -157.07 -0.88" stroke="#000000" stroke-width="2" fill="none"></path></g></g><g stroke-linecap="round"><g transform="translate(930 171) rotate(0 -0.592461908236146 59.72904652217403)"><path d="M-1.47 1.11 C-0.19 28.12, 0.02 52.91, 0.28 119.43 M-0.28 0.03 C-1.18 35.12, -1.59 69.91, -0.32 118.7" stroke="#000000" stroke-width="2" fill="none"></path></g><g transform="translate(930 171) rotate(0 -0.592461908236146 59.72904652217403)"><path d="M-12.55 91.81 C-9.48 98.09, -6.79 102.14, -0.04 120.13 M-11.37 90.72 C-8.42 98.98, -5.64 107.03, -0.65 119.4" stroke="#000000" stroke-width="2" fill="none"></path></g><g transform="translate(930 171) rotate(0 -0.592461908236146 59.72904652217403)"><path d="M7.97 91.44 C6.31 97.78, 4.27 101.92, -0.04 120.13 M9.15 90.36 C6 98.92, 2.69 107.08, -0.65 119.4" stroke="#000000" stroke-width="2" fill="none"></path></g></g><g stroke-linecap="round"><g transform="translate(710 171) rotate(0 0.7249999400228262 59.47210484184325)"><path d="M0.05 -0.67 C1.26 25.44, 0.72 53.22, 1.4 119.61 M0.56 -0.48 C0.35 46.76, 0.15 91.57, 0.08 118.65" stroke="#000000" stroke-width="2" fill="none"></path></g><g transform="translate(710 171) rotate(0 0.7249999400228262 59.47210484184325)"><path d="M-10.04 89.76 C-7.37 95.41, -5.58 102.7, 1.48 120.26 M-9.53 89.95 C-5.57 102.1, -1.79 111.83, 0.16 119.31" stroke="#000000" stroke-width="2" fill="none"></path></g><g transform="translate(710 171) rotate(0 0.7249999400228262 59.47210484184325)"><path d="M10.48 89.83 C8.47 95.4, 5.57 102.67, 1.48 120.26 M10.99 90.02 C6.94 102.16, 2.69 111.87, 0.16 119.31" stroke="#000000" stroke-width="2" fill="none"></path></g></g><g stroke-linecap="round"><g transform="translate(230 170) rotate(0 0.1743816491216421 60.59557175496593)"><path d="M-0.96 1.23 C1.46 34.08, -1.14 66.66, 1.31 121.92 M0.49 -0.73 C0.63 44.77, 0.3 87.56, -0.09 120.79" stroke="#000000" stroke-width="2" fill="none"></path></g><g transform="translate(230 170) rotate(0 0.1743816491216421 60.59557175496593)"><path d="M-11.02 93.73 C-5.96 101.11, -5.79 108.28, 1.21 122.71 M-9.57 91.77 C-5.99 103.67, -2.66 112.82, -0.18 121.58" stroke="#000000" stroke-width="2" fill="none"></path></g><g transform="translate(230 170) rotate(0 0.1743816491216421 60.59557175496593)"><path d="M9.5 93.94 C8.87 101.38, 3.35 108.49, 1.21 122.71 M10.95 91.97 C7 103.7, 2.8 112.78, -0.18 121.58" stroke="#000000" stroke-width="2" fill="none"></path></g></g><g stroke-linecap="round"><g transform="translate(202.2575893284079 403.4920144798566) rotate(269.83845249062614 27.25182997636125 118.73486125806653)" fill-rule="evenodd"><path d="M0.74 1.57 L55.7 0.41 L55.06 214.65 L28.16 238.66 L2.27 213.88 L1.77 0.28" stroke="none" stroke-width="0" fill="#eeeeee" fill-rule="evenodd"></path><path d="M-1.71 -0.86 C11.94 1.89, 27.58 -1.9, 55.53 1.79 M0.02 0.84 C13.17 0.73, 25.73 -0.3, 54.66 -0.59 M56.21 0.38 C55.19 60.5, 55.65 117.45, 53.66 213.26 M55.16 0 C53.75 49.63, 53.73 98.88, 54.96 214.69 M55.32 212.44 C45.74 220.28, 40.72 227.79, 27.06 238.33 M54.08 213 C47.18 219.12, 41.44 224.25, 25.57 236.92 M24.94 238.18 C19.45 229.44, 8.2 221.94, 0.66 211 M26.55 236.87 C17.22 227.53, 6.93 218.12, 0.88 212.12 M2.46 211.23 C1.75 145.72, 1.85 78.79, -0.92 1.34 M0.52 212.81 C-0.26 133.61, -1.47 54.99, 0.71 -0.15 M0 0 C0 0, 0 0, 0 0 M0 0 C0 0, 0 0, 0 0" stroke="#000000" stroke-width="1" fill="none"></path></g></g><g stroke-linecap="round" transform="translate(118.77369182171606 511.2159164822765) rotate(0 22.194163830994967 14.751809492457824)"><path d="M-1.77 -1.51 L46.22 -1.49 L43.84 30.37 L-0.12 31.1" stroke="none" stroke-width="0" fill="#868e96"></path><path d="M-0.86 -1.29 C14.68 1.49, 23.64 1.35, 46.38 -1.13 M0.84 -0.11 C12.04 -0.84, 22.22 0.09, 44 -0.24 M45.07 -0.75 C46.05 11, 43.53 21.66, 43.72 28.16 M44.62 0.21 C44.57 7.77, 43.95 15.91, 45.35 29.09 M42.98 28.32 C30.59 30.78, 17.7 30.6, 0.73 27.81 M43.54 28.69 C33.08 28.95, 21.67 28.83, -0.68 29.8 M0.58 31.02 C-0.05 19.99, 0.71 13.03, -1.54 1.77 M-0.72 30.3 C0.22 21.69, 0.55 13.17, -0.42 0.18" stroke="#000000" stroke-width="1" fill="none"></path></g><g stroke-linecap="round"><g transform="translate(142.14180843783333 525.675762137997) rotate(0 -1.1211125041220384 -6.461608517750847)" fill-rule="evenodd"><path d="M-1.51 1.83 L19.56 -14.49 L-21.29 -13.89 L1.59 -1.04" stroke="none" stroke-width="0" fill="#ced4da" fill-rule="evenodd"></path><path d="M-1.29 1.99 C7.73 -5.96, 14.08 -6.51, 19.92 -14.91 M-0.11 0.88 C5.84 -4.7, 13.45 -9.4, 20.82 -13.18 M20.3 -12.18 C9.42 -14.51, -2.55 -14.37, -23.5 -14.71 M21.26 -13.88 C6.47 -14.35, -7.75 -12.76, -22.57 -13.56 M-23.34 -13.32 C-15.72 -8.49, -10.56 -6.24, -1.69 -0.85 M-22.96 -13.65 C-15.72 -9.11, -8.85 -5.57, 0.3 -0.24 M0 0 C0 0, 0 0, 0 0 M0 0 C0 0, 0 0, 0 0" stroke="#000000" stroke-width="1" fill="none"></path></g></g><g stroke-linecap="round"><g transform="translate(212.81615694927132 528.2082350462883) rotate(0 28.394601964050707 0.173209463089961)"><path d="M1.99 1.11 C10.21 1.11, 25.93 -1.21, 54.8 -0.69" stroke="#000000" stroke-width="1.5" fill="none" stroke-dasharray="1.5 7"></path></g></g><g stroke-linecap="round" transform="translate(171.8336386922033 511.47142184441236) rotate(0 22.194163830994967 14.751809492457824)"><path d="M-1.49 -0.55 L45.25 -0.12 L45.98 28.46 L1.52 30.91" stroke="none" stroke-width="0" fill="#868e96"></path><path d="M1.11 -1.76 C12.38 1.56, 21.7 -1.41, 44.73 0.03 M-0.84 -0.1 C17.16 -0.77, 33.88 0.36, 44.06 0.94 M44.31 -0.77 C43.78 9.18, 42.93 18.76, 45.28 30.88 M44.7 -0.57 C45.44 10.5, 44.04 19.29, 43.8 30.12 M45.39 31.31 C35.01 30.33, 22.3 28.75, 0.31 29.48 M43.84 29.63 C34.16 28.88, 25.56 29.31, 0.28 28.85 M-1.37 30.29 C-0.42 18.26, 1.55 9.63, -1.99 0.63 M0.37 29.76 C-0.21 22.35, -0.05 15.17, -0.75 0.91" stroke="#000000" stroke-width="1" fill="none"></path></g><g stroke-linecap="round"><g transform="translate(195.2372758468714 524.8989449223645) rotate(0 -0.013795882077147326 -6.820933279477686)" fill-rule="evenodd"><path d="M-0.55 0.86 L20.93 -12.34 L-23.2 -12.24 L1.41 1.43" stroke="none" stroke-width="0" fill="#ced4da" fill-rule="evenodd"></path><path d="M-1.76 0.97 C6.81 -4.53, 8.8 -6.33, 21.09 -12.25 M-0.1 0.09 C5.58 -4.09, 12.8 -8.21, 22 -13.6 M20.29 -14.43 C9.06 -15.26, -2.55 -12.97, -20.78 -13.3 M20.49 -12.95 C8.16 -14.16, -6.45 -14.28, -21.54 -14.47 M-20.35 -12.94 C-16.06 -12.26, -12.31 -6.94, -0.02 -1.69 M-22.02 -14.44 C-17.96 -10.33, -12.67 -7.33, -0.65 0.29 M0 0 C0 0, 0 0, 0 0 M0 0 C0 0, 0 0, 0 0" stroke="#000000" stroke-width="1" fill="none"></path></g></g><g stroke-linecap="round" transform="translate(267.0519703153077 510.4494003958621) rotate(0 22.194163830994967 14.751809492457824)"><path d="M0.86 -0.12 L45.98 -1.04 L45.91 30.91 L1.43 30.16" stroke="none" stroke-width="0" fill="#868e96"></path><path d="M0.97 2 C16.59 -0.58, 35.79 0.42, 46.08 -0.22 M0.09 -0.38 C16.98 0.8, 34.11 0.99, 44.73 -0.38 M43.9 -0.67 C43.03 10.5, 45.27 24.27, 44.86 29.92 M45.38 0.96 C44.07 9.22, 43.89 18.63, 43.69 28.91 M45.21 30.24 C28.39 29.05, 16.08 29.88, -1.69 27.89 M43.72 28.83 C30.85 29.32, 17 28.91, 0.29 30.26 M-0.19 27.96 C1.98 20.15, -1.79 12.35, -1.44 1.59 M0.03 29.08 C0.07 19.99, -0.86 13.15, -0.75 -0.28" stroke="#000000" stroke-width="1" fill="none"></path></g><g stroke-linecap="round"><g transform="translate(291.3517815048367 523.2412118350053) rotate(0 -0.40783977469914134 -7.613454433718289)" fill-rule="evenodd"><path d="M-0.12 1.59 L20.01 -12.41 L-20.75 -12.34 L0.65 -0.76" stroke="none" stroke-width="0" fill="#ced4da" fill-rule="evenodd"></path><path d="M2 -1.13 C6.64 -4.72, 15.13 -8.33, 20.84 -12.18 M-0.38 -0.24 C5.33 -3.36, 10.07 -5.71, 20.68 -13.06 M20.39 -15.29 C7.31 -13.1, -3.16 -13.47, -21.74 -13.66 M22.02 -14.35 C6.96 -14.04, -6.93 -14.1, -22.75 -13.54 M-21.42 -15.46 C-15.13 -8.73, -6.54 -5.91, -1.62 0.23 M-22.83 -13.47 C-16.95 -9.97, -11.94 -6.59, 0.76 0.01 M0 0 C0 0, 0 0, 0 0 M0 0 C0 0, 0 0, 0 0" stroke="#000000" stroke-width="1" fill="none"></path></g></g><g transform="translate(119.57636968158931 549.4004314024128) rotate(0 109 21.5)"><text x="109" y="30" font-family="Virgil, Segoe UI Emoji" font-size="33.33535622359805px" fill="#000000" text-anchor="middle" style="white-space: pre;" direction="ltr">Task Queues</text></g><g stroke-linecap="round"><g transform="translate(179.92514834412532 620.1820176477331) rotate(0 50.22060447891795 55.03267206622809)" fill-rule="evenodd"><path d="M1.61 1.45 L-0.31 108.8 L0.36 112.09 L11.21 115.22 L23.63 119.75 L52.26 117.47 L81 115.67 L91.24 116.68 L101.22 110.48 L100.73 -3.08 L98.69 -1.1 L98.36 -4.19 L86.24 -7.83 L50.36 -11.29 L23.43 -8.14 L14.16 -6.28 L3.65 -3.96 L0.49 1.5" stroke="none" stroke-width="0" fill="#ced4da" fill-rule="evenodd"></path><path d="M0.87 0.65 C0.57 16.87, -0.49 78.99, -0.63 97.08 C-0.78 115.16, -1.01 106.55, -0.01 109.15 C0.99 111.76, 1.65 111.17, 5.36 112.7 C9.08 114.24, 14.41 117.11, 22.28 118.36 C30.15 119.6, 42.72 120.5, 52.6 120.18 C62.49 119.86, 74.12 117.79, 81.59 116.43 C89.05 115.07, 94.18 113.39, 97.38 112.02 C100.57 110.65, 100.15 110.52, 100.78 108.22 C101.41 105.91, 101.47 114.71, 101.16 98.19 C100.85 81.67, 99.25 25.62, 98.91 9.08 C98.56 -7.47, 100.01 1.16, 99.07 -1.07 C98.14 -3.31, 96.56 -3.05, 93.3 -4.34 C90.04 -5.63, 86.79 -7.98, 79.52 -8.8 C72.25 -9.61, 59.14 -9.33, 49.67 -9.21 C40.19 -9.08, 30.22 -9.09, 22.66 -8.06 C15.09 -7.02, 7.98 -4.27, 4.28 -2.99 C0.59 -1.71, 1.34 -0.91, 0.49 -0.36 C-0.37 0.19, -0.64 0.3, -0.83 0.3 M-0.14 -0.05 C-0.17 16.32, 1.68 79.79, 1.57 98.22 C1.46 116.66, -1.49 108.07, -0.8 110.57 C-0.11 113.08, 1.58 111.84, 5.72 113.25 C9.85 114.65, 16.06 117.94, 24.04 119.02 C32.02 120.09, 43.96 119.81, 53.59 119.7 C63.22 119.6, 74.73 119.75, 81.82 118.39 C88.91 117.04, 93.2 113.48, 96.15 111.56 C99.11 109.64, 99.12 108.64, 99.55 106.86 C99.99 105.08, 98.9 117.54, 98.75 100.87 C98.6 84.2, 98.26 23.98, 98.66 6.86 C99.05 -10.26, 101.95 0.07, 101.12 -1.86 C100.29 -3.78, 97.39 -3.46, 93.68 -4.72 C89.97 -5.98, 86.64 -8.67, 78.85 -9.42 C71.06 -10.16, 56.21 -9.08, 46.92 -9.18 C37.63 -9.28, 30.42 -10.66, 23.11 -10.01 C15.79 -9.36, 6.96 -6.92, 3.03 -5.27 C-0.91 -3.63, -0.18 -1.16, -0.52 -0.16 C-0.85 0.84, 1 0.47, 1.01 0.72" stroke="#000000" stroke-width="1" fill="none"></path></g></g><g stroke-linecap="round"><g transform="translate(180.60668257277575 694.4926305358367) rotate(0 49.847606556378196 4.9191661833144735)"><path d="M0.65 -0.96 C1 -0.37, -0.37 2.86, 1.9 4.41 C4.17 5.96, 9.87 7.5, 14.24 8.36 C18.62 9.23, 21.61 9.36, 28.16 9.6 C34.7 9.85, 44.57 10.02, 53.52 9.82 C62.46 9.62, 74.69 9.45, 81.82 8.41 C88.95 7.37, 93.24 4.93, 96.3 3.59 C99.35 2.24, 99.47 0.87, 100.16 0.34 M-0.47 1.15 C0.29 1.86, 1.88 4.49, 4.22 5.93 C6.56 7.37, 9.64 9.06, 13.58 9.79 C17.52 10.51, 21.39 10.28, 27.84 10.28 C34.3 10.28, 43.6 9.73, 52.31 9.79 C61.03 9.85, 72.76 11.3, 80.13 10.62 C87.51 9.94, 93.44 7.4, 96.59 5.7 C99.74 4.01, 98.65 1.48, 99.02 0.45" stroke="#000000" stroke-width="1" fill="none"></path></g></g><g stroke-linecap="round"><g transform="translate(179.26442914512882 656.8158105875796) rotate(0 50.13895796200268 5.5405607808424975)"><path d="M-0.96 -0.74 C-0.67 -0.08, 0.08 3.33, 2.62 4.63 C5.15 5.94, 9.95 6.05, 14.25 7.1 C18.55 8.15, 22.08 10.17, 28.41 10.93 C34.74 11.7, 43.61 12.1, 52.2 11.7 C60.79 11.3, 72.57 9.86, 79.97 8.53 C87.37 7.2, 93.03 5.24, 96.58 3.74 C100.12 2.24, 100.45 0.42, 101.24 -0.46 M0.73 1.48 C0.79 1.7, -0.49 1.55, 1.65 2.61 C3.79 3.67, 9.16 6.85, 13.59 7.85 C18.02 8.86, 21.5 8.46, 28.23 8.65 C34.96 8.83, 45.18 8.63, 53.97 8.99 C62.76 9.35, 73.8 11.92, 80.97 10.8 C88.15 9.68, 93.74 4.2, 97.02 2.28 C100.31 0.35, 100.15 -0.43, 100.66 -0.77" stroke="#000000" stroke-width="1" fill="none"></path></g></g><g stroke-linecap="round" transform="translate(177.88823534729863 610.904269841968) rotate(0 49.81953562188937 10.075626271770943)"><path d="M36.26 0.76 C44.98 0.25, 58.78 0.22, 67.9 0.86 C77.02 1.5, 85.68 2.89, 91 4.62 C96.32 6.35, 100.17 9.3, 99.84 11.25 C99.5 13.2, 95.22 14.99, 89 16.32 C82.77 17.64, 71.8 18.66, 62.48 19.21 C53.15 19.75, 42.06 20.03, 33.05 19.57 C24.04 19.11, 13.99 18.08, 8.41 16.44 C2.83 14.8, -0.91 11.76, -0.42 9.75 C0.06 7.74, 4.89 5.89, 11.32 4.4 C17.75 2.92, 33 1.39, 38.16 0.84 C43.32 0.29, 42.04 1.1, 42.28 1.12 M35.01 0.77 C43.28 -0.17, 54.51 -1.21, 63.95 -0.78 C73.39 -0.35, 85.94 1.66, 91.66 3.36 C97.37 5.06, 98.28 7.4, 98.26 9.44 C98.23 11.49, 97.21 14.17, 91.5 15.63 C85.79 17.1, 73.71 17.77, 64.01 18.23 C54.31 18.69, 42.46 18.93, 33.28 18.4 C24.1 17.87, 14.54 16.33, 8.93 15.03 C3.31 13.74, -0.62 12.63, -0.42 10.65 C-0.22 8.67, 4.44 4.96, 10.15 3.18 C15.86 1.4, 29.54 0.43, 33.85 -0.02 C38.16 -0.47, 35.41 0.33, 36 0.5" stroke="none" stroke-width="0" fill="#fff"></path><path d="M53.15 0.46 C62.31 0.77, 74.17 2.2, 81.59 3.32 C89 4.44, 95.32 5.45, 97.64 7.19 C99.95 8.93, 99.02 11.84, 95.49 13.76 C91.96 15.68, 84.62 17.8, 76.47 18.72 C68.32 19.64, 56.58 19.32, 46.58 19.28 C36.58 19.23, 24.07 19.69, 16.48 18.45 C8.89 17.21, 3.11 13.76, 1.04 11.84 C-1.03 9.92, 0.26 8.75, 4.07 6.91 C7.89 5.07, 14.71 1.76, 23.94 0.79 C33.16 -0.18, 53.12 1, 59.45 1.08 C65.78 1.16, 62.23 1.11, 61.92 1.28 M61.32 -0.53 C70.49 0.13, 80.36 3.05, 86.9 4.66 C93.43 6.27, 99.56 7.52, 100.53 9.15 C101.49 10.78, 97.84 12.9, 92.68 14.43 C87.52 15.96, 78.68 17.35, 69.58 18.33 C60.49 19.31, 47.41 20.71, 38.1 20.3 C28.78 19.88, 20.23 17.56, 13.71 15.84 C7.19 14.11, 0.25 11.84, -1.03 9.95 C-2.31 8.07, 0.56 5.87, 6.01 4.53 C11.46 3.18, 22.53 2.52, 31.68 1.88 C40.84 1.25, 56.31 1.05, 60.95 0.72 C65.59 0.39, 59.79 -0.37, 59.52 -0.12" stroke="#000000" stroke-width="1" fill="none"></path></g><g stroke-linecap="round" transform="translate(225.35748686628722 642.743837555664) rotate(0 7.301530506771769 7.924395762247514)"><path d="M9.12 1.33 C10.56 1.86, 12.1 2.24, 13.07 3.66 C14.03 5.08, 15.03 8.2, 14.91 9.85 C14.78 11.51, 13.55 12.53, 12.33 13.57 C11.1 14.61, 9.03 15.98, 7.56 16.09 C6.08 16.2, 4.71 15.46, 3.47 14.23 C2.23 13.01, 0.64 10.31, 0.12 8.73 C-0.4 7.14, -0.43 6.06, 0.33 4.71 C1.1 3.36, 2.94 1.37, 4.73 0.63 C6.52 -0.12, 10.04 0.05, 11.07 0.22 C12.09 0.4, 10.97 1.58, 10.89 1.68 M9 -0.11 C10.04 0.18, 11.54 2.73, 12.48 4.3 C13.43 5.88, 14.67 7.98, 14.69 9.31 C14.7 10.65, 13.96 10.97, 12.58 12.3 C11.2 13.62, 8.16 17.18, 6.42 17.28 C4.67 17.37, 3.25 13.9, 2.1 12.88 C0.95 11.87, -0.19 12.79, -0.47 11.19 C-0.76 9.59, -0.18 5.21, 0.4 3.28 C0.98 1.36, 1.71 0.21, 3 -0.36 C4.3 -0.93, 7.27 -0.23, 8.17 -0.15 C9.08 -0.08, 8.17 -0.23, 8.44 0.07" stroke="none" stroke-width="0" fill="#868e96"></path><path d="M8.33 -0.64 C10.12 -0.6, 12.39 0.39, 13.33 1.65 C14.28 2.9, 14.06 4.97, 14.02 6.89 C13.99 8.8, 13.91 11.58, 13.11 13.15 C12.32 14.73, 10.88 16.17, 9.27 16.34 C7.65 16.52, 4.71 15.11, 3.41 14.22 C2.1 13.33, 2.04 12.34, 1.42 10.99 C0.8 9.65, -0.72 7.73, -0.33 6.15 C0.07 4.57, 2.35 2.34, 3.8 1.51 C5.24 0.68, 7.15 1.43, 8.34 1.15 C9.54 0.87, 10.76 -0.15, 10.97 -0.18 M9.76 1.34 C10.87 2.01, 12.37 2.87, 13.32 4.57 C14.26 6.27, 15.8 9.83, 15.43 11.53 C15.06 13.24, 12.75 14.06, 11.08 14.8 C9.41 15.54, 7.1 16.35, 5.39 15.97 C3.68 15.6, 1.64 13.63, 0.81 12.56 C-0.02 11.49, 0.42 11.35, 0.4 9.55 C0.39 7.75, 0 3.5, 0.73 1.75 C1.47 0.01, 3.22 -1.01, 4.84 -0.9 C6.45 -0.8, 9.26 2.04, 10.42 2.38 C11.58 2.72, 11.72 1.44, 11.8 1.12" stroke="#000000" stroke-width="1" fill="none"></path></g><g stroke-linecap="round" transform="translate(225.81425666652603 676.8467504494079) rotate(0 7.301530506771769 7.924395762247514)"><path d="M6.34 -0.22 C7.85 -0.58, 8.85 0.31, 10.23 1.15 C11.61 1.99, 14 3.33, 14.63 4.82 C15.26 6.32, 14.51 8.39, 14.03 10.11 C13.54 11.84, 12.92 14.23, 11.72 15.18 C10.51 16.13, 8.51 16.17, 6.79 15.8 C5.07 15.42, 2.42 14.13, 1.4 12.94 C0.38 11.74, 0.64 10.11, 0.64 8.65 C0.64 7.18, 0.49 5.57, 1.43 4.15 C2.36 2.73, 5.06 0.69, 6.25 0.13 C7.43 -0.44, 8.54 0.57, 8.53 0.78 M10.3 0.01 C11.58 0.78, 14.06 3.34, 14.79 5.12 C15.52 6.9, 15.52 9.32, 14.68 10.69 C13.83 12.07, 10.9 12.67, 9.73 13.38 C8.57 14.09, 9.24 15.09, 7.7 14.95 C6.15 14.81, 1.51 13.73, 0.48 12.54 C-0.56 11.34, 1.47 9.6, 1.47 7.78 C1.48 5.95, -0.05 3.06, 0.51 1.59 C1.07 0.11, 3.19 -0.82, 4.82 -1.08 C6.44 -1.35, 9.35 -0.46, 10.26 0.01 C11.17 0.47, 10.15 1.57, 10.27 1.69" stroke="none" stroke-width="0" fill="#868e96"></path><path d="M3.49 1.66 C4.79 0.72, 6.9 -0.54, 8.48 -0.3 C10.05 -0.05, 11.8 1.65, 12.93 3.13 C14.07 4.61, 15.23 7, 15.29 8.59 C15.35 10.17, 14.65 11.31, 13.29 12.64 C11.92 13.96, 8.84 16.33, 7.1 16.54 C5.36 16.74, 3.95 14.85, 2.85 13.89 C1.75 12.92, 0.86 12.41, 0.51 10.75 C0.15 9.1, -0.24 5.55, 0.71 3.96 C1.67 2.37, 5.41 1.74, 6.22 1.23 C7.03 0.73, 5.7 0.79, 5.57 0.93 M9.31 -0.58 C10.77 0.06, 11.6 2.87, 12.66 4.35 C13.73 5.83, 15.66 6.94, 15.68 8.3 C15.69 9.65, 13.97 11.42, 12.76 12.5 C11.55 13.58, 10.09 14.36, 8.42 14.77 C6.75 15.19, 3.84 15.88, 2.73 14.98 C1.62 14.08, 2.32 11.25, 1.75 9.39 C1.19 7.53, -0.85 5.3, -0.65 3.82 C-0.46 2.34, 1.08 0.92, 2.91 0.5 C4.75 0.07, 9.34 1.22, 10.34 1.28 C11.34 1.33, 9.37 0.96, 8.91 0.82" stroke="#000000" stroke-width="1" fill="none"></path></g><g stroke-linecap="round" transform="translate(226.65829987441703 714.2694842007004) rotate(357.5021844865888 7.301530506771769 7.924395762247514)"><path d="M4.11 0.39 C5.61 -0.34, 8.38 0.59, 9.98 1.1 C11.59 1.61, 12.96 2.07, 13.74 3.43 C14.51 4.8, 14.78 7.55, 14.64 9.31 C14.51 11.06, 14.1 13.01, 12.91 13.98 C11.72 14.95, 9.29 14.99, 7.5 15.12 C5.72 15.25, 3.42 15.68, 2.21 14.76 C0.99 13.85, 0.3 11.47, 0.21 9.63 C0.12 7.79, 0.79 5.17, 1.66 3.71 C2.53 2.24, 4.57 1.51, 5.4 0.84 C6.23 0.16, 6.53 -0.53, 6.64 -0.33 M9.1 1.28 C10.6 1.94, 12.94 3.49, 13.88 4.63 C14.82 5.78, 15.29 6.32, 14.73 8.15 C14.17 9.98, 11.94 14.55, 10.52 15.6 C9.11 16.66, 7.7 14.52, 6.24 14.46 C4.78 14.41, 2.85 16.37, 1.76 15.29 C0.66 14.21, 0.03 10.07, -0.32 7.98 C-0.67 5.89, -1.01 4.09, -0.33 2.74 C0.35 1.39, 2.22 0.33, 3.79 -0.11 C5.36 -0.54, 7.96 -0.08, 9.09 0.15 C10.22 0.38, 10.63 1.19, 10.58 1.27" stroke="none" stroke-width="0" fill="#868e96"></path><path d="M5.75 -0.19 C6.96 -0.77, 8.02 -0.63, 9.31 0.19 C10.59 1.01, 12.6 3.07, 13.47 4.73 C14.34 6.39, 14.92 8.74, 14.52 10.14 C14.13 11.54, 12.2 12.24, 11.11 13.13 C10.01 14.03, 9.48 15.36, 7.96 15.53 C6.44 15.71, 3.18 15.23, 1.99 14.19 C0.8 13.15, 1.09 10.85, 0.81 9.29 C0.53 7.73, -0.56 6.48, 0.33 4.83 C1.21 3.19, 5.13 0.15, 6.12 -0.59 C7.11 -1.34, 6.24 0.03, 6.28 0.39 M5.6 -0.4 C7.43 -0.58, 11.02 1.33, 12.46 2.34 C13.9 3.35, 14.12 4.2, 14.25 5.68 C14.37 7.16, 13.98 9.75, 13.22 11.2 C12.45 12.65, 10.82 13.38, 9.64 14.36 C8.45 15.34, 7.6 17.56, 6.1 17.08 C4.6 16.61, 1.82 13.26, 0.63 11.5 C-0.55 9.73, -1.17 7.75, -1.01 6.49 C-0.86 5.23, 0.15 5.03, 1.56 3.96 C2.97 2.89, 6.57 0.9, 7.45 0.08 C8.33 -0.75, 7.12 -1.02, 6.86 -0.98" stroke="#000000" stroke-width="1" fill="none"></path></g><g transform="translate(139.5505189436917 754.3542212398456) rotate(0 90 23)"><text x="90" y="32" font-family="Virgil, Segoe UI Emoji" font-size="36px" fill="#000000" text-anchor="middle" style="white-space: pre;" direction="ltr">Database</text></g><g stroke-linecap="round" transform="translate(169.5505189436917 370) rotate(0 60 30)"><path d="M44.5 0.5 C54.07 -1.17, 67.5 0, 77.7 1.83 C87.91 3.65, 98.68 7.33, 105.72 11.46 C112.76 15.59, 118.35 21.37, 119.95 26.63 C121.55 31.89, 119.94 38.25, 115.32 43.01 C110.7 47.78, 101.51 52.33, 92.25 55.21 C82.99 58.09, 70.5 60.16, 59.75 60.31 C49.01 60.46, 36.82 59.24, 27.78 56.09 C18.73 52.93, 10.01 46.65, 5.5 41.38 C0.99 36.12, -0.91 29.76, 0.69 24.5 C2.28 19.24, 6.87 13.84, 15.06 9.82 C23.25 5.81, 43.2 1.89, 49.85 0.4 C56.51 -1.08, 54.8 0.48, 54.99 0.93 M76.59 1.17 C86.9 2.11, 99.64 5.57, 106.81 9.76 C113.98 13.94, 118.36 20.68, 119.61 26.27 C120.87 31.86, 118.97 38.23, 114.35 43.29 C109.74 48.36, 100.97 54.04, 91.9 56.66 C82.83 59.27, 70.9 59.2, 59.93 58.99 C48.96 58.78, 34.99 58.43, 26.08 55.4 C17.17 52.37, 10.85 45.73, 6.48 40.81 C2.11 35.89, -1.59 31.08, -0.12 25.87 C1.35 20.65, 8.13 13.71, 15.31 9.52 C22.49 5.33, 32.75 1.85, 42.96 0.73 C53.16 -0.38, 70.87 2.4, 76.53 2.81 C82.19 3.22, 77.22 2.8, 76.9 3.17" stroke="none" stroke-width="0" fill="#ced4da"></path><path d="M42.32 0.58 C51.85 -1.32, 66.58 0.06, 76.96 1.76 C87.34 3.46, 97.66 6.69, 104.62 10.78 C111.59 14.87, 116.97 21.03, 118.75 26.32 C120.52 31.6, 119.63 37.66, 115.28 42.48 C110.92 47.3, 101.71 52.32, 92.64 55.26 C83.58 58.2, 71.66 59.96, 60.9 60.12 C50.13 60.28, 37.13 59.11, 28.04 56.22 C18.96 53.32, 11.09 47.88, 6.39 42.74 C1.69 37.6, -1.64 30.68, -0.15 25.38 C1.34 20.08, 7.03 15.2, 15.33 10.92 C23.63 6.64, 42.79 1.3, 49.64 -0.31 C56.5 -1.92, 56.17 0.79, 56.44 1.25 M45.4 2.02 C55.1 0.49, 69.79 0.13, 80.27 1.71 C90.76 3.29, 101.84 6.96, 108.31 11.48 C114.79 16, 118.33 23.66, 119.14 28.83 C119.95 34, 117.91 37.98, 113.16 42.52 C108.42 47.06, 100.27 53.36, 90.67 56.09 C81.06 58.81, 66.53 59.02, 55.53 58.86 C44.54 58.7, 33.08 58.29, 24.69 55.12 C16.3 51.96, 9.33 45.2, 5.18 39.86 C1.03 34.52, -2.4 28.08, -0.21 23.08 C1.99 18.08, 10.44 13.79, 18.35 9.88 C26.27 5.97, 42.66 1.02, 47.27 -0.39 C51.88 -1.81, 45.79 0.66, 46 1.41" stroke="#000000" stroke-width="2" fill="none"></path></g><g transform="translate(186.5505189436917 387) rotate(0 43 13)"><text x="43" y="18" font-family="Virgil, Segoe UI Emoji" font-size="20px" fill="#000000" text-anchor="middle" style="white-space: pre;" direction="ltr">00:00:01</text></g><g transform="translate(169.5505189436917 430) rotate(0 58 23)"><text x="58" y="32" font-family="Virgil, Segoe UI Emoji" font-size="36px" fill="#000000" text-anchor="middle" style="white-space: pre;" direction="ltr">Timers</text></g><g transform="translate(650 430) rotate(0 172 23)"><text x="172" y="32" font-family="Virgil, Segoe UI Emoji" font-size="36px" fill="#000000" text-anchor="middle" style="white-space: pre;" direction="ltr">Pulls latest Tasks</text></g><g transform="translate(647 567.5) rotate(0 175 45.5)"><text x="175" y="32.5" font-family="Virgil, Segoe UI Emoji" font-size="36px" fill="#000000" text-anchor="middle" style="white-space: pre;" direction="ltr">Executes Workflows</text><text x="175" y="78" font-family="Virgil, Segoe UI Emoji" font-size="36px" fill="#000000" text-anchor="middle" style="white-space: pre;" direction="ltr">and Activities</text></g><g transform="translate(659 750) rotate(0 163 23)"><text x="163" y="32" font-family="Virgil, Segoe UI Emoji" font-size="36px" fill="#000000" text-anchor="middle" style="white-space: pre;" direction="ltr">Returns Commands</text></g><g transform="translate(90 110) rotate(0 145 23)"><text x="145" y="32" font-family="Virgil, Segoe UI Emoji" font-size="36px" fill="#000000" text-anchor="middle" style="white-space: pre;" direction="ltr">Starts Workflow</text></g><g transform="translate(570 90) rotate(0 137 35.5)"><text x="137" y="25.5" font-family="Virgil, Segoe UI Emoji" font-size="28px" fill="#000000" text-anchor="middle" style="white-space: pre;" direction="ltr">Registers Workflows</text><text x="137" y="61" font-family="Virgil, Segoe UI Emoji" font-size="28px" fill="#000000" text-anchor="middle" style="white-space: pre;" direction="ltr">and Activities</text></g><g transform="translate(890 90) rotate(0 48 35.5)"><text x="48" y="25.5" font-family="Virgil, Segoe UI Emoji" font-size="28px" fill="#000000" text-anchor="middle" style="white-space: pre;" direction="ltr">Starts</text><text x="48" y="61" font-family="Virgil, Segoe UI Emoji" font-size="28px" fill="#000000" text-anchor="middle" style="white-space: pre;" direction="ltr">Worker</text></g></svg>