<?xml version="1.0" encoding="UTF-8" standalone="no"?><svg xmlns="http://www.w3.org/2000/svg" xmlns:xlink="http://www.w3.org/1999/xlink" contentStyleType="text/css" height="399px" preserveAspectRatio="none" style="width:486px;height:399px;background:#FFFFFF;" version="1.1" viewBox="0 0 486 399" width="486px" zoomAndPan="magnify"><defs/><g><rect fill="#FFFFFF" height="81.832" style="stroke:#181818;stroke-width:1.0;" width="10" x="279" y="162.8281"/><rect fill="none" height="294.1953" style="stroke:#000000;stroke-width:1.5;" width="470" x="10" y="53.2969"/><line style="stroke:#181818;stroke-width:0.5;stroke-dasharray:5.0,5.0;" x1="89" x2="89" y1="36.2969" y2="364.4922"/><line style="stroke:#181818;stroke-width:0.5;stroke-dasharray:5.0,5.0;" x1="283.5" x2="283.5" y1="36.2969" y2="364.4922"/><rect fill="#E2E2F0" height="30.2969" rx="2.5" ry="2.5" style="stroke:#181818;stroke-width:0.5;" width="138" x="20" y="5"/><text fill="#000000" font-family="sans-serif" font-size="14" lengthAdjust="spacing" textLength="124" x="27" y="24.9951">Temporal Cluster</text><rect fill="#E2E2F0" height="30.2969" rx="2.5" ry="2.5" style="stroke:#181818;stroke-width:0.5;" width="138" x="20" y="363.4922"/><text fill="#000000" font-family="sans-serif" font-size="14" lengthAdjust="spacing" textLength="124" x="27" y="383.4873">Temporal Cluster</text><rect fill="#E2E2F0" height="30.2969" rx="2.5" ry="2.5" style="stroke:#181818;stroke-width:0.5;" width="67" x="250.5" y="5"/><text fill="#000000" font-family="sans-serif" font-size="14" lengthAdjust="spacing" textLength="53" x="257.5" y="24.9951">Worker</text><rect fill="#E2E2F0" height="30.2969" rx="2.5" ry="2.5" style="stroke:#181818;stroke-width:0.5;" width="67" x="250.5" y="363.4922"/><text fill="#000000" font-family="sans-serif" font-size="14" lengthAdjust="spacing" textLength="53" x="257.5" y="383.4873">Worker</text><rect fill="#FFFFFF" height="81.832" style="stroke:#181818;stroke-width:1.0;" width="10" x="279" y="162.8281"/><path d="M10,53.2969 L88,53.2969 L88,60.4297 L78,70.4297 L10,70.4297 L10,53.2969 " fill="#EEEEEE" style="stroke:#000000;stroke-width:1.5;"/><rect fill="none" height="294.1953" style="stroke:#000000;stroke-width:1.5;" width="470" x="10" y="53.2969"/><text fill="#000000" font-family="sans-serif" font-size="13" font-weight="bold" lengthAdjust="spacing" textLength="33" x="25" y="66.3638">loop</text><text fill="#000000" font-family="sans-serif" font-size="11" font-weight="bold" lengthAdjust="spacing" textLength="182" x="103" y="65.5073">[Until workflow completes]</text><line style="stroke:#181818;stroke-width:1.0;" x1="89" x2="131" y1="91.5625" y2="91.5625"/><line style="stroke:#181818;stroke-width:1.0;" x1="131" x2="131" y1="91.5625" y2="104.5625"/><line style="stroke:#181818;stroke-width:1.0;" x1="90" x2="131" y1="104.5625" y2="104.5625"/><polygon fill="#181818" points="100,100.5625,90,104.5625,100,108.5625,96,104.5625" style="stroke:#181818;stroke-width:1.0;"/><text fill="#000000" font-family="sans-serif" font-size="13" lengthAdjust="spacing" textLength="156" x="96" y="86.4966">Schedule Workflow Task</text><polygon fill="#181818" points="100,129.6953,90,133.6953,100,137.6953,96,133.6953" style="stroke:#181818;stroke-width:1.0;"/><line style="stroke:#181818;stroke-width:1.0;" x1="94" x2="283" y1="133.6953" y2="133.6953"/><text fill="#000000" font-family="sans-serif" font-size="13" lengthAdjust="spacing" textLength="142" x="106" y="128.6294">Poll for Workflow Task</text><polygon fill="#181818" points="267,158.8281,277,162.8281,267,166.8281,271,162.8281" style="stroke:#181818;stroke-width:1.0;"/><line style="stroke:#181818;stroke-width:1.0;" x1="89" x2="273" y1="162.8281" y2="162.8281"/><text fill="#000000" font-family="sans-serif" font-size="13" lengthAdjust="spacing" textLength="149" x="96" y="157.7622">Receive Workflow Task</text><line style="stroke:#181818;stroke-width:1.0;" x1="289" x2="331" y1="191.9609" y2="191.9609"/><line style="stroke:#181818;stroke-width:1.0;" x1="331" x2="331" y1="191.9609" y2="204.9609"/><line style="stroke:#181818;stroke-width:1.0;" x1="290" x2="331" y1="204.9609" y2="204.9609"/><polygon fill="#181818" points="300,200.9609,290,204.9609,300,208.9609,296,204.9609" style="stroke:#181818;stroke-width:1.0;"/><text fill="#000000" font-family="sans-serif" font-size="13" lengthAdjust="spacing" textLength="172" x="296" y="186.895">Execute Workflow function</text><polygon fill="#181818" points="100,240.6602,90,244.6602,100,248.6602,96,244.6602" style="stroke:#181818;stroke-width:1.0;"/><line style="stroke:#181818;stroke-width:1.0;" x1="94" x2="283" y1="244.6602" y2="244.6602"/><text fill="#000000" font-family="sans-serif" font-size="13" lengthAdjust="spacing" textLength="121" x="106" y="239.5942">Return Commands</text><path d="M294,217.9609 L294,257.9609 L431,257.9609 L431,227.9609 L421,217.9609 L294,217.9609 " fill="#FEFFDD" style="stroke:#181818;stroke-width:0.5;"/><path d="M421,217.9609 L421,227.9609 L431,227.9609 L421,217.9609 " fill="#FEFFDD" style="stroke:#181818;stroke-width:0.5;"/><text fill="#000000" font-family="sans-serif" font-size="13" lengthAdjust="spacing" textLength="116" x="300" y="235.0278">Workflow function</text><text fill="#000000" font-family="sans-serif" font-size="13" lengthAdjust="spacing" textLength="70" x="300" y="250.1606">terminates</text><line style="stroke:#181818;stroke-width:1.0;" x1="89" x2="131" y1="284.3594" y2="284.3594"/><line style="stroke:#181818;stroke-width:1.0;" x1="131" x2="131" y1="284.3594" y2="297.3594"/><line style="stroke:#181818;stroke-width:1.0;" x1="90" x2="131" y1="297.3594" y2="297.3594"/><polygon fill="#181818" points="100,293.3594,90,297.3594,100,301.3594,96,297.3594" style="stroke:#181818;stroke-width:1.0;"/><text fill="#000000" font-family="sans-serif" font-size="13" lengthAdjust="spacing" textLength="130" x="96" y="279.2935">Execute Commands</text><line style="stroke:#181818;stroke-width:1.0;" x1="89" x2="131" y1="326.4922" y2="326.4922"/><line style="stroke:#181818;stroke-width:1.0;" x1="131" x2="131" y1="326.4922" y2="339.4922"/><line style="stroke:#181818;stroke-width:1.0;" x1="90" x2="131" y1="339.4922" y2="339.4922"/><polygon fill="#181818" points="100,335.4922,90,339.4922,100,343.4922,96,339.4922" style="stroke:#181818;stroke-width:1.0;"/><text fill="#000000" font-family="sans-serif" font-size="13" lengthAdjust="spacing" textLength="181" x="96" y="321.4263">Record Events in the history</text><!--MD5=[097656ecd84dcf6aa1924711ad365b0a]
@startuml
participant Temporal as "Temporal Cluster"
participant Worker

loop Until workflow completes

Temporal -> Temporal: Schedule Workflow Task

Worker -> Temporal: Poll for Workflow Task
Temporal -> Worker: Receive Workflow Task

activate Worker
Worker -> Worker: Execute Workflow function
Worker -> Temporal: Return Commands
deactivate Worker
note right: Workflow function\nterminates

Temporal -> Temporal: Execute Commands
Temporal -> Temporal: Record Events in the history

end
@enduml

PlantUML version 1.2022.13beta7(Unknown compile time)
(GPL source distribution)
Java Runtime: Java(TM) SE Runtime Environment
JVM: Java HotSpot(TM) 64-Bit Server VM
Default Encoding: UTF-8
Language: en
Country: US
--></g></svg>