<?xml version="1.0" encoding="UTF-8" standalone="no"?><svg xmlns="http://www.w3.org/2000/svg" xmlns:xlink="http://www.w3.org/1999/xlink" contentStyleType="text/css" height="397px" preserveAspectRatio="none" style="width:532px;height:397px;background:#FFFFFF;" version="1.1" viewBox="0 0 532 397" width="532px" zoomAndPan="magnify"><defs/><g><rect fill="#FFFFFF" height="81.832" style="stroke:#181818;stroke-width:1.0;" width="10" x="336.5" y="167.8281"/><line style="stroke:#181818;stroke-width:0.5;stroke-dasharray:5.0,5.0;" x1="27" x2="27" y1="36.2969" y2="362.4922"/><line style="stroke:#181818;stroke-width:0.5;stroke-dasharray:5.0,5.0;" x1="146.5" x2="146.5" y1="36.2969" y2="362.4922"/><line style="stroke:#181818;stroke-width:0.5;stroke-dasharray:5.0,5.0;" x1="341" x2="341" y1="36.2969" y2="362.4922"/><rect fill="#E2E2F0" height="30.2969" rx="2.5" ry="2.5" style="stroke:#181818;stroke-width:0.5;" width="45" x="5" y="5"/><text fill="#000000" font-family="sans-serif" font-size="14" lengthAdjust="spacing" textLength="31" x="12" y="24.9951">User</text><rect fill="#E2E2F0" height="30.2969" rx="2.5" ry="2.5" style="stroke:#181818;stroke-width:0.5;" width="45" x="5" y="361.4922"/><text fill="#000000" font-family="sans-serif" font-size="14" lengthAdjust="spacing" textLength="31" x="12" y="381.4873">User</text><rect fill="#E2E2F0" height="30.2969" rx="2.5" ry="2.5" style="stroke:#181818;stroke-width:0.5;" width="138" x="77.5" y="5"/><text fill="#000000" font-family="sans-serif" font-size="14" lengthAdjust="spacing" textLength="124" x="84.5" y="24.9951">Temporal Cluster</text><rect fill="#E2E2F0" height="30.2969" rx="2.5" ry="2.5" style="stroke:#181818;stroke-width:0.5;" width="138" x="77.5" y="361.4922"/><text fill="#000000" font-family="sans-serif" font-size="14" lengthAdjust="spacing" textLength="124" x="84.5" y="381.4873">Temporal Cluster</text><rect fill="#E2E2F0" height="30.2969" rx="2.5" ry="2.5" style="stroke:#181818;stroke-width:0.5;" width="67" x="308" y="5"/><text fill="#000000" font-family="sans-serif" font-size="14" lengthAdjust="spacing" textLength="53" x="315" y="24.9951">Worker</text><rect fill="#E2E2F0" height="30.2969" rx="2.5" ry="2.5" style="stroke:#181818;stroke-width:0.5;" width="67" x="308" y="361.4922"/><text fill="#000000" font-family="sans-serif" font-size="14" lengthAdjust="spacing" textLength="53" x="315" y="381.4873">Worker</text><rect fill="#FFFFFF" height="81.832" style="stroke:#181818;stroke-width:1.0;" width="10" x="336.5" y="167.8281"/><polygon fill="#181818" points="134.5,63.4297,144.5,67.4297,134.5,71.4297,138.5,67.4297" style="stroke:#181818;stroke-width:1.0;"/><line style="stroke:#181818;stroke-width:1.0;" x1="27.5" x2="140.5" y1="67.4297" y2="67.4297"/><text fill="#000000" font-family="sans-serif" font-size="13" lengthAdjust="spacing" textLength="95" x="34.5" y="62.3638">Start Workflow</text><line style="stroke:#181818;stroke-width:1.0;" x1="146.5" x2="188.5" y1="96.5625" y2="96.5625"/><line style="stroke:#181818;stroke-width:1.0;" x1="188.5" x2="188.5" y1="96.5625" y2="109.5625"/><line style="stroke:#181818;stroke-width:1.0;" x1="147.5" x2="188.5" y1="109.5625" y2="109.5625"/><polygon fill="#181818" points="157.5,105.5625,147.5,109.5625,157.5,113.5625,153.5,109.5625" style="stroke:#181818;stroke-width:1.0;"/><text fill="#000000" font-family="sans-serif" font-size="13" lengthAdjust="spacing" textLength="156" x="153.5" y="91.4966">Schedule Workflow Task</text><polygon fill="#181818" points="157.5,134.6953,147.5,138.6953,157.5,142.6953,153.5,138.6953" style="stroke:#181818;stroke-width:1.0;"/><line style="stroke:#181818;stroke-width:1.0;" x1="151.5" x2="340.5" y1="138.6953" y2="138.6953"/><text fill="#000000" font-family="sans-serif" font-size="13" lengthAdjust="spacing" textLength="142" x="163.5" y="133.6294">Poll for Workflow Task</text><polygon fill="#181818" points="324.5,163.8281,334.5,167.8281,324.5,171.8281,328.5,167.8281" style="stroke:#181818;stroke-width:1.0;"/><line style="stroke:#181818;stroke-width:1.0;" x1="146.5" x2="330.5" y1="167.8281" y2="167.8281"/><text fill="#000000" font-family="sans-serif" font-size="13" lengthAdjust="spacing" textLength="149" x="153.5" y="162.7622">Receive Workflow Task</text><line style="stroke:#181818;stroke-width:1.0;" x1="346.5" x2="388.5" y1="196.9609" y2="196.9609"/><line style="stroke:#181818;stroke-width:1.0;" x1="388.5" x2="388.5" y1="196.9609" y2="209.9609"/><line style="stroke:#181818;stroke-width:1.0;" x1="347.5" x2="388.5" y1="209.9609" y2="209.9609"/><polygon fill="#181818" points="357.5,205.9609,347.5,209.9609,357.5,213.9609,353.5,209.9609" style="stroke:#181818;stroke-width:1.0;"/><text fill="#000000" font-family="sans-serif" font-size="13" lengthAdjust="spacing" textLength="172" x="353.5" y="191.895">Execute Workflow function</text><polygon fill="#181818" points="157.5,245.6602,147.5,249.6602,157.5,253.6602,153.5,249.6602" style="stroke:#181818;stroke-width:1.0;"/><line style="stroke:#181818;stroke-width:1.0;" x1="151.5" x2="340.5" y1="249.6602" y2="249.6602"/><text fill="#000000" font-family="sans-serif" font-size="13" lengthAdjust="spacing" textLength="121" x="163.5" y="244.5942">Return Commands</text><path d="M351,222.9609 L351,262.9609 L488,262.9609 L488,232.9609 L478,222.9609 L351,222.9609 " fill="#FEFFDD" style="stroke:#181818;stroke-width:0.5;"/><path d="M478,222.9609 L478,232.9609 L488,232.9609 L478,222.9609 " fill="#FEFFDD" style="stroke:#181818;stroke-width:0.5;"/><text fill="#000000" font-family="sans-serif" font-size="13" lengthAdjust="spacing" textLength="116" x="357" y="240.0278">Workflow function</text><text fill="#000000" font-family="sans-serif" font-size="13" lengthAdjust="spacing" textLength="70" x="357" y="255.1606">terminates</text><line style="stroke:#181818;stroke-width:1.0;" x1="146.5" x2="188.5" y1="289.3594" y2="289.3594"/><line style="stroke:#181818;stroke-width:1.0;" x1="188.5" x2="188.5" y1="289.3594" y2="302.3594"/><line style="stroke:#181818;stroke-width:1.0;" x1="147.5" x2="188.5" y1="302.3594" y2="302.3594"/><polygon fill="#181818" points="157.5,298.3594,147.5,302.3594,157.5,306.3594,153.5,302.3594" style="stroke:#181818;stroke-width:1.0;"/><text fill="#000000" font-family="sans-serif" font-size="13" lengthAdjust="spacing" textLength="130" x="153.5" y="284.2935">Execute Commands</text><line style="stroke:#181818;stroke-width:1.0;" x1="146.5" x2="188.5" y1="331.4922" y2="331.4922"/><line style="stroke:#181818;stroke-width:1.0;" x1="188.5" x2="188.5" y1="331.4922" y2="344.4922"/><line style="stroke:#181818;stroke-width:1.0;" x1="147.5" x2="188.5" y1="344.4922" y2="344.4922"/><polygon fill="#181818" points="157.5,340.4922,147.5,344.4922,157.5,348.4922,153.5,344.4922" style="stroke:#181818;stroke-width:1.0;"/><text fill="#000000" font-family="sans-serif" font-size="13" lengthAdjust="spacing" textLength="181" x="153.5" y="326.4263">Record Events in the history</text><!--MD5=[1c23b0baac02c41bb4b9c3600dc5e9ed]
@startuml
participant User
participant Temporal as "Temporal Cluster"
participant Worker

User -> Temporal: Start Workflow

Temporal -> Temporal: Schedule Workflow Task

Worker -> Temporal: Poll for Workflow Task
Temporal -> Worker: Receive Workflow Task

activate Worker
Worker -> Worker: Execute Workflow function
Worker -> Temporal: Return Commands
deactivate Worker
note right: Workflow function\nterminates

Temporal -> Temporal: Execute Commands
Temporal -> Temporal: Record Events in the history
@enduml

PlantUML version 1.2022.13beta7(Unknown compile time)
(GPL source distribution)
Java Runtime: Java(TM) SE Runtime Environment
JVM: Java HotSpot(TM) 64-Bit Server VM
Default Encoding: UTF-8
Language: en
Country: US
--></g></svg>