<svg version="1.1" xmlns="http://www.w3.org/2000/svg" viewBox="0 0 698 580" width="2094" height="1740">
  <!-- svg-source:excalidraw -->
  
  <defs>
    <style>
      @font-face {
        font-family: "Virgil";
        src: url("https://excalidraw.com/Virgil.woff2");
      }
      @font-face {
        font-family: "Cascadia";
        src: url("https://excalidraw.com/Cascadia.woff2");
      }
    </style>
  </defs>
  <g stroke-linecap="round" transform="translate(70 10) rotate(0 100 60)"><path d="M0.99 0.56 C74.28 -0.7, 146.71 2.43, 200.52 -1.51 M0.87 0.28 C74.21 -1.35, 148.84 -0.4, 200.39 -0.85 M201.17 -1.16 C199.95 36.39, 200.72 75.51, 201.93 119.29 M199.05 -0.13 C199.85 40.18, 199.4 80.9, 199.28 119.74 M200.39 118.9 C150.11 118.21, 101.28 121.17, -1.78 118.35 M200.71 119.57 C132.52 120.89, 65.06 119.84, 0.63 120.81 M1.37 118.53 C2.59 95.77, -0.16 68.42, -0.49 0.04 M-0.87 120.63 C0.37 78.86, -0.81 36.47, -0.7 0.9" stroke="#000000" stroke-width="2" fill="none"></path></g><g transform="translate(104.5 34) rotate(0 65.5 36)"><text x="65.5" y="25" font-family="Virgil, Segoe UI Emoji" font-size="28px" fill="#000000" text-anchor="middle" style="white-space: pre;" direction="ltr">Workflow </text><text x="65.5" y="61" font-family="Virgil, Segoe UI Emoji" font-size="28px" fill="#000000" text-anchor="middle" style="white-space: pre;" direction="ltr">Definition</text></g><g stroke-linecap="round" transform="translate(70 230) rotate(0 100 60)"><path d="M-1.63 -1.26 C70.96 1.91, 137.42 2.98, 198.46 -0.18 M0.21 -0.33 C65.05 -1.12, 131.19 -0.63, 200.22 -0.09 M200.78 0.46 C201.84 33.72, 198.94 67.65, 198.2 121.89 M199.12 -0.34 C201.55 28.1, 200.94 56.32, 199.56 119.82 M200.41 120.35 C149.16 120.4, 102.61 119.31, -0.22 121.58 M200.39 119.91 C150.23 118.33, 102.71 118.9, 0.77 120.14 M0.53 118.97 C-0.48 70.62, 0.45 23.76, -1.74 0.15 M0.96 120.94 C-1.08 74.74, -0.31 31.47, 0.22 0.41" stroke="#000000" stroke-width="2" fill="none"></path></g><g transform="translate(111.5 254) rotate(0 58.5 36)"><text x="58.5" y="25" font-family="Virgil, Segoe UI Emoji" font-size="28px" fill="#000000" text-anchor="middle" style="white-space: pre;" direction="ltr">Workflow</text><text x="58.5" y="61" font-family="Virgil, Segoe UI Emoji" font-size="28px" fill="#000000" text-anchor="middle" style="white-space: pre;" direction="ltr">Type</text></g><g stroke-linecap="round" transform="translate(70 450) rotate(0 100 60)"><path d="M-1.78 1.1 C51.6 1.31, 100.92 0.26, 201.37 -1.79 M0.62 -0.66 C57.98 0.89, 114.5 0.62, 200.88 0.21 M200.28 1.85 C200.72 45.2, 199.88 90.59, 200.62 118.78 M200.21 0.31 C201.05 26.48, 199.26 50.34, 199.94 120.52 M200.03 121.78 C135.11 117.19, 71.35 118.65, -0.6 121.02 M199.18 120.32 C135.58 120.95, 69.85 119.82, -0.2 119.86 M-0.99 119.45 C2.41 95.2, 0.02 67.73, -1.09 0.49 M0.29 119.74 C-0.84 73.55, 0.18 25.78, 0.47 -0.76" stroke="#000000" stroke-width="2" fill="none"></path></g><g transform="translate(104 474) rotate(0 66 36)"><text x="66" y="25" font-family="Virgil, Segoe UI Emoji" font-size="28px" fill="#000000" text-anchor="middle" style="white-space: pre;" direction="ltr">Workflow </text><text x="66" y="61" font-family="Virgil, Segoe UI Emoji" font-size="28px" fill="#000000" text-anchor="middle" style="white-space: pre;" direction="ltr">Execution</text></g><g stroke-linecap="round" transform="translate(430 10) rotate(0 100.5 60)"><path d="M-0.08 0.15 C68.88 0.66, 137.67 -1.31, 201.37 -1.1 M-0.69 0.86 C67.33 1.24, 133.77 0.94, 201.8 -0.79 M200.56 -0.46 C200.17 37.02, 200.04 75.33, 200.09 119.21 M200.84 0.84 C201.16 34.69, 200.06 70.5, 201.59 120.84 M202.77 118.66 C126.49 121.03, 54.38 121.33, 1.7 121.41 M201.37 119.48 C146.29 121.49, 93.42 121.5, -0.89 119.65 M-1.7 118.2 C2.64 95.92, -0.66 69.73, -0.33 -0.65 M0.9 120.97 C0.5 82.47, 0.87 44.7, -0.51 0.47" stroke="#000000" stroke-width="2" fill="none"></path></g><g transform="translate(465.5 34) rotate(0 64.5 36)"><text x="64.5" y="25" font-family="Virgil, Segoe UI Emoji" font-size="28px" fill="#000000" text-anchor="middle" style="white-space: pre;" direction="ltr">Activity </text><text x="64.5" y="61" font-family="Virgil, Segoe UI Emoji" font-size="28px" fill="#000000" text-anchor="middle" style="white-space: pre;" direction="ltr">Definition</text></g><g stroke-linecap="round" transform="translate(430 230) rotate(0 100 60)"><path d="M1.41 0.24 C58.59 0.21, 117.22 0.46, 200.9 -1.07 M0.18 -0.88 C44.6 0.78, 88.65 0.14, 199.55 0.02 M199 -0.37 C199.02 32.44, 198.94 66.55, 198.62 121.16 M199.62 -0.11 C201.34 34.64, 201.84 68.76, 200.27 120.76 M199.66 120.58 C120.26 120.79, 42.02 118.51, -1.2 121.07 M200.41 120.11 C132.28 117.38, 63.36 117.44, -0.64 120.32 M0.81 118.49 C0.59 93.86, 0.43 68.6, -1.43 -1.57 M-0.31 120.01 C-2.01 72.64, -0.7 25.44, 1 -0.81" stroke="#000000" stroke-width="2" fill="none"></path></g><g transform="translate(477.5 254) rotate(0 52.5 36)"><text x="52.5" y="25" font-family="Virgil, Segoe UI Emoji" font-size="28px" fill="#000000" text-anchor="middle" style="white-space: pre;" direction="ltr">Activity</text><text x="52.5" y="61" font-family="Virgil, Segoe UI Emoji" font-size="28px" fill="#000000" text-anchor="middle" style="white-space: pre;" direction="ltr">Type</text></g><g stroke-linecap="round" transform="translate(430 450) rotate(0 100 60)"><path d="M0.38 -1.1 C76.24 1.47, 150.16 -0.81, 201.72 0.02 M0.8 -0.79 C64.06 -0.19, 127.83 0.06, 199.79 -0.1 M199.09 -0.79 C199.63 28.6, 200.94 59.62, 201.67 121.97 M200.59 0.84 C200.53 31.66, 200.63 63.77, 199.26 119.49 M201.7 121.41 C143.19 118.76, 88.61 120.69, -1.04 118.27 M199.11 119.65 C129.95 120.22, 61.89 120.09, -0.81 120.81 M-0.33 119.35 C1.11 77.74, -0.66 40.15, 1.94 -0.71 M-0.51 120.47 C-0.88 88.66, -0.83 55.61, -0.38 0.89" stroke="#000000" stroke-width="2" fill="none"></path></g><g transform="translate(464 474) rotate(0 66 36)"><text x="66" y="25" font-family="Virgil, Segoe UI Emoji" font-size="28px" fill="#000000" text-anchor="middle" style="white-space: pre;" direction="ltr">Activity </text><text x="66" y="61" font-family="Virgil, Segoe UI Emoji" font-size="28px" fill="#000000" text-anchor="middle" style="white-space: pre;" direction="ltr">Execution</text></g><g stroke-linecap="round"><g transform="translate(170 230) rotate(0 0.1730696503072977 -49.754910016432405)"><path d="M-0.92 1.72 C0.8 -27.55, -1.45 -55.93, 1.27 -101.23 M-0.5 -0.43 C-0.41 -30.14, 0 -60.9, -0.03 -99.86" stroke="#000000" stroke-width="2" fill="none"></path></g><g transform="translate(170 230) rotate(0 0.1730696503072977 -49.754910016432405)"><path d="M9.25 -69.93 C8.62 -79.35, 3.54 -87.84, 1.24 -101.09 M9.67 -72.08 C7.23 -80.26, 4.56 -89.42, -0.05 -99.72" stroke="#000000" stroke-width="2" fill="none"></path></g><g transform="translate(170 230) rotate(0 0.1730696503072977 -49.754910016432405)"><path d="M-11.27 -69.97 C-6.22 -79.33, -5.61 -87.82, 1.24 -101.09 M-10.85 -72.12 C-7.12 -80.13, -3.61 -89.27, -0.05 -99.72" stroke="#000000" stroke-width="2" fill="none"></path></g></g><g stroke-linecap="round"><g transform="translate(170 450) rotate(0 -0.21832366125988756 -49.56006530066952)"><path d="M-1 -0.86 C-0.07 -30.18, 0.74 -61.61, -0.05 -99.72 M-0.31 0.6 C0.88 -39.1, 0.87 -79.65, -0.47 -99.38" stroke="#000000" stroke-width="2" fill="none"></path></g><g transform="translate(170 450) rotate(0 -0.21832366125988756 -49.56006530066952)"><path d="M9.84 -72.46 C7.89 -80.13, 5.3 -89.84, -0.52 -99.1 M10.53 -71 C6.78 -82.17, 2.3 -94.11, -0.94 -98.77" stroke="#000000" stroke-width="2" fill="none"></path></g><g transform="translate(170 450) rotate(0 -0.21832366125988756 -49.56006530066952)"><path d="M-10.67 -71.69 C-6.45 -79.43, -2.87 -89.37, -0.52 -99.1 M-9.98 -70.23 C-5.6 -81.54, -1.95 -93.78, -0.94 -98.77" stroke="#000000" stroke-width="2" fill="none"></path></g></g><g stroke-linecap="round"><g transform="translate(530 230) rotate(0 -0.37437004409730434 -50.884338727686554)"><path d="M-1.25 -1.63 C-0.76 -28.56, 0.36 -58.44, 0.5 -100.8 M0.49 -0.97 C-1.51 -25.83, -1.31 -50.8, -0.28 -99.08" stroke="#000000" stroke-width="2" fill="none"></path></g><g transform="translate(530 230) rotate(0 -0.37437004409730434 -50.884338727686554)"><path d="M8.23 -72.34 C5.92 -77.86, 4.13 -86.44, 0.22 -99.88 M9.97 -71.68 C5.95 -78.4, 3.68 -85.26, -0.56 -98.15" stroke="#000000" stroke-width="2" fill="none"></path></g><g transform="translate(530 230) rotate(0 -0.37437004409730434 -50.884338727686554)"><path d="M-12.28 -72.7 C-8.49 -78.31, -4.18 -86.78, 0.22 -99.88 M-10.55 -72.04 C-9.38 -78.7, -6.46 -85.47, -0.56 -98.15" stroke="#000000" stroke-width="2" fill="none"></path></g></g><g stroke-linecap="round"><g transform="translate(530 450) rotate(0 -0.24049167787563874 -49.13744900841266)"><path d="M0.97 -1.93 C-2.39 -26.36, -1.99 -51.02, -0.56 -98.15 M0.98 0.75 C0.14 -36.51, 1.79 -73.45, 0.83 -99.03" stroke="#000000" stroke-width="2" fill="none"></path></g><g transform="translate(530 450) rotate(0 -0.24049167787563874 -49.13744900841266)"><path d="M12.38 -72.89 C6.79 -79.11, 4.51 -85.57, 0.26 -97.18 M12.4 -70.21 C6.94 -81.06, 4.7 -91.51, 1.65 -98.05" stroke="#000000" stroke-width="2" fill="none"></path></g><g transform="translate(530 450) rotate(0 -0.24049167787563874 -49.13744900841266)"><path d="M-8.14 -72.65 C-8.55 -78.96, -5.63 -85.48, 0.26 -97.18 M-8.12 -69.97 C-6.02 -80.74, -0.7 -91.28, 1.65 -98.05" stroke="#000000" stroke-width="2" fill="none"></path></g></g><g stroke-linecap="round"><g transform="translate(270 70) rotate(0 79.53506260050938 110.2643919876964)"><path d="M-1.26 1.54 C65.12 86.22, 127.24 175.13, 160.33 221.29 M-0.1 -0.76 C62.19 88.94, 126.14 175.25, 159.96 219.35" stroke="#000000" stroke-width="2" fill="none"></path></g><g transform="translate(270 70) rotate(0 79.53506260050938 110.2643919876964)"><path d="M133.18 204.98 C146.29 207.97, 155.31 217.69, 160.39 221 M134.68 202.04 C144.55 210.53, 155.02 215.59, 159.91 218.51" stroke="#000000" stroke-width="2" fill="none"></path></g><g transform="translate(270 70) rotate(0 79.53506260050938 110.2643919876964)"><path d="M149.57 192.63 C156.33 200.3, 158.92 214.87, 160.39 221 M151.06 189.69 C154.33 202.97, 158.29 212.94, 159.91 218.51" stroke="#000000" stroke-width="2" fill="none"></path></g></g><g stroke-linecap="round"><g transform="translate(270 510) rotate(0 79.793386394158 -1.8998306283303918)"><path d="M0.69 -1.15 C32.34 -3.04, 63.83 -3.04, 158.89 -1.75" stroke="#000000" stroke-width="2.5" fill="none" stroke-dasharray="8 10"></path></g><g transform="translate(270 510) rotate(0 79.793386394158 -1.8998306283303918)"><path d="M131.28 7.05 C136.24 4.26, 141.03 2.24, 157.79 -3.49" stroke="#000000" stroke-width="2.5" fill="none"></path></g><g transform="translate(270 510) rotate(0 79.793386394158 -1.8998306283303918)"><path d="M131.52 -13.47 C136.4 -12.1, 141.14 -9.95, 157.79 -3.49" stroke="#000000" stroke-width="2.5" fill="none"></path></g></g><g transform="translate(297.77197121583185 137.38430581961575) rotate(51.857974255811875 69 18)"><text x="0" y="25" font-family="Virgil, Segoe UI Emoji" font-size="28px" fill="#000000" text-anchor="start" style="white-space: pre;" direction="ltr">Refers to</text></g><g transform="translate(290 470) rotate(0 46.5 18)"><text x="0" y="25" font-family="Virgil, Segoe UI Emoji" font-size="28px" fill="#000000" text-anchor="start" style="white-space: pre;" direction="ltr">Awaits</text></g><g transform="translate(550 170) rotate(0 67 18)"><text x="0" y="25" font-family="Virgil, Segoe UI Emoji" font-size="28px" fill="#000000" text-anchor="start" style="white-space: pre;" direction="ltr">Identifies</text></g><g transform="translate(10 170) rotate(0 67 18)"><text x="0" y="25" font-family="Virgil, Segoe UI Emoji" font-size="28px" fill="#000000" text-anchor="start" style="white-space: pre;" direction="ltr">Identifies</text></g><g transform="translate(550 390) rotate(0 69 18)"><text x="0" y="25" font-family="Virgil, Segoe UI Emoji" font-size="28px" fill="#000000" text-anchor="start" style="white-space: pre;" direction="ltr">Refers to</text></g><g transform="translate(10 390) rotate(0 69 18)"><text x="0" y="25" font-family="Virgil, Segoe UI Emoji" font-size="28px" fill="#000000" text-anchor="start" style="white-space: pre;" direction="ltr">Refers to</text></g></svg>